<svg xmlns="http://www.w3.org/2000/svg" width="544" height="409.08" viewBox="0 0 544 409.08">
  <g id="Grupo_8890" data-name="Grupo 8890" transform="translate(-88.626 2200.885)">
    <path id="Trazado_20334" data-name="Trazado 20334" d="M632.626-1532.413c0-12.7-121.779-22.989-272-22.989s-272,10.292-272,22.989,121.779,22.989,272,22.989S632.626-1519.716,632.626-1532.413Z" transform="translate(0 -282.381)" fill="#d6d0d0"/>
    <g id="Grupo_8844" data-name="Grupo 8844" transform="translate(318.062 -2098.175)">
      <rect id="Rectángulo_1967" data-name="Rectángulo 1967" width="15.478" height="60.545" transform="translate(50.872 105.158)" fill="#333"/>
      <path id="Rectángulo_1968" data-name="Rectángulo 1968" d="M41.266,0H47.5A41.266,41.266,0,0,1,88.77,41.266v64.79A13.214,13.214,0,0,1,75.556,119.27H13.214A13.214,13.214,0,0,1,0,106.057V41.266A41.266,41.266,0,0,1,41.266,0Z" transform="translate(12.747 0)" fill="#726e6d"/>
      <path id="Trazado_20335" data-name="Trazado 20335" d="M691.12-1833.751a3.273,3.273,0,0,0-3.273-3.273H676.184a3.273,3.273,0,0,0-3.273,3.273h0a1.279,1.279,0,0,0,1.279,1.279h0a2.362,2.362,0,0,1,2.362,2.363v46.347h5.463v-44.03a4.68,4.68,0,0,1,4.68-4.68h3.146a1.279,1.279,0,0,0,1.279-1.279Z" transform="translate(-573.67 1938.995)" fill="#333"/>
      <path id="Trazado_20336" data-name="Trazado 20336" d="M496.492-1833.751a3.273,3.273,0,0,1,3.273-3.273h11.663a3.273,3.273,0,0,1,3.273,3.273h0a1.279,1.279,0,0,1-1.279,1.279h0a2.362,2.362,0,0,0-2.363,2.363v46.347H505.6v-44.03a4.68,4.68,0,0,0-4.68-4.68h-3.145a1.279,1.279,0,0,1-1.28-1.279Z" transform="translate(-496.492 1938.995)" fill="#333"/>
      <path id="Rectángulo_1969" data-name="Rectángulo 1969" d="M16.345,0H82.894A16.346,16.346,0,0,1,99.24,16.346v4.8A4.343,4.343,0,0,1,94.9,25.493H4.342A4.342,4.342,0,0,1,0,21.151V16.345A16.345,16.345,0,0,1,16.345,0Z" transform="translate(9.105 132.927)" fill="#726e6d"/>
      <path id="Trazado_20337" data-name="Trazado 20337" d="M512.678-1748.005v1.7a4.67,4.67,0,0,0,4.67,4.671h89.9a4.671,4.671,0,0,0,4.671-4.671v-1.7Z" transform="translate(-503.573 1900.052)" fill="#333"/>
      <rect id="Rectángulo_1970" data-name="Rectángulo 1970" width="7.739" height="89.68" transform="translate(54.741 162.062)" fill="#333"/>
      <path id="Trazado_20338" data-name="Trazado 20338" d="M676.6-1547.891a7.512,7.512,0,0,0-7.511-7.511,7.511,7.511,0,0,0-7.511,7.511,7.511,7.511,0,0,0,7.511,7.511A7.512,7.512,0,0,0,676.6-1547.891Z" transform="translate(-568.714 1815.793)" fill="#726e6d"/>
      <path id="Trazado_20339" data-name="Trazado 20339" d="M533.365-1545.463a7.511,7.511,0,0,0-7.511-7.511,7.511,7.511,0,0,0-7.511,7.511,7.512,7.512,0,0,0,7.511,7.511A7.512,7.512,0,0,0,533.365-1545.463Z" transform="translate(-506.051 1814.731)" fill="#726e6d"/>
      <path id="Trazado_20340" data-name="Trazado 20340" d="M613.032-1565.972l-46.187-10.415-.248-.055h-6.526l-43.129,13.764-.218.348v8.071a2.4,2.4,0,0,0,2.4,2.4h0a9.892,9.892,0,0,0,9.892-9.892h0l31.765-10.138h5.31l36.217,8.167h0a8.222,8.222,0,0,0,8.222,8.221h1.566a2.5,2.5,0,0,0,2.5-2.5v-6.4a1.567,1.567,0,0,0-1.567-1.567Z" transform="translate(-505.343 1824.998)" fill="#333"/>
    </g>
    <path id="Trazado_20341" data-name="Trazado 20341" d="M251.9-1670.08a1.142,1.142,0,0,1-.655-.207,1.138,1.138,0,0,1-.483-.931v-214.907h2.277v213.29l23.5-8.427v-215.646h2.276v216.447a1.138,1.138,0,0,1-.754,1.072l-25.779,9.244A1.149,1.149,0,0,1,251.9-1670.08Z" transform="translate(-70.929 -132.981)" fill="#333"/>
    <path id="Trazado_20342" data-name="Trazado 20342" d="M881.83-1668.649a1.13,1.13,0,0,1-.33-.05l-30.291-9.183a1.139,1.139,0,0,1-.808-1.09v-215.038h2.276v214.195l28.015,8.493V-1883.3h2.276v213.508a1.138,1.138,0,0,1-.46.914A1.141,1.141,0,0,1,881.83-1668.649Z" transform="translate(-333.256 -134.25)" fill="#333"/>
    <path id="Trazado_20343" data-name="Trazado 20343" d="M567.559-1618.767l3.555,11.375s4.977,1.422,6.754,4.621-.356,23.106,0,26.661,1.067,23.461-10.309,25.594-12.441-4.977-11.73-7.82,4.976-29.86,2.488-41.236a158.558,158.558,0,0,0-6.043-20.618Z" transform="translate(-202.833 -254.039)" fill="#ffa08b"/>
    <path id="Trazado_20344" data-name="Trazado 20344" d="M432.517-1673.7l-9.6,18.129s1.422,15.286,0,17.063-13.508,2.133-19.551,4.976-29.86,9.6-36.614,0,4.621-10.309,8.887-12.086,28.794-14.93,31.282-17.419,13.863-20.973,13.863-20.973Z" transform="translate(-120.757 -226.117)" fill="#ffa08b"/>
    <path id="Trazado_20345" data-name="Trazado 20345" d="M408.167-1631.008c-3.628-.227-6.53-4.645-8.159-7.818-8.328,4.837-21.365,11.721-24.368,12.973-4.266,1.777-15.641,2.488-8.887,12.086s30.571,2.844,36.614,0,18.129-3.2,19.551-4.976c1.005-1.257.589-9.268.259-13.853C418.024-1631.745,411.387-1630.807,408.167-1631.008Z" transform="translate(-120.757 -245.885)" fill="#627596"/>
    <path id="Trazado_20346" data-name="Trazado 20346" d="M405.64-1605.516c-6.4,2.844-31.612,9.6-38.763,0a14.262,14.262,0,0,1-1.609-2.655c-1.022,1.611-.9,3.89,1.486,7.276,6.754,9.6,30.571,2.844,36.614,0s18.129-3.2,19.551-4.976a7.928,7.928,0,0,0,.6-3.529C419.029-1608.4,410.495-1607.673,405.64-1605.516Z" transform="translate(-120.758 -258.759)" fill="#f6ebe3"/>
    <path id="Trazado_20347" data-name="Trazado 20347" d="M580.5-1566.075c-.356-3.555,1.778-23.461,0-26.661-1.5-2.7-5.269-4.13-6.417-4.514.452,4.032,1.6,15.85-.16,18.2-1.984,2.646-7.968,1.292-12.227,1.091a202.323,202.323,0,0,1-3.236,29.658c-.711,2.844.355,9.953,11.73,7.82S580.855-1562.52,580.5-1566.075Z" transform="translate(-205.465 -264.074)" fill="#627596"/>
    <g id="Grupo_8845" data-name="Grupo 8845" transform="translate(352.824 -1828.951)">
      <path id="Trazado_20348" data-name="Trazado 20348" d="M570.19-1520.636c-7.391,1.386-10.428-1.13-11.455-3.843-.117.632-.211,1.095-.276,1.355-.711,2.844.355,9.953,11.73,7.82,10.436-1.956,10.7-18.872,10.4-24.4C580.224-1532.487,578.214-1522.141,570.19-1520.636Z" transform="translate(-558.289 1539.701)" fill="#f6ebe3"/>
    </g>
    <path id="Trazado_20349" data-name="Trazado 20349" d="M557.571-1881.175s4.266,13.864,4.976,14.574,3.2,4.266,2.844,5.688,1.422,8.531,1.422,8.531,11.02,28.083-10.309,35.192-31.282,2.133-31.282,2.133l-10.664,3.2s1.777,0,1.777,1.066a19.129,19.129,0,0,0,.355,2.844s3.2,13.153,5.688,26.661,1.778,40.524,3.911,41.591,3.2,6.042,2.844,6.754-16.352,8.887-25.239,8.176l-17.419-53.322-13.508,23.817s-6.754.355-10.664-.711-11.375-12.8-14.93-12.8c0,0,6.754-15.285,7.465-19.907s20.617-67.54,27.016-71.451,11.02-3.91,11.02-3.91l4.977-17.063Z" transform="translate(-156.942 -139.864)" fill="#3b3348"/>
    <g id="Grupo_8846" data-name="Grupo 8846" transform="translate(309.184 -2020.981)">
      <path id="Trazado_20350" data-name="Trazado 20350" d="M516.708-1747.9a.222.222,0,0,1-.092-.02.228.228,0,0,1-.116-.3c.185-.416,18.466-41.611,18.466-47.186v-17.063a.227.227,0,0,1,.227-.227.227.227,0,0,1,.228.227v17.063c0,5.671-17.749,45.671-18.5,47.371A.228.228,0,0,1,516.708-1747.9Z" transform="translate(-496.358 1851.16)" fill="#627595"/>
      <path id="Trazado_20351" data-name="Trazado 20351" d="M569.489-1769.723a.226.226,0,0,1-.087-.017c-7.723-3.176-19.533-7.875-20.587-7.875h-.028a.228.228,0,0,1-.227-.216.227.227,0,0,1,.215-.239c1.367-.082,18.814,7.091,20.8,7.907a.229.229,0,0,1,.124.3A.228.228,0,0,1,569.489-1769.723Z" transform="translate(-510.392 1836.01)" fill="#627595"/>
      <path id="Trazado_20352" data-name="Trazado 20352" d="M549.568-1792.14a.225.225,0,0,1-.126-.038.227.227,0,0,1-.063-.316c2.789-4.182,4.923-12.99,4.945-13.08a.226.226,0,0,1,.275-.168.228.228,0,0,1,.168.275c-.021.089-2.175,8.975-5.009,13.226A.227.227,0,0,1,549.568-1792.14Z" transform="translate(-510.734 1848.119)" fill="#627595"/>
      <path id="Trazado_20353" data-name="Trazado 20353" d="M596.334-1835.288a.228.228,0,0,1-.138-.047c-.163-.124-16.43-12.428-26.915-14.176-10.519-1.752-40.88-.015-41.185,0a.221.221,0,0,1-.24-.214.227.227,0,0,1,.214-.241c.306-.018,30.719-1.76,41.286,0,10.6,1.766,26.952,14.138,27.117,14.263a.228.228,0,0,1,.043.319A.227.227,0,0,1,596.334-1835.288Z" transform="translate(-501.334 1867.805)" fill="#627595"/>
      <path id="Trazado_20354" data-name="Trazado 20354" d="M634.873-1838.16a.226.226,0,0,1-.14-.048c-.044-.034-4.558-3.43-20.225-6.466a.228.228,0,0,1-.18-.267.231.231,0,0,1,.267-.181c15.81,3.064,20.237,6.413,20.417,6.554a.227.227,0,0,1,.04.319A.226.226,0,0,1,634.873-1838.16Z" transform="translate(-539.162 1865.345)" fill="#627595"/>
      <path id="Trazado_20355" data-name="Trazado 20355" d="M497.118-1723.614a.209.209,0,0,1-.058-.008.227.227,0,0,1-.162-.278l15.286-58.3a.226.226,0,0,1,.278-.163.227.227,0,0,1,.162.278l-15.286,58.3A.227.227,0,0,1,497.118-1723.614Z" transform="translate(-487.788 1837.891)" fill="#627595"/>
      <path id="Trazado_20356" data-name="Trazado 20356" d="M558.435-1759.538a15.687,15.687,0,0,1-7.718-2.183.227.227,0,0,1-.082-.311.226.226,0,0,1,.311-.082,14.961,14.961,0,0,0,8.041,2.1.225.225,0,0,1,.247.206.228.228,0,0,1-.206.247C558.994-1759.556,558.785-1759.538,558.435-1759.538Z" transform="translate(-511.287 1829.044)" fill="#627595"/>
      <path id="Trazado_20357" data-name="Trazado 20357" d="M551.949-1753.608a3.4,3.4,0,0,1-1.2-.2.226.226,0,0,1-.133-.293.226.226,0,0,1,.293-.133c2.695,1.011,7.909-2.777,7.962-2.815a.227.227,0,0,1,.318.05.227.227,0,0,1-.049.318C558.949-1756.537,554.915-1753.608,551.949-1753.608Z" transform="translate(-511.286 1826.833)" fill="#627595"/>
      <path id="Trazado_20358" data-name="Trazado 20358" d="M567.382-1706.632a.227.227,0,0,1-.191-.1L551.905-1730.2a.228.228,0,0,1,.067-.315.227.227,0,0,1,.315.067l15.286,23.461a.228.228,0,0,1-.066.315A.23.23,0,0,1,567.382-1706.632Z" transform="translate(-511.84 1815.221)" fill="#627595"/>
      <path id="Trazado_20359" data-name="Trazado 20359" d="M570.94-1861.85a.213.213,0,0,1-.227-.228l.064-14.851a.228.228,0,0,1,.228-.227h0a.227.227,0,0,1,.227.228l-.064,14.851A.227.227,0,0,1,570.94-1861.85Z" transform="translate(-520.083 1879.358)" fill="#627595"/>
      <path id="Trazado_20360" data-name="Trazado 20360" d="M579.269-1861.833a.228.228,0,0,1-.228-.227v-14.869a.228.228,0,0,1,.228-.227.228.228,0,0,1,.228.227v14.869A.228.228,0,0,1,579.269-1861.833Z" transform="translate(-523.727 1879.358)" fill="#627595"/>
      <path id="Trazado_20361" data-name="Trazado 20361" d="M634.008-1866.259c-4.292,0-15.959-1.26-19.675-14.522a.228.228,0,0,1,.157-.281.227.227,0,0,1,.281.158c4.456,15.9,20.622,14.142,20.786,14.123a.231.231,0,0,1,.253.2.228.228,0,0,1-.2.253A15.369,15.369,0,0,1,634.008-1866.259Z" transform="translate(-539.162 1881.07)" fill="#627595"/>
      <path id="Trazado_20362" data-name="Trazado 20362" d="M531.4-1867.061a3.853,3.853,0,0,1-.853-.08.227.227,0,0,1-.168-.274.228.228,0,0,1,.274-.169c.07.015,6.988,1.458,11.826-12.219a.229.229,0,0,1,.291-.139.228.228,0,0,1,.138.291C538.873-1868.251,533.474-1867.061,531.4-1867.061Z" transform="translate(-502.435 1880.582)" fill="#627595"/>
      <path id="Trazado_20363" data-name="Trazado 20363" d="M643.411-1849.133a.228.228,0,0,1-.1-.024,16,16,0,0,0-2.018-.417,66.177,66.177,0,0,1-12.181-3.13.227.227,0,0,1-.129-.295.227.227,0,0,1,.294-.129,65.788,65.788,0,0,0,12.1,3.105,12.916,12.916,0,0,1,2.142.458.228.228,0,0,1,.1.305A.227.227,0,0,1,643.411-1849.133Z" transform="translate(-545.567 1868.853)" fill="#627595"/>
      <path id="Trazado_20364" data-name="Trazado 20364" d="M480.937-1742.911a.226.226,0,0,1-.185-.094.228.228,0,0,1,.051-.318c5.665-4.1,15.2-19.8,28.439-71.309.807-3.14.816-3.149.9-3.231a8.23,8.23,0,0,0,.531-1.151,14.3,14.3,0,0,1,2.313-4.181c.843-.843,1.026-2.693,1.22-4.654a24.307,24.307,0,0,1,.5-3.416c.389-1.557.478-1.809,1.145-1.763a2.821,2.821,0,0,0,1.807-.512c1.009-.576,7.754,1.281,19.583,4.619,14.855,4.191,35.2,9.93,38.346,7.831,5.135-3.423,3.5-17.43,2.759-19.277-.708-1.77-4.027-14.344-4.168-14.879a.228.228,0,0,1,.162-.278.226.226,0,0,1,.278.162c.035.131,3.453,13.082,4.15,14.827.6,1.509,2.668,16.094-2.929,19.825-3.322,2.217-22.952-3.322-38.723-7.772-9.429-2.66-18.337-5.175-19.233-4.662a3.221,3.221,0,0,1-2.067.57c-.276-.021-.308-.024-.669,1.42a24.041,24.041,0,0,0-.487,3.351c-.2,2.043-.393,3.973-1.351,4.931a14.044,14.044,0,0,0-2.215,4.033,6.616,6.616,0,0,1-.6,1.266c-.076.2-.386,1.41-.809,3.055-10.659,41.459-20.286,65.537-28.614,71.565A.226.226,0,0,1,480.937-1742.911Z" transform="translate(-480.709 1869.899)" fill="#627595"/>
    </g>
    <g id="Grupo_8850" data-name="Grupo 8850" transform="translate(285.886 -2173.055)">
      <path id="Trazado_20365" data-name="Trazado 20365" d="M534.538-2137.39c4.689,4.7,7.258,11.078,9.279,17.4,1.631,5.1,3.093,10.494,6.674,14.479,5.136,5.715,13.512,7.325,19.34,12.333,4.02,3.454,6.553,8.282,9,12.985a17.982,17.982,0,0,0,3.864,5.572c1.04.9,2.272,1.541,3.353,2.387,3.626,2.835,5.2,7.7,5.078,12.3s-1.7,9.028-3.385,13.311c-.941,2.388-1.981,4.85-3.909,6.544a11.417,11.417,0,0,1-5.053,2.4c-7.684,1.747-15.507-1.777-22.435-5.529a251.888,251.888,0,0,1-25.434-15.8c-3.25-2.3-6.521-4.71-10.321-5.9-7.183-2.24-15.913-.023-21.755-4.766-5.732-4.653-5.435-13.239-6.441-20.552-1.166-8.468-4.731-16.643-4.433-25.185a28.478,28.478,0,0,1,8.491-19.186C505.68-2143.583,524.735-2147.212,534.538-2137.39Z" transform="translate(-460.575 2147.84)" fill="#87554a"/>
      <path id="Trazado_20366" data-name="Trazado 20366" d="M564.911-2049.739l-2.4-.431a12.688,12.688,0,0,1-8.788-6.217l-9.333-16.413-15.022,2.75,1.9,22.215-5.712,1.057-3.385,16.5,8.04,14.81h24.119c1.27,0,12.695-5.924,12.695-6.771S564.911-2049.739,564.911-2049.739Z" transform="translate(-475.551 2117.021)" fill="#ffa08b"/>
      <path id="Trazado_20367" data-name="Trazado 20367" d="M538.317-1983.8s10.384,3.532,12.5,3.532,19.774-6.28,19.774-6.28l-2,18.974-16.5,7.617-11.848-6.347Z" transform="translate(-482.613 2079.29)" fill="#f5dfd4"/>
      <path id="Trazado_20368" data-name="Trazado 20368" d="M513.315-1983.942s17.772-24.965,15.656-48.239c0,0,13.118,2.962,14.81,2.539s9.309.846,13.118,4.231,4.654,5.5,4.654,5.5.424-.423,2.539.847,1.269,1.269,1.693,2.539,2.539,1.27,3.385,2.539,0,4.654,0,4.654,20.522,20.523,22.215,24.754,5.315,21.43-1.786,23.2-15.986-2.464-15.986-2.464l-6.771-14.81-9.309-8.04s-.423,2.116-1.269,5.078A52.121,52.121,0,0,0,555-1974s1.693,11,1.693,13.118.846,16.926.846,16.926l-1.4.906s-14.253-1.753-22.292-3.445-24.542-2.539-24.542-2.539l-15.233,2.539s1.354-13.268.888-14.885-4.273-6.7-6.813-15.158-1.692-11-4.231-11-2.962,2.962-8.04,5.925S458.941-1963,454.71-1962.149s-10.579-1.269-10.579-1.269l-1.693-8.886s9.732-21.581,22-32.16,8.463-12.271,11.425-15.656,7.617-7.194,10.155-7.617a36.077,36.077,0,0,0,6.136-1.9l.635,1.9s-2.539,14.81,0,18.2,8.463,14.81,10.155,17.349S513.315-1983.942,513.315-1983.942Z" transform="translate(-440.669 2099.251)" fill="#e45f4d"/>
      <path id="Trazado_20369" data-name="Trazado 20369" d="M536.466-2045.14l-3.385.635c2.211,1.434,6.8,3.774,11,3.174,4.914-.7,10.035-12.4,11.425-17.561l-3.679-7.264h0l-16.777,4.52Z" transform="translate(-480.323 2114.115)" fill="#c77968"/>
      <g id="Grupo_8847" data-name="Grupo 8847" transform="translate(30.739 73.825)">
        <path id="Trazado_20370" data-name="Trazado 20370" d="M649.783-1991.208a.327.327,0,0,1-.279-.141c-.133-.194-.1-.531.508-1.538,2.48-4.134,2.925-14.178,2.929-14.279a.227.227,0,0,1,.237-.218.228.228,0,0,1,.218.237c-.017.417-.455,10.262-2.994,14.495a4.992,4.992,0,0,0-.476.941c1.015-.522,5.078-4.983,5.985-8.311a.229.229,0,0,1,.28-.159.228.228,0,0,1,.16.28c-.992,3.638-5.468,8.518-6.491,8.689A.474.474,0,0,1,649.783-1991.208Zm.114-.359h0Z" transform="translate(-561.966 2014.579)" fill="#3b3348"/>
        <path id="Trazado_20371" data-name="Trazado 20371" d="M669.806-1942.691a.229.229,0,0,1-.143-.05.228.228,0,0,1-.073-.25c.079-.237,1.985-5.821,6.251-7.954a.227.227,0,0,1,.305.1.228.228,0,0,1-.1.305c-3.316,1.658-5.2,5.629-5.8,7.116,1.5-.8,5.8-2.893,9.933-2.893,5.133,0,6.475,1.711,6.53,1.784a.228.228,0,0,1-.046.319.226.226,0,0,1-.317-.045c-.021-.025-1.317-1.6-6.167-1.6-4.954,0-10.2,3.1-10.252,3.136A.226.226,0,0,1,669.806-1942.691Z" transform="translate(-570.775 1989.898)" fill="#3b3348"/>
        <path id="Trazado_20372" data-name="Trazado 20372" d="M640.943-1957.753a.228.228,0,0,1-.185-.094c-.055-.076-5.507-7.611-7.574-9.265a.227.227,0,0,1-.035-.32.229.229,0,0,1,.32-.035c2.115,1.693,7.433,9.041,7.658,9.354a.228.228,0,0,1-.051.318A.227.227,0,0,1,640.943-1957.753Z" transform="translate(-554.817 1997.138)" fill="#3b3348"/>
        <path id="Trazado_20373" data-name="Trazado 20373" d="M634.737-1948.821a.228.228,0,0,1-.211-.143c-2.465-6.162-12.43-8.3-12.529-8.324a.227.227,0,0,1-.177-.269.228.228,0,0,1,.269-.177c.42.087,10.3,2.214,12.859,8.6a.228.228,0,0,1-.127.3A.238.238,0,0,1,634.737-1948.821Z" transform="translate(-549.88 1992.86)" fill="#3b3348"/>
        <path id="Trazado_20374" data-name="Trazado 20374" d="M619.7-1996.022a.228.228,0,0,1-.226-.2c-1.265-11.387,8.413-23.739,8.511-23.863a.226.226,0,0,1,.319-.036.227.227,0,0,1,.037.32c-.1.122-9.659,12.33-8.414,23.529a.228.228,0,0,1-.2.251Z" transform="translate(-548.806 2020.173)" fill="#3b3348"/>
        <path id="Trazado_20375" data-name="Trazado 20375" d="M564.311-1925.831c-13.43,0-35.409-8.814-35.63-8.9a.229.229,0,0,1-.126-.3.228.228,0,0,1,.3-.125c.219.089,22.117,8.869,35.459,8.869a.227.227,0,0,1,.227.227A.227.227,0,0,1,564.311-1925.831Z" transform="translate(-509.074 1982.987)" fill="#3b3348"/>
        <path id="Trazado_20376" data-name="Trazado 20376" d="M557.165-1919.155c-5.9,0-24.679-7.728-25.475-8.057a.228.228,0,0,1-.124-.3.227.227,0,0,1,.3-.124c.194.08,19.49,8.023,25.3,8.023a.228.228,0,0,1,.228.228A.228.228,0,0,1,557.165-1919.155Z" transform="translate(-510.391 1979.697)" fill="#3b3348"/>
        <path id="Trazado_20377" data-name="Trazado 20377" d="M573.9-1965.133a.227.227,0,0,1-.161-.067.227.227,0,0,1,0-.322c4.568-4.568,13.4-27.2,13.489-27.426a.227.227,0,0,1,.295-.129.228.228,0,0,1,.13.295c-.364.934-8.957,22.948-13.592,27.582A.228.228,0,0,1,573.9-1965.133Z" transform="translate(-528.819 2008.327)" fill="#3b3348"/>
        <path id="Trazado_20378" data-name="Trazado 20378" d="M508.552-1956.99a.226.226,0,0,1-.224-.19c-.036-.076-.492-.829-4.909-1.933a14.56,14.56,0,0,0-9.152.829.226.226,0,0,1-.305-.1.228.228,0,0,1,.1-.305,14.78,14.78,0,0,1,9.466-.864c4.738,1.185,5.25,2.029,5.25,2.336A.228.228,0,0,1,508.552-1956.99Z" transform="translate(-493.937 1993.836)" fill="#3b3348"/>
        <path id="Trazado_20379" data-name="Trazado 20379" d="M506.389-1953.21a.282.282,0,0,1-.047,0c-5.754-1.234-8.289-.032-8.314-.019a.229.229,0,0,1-.3-.1.227.227,0,0,1,.1-.3c.106-.053,2.68-1.29,8.612-.019a.227.227,0,0,1,.175.27A.228.228,0,0,1,506.389-1953.21Z" transform="translate(-495.583 1991.326)" fill="#3b3348"/>
        <path id="Trazado_20380" data-name="Trazado 20380" d="M533.986-1971.2a.228.228,0,0,1-.2-.11c-1.526-2.542-3.9-6.431-4.2-6.727-.43-.43-4.362-13.136-5.558-17.02a.228.228,0,0,1,.15-.285.226.226,0,0,1,.285.15c2,6.491,5.1,16.334,5.456,16.846.419.417,3.862,6.148,4.254,6.8a.227.227,0,0,1-.078.312A.222.222,0,0,1,533.986-1971.2Z" transform="translate(-507.1 2009.314)" fill="#3b3348"/>
      </g>
      <g id="Grupo_8849" data-name="Grupo 8849" transform="translate(29.99 7.154)">
        <path id="Trazado_20381" data-name="Trazado 20381" d="M495.254-2104.611a37.4,37.4,0,0,0,1.756,5.414q2.92,7.615,6.067,15.139c1.025,2.451,4.378,5.416,6.5,7.014,2.18,1.643,2.835,1.6,5.26,2.851a16.325,16.325,0,0,0,3.629,1.772,7.048,7.048,0,0,0,5.708-1.687c1.621-1.258,2.928-2.875,4.491-4.2,1.151-.979,2.436-1.8,3.559-2.807a13.638,13.638,0,0,0,4.138-7.058,26.524,26.524,0,0,0,.48-3.6c.677-7.864,1.631-16.226-.583-23.936-2.913-10.146-12.785-14.085-22.584-12.454a26.927,26.927,0,0,0-13.355,6.057C495.565-2117.91,493.945-2110.645,495.254-2104.611Z" transform="translate(-493.573 2134.243)" fill="#ffa08b"/>
        <path id="Trazado_20382" data-name="Trazado 20382" d="M526.774-2064.4a.313.313,0,0,0,.234-.3.314.314,0,0,0-.314-.313c-1,0-2.128-.474-2.24-1.366a2.638,2.638,0,0,1,.079-.816l.018-.092a13.842,13.842,0,0,0-1.568-9.413.316.316,0,0,0-.428-.115.312.312,0,0,0-.115.427,13.208,13.208,0,0,1,1.5,8.981l-.017.09a3.147,3.147,0,0,0-.086,1.016c.158,1.263,1.56,1.92,2.864,1.915A.32.32,0,0,0,526.774-2064.4Z" transform="translate(-505.639 2111.646)" fill="#c77968"/>
        <path id="Trazado_20383" data-name="Trazado 20383" d="M533.9-2057.654l.019-.005a1.206,1.206,0,0,0,.732-.609,1.205,1.205,0,0,0,.085-.949,1.2,1.2,0,0,0-.654-.691,1.214,1.214,0,0,0-.952-.026.314.314,0,0,0-.168.411.313.313,0,0,0,.41.168.58.58,0,0,1,.454.02.573.573,0,0,1,.317.324.574.574,0,0,1-.048.452.579.579,0,0,1-.344.3,1.583,1.583,0,0,1-.437.027l-1.339-.037a.314.314,0,0,0-.322.305.313.313,0,0,0,.3.321l1.34.037A2.12,2.12,0,0,0,533.9-2057.654Z" transform="translate(-509.69 2104.276)" fill="#c77968"/>
        <path id="Trazado_20384" data-name="Trazado 20384" d="M540.876-2076.926a2.193,2.193,0,0,1,1.569-2.675,2.193,2.193,0,0,1,2.674,1.569,2.192,2.192,0,0,1-1.568,2.675A2.192,2.192,0,0,1,540.876-2076.926Z" transform="translate(-513.692 2112.874)" fill="#333"/>
        <path id="Trazado_20385" data-name="Trazado 20385" d="M510.589-2068.64a2.192,2.192,0,0,1,1.568-2.675,2.193,2.193,0,0,1,2.675,1.569,2.193,2.193,0,0,1-1.569,2.675A2.192,2.192,0,0,1,510.589-2068.64Z" transform="translate(-500.442 2109.249)" fill="#333"/>
        <path id="Trazado_20386" data-name="Trazado 20386" d="M548.993-2051.939a.156.156,0,0,0,.116-.131.924.924,0,0,0-.619-.975.158.158,0,0,0-.2.1.157.157,0,0,0,.1.2.61.61,0,0,1,.4.635.158.158,0,0,0,.136.176A.163.163,0,0,0,548.993-2051.939Z" transform="translate(-516.964 2101.229)" fill="#c77968"/>
        <path id="Trazado_20387" data-name="Trazado 20387" d="M539.221-2077.386a7.544,7.544,0,0,1,1.576-1.761,6.382,6.382,0,0,1,.935-.618,5.848,5.848,0,0,1,1.02-.41,5.623,5.623,0,0,1,2.218-.1c.2.02.408.046.642.047a1.347,1.347,0,0,0,.395-.055.9.9,0,0,0,.344-.214,2.024,2.024,0,0,0,.551-1.175,2.563,2.563,0,0,1-.825.8.46.46,0,0,1-.407.027c-.17-.043-.362-.1-.559-.159a5.509,5.509,0,0,0-1.275-.226,4.366,4.366,0,0,0-1.337.148,4.946,4.946,0,0,0-1.216.547,4.868,4.868,0,0,0-1,.856A4.263,4.263,0,0,0,539.221-2077.386Z" transform="translate(-512.999 2113.75)" fill="#333"/>
        <path id="Trazado_20388" data-name="Trazado 20388" d="M513.737-2070.136a4.263,4.263,0,0,0-2.04-1.489,4.849,4.849,0,0,0-1.289-.266,4.976,4.976,0,0,0-1.33.11,4.359,4.359,0,0,0-1.24.518,5.522,5.522,0,0,0-1.006.814c-.146.145-.285.29-.412.409-.147.127-.174.167-.368.175a2.565,2.565,0,0,1-1.111-.3,2.027,2.027,0,0,0,1.051.76.9.9,0,0,0,.4.021,1.347,1.347,0,0,0,.372-.144,6.1,6.1,0,0,0,.539-.352,5.6,5.6,0,0,1,1.99-.984,5.821,5.821,0,0,1,1.091-.135,6.285,6.285,0,0,1,1.118.088A7.566,7.566,0,0,1,513.737-2070.136Z" transform="translate(-498.002 2109.473)" fill="#333"/>
        <path id="Trazado_20389" data-name="Trazado 20389" d="M537.042-2047.164a6.509,6.509,0,0,1-2.869,1.63,5.693,5.693,0,0,1-3.555-.209,1.285,1.285,0,0,1-.875-1.476c-.018-.169-.423,0-.423-1.692,0-1.148.409-2.159,1.556-2.186a3.99,3.99,0,0,0,1.145-.068,4.555,4.555,0,0,0,.817-.459A4.369,4.369,0,0,1,535.5-2052c.905.1,3.975,1.362,3.555,2.239A9.848,9.848,0,0,1,537.042-2047.164Z" transform="translate(-508.667 2100.788)" fill="#ef7575"/>
        <path id="Trazado_20390" data-name="Trazado 20390" d="M506.039-2117.282a72.206,72.206,0,0,0-10.573,18.99c-2.985-4.468-3.091-10.227-2.693-15.586a15.647,15.647,0,0,1,.777-4.368,13.588,13.588,0,0,1,2.226-3.635c4.679-5.844,11.791-10.249,19.262-9.778a30.883,30.883,0,0,1,9.341,2.482,27.061,27.061,0,0,1,6.6,3.439,17.858,17.858,0,0,1,6.344,10.576,26.518,26.518,0,0,1-.682,12.459c-.154.548-.466,1.207-1.036,1.195-.128,0-2.4-2.806-2.777-3.111-.8-.643-1.647-1.213-2.5-1.774a42.536,42.536,0,0,0-7.879-3.965C516.925-2112.513,511.066-2114.032,506.039-2117.282Z" transform="translate(-492.606 2135.631)" fill="#87554a"/>
        <path id="Trazado_20391" data-name="Trazado 20391" d="M578.608-2076.841a.229.229,0,0,1-.145-.052c-3.187-2.643-7.3-3.881-11.286-5.079l-1.151-.348c-4.19-1.276-8.916-2.947-11.965-6.642-2.213-2.682-3.241-6.094-4.022-9.381l-.17-.725a25.917,25.917,0,0,0-1.49-4.9c-2.029-4.439-6.681-7.85-13.828-10.138-1.464-.469-2.981-.894-4.448-1.307-4.219-1.185-8.582-2.41-12.316-4.82a5.942,5.942,0,0,1-2.3-2.3,5.778,5.778,0,0,1-.444-2.115,18.258,18.258,0,0,1,5.422-13.983.228.228,0,0,1,.322,0,.227.227,0,0,1,0,.322,17.8,17.8,0,0,0-5.284,13.63,5.373,5.373,0,0,0,.4,1.949,5.539,5.539,0,0,0,2.131,2.108c3.676,2.373,8.005,3.589,12.192,4.764,1.47.413,2.991.841,4.463,1.312,7.274,2.328,12.02,5.822,14.1,10.382a26.3,26.3,0,0,1,1.519,4.987l.17.723c.768,3.234,1.777,6.586,3.931,9.2,2.967,3.6,7.619,5.24,11.746,6.5l1.15.347c4.025,1.211,8.189,2.462,11.446,5.165a.228.228,0,0,1,.03.321A.228.228,0,0,1,578.608-2076.841Z" transform="translate(-502.41 2138.695)" fill="#ba8178"/>
        <path id="Trazado_20392" data-name="Trazado 20392" d="M573.581-2083.719a.23.23,0,0,1-.086-.017,23.183,23.183,0,0,0-6.476-1.255c-2.976-.291-6.055-.592-8.484-2.4-2.765-2.057-3.867-5.421-4.933-8.675a32.4,32.4,0,0,0-2.074-5.276c-2.885-5.344-8.733-8.205-13.13-9.665-2.707-.9-5.543-1.542-8.284-2.166-2.656-.6-5.4-1.227-8.04-2.083-2.329-.756-5.179-1.942-6.559-4.428a.228.228,0,0,1,.089-.31.229.229,0,0,1,.309.089c1.3,2.347,4.051,3.486,6.3,4.216,2.618.849,5.355,1.471,8,2.072,2.752.625,5.6,1.272,8.326,2.178,4.477,1.486,10.433,4.406,13.389,9.881a32.65,32.65,0,0,1,2.105,5.35c1.092,3.333,2.123,6.48,4.773,8.451,2.327,1.731,5.207,2.012,8.256,2.31a23.566,23.566,0,0,1,6.6,1.287.227.227,0,0,1,.125.3A.227.227,0,0,1,573.581-2083.719Z" transform="translate(-502.615 2130.525)" fill="#ba8178"/>
        <path id="Trazado_20393" data-name="Trazado 20393" d="M505.165-2062.682a.127.127,0,0,1-.03,0,.226.226,0,0,1-.2-.255c.636-4.734-1.559-9.459-3.665-13.517l-.313-.6c-2.133-4.1-4.339-8.332-4.357-12.954-.017-4.505,2.075-8.731,3.92-12.459l4.831-9.757a.228.228,0,0,1,.3-.1.227.227,0,0,1,.1.3l-4.83,9.758c-1.824,3.683-3.89,7.858-3.874,12.256.017,4.511,2.2,8.7,4.306,12.746l.312.6c2.139,4.119,4.367,8.922,3.713,13.787A.227.227,0,0,1,505.165-2062.682Z" transform="translate(-494.355 2127.172)" fill="#ba8178"/>
        <g id="Grupo_8848" data-name="Grupo 8848" transform="translate(41.76 30.771)">
          <path id="Trazado_20394" data-name="Trazado 20394" d="M570.023-2083.77a3.519,3.519,0,0,1,3.908.946,3.585,3.585,0,0,1,.508,3.068,7.119,7.119,0,0,1-1.585,2.773,4.1,4.1,0,0,1-3.272,1.779,3.2,3.2,0,0,1-2.529-2.48A4.808,4.808,0,0,1,570.023-2083.77Z" transform="translate(-566.843 2083.993)" fill="#ffa08b"/>
          <path id="Trazado_20395" data-name="Trazado 20395" d="M570.874-2076.026a.16.16,0,0,0,.086-.057,1.319,1.319,0,0,0,.136-1.341,1.315,1.315,0,0,0-1.132-.73.41.41,0,0,1-.12-.011.156.156,0,0,1-.022-.069,1.968,1.968,0,0,1,.215-1.088,4.345,4.345,0,0,1,1.262-1.808,2.1,2.1,0,0,1,2.012-.384.836.836,0,0,1,.549.572.157.157,0,0,0,.178.132.162.162,0,0,0,.132-.178,1.113,1.113,0,0,0-.742-.816,2.416,2.416,0,0,0-2.321.427,4.644,4.644,0,0,0-1.358,1.932,2.235,2.235,0,0,0-.235,1.266.414.414,0,0,0,.131.256.445.445,0,0,0,.291.082,1,1,0,0,1,.878.554,1,1,0,0,1-.1,1.015.157.157,0,0,0,.03.219A.156.156,0,0,0,570.874-2076.026Z" transform="translate(-568.001 2083.096)" fill="#c77968"/>
        </g>
        <path id="Trazado_20396" data-name="Trazado 20396" d="M538.834-2087.264c-1.37.471-2.66,1.3-4.108,1.341a2.04,2.04,0,0,1-1.3-.341,1.062,1.062,0,0,1-.391-1.207,1.194,1.194,0,0,1,.883-.629,6.815,6.815,0,0,1,1.124-.061c2.1-.08,4.168-1.506,6.176-.875.663.208,2.138.9,2.41,1.534A10.466,10.466,0,0,0,538.834-2087.264Z" transform="translate(-510.265 2117.041)" fill="#87554a"/>
        <path id="Trazado_20397" data-name="Trazado 20397" d="M505.99-2077.692c1.136-.358,2.458-.4,3.359-1.126a1.391,1.391,0,0,0,.562-.935,1.224,1.224,0,0,0-.552-1.119.993.993,0,0,0-.945-.015,4.357,4.357,0,0,0-.719.539c-1.324,1.036-3.5,1.033-4.306,2.557a3.95,3.95,0,0,0-.455,2.419A6.73,6.73,0,0,1,505.99-2077.692Z" transform="translate(-497.093 2113.455)" fill="#87554a"/>
        <path id="Trazado_20398" data-name="Trazado 20398" d="M533.8-2049.236a5.491,5.491,0,0,0-2.5.937,2.24,2.24,0,0,0-.86,2.376.979.979,0,0,0,.978.116,4.257,4.257,0,0,0,.883-.533c1.789-1.209,4.021-1.336,6-2.063.3-.109,1.05-.257.854-.717-.161-.38-1.176-.328-1.519-.353A15.78,15.78,0,0,0,533.8-2049.236Z" transform="translate(-509.117 2099.678)" fill="#fff"/>
        <path id="Trazado_20399" data-name="Trazado 20399" d="M512.97-2061.231a.228.228,0,0,1-.228-.228.227.227,0,0,1,.228-.228c.564,0,2.554-1.272,3.676-2.073a.228.228,0,0,1,.318.053.228.228,0,0,1-.053.318C516.6-2063.168,513.863-2061.231,512.97-2061.231Z" transform="translate(-501.415 2105.931)" fill="#c77968"/>
        <path id="Trazado_20400" data-name="Trazado 20400" d="M541.79-2068.942c-.847,0-5.331-.406-5.521-.424a.227.227,0,0,1-.206-.247.236.236,0,0,1,.247-.206c.047,0,4.654.422,5.481.422a.228.228,0,0,1,.228.228A.228.228,0,0,1,541.79-2068.942Z" transform="translate(-511.617 2108.564)" fill="#c77968"/>
      </g>
      <path id="Trazado_20401" data-name="Trazado 20401" d="M454.891-1985.672s-5.219,4.229-11.392,3.157-3.935-9.733-3.22-13.848,4.528-15.274,15.313-26.2a108.4,108.4,0,0,0,17.044-22.558c.788-1.249-5.781-17.88-5.781-17.88s-.115-4.5-.146-5.733,5.378-14.067,5.787-14.077.84.8.483,2.856a50.893,50.893,0,0,1-1.891,6.193l3.151-5s2.363-3.747,3.591-3.778.062,2.457.062,2.457,1.176-2.078,1.6-1.679c0,0,1.638-.042.083,3.276a22.77,22.77,0,0,0-1.881,6.6s4.8-4.628,5.617-4.649-1.943,4.146-3.13,5.815c0,0,1.867,8.966,1.9,10.195s3.147,10.982.4,15.559-11.881,32.259-14.223,36.826S458.483-1989.45,454.891-1985.672Z" transform="translate(-439.293 2121.401)" fill="#f48876"/>
      <path id="Trazado_20402" data-name="Trazado 20402" d="M612.274-2087.213c-2.857,0-4.5-4.225-6.231-8.69a43.593,43.593,0,0,0-2.577-5.824c-2.247-3.851-12.035-8.5-18.512-11.583-1.932-.917-3.6-1.71-4.674-2.3-2.718-1.483-4.4-5.38-6.183-9.507-1.308-3.027-2.659-6.157-4.461-8.32-4.125-4.948-17.065-6.253-17.2-6.267a.228.228,0,0,1-.205-.249.235.235,0,0,1,.249-.2c.539.052,13.259,1.337,17.5,6.428,1.844,2.213,3.209,5.374,4.529,8.43,1.75,4.052,3.4,7.88,5.983,9.287,1.064.581,2.726,1.37,4.65,2.285,6.528,3.1,16.393,7.792,18.711,11.764a43.751,43.751,0,0,1,2.608,5.888c1.652,4.255,3.361,8.655,6.059,8.387a.231.231,0,0,1,.249.2.228.228,0,0,1-.2.249C612.471-2087.218,612.371-2087.213,612.274-2087.213Z" transform="translate(-488.702 2146.486)" fill="#87554a"/>
      <path id="Trazado_20403" data-name="Trazado 20403" d="M628.6-2078.387h-.008a37.767,37.767,0,0,1-7.86-.833,12.965,12.965,0,0,1-6.818-3.953,19.033,19.033,0,0,1-1.948-3.042l-.119-.215c-2.057-3.7-4.331-7.365-6.531-10.906a15.006,15.006,0,0,0-4.157-4.926,14.628,14.628,0,0,0-4.99-1.726,21.4,21.4,0,0,1-3.845-1.095c-2.866-1.221-5.011-3.6-7.137-6.139a47.365,47.365,0,0,1-6.341-9.04c-.35-.705-.674-1.436-.986-2.143a28.725,28.725,0,0,0-1.855-3.7c-2.227-3.538-5.944-5.951-9.224-8.08a.228.228,0,0,1-.066-.315.227.227,0,0,1,.314-.067c3.319,2.155,7.082,4.6,9.361,8.219a29.014,29.014,0,0,1,1.887,3.763c.31.7.631,1.429.977,2.124a47.038,47.038,0,0,0,6.282,8.95c2.089,2.495,4.194,4.832,6.967,6.013a21.149,21.149,0,0,0,3.763,1.069,15.171,15.171,0,0,1,5.141,1.788,15.341,15.341,0,0,1,4.293,5.063c2.205,3.549,4.483,7.216,6.545,10.929l.119.216a18.746,18.746,0,0,0,1.9,2.971,12.518,12.518,0,0,0,6.579,3.8,37.467,37.467,0,0,0,7.765.819.227.227,0,0,1,.219.235A.228.228,0,0,1,628.6-2078.387Z" transform="translate(-495.019 2144.06)" fill="#87554a"/>
      <path id="Trazado_20404" data-name="Trazado 20404" d="M612.769-2072.448a.229.229,0,0,1-.227-.213,15.9,15.9,0,0,0-5.038-10.188,28.756,28.756,0,0,0-9.946-6.007l-.467-.179a14.057,14.057,0,0,1-3.331-1.616,13.012,13.012,0,0,1-2.363-2.4,21.836,21.836,0,0,1-2.837-4.183,24.624,24.624,0,0,1-1.048-2.694,23.151,23.151,0,0,0-1.079-2.752c-.473-.956-1.823-3.208-4.127-3.471a.228.228,0,0,1-.2-.251.229.229,0,0,1,.252-.2c2.526.287,3.977,2.7,4.483,3.72a23.627,23.627,0,0,1,1.1,2.806,24.238,24.238,0,0,0,1.027,2.644,21.461,21.461,0,0,0,2.781,4.094,12.587,12.587,0,0,0,2.277,2.323,13.7,13.7,0,0,0,3.224,1.559l.469.18a29.191,29.191,0,0,1,10.1,6.106A16.356,16.356,0,0,1,613-2072.691a.227.227,0,0,1-.212.242Z" transform="translate(-501.769 2131.812)" fill="#87554a"/>
      <path id="Trazado_20405" data-name="Trazado 20405" d="M531.563-2145.782a.233.233,0,0,1-.059-.007.229.229,0,0,1-.161-.279c.564-2.118,3.107-3.055,5.319-2.884a19.536,19.536,0,0,1,2.795.492,15.352,15.352,0,0,0,3.355.506h0a15.432,15.432,0,0,0,6.044-1.734c.637-.28,1.3-.569,1.95-.824,1.63-.635,5.7-1.864,8.331.452a.227.227,0,0,1,.02.321.227.227,0,0,1-.321.021c-2.438-2.151-6.311-.976-7.864-.37-.645.251-1.3.539-1.932.817a15.78,15.78,0,0,1-6.228,1.772h0a15.725,15.725,0,0,1-3.455-.517,19.19,19.19,0,0,0-2.728-.482c-2.027-.155-4.345.668-4.844,2.547A.228.228,0,0,1,531.563-2145.782Z" transform="translate(-479.559 2151.412)" fill="#87554a"/>
      <path id="Trazado_20406" data-name="Trazado 20406" d="M488.636-2128.8a.225.225,0,0,1-.187-.1.227.227,0,0,1,.056-.316,8.712,8.712,0,0,1,2.349-1.026,9.429,9.429,0,0,0,2.04-.841,9.266,9.266,0,0,0,2.162-2.1,9.737,9.737,0,0,1,2.271-2.2,10.055,10.055,0,0,1,4.481-1.092c1.76-.153,3.422-.3,4.67-1.359a.228.228,0,0,1,.321.026.229.229,0,0,1-.026.321c-1.359,1.154-3.172,1.313-4.926,1.466a9.721,9.721,0,0,0-4.282,1.025,9.265,9.265,0,0,0-2.159,2.1,9.741,9.741,0,0,1-2.274,2.2,9.8,9.8,0,0,1-2.138.886,8.247,8.247,0,0,0-2.229.966A.228.228,0,0,1,488.636-2128.8Z" transform="translate(-460.779 2145.493)" fill="#87554a"/>
      <path id="Trazado_20407" data-name="Trazado 20407" d="M622.546-1942.159s9.012,4.85,10.877,11.576.178,6.987.178,6.987-24.5,2.1-30.43,1.825-17.885-4.2-19.577-4.158-5.146,3.366-9.721,3.558-8.122.206-8.122.206-8.265,1.555-9.534,1.588a1.452,1.452,0,0,1-1.431-1.309,5.26,5.26,0,0,1-2-.3,5.963,5.963,0,0,1-2.148-1.215,21.453,21.453,0,0,1-3.828-.749c-.857-.4-.889-1.67-.064-2.538s-2.506,1.333-2.972-.348,3.732-3.058,8.331-5.292,6.693-3.133,10.077-3.219,19.544,2.889,21.649,2.412S610.767-1939.32,622.546-1942.159Z" transform="translate(-484.986 2059.869)" fill="#ffa08b"/>
    </g>
    <path id="Trazado_20408" data-name="Trazado 20408" d="M589.649-1907.429H260.657l-30.411,8.741v8.741H621.289v-8.741Z" transform="translate(-61.955 -128.379)" fill="#d8b58b"/>
    <rect id="Rectángulo_1971" data-name="Rectángulo 1971" width="391.042" height="0.455" transform="translate(168.291 -2027.295)" fill="#5b4027"/>
    <g id="Grupo_8852" data-name="Grupo 8852" transform="translate(245.243 -2093.451)">
      <g id="Grupo_8851" data-name="Grupo 8851" transform="translate(0 0)">
        <path id="Trazado_20409" data-name="Trazado 20409" d="M450.377-2009.9h-81.49a1.843,1.843,0,0,0-1.777,2.331l15.166,55.282a6.229,6.229,0,0,0,6.008,4.582h80.56l-16.69-60.84A1.843,1.843,0,0,0,450.377-2009.9Z" transform="translate(-367.043 2009.9)" fill="#282233"/>
        <rect id="Rectángulo_1972" data-name="Rectángulo 1972" width="102.374" height="3.302" transform="translate(31.901 58.892)" fill="#282233"/>
        <ellipse id="Elipse_801" data-name="Elipse 801" cx="6.605" cy="4.678" rx="6.605" ry="4.678" transform="translate(34.653 26.97)" fill="#dfe8f4"/>
      </g>
    </g>
    <g id="Grupo_8857" data-name="Grupo 8857" transform="translate(184.607 -2099.447)">
      <g id="Grupo_8853" data-name="Grupo 8853" transform="translate(22.392 12.096)">
        <path id="Trazado_20410" data-name="Trazado 20410" d="M302.726-1958.831a.735.735,0,0,1-.128-.012.683.683,0,0,1-.543-.8,10.184,10.184,0,0,1,1.055-2.961c.095-.174.194-.345.293-.516a6.47,6.47,0,0,0,.618-1.255,6.519,6.519,0,0,0,.209-1.15,6.116,6.116,0,0,1,.4-1.76,6.169,6.169,0,0,1,.509-.894,4.039,4.039,0,0,0,.453-.825,4.127,4.127,0,0,0,.144-.665,6.393,6.393,0,0,1,.137-.689,6.467,6.467,0,0,1,.539-1.265c.114-.221.222-.43.309-.64a8.9,8.9,0,0,0,.464-1.8,13.723,13.723,0,0,1,.351-1.538,13.4,13.4,0,0,1,1.2-2.544c.191-.341.382-.682.559-1.03a4.8,4.8,0,0,0,.656-3.254.681.681,0,0,1,.5-.825.681.681,0,0,1,.825.5,6.054,6.054,0,0,1-.764,4.195c-.184.365-.384.722-.585,1.081a12.19,12.19,0,0,0-1.082,2.281,12.212,12.212,0,0,0-.313,1.384,10.051,10.051,0,0,1-.547,2.076c-.109.26-.234.5-.355.739a5.318,5.318,0,0,0-.435,1,5.4,5.4,0,0,0-.107.546,5.109,5.109,0,0,1-.2.9,5.173,5.173,0,0,1-.6,1.121,5.083,5.083,0,0,0-.4.7,5.024,5.024,0,0,0-.295,1.379,7.691,7.691,0,0,1-.262,1.4,7.574,7.574,0,0,1-.74,1.531c-.093.159-.186.319-.273.48a8.834,8.834,0,0,0-.914,2.565A.684.684,0,0,1,302.726-1958.831Z" transform="translate(-300.363 1992.151)" fill="#99aa72"/>
        <path id="Trazado_20411" data-name="Trazado 20411" d="M314.614-1989.824a4.72,4.72,0,0,1-.031-1.986,4.819,4.819,0,0,0-.024-1.986c-.25-.832-.957-1.582-.8-2.437.173-.94,1.288-1.4,1.71-2.253a1.159,1.159,0,0,1,.293-.463.674.674,0,0,1,.393-.106,1.6,1.6,0,0,1,1.537,1.2,8.98,8.98,0,0,0,.174,1.128c.082.214.224.4.32.608a2.519,2.519,0,0,1-.35,2.242,7.694,7.694,0,0,0-1.079,2.086c-.171.773.219,2.368-.555,2.9C315.49-1988.4,314.825-1989.142,314.614-1989.824Z" transform="translate(-305.478 1999.056)" fill="#99aa72"/>
        <path id="Trazado_20412" data-name="Trazado 20412" d="M319-1983.97a4.58,4.58,0,0,0,1.472-.837,5.6,5.6,0,0,1,2.662-.925,6.418,6.418,0,0,0,2.1-.264,4.127,4.127,0,0,0,1.851-2.636,1.174,1.174,0,0,0,.1-.545,1.014,1.014,0,0,0-.338-.555,3.656,3.656,0,0,0-3.016-.991,3.654,3.654,0,0,0-2.628,1.782,6.727,6.727,0,0,1-1.008,1.74c-.729.68-2.01.718-2.464,1.605A1.146,1.146,0,0,0,319-1983.97Z" transform="translate(-307.17 1995.425)" fill="#99aa72"/>
        <path id="Trazado_20413" data-name="Trazado 20413" d="M310.976-1982.727c-.2-.2-.355-.43-.566-.611-.7-.6-1.765-.471-2.632-.8a2.569,2.569,0,0,1-1.341-1.178,1.286,1.286,0,0,1-.179-.714c.019-.19.1-.368.124-.557.079-.635-.5-1.24-.348-1.861.143-.578.827-.823,1.419-.892a2.17,2.17,0,0,1,1.782.406c.73.706.432,2.04,1.128,2.779a9.08,9.08,0,0,0,1.15.767,2.578,2.578,0,0,1,.776,2.122C312.273-1982.466,311.66-1982.048,310.976-1982.727Z" transform="translate(-302.097 1994.819)" fill="#99aa72"/>
        <path id="Trazado_20414" data-name="Trazado 20414" d="M314.9-1974.708l2.724-1.894a2.033,2.033,0,0,1,.645-.341c.763-.191,1.5.524,2.281.457a3.087,3.087,0,0,0,1.292-.622,1.411,1.411,0,0,1,1.364-.222,1.042,1.042,0,0,1,.4,1.235,2.14,2.14,0,0,1-.909,1.045c-.392.259-.823.461-1.2.746-.354.271-.649.613-.992.9a4.6,4.6,0,0,1-3.053,1C316.328-1972.443,312.843-1973.275,314.9-1974.708Z" transform="translate(-305.71 1989.597)" fill="#99aa72"/>
        <path id="Trazado_20415" data-name="Trazado 20415" d="M309.209-1975.434a3.289,3.289,0,0,0-1.314-.882,2.74,2.74,0,0,1-1.262-.941c-.331-.544-.287-1.291-.733-1.745a1.19,1.19,0,0,0-1.642.05,1.418,1.418,0,0,0-.127,1.695,2.717,2.717,0,0,0,.752.715,11.546,11.546,0,0,0,1.973,1.127,8.057,8.057,0,0,1,.968.465c.293.182.581.672.852.793C309.516-1973.787,309.586-1974.931,309.209-1975.434Z" transform="translate(-301.18 1990.417)" fill="#99aa72"/>
        <path id="Trazado_20416" data-name="Trazado 20416" d="M312.593-1966.584a1.72,1.72,0,0,1,.672-.251,1.545,1.545,0,0,1,1.3.155c.166.137.274.332.428.482a1.813,1.813,0,0,0,1.29.391,4.936,4.936,0,0,1,1.376.066,1.419,1.419,0,0,1,1.06,1.324,1.57,1.57,0,0,1-1.6,1.334,2.246,2.246,0,0,1-1.851-.952,6.585,6.585,0,0,1-.441-.837,6.721,6.721,0,0,0-.477-.809.873.873,0,0,0-.437-.385,1.306,1.306,0,0,0-.633.079C312.806-1965.88,311.826-1966.032,312.593-1966.584Z" transform="translate(-304.854 1984.99)" fill="#99aa72"/>
        <path id="Trazado_20417" data-name="Trazado 20417" d="M304.757-1968.3a1.473,1.473,0,0,0-.581-.262c-.485-.082-.955.209-1.445.249-.627.051-1.239-.31-1.863-.233a2.409,2.409,0,0,0-1.348.823,1.366,1.366,0,0,0-.462.8c-.038.491.418.88.873,1.068a3.172,3.172,0,0,0,1.669.2,20.208,20.208,0,0,1,2.259-.538c.71-.024,1.97,1.046,2.15.055C306.151-1966.925,305.338-1967.9,304.757-1968.3Z" transform="translate(-299.056 1985.724)" fill="#99aa72"/>
        <path id="Trazado_20418" data-name="Trazado 20418" d="M313.183-1960.27c.28.3.484.673.788.951.433.4,1.072.615,1.293,1.159a1.475,1.475,0,0,1-.048,1.05,1.369,1.369,0,0,1-.509.716,1.259,1.259,0,0,1-1.59-.471,4.98,4.98,0,0,1-.619-1.708,1.34,1.34,0,0,0-.148-.386,1.436,1.436,0,0,0-.927-.509c-.667-.162-1.666-.937-.723-1.509C311.429-1961.419,312.684-1960.81,313.183-1960.27Z" transform="translate(-303.981 1982.464)" fill="#99aa72"/>
        <path id="Trazado_20419" data-name="Trazado 20419" d="M302.878-1955.939a2.763,2.763,0,0,0-1.17.37,1.384,1.384,0,0,1-1.191.094,1.02,1.02,0,0,0-.267-.132c-.123-.024-.254.028-.372-.012a.338.338,0,0,1-.151-.457.807.807,0,0,1,.4-.348,5.066,5.066,0,0,1,3.355-.177c.233.062.807.157.746.5C304.138-1955.589,303.139-1955.931,302.878-1955.939Z" transform="translate(-299.335 1980.57)" fill="#99aa72"/>
        <path id="Trazado_20420" data-name="Trazado 20420" d="M309.155-1954.7a3.534,3.534,0,0,1,.614.627,10.38,10.38,0,0,0,.591.979.748.748,0,0,0,1.01.184.669.669,0,0,0,.1-.743,1.92,1.92,0,0,0-.5-.616c-.385-.357-1.036-1.216-1.55-1.36C308.7-1955.829,308.695-1955.092,309.155-1954.7Z" transform="translate(-303.337 1980.072)" fill="#99aa72"/>
      </g>
      <g id="Grupo_8854" data-name="Grupo 8854" transform="translate(0 14.354)">
        <path id="Trazado_20421" data-name="Trazado 20421" d="M281.255-1956.22a.681.681,0,0,1-.572-.309,10.171,10.171,0,0,1-1.292-2.866c-.053-.19-.1-.383-.147-.576a6.462,6.462,0,0,0-.424-1.331,6.486,6.486,0,0,0-.647-.974,6.156,6.156,0,0,1-.932-1.545,6.23,6.23,0,0,1-.253-1,4.107,4.107,0,0,0-.245-.908,4.073,4.073,0,0,0-.358-.579,6.559,6.559,0,0,1-.378-.591,6.5,6.5,0,0,1-.488-1.284c-.071-.239-.138-.465-.221-.677a8.909,8.909,0,0,0-.914-1.621,13.42,13.42,0,0,1-.812-1.352,13.349,13.349,0,0,1-.9-2.661c-.1-.379-.2-.758-.312-1.13a4.792,4.792,0,0,0-1.782-2.8.683.683,0,0,1-.211-.943.683.683,0,0,1,.942-.21,6.057,6.057,0,0,1,2.357,3.553c.119.391.223.788.327,1.185a12.207,12.207,0,0,0,.8,2.395,12.319,12.319,0,0,0,.733,1.214,10.1,10.1,0,0,1,1.045,1.876c.1.264.181.527.256.78a5.343,5.343,0,0,0,.379,1.021,5.421,5.421,0,0,0,.3.467,5.092,5.092,0,0,1,.476.785,5.146,5.146,0,0,1,.345,1.22,5.176,5.176,0,0,0,.193.783,5.056,5.056,0,0,0,.743,1.2,7.513,7.513,0,0,1,.779,1.187,7.576,7.576,0,0,1,.527,1.614c.044.179.088.36.136.537a8.808,8.808,0,0,0,1.119,2.482.683.683,0,0,1-.2.945A.677.677,0,0,1,281.255-1956.22Z" transform="translate(-264.067 1988.323)" fill="#99aa72"/>
        <path id="Trazado_20422" data-name="Trazado 20422" d="M265.366-1983.871a4.715,4.715,0,0,1-1.4-1.409,4.823,4.823,0,0,0-1.394-1.416c-.757-.426-1.787-.478-2.265-1.2-.527-.8-.039-1.9-.329-2.809a1.166,1.166,0,0,1-.111-.537.679.679,0,0,1,.21-.349,1.605,1.605,0,0,1,1.938-.2,9.03,9.03,0,0,0,.908.693c.207.1.438.132.652.216a2.521,2.521,0,0,1,1.3,1.859,7.682,7.682,0,0,0,.668,2.252c.412.676,1.8,1.554,1.611,2.476C266.983-1983.452,265.99-1983.525,265.366-1983.871Z" transform="translate(-259.517 1993.725)" fill="#99aa72"/>
        <path id="Trazado_20423" data-name="Trazado 20423" d="M274.2-1985.452a4.6,4.6,0,0,0,.481-1.624,5.582,5.582,0,0,1,1.279-2.512,6.419,6.419,0,0,0,1.328-1.644,4.122,4.122,0,0,0-.492-3.183,1.164,1.164,0,0,0-.305-.462,1.016,1.016,0,0,0-.628-.166,3.657,3.657,0,0,0-2.862,1.376,3.658,3.658,0,0,0-.659,3.106,6.73,6.73,0,0,1,.479,1.952c-.055,1-.952,1.911-.664,2.865A1.146,1.146,0,0,0,274.2-1985.452Z" transform="translate(-264.873 1995.042)" fill="#99aa72"/>
        <path id="Trazado_20424" data-name="Trazado 20424" d="M266.895-1976.085c-.278,0-.554-.063-.832-.048-.925.052-1.6.884-2.451,1.248a2.568,2.568,0,0,1-1.784.08,1.284,1.284,0,0,1-.624-.39c-.118-.15-.183-.335-.3-.488-.384-.512-1.22-.546-1.54-1.1-.3-.516.026-1.166.4-1.627a2.171,2.171,0,0,1,1.566-.942c1.016,0,1.725,1.171,2.74,1.221a9.007,9.007,0,0,0,1.361-.244,2.579,2.579,0,0,1,2.03.992C268.011-1976.8,267.859-1976.069,266.895-1976.085Z" transform="translate(-259.25 1988.179)" fill="#99aa72"/>
        <path id="Trazado_20425" data-name="Trazado 20425" d="M276.649-1976.318l.651-3.253a2.033,2.033,0,0,1,.228-.693c.418-.666,1.442-.66,1.961-1.252a3.088,3.088,0,0,0,.5-1.344,1.411,1.411,0,0,1,.829-1.105,1.042,1.042,0,0,1,1.145.612,2.142,2.142,0,0,1,.07,1.383c-.1.459-.275.9-.346,1.367-.067.441-.043.891-.093,1.334a4.593,4.593,0,0,1-1.51,2.834C279.245-1975.672,276.156-1973.856,276.649-1976.318Z" transform="translate(-266.838 1990.209)" fill="#99aa72"/>
        <path id="Trazado_20426" data-name="Trazado 20426" d="M270.641-1969.009a3.286,3.286,0,0,0-1.558.274,2.732,2.732,0,0,1-1.562.2c-.615-.163-1.1-.732-1.738-.75a1.19,1.19,0,0,0-1.149,1.174,1.418,1.418,0,0,0,1.084,1.31,2.725,2.725,0,0,0,1.037-.005,11.562,11.562,0,0,0,2.2-.556,8.1,8.1,0,0,1,1.02-.336c.338-.072.885.082,1.163-.019C272-1968.034,271.262-1968.908,270.641-1969.009Z" transform="translate(-261.605 1983.776)" fill="#99aa72"/>
        <path id="Trazado_20427" data-name="Trazado 20427" d="M279.14-1966.442a1.741,1.741,0,0,1,.311-.647,1.551,1.551,0,0,1,1.043-.789c.214-.017.428.05.643.051a1.812,1.812,0,0,0,1.2-.613,4.931,4.931,0,0,1,1.037-.906,1.419,1.419,0,0,1,1.682.219,1.572,1.572,0,0,1-.231,2.073,2.247,2.247,0,0,1-1.994.6,6.648,6.648,0,0,1-.9-.3,6.558,6.558,0,0,0-.9-.252.868.868,0,0,0-.582.025,1.3,1.3,0,0,0-.4.5C279.782-1966.083,278.97-1965.513,279.14-1966.442Z" transform="translate(-267.941 1983.878)" fill="#99aa72"/>
        <path id="Trazado_20428" data-name="Trazado 20428" d="M272.707-1962.827a1.473,1.473,0,0,0-.6.214c-.406.277-.543.811-.869,1.18-.417.471-1.108.635-1.5,1.124a2.409,2.409,0,0,0-.4,1.527,1.367,1.367,0,0,0,.219.894,1.212,1.212,0,0,0,1.37.165,3.163,3.163,0,0,0,1.344-1.009,20.245,20.245,0,0,1,1.256-1.954c.5-.508,2.145-.611,1.587-1.45A2.7,2.7,0,0,0,272.707-1962.827Z" transform="translate(-263.661 1980.964)" fill="#99aa72"/>
        <path id="Trazado_20429" data-name="Trazado 20429" d="M283.9-1961.007c.412.025.816.15,1.228.139.586-.014,1.2-.3,1.735-.061a1.474,1.474,0,0,1,.694.79,1.374,1.374,0,0,1,.13.869,1.259,1.259,0,0,1-1.473.762,4.959,4.959,0,0,1-1.63-.8,1.357,1.357,0,0,0-.375-.176,1.436,1.436,0,0,0-1.022.276c-.593.345-1.851.479-1.567-.586C281.836-1960.62,283.162-1961.051,283.9-1961.007Z" transform="translate(-269.017 1980.16)" fill="#99aa72"/>
        <path id="Trazado_20430" data-name="Trazado 20430" d="M279.59-1951.808a2.758,2.758,0,0,0-.586,1.078,1.388,1.388,0,0,1-.794.893,1.007,1.007,0,0,0-.284.09c-.1.068-.163.2-.276.249a.337.337,0,0,1-.425-.224.807.807,0,0,1,.048-.529,5.064,5.064,0,0,1,2.3-2.453c.211-.116.691-.446.884-.156C280.742-1952.429,279.784-1951.983,279.59-1951.808Z" transform="translate(-267.101 1976.64)" fill="#99aa72"/>
        <path id="Trazado_20431" data-name="Trazado 20431" d="M284.691-1953.525a3.581,3.581,0,0,1,.878.026,10.288,10.288,0,0,0,1.1.3c.38.032.833-.186.856-.567a.67.67,0,0,0-.44-.608,1.918,1.918,0,0,0-.788-.1,5.84,5.84,0,0,0-2.06.094C283.583-1954.028,284.086-1953.491,284.691-1953.525Z" transform="translate(-270.047 1977.315)" fill="#99aa72"/>
      </g>
      <g id="Grupo_8855" data-name="Grupo 8855" transform="translate(10.693 0)">
        <path id="Trazado_20432" data-name="Trazado 20432" d="M294.493-1962.912a.682.682,0,0,1-.676-.593,14.04,14.04,0,0,1,.1-4.332c.049-.27.105-.538.162-.807a9.22,9.22,0,0,0,.278-2.009,9.314,9.314,0,0,0-.233-1.679,8.373,8.373,0,0,1-.239-2.445,8.4,8.4,0,0,1,.277-1.373,5.906,5.906,0,0,0,.249-1.367,5.843,5.843,0,0,0-.1-1,9,9,0,0,1-.116-.949,8.843,8.843,0,0,1,.159-1.867c.056-.352.109-.683.134-1.013a12.708,12.708,0,0,0-.176-2.665,18.759,18.759,0,0,1-.206-2.177,18.622,18.622,0,0,1,.469-3.866c.1-.536.212-1.091.293-1.631a6.989,6.989,0,0,0-.6-4.82.683.683,0,0,1,.217-.94.683.683,0,0,1,.941.217,8.256,8.256,0,0,1,.79,5.747c-.086.569-.2,1.137-.3,1.687a17.272,17.272,0,0,0-.444,3.582,17.4,17.4,0,0,0,.194,2.019,13.919,13.919,0,0,1,.184,2.952c-.03.385-.089.759-.147,1.122a7.651,7.651,0,0,0-.143,1.581,7.574,7.574,0,0,0,.1.8,6.923,6.923,0,0,1,.122,1.237,6.993,6.993,0,0,1-.294,1.692,7.353,7.353,0,0,0-.239,1.154,7.249,7.249,0,0,0,.218,2.051,10.5,10.5,0,0,1,.26,1.928,10.431,10.431,0,0,1-.307,2.31c-.054.255-.108.511-.154.767a12.65,12.65,0,0,0-.091,3.911.682.682,0,0,1-.588.766A.609.609,0,0,1,294.493-1962.912Z" transform="translate(-285.012 2010.931)" fill="#99aa72"/>
        <path id="Trazado_20433" data-name="Trazado 20433" d="M289.747-2007.447a6.64,6.64,0,0,1-.917-2.637,6.763,6.763,0,0,0-.907-2.641c-.7-1-1.975-1.69-2.141-2.9-.183-1.331,1.1-2.43,1.289-3.762a1.638,1.638,0,0,1,.186-.748.95.95,0,0,1,.479-.315,2.257,2.257,0,0,1,2.58.92,12.5,12.5,0,0,0,.73,1.429c.2.25.475.434.7.67a3.541,3.541,0,0,1,.52,3.147,10.8,10.8,0,0,0-.52,3.26c.112,1.108,1.335,3.063.538,4.118C291.544-2005.934,290.329-2006.629,289.747-2007.447Z" transform="translate(-281.542 2020.56)" fill="#99aa72"/>
        <path id="Trazado_20434" data-name="Trazado 20434" d="M299.084-2003.149a6.436,6.436,0,0,0,1.6-1.766,7.861,7.861,0,0,1,3.146-2.408,9.027,9.027,0,0,0,2.683-1.276c1.158-1.037,1.275-2.779,1.309-4.334a1.652,1.652,0,0,0-.107-.771,1.427,1.427,0,0,0-.7-.592,5.14,5.14,0,0,0-4.463.007,5.14,5.14,0,0,0-2.721,3.538,9.469,9.469,0,0,1-.578,2.766c-.674,1.229-2.368,1.843-2.581,3.229A1.61,1.61,0,0,0,299.084-2003.149Z" transform="translate(-286.306 2018.041)" fill="#99aa72"/>
        <path id="Trazado_20435" data-name="Trazado 20435" d="M287.382-1996.26c-.349-.174-.664-.417-1.025-.566-1.2-.5-2.563.149-3.865.093a3.606,3.606,0,0,1-2.31-.982,1.8,1.8,0,0,1-.554-.873c-.059-.261-.029-.535-.081-.8-.174-.883-1.214-1.434-1.284-2.331-.065-.835.741-1.463,1.5-1.816a3.052,3.052,0,0,1,2.557-.244c1.285.62,1.476,2.532,2.731,3.211a12.783,12.783,0,0,0,1.873.517,3.624,3.624,0,0,1,1.971,2.491C289.228-1996.483,288.594-1995.654,287.382-1996.26Z" transform="translate(-278.259 2013.302)" fill="#99aa72"/>
        <path id="Trazado_20436" data-name="Trazado 20436" d="M297.016-1989.459l2.8-3.729a2.867,2.867,0,0,1,.71-.74c.934-.591,2.229.038,3.246-.4a4.335,4.335,0,0,0,1.45-1.4,1.986,1.986,0,0,1,1.722-.9,1.466,1.466,0,0,1,1.08,1.472,3.012,3.012,0,0,1-.752,1.8c-.41.519-.9.978-1.268,1.524-.353.517-.6,1.1-.928,1.635a6.464,6.464,0,0,1-3.636,2.675C299.915-1987.064,294.9-1986.638,297.016-1989.459Z" transform="translate(-286.24 2010.095)" fill="#99aa72"/>
        <path id="Trazado_20437" data-name="Trazado 20437" d="M288.252-1985.427a4.618,4.618,0,0,0-2.141-.6,3.847,3.847,0,0,1-2.1-.7c-.681-.581-.951-1.6-1.747-2.006a1.673,1.673,0,0,0-2.169.791,1.994,1.994,0,0,0,.579,2.318,3.818,3.818,0,0,0,1.317.623,16.328,16.328,0,0,0,3.13.635,11.2,11.2,0,0,1,1.5.193c.471.114,1.072.641,1.486.682C289.388-1983.363,288.978-1984.922,288.252-1985.427Z" transform="translate(-278.991 2006.702)" fill="#99aa72"/>
        <path id="Trazado_20438" data-name="Trazado 20438" d="M296.536-1975.252a2.42,2.42,0,0,1,.786-.631,2.176,2.176,0,0,1,1.8-.366c.282.109.511.322.784.455a2.547,2.547,0,0,0,1.895-.047,6.958,6.958,0,0,1,1.866-.519,1.994,1.994,0,0,1,2,1.3,2.209,2.209,0,0,1-1.552,2.488,3.159,3.159,0,0,1-2.89-.455,9.338,9.338,0,0,1-.957-.922,9.291,9.291,0,0,0-.993-.87,1.227,1.227,0,0,0-.753-.322,1.84,1.84,0,0,0-.81.385C297.132-1974.407,295.757-1974.178,296.536-1975.252Z" transform="translate(-286.153 2001.225)" fill="#99aa72"/>
        <path id="Trazado_20439" data-name="Trazado 20439" d="M285.641-1975.217a2.071,2.071,0,0,0-.891-.093c-.683.105-1.181.7-1.819.968-.815.344-1.79.133-2.589.511a3.389,3.389,0,0,0-1.436,1.692,1.924,1.924,0,0,0-.266,1.266,1.706,1.706,0,0,0,1.637,1.041,4.445,4.445,0,0,0,2.317-.463,28.413,28.413,0,0,1,2.778-1.713c.937-.345,3.091.528,2.894-.874C288.109-1973.991,286.594-1974.936,285.641-1975.217Z" transform="translate(-278.412 2000.772)" fill="#99aa72"/>
        <path id="Trazado_20440" data-name="Trazado 20440" d="M300.1-1966.9c.507.281.942.685,1.472.922.752.338,1.7.349,2.237.976a2.075,2.075,0,0,1,.4,1.423,1.931,1.931,0,0,1-.364,1.18,1.77,1.77,0,0,1-2.33.072,6.982,6.982,0,0,1-1.578-2.006,1.907,1.907,0,0,0-.369-.451,2.023,2.023,0,0,0-1.462-.27c-.96.077-2.637-.517-1.63-1.695C297.249-1967.661,299.192-1967.4,300.1-1966.9Z" transform="translate(-286.09 1997.284)" fill="#99aa72"/>
        <path id="Trazado_20441" data-name="Trazado 20441" d="M288.32-1957.247a3.892,3.892,0,0,0-1.4,1.01,1.946,1.946,0,0,1-1.549.65,1.4,1.4,0,0,0-.414-.057c-.174.022-.326.149-.5.148a.476.476,0,0,1-.4-.543,1.134,1.134,0,0,1,.383-.642,7.116,7.116,0,0,1,4.4-1.714c.338-.02,1.147-.146,1.217.338C290.157-1957.334,288.673-1957.35,288.32-1957.247Z" transform="translate(-280.793 1993.378)" fill="#99aa72"/>
        <path id="Trazado_20442" data-name="Trazado 20442" d="M297.06-1957.407a5.017,5.017,0,0,1,1.1.565,14.639,14.639,0,0,0,1.22,1.047,1.05,1.05,0,0,0,1.428-.2.94.94,0,0,0-.188-1.038,2.7,2.7,0,0,0-.939-.6c-.671-.306-1.918-1.166-2.669-1.132C295.961-1958.719,296.273-1957.732,297.06-1957.407Z" transform="translate(-286.169 1993.527)" fill="#99aa72"/>
      </g>
      <path id="Trazado_20443" data-name="Trazado 20443" d="M270.054-1945.988H297s-2.853,23.458-3.8,25.042-15.533,1.9-17.434,0S270.054-1945.988,270.054-1945.988Z" transform="translate(-263.977 1987.937)" fill="#3b3348"/>
      <g id="Grupo_8856" data-name="Grupo 8856" transform="translate(6.8 45.732)">
        <path id="Trazado_20444" data-name="Trazado 20444" d="M290.419-1915.448c-.622-.176-1.253-.385-1.864-.588a21.19,21.19,0,0,0-4.218-1.081,21.579,21.579,0,0,0-7.418.872c-.345.082-.688.163-1.028.241q.142.632.284,1.236c.347-.079.693-.161,1.037-.243a20.642,20.642,0,0,1,6.979-.846,19.973,19.973,0,0,1,3.965,1.026c.624.207,1.269.421,1.918.6a22.752,22.752,0,0,0,6.181.848c.194,0,.388-.006.583-.011q.1-.615.2-1.274A21.546,21.546,0,0,1,290.419-1915.448Z" transform="translate(-273.33 1929.608)" fill="#f5dfd4"/>
        <path id="Trazado_20445" data-name="Trazado 20445" d="M271.562-1937.47a25.541,25.541,0,0,1,5,.524,29.566,29.566,0,0,0,4.926.557h.062a28,28,0,0,0,5.569-.773c.871-.182,1.773-.369,2.656-.509a27.223,27.223,0,0,1,7.146-.159c.057-.442.111-.864.161-1.263a28.526,28.526,0,0,0-7.505.17c-.914.144-1.831.335-2.717.52a26.636,26.636,0,0,1-5.316.746h-.056a28.644,28.644,0,0,1-4.714-.539,25.728,25.728,0,0,0-5.434-.532Q271.444-1938.128,271.562-1937.47Z" transform="translate(-271.338 1939.262)" fill="#f5dfd4"/>
        <path id="Trazado_20446" data-name="Trazado 20446" d="M274.852-1924.828a29.511,29.511,0,0,0,7.054-.849,35.035,35.035,0,0,1,5.606-.829,34.851,34.851,0,0,1,5.62.41c1.29.163,2.607.329,3.934.4.058-.422.116-.844.173-1.262-1.321-.062-2.648-.228-3.947-.393a36.036,36.036,0,0,0-5.827-.419,36.063,36.063,0,0,0-5.813.853,28.011,28.011,0,0,1-6.749.825c-.358-.014-.716-.047-1.073-.087q.127.651.26,1.3C274.343-1924.855,274.6-1924.838,274.852-1924.828Z" transform="translate(-272.428 1934.241)" fill="#f5dfd4"/>
      </g>
    </g>
    <g id="Grupo_8860" data-name="Grupo 8860" transform="translate(380.793 -2069.594)">
      <path id="Trazado_20447" data-name="Trazado 20447" d="M629.734-1960.773H609.743l2.446,33.222a1.585,1.585,0,0,0,1.5,1.543h11.859a1.583,1.583,0,0,0,1.5-1.53Z" transform="translate(-608.768 1964.552)" fill="#88554b"/>
      <g id="Grupo_8858" data-name="Grupo 8858" transform="translate(0)">
        <rect id="Rectángulo_1973" data-name="Rectángulo 1973" width="21.941" height="2.925" rx="0.307" transform="translate(0 1.95)" fill="#f9e2c5"/>
        <path id="Rectángulo_1974" data-name="Rectángulo 1974" d="M.815,0H18.688A.815.815,0,0,1,19.5.815V2.926a0,0,0,0,1,0,0H0a0,0,0,0,1,0,0V.815A.815.815,0,0,1,.815,0Z" transform="translate(1.219)" fill="#f9e2c5"/>
        <path id="Trazado_20448" data-name="Trazado 20448" d="M629.591-1964h-19.5a.114.114,0,0,1-.114-.114.114.114,0,0,1,.114-.114h19.5a.114.114,0,0,1,.114.114A.114.114,0,0,1,629.591-1964Z" transform="translate(-608.869 1966.063)" fill="#282233"/>
      </g>
      <g id="Grupo_8859" data-name="Grupo 8859" transform="translate(5.567 15.481)">
        <circle id="Elipse_802" data-name="Elipse 802" cx="5.363" cy="5.363" r="5.363" fill="#fff"/>
        <path id="Trazado_20449" data-name="Trazado 20449" d="M624.217-1929.515a4.15,4.15,0,0,1-4.145-4.145,4.15,4.15,0,0,1,4.145-4.145,4.149,4.149,0,0,1,4.144,4.145A4.149,4.149,0,0,1,624.217-1929.515Zm0-7.8a3.661,3.661,0,0,0-3.657,3.657,3.66,3.66,0,0,0,3.657,3.656,3.661,3.661,0,0,0,3.657-3.656A3.661,3.661,0,0,0,624.217-1937.316Z" transform="translate(-618.853 1939.023)" fill="#282233"/>
        <rect id="Rectángulo_1975" data-name="Rectángulo 1975" width="9.264" height="2.926" transform="translate(0.731 3.901)" fill="#fff"/>
        <rect id="Rectángulo_1976" data-name="Rectángulo 1976" width="6.826" height="0.975" rx="0.273" transform="translate(1.869 4.876)" fill="#282233"/>
      </g>
    </g>
    <g id="Grupo_8870" data-name="Grupo 8870" transform="translate(448.258 -2080.99)">
      <g id="Grupo_8863" data-name="Grupo 8863" transform="translate(4.438 35.622)">
        <path id="Trazado_20450" data-name="Trazado 20450" d="M736.033-1909.4v-9.1l13.2-5.918H809.78l11.836,5.918v7.739Z" transform="translate(-735.919 1924.423)" fill="#99aa72"/>
        <path id="Trazado_20451" data-name="Trazado 20451" d="M819.251-1913.878H735.944a.115.115,0,0,1-.114-.114.115.115,0,0,1,.114-.114h83.307a.115.115,0,0,1,.114.114A.115.115,0,0,1,819.251-1913.878Z" transform="translate(-735.83 1919.91)" fill="#3b3348"/>
        <g id="Grupo_8861" data-name="Grupo 8861" transform="translate(3.755 7.284)">
          <path id="Trazado_20452" data-name="Trazado 20452" d="M748.374-1908.34a2.731,2.731,0,0,0-2.732-2.731,2.731,2.731,0,0,0-2.732,2.731,2.731,2.731,0,0,0,2.732,2.731A2.732,2.732,0,0,0,748.374-1908.34Z" transform="translate(-742.683 1911.298)" fill="#3b3348"/>
          <path id="Trazado_20453" data-name="Trazado 20453" d="M745.465-1905.557a2.963,2.963,0,0,1-2.959-2.959,2.963,2.963,0,0,1,2.959-2.958,2.962,2.962,0,0,1,2.959,2.958A2.963,2.963,0,0,1,745.465-1905.557Zm0-5.463a2.507,2.507,0,0,0-2.5,2.5,2.507,2.507,0,0,0,2.5,2.5,2.507,2.507,0,0,0,2.5-2.5A2.507,2.507,0,0,0,745.465-1911.02Z" transform="translate(-742.506 1911.475)" fill="#b3b3b3"/>
        </g>
        <g id="Grupo_8862" data-name="Grupo 8862" transform="translate(76.138 7.284)">
          <path id="Trazado_20454" data-name="Trazado 20454" d="M877.046-1908.34a2.731,2.731,0,0,0-2.731-2.731,2.732,2.732,0,0,0-2.732,2.731,2.732,2.732,0,0,0,2.732,2.731A2.731,2.731,0,0,0,877.046-1908.34Z" transform="translate(-871.356 1911.298)" fill="#3b3348"/>
          <path id="Trazado_20455" data-name="Trazado 20455" d="M874.138-1905.557a2.963,2.963,0,0,1-2.959-2.959,2.962,2.962,0,0,1,2.959-2.958,2.962,2.962,0,0,1,2.959,2.958A2.962,2.962,0,0,1,874.138-1905.557Zm0-5.463a2.507,2.507,0,0,0-2.5,2.5,2.507,2.507,0,0,0,2.5,2.5,2.507,2.507,0,0,0,2.5-2.5A2.507,2.507,0,0,0,874.138-1911.02Z" transform="translate(-871.179 1911.475)" fill="#b3b3b3"/>
        </g>
        <rect id="Rectángulo_1977" data-name="Rectángulo 1977" width="19.575" height="5.463" transform="translate(12.861 7.739)" fill="#fff"/>
        <path id="Trazado_20456" data-name="Trazado 20456" d="M777.217-1908.213H762.65a.114.114,0,0,1-.114-.114.114.114,0,0,1,.114-.114h14.568a.114.114,0,0,1,.114.114A.114.114,0,0,1,777.217-1908.213Z" transform="translate(-747.513 1917.432)" fill="#3b3348"/>
        <path id="Trazado_20457" data-name="Trazado 20457" d="M773.348-1904.942h-10.7a.114.114,0,0,1-.114-.114.114.114,0,0,1,.114-.114h10.7a.114.114,0,0,1,.113.114A.114.114,0,0,1,773.348-1904.942Z" transform="translate(-747.513 1916)" fill="#3b3348"/>
      </g>
      <g id="Grupo_8864" data-name="Grupo 8864" transform="translate(0 12.86)">
        <path id="Trazado_20458" data-name="Trazado 20458" d="M734.313-1932.11l85.583-1.821-1.366-5.463,1.366-2.276H817.62v-3.187l.91-1.366.456-1.366-.91-1.821-1.821-.91v-2.276l.91-4.1v-1.366l-.91-1.365s-8.65,1.365-7.739,0,9.1-2.276,9.1-2.276l-4.1-3.187-16.844,1.366s-13.657-.455-15.023,0-47.343-.455-47.343-.455l-6.373,5.463,5.008,1.821-1.821,1.821,1.366,4.552a25.678,25.678,0,0,1,.455,3.186c0,.911-.455,4.552-.455,4.552l-.911,4.553.911,2.276-1.366,4.1Z" transform="translate(-727.94 1964.887)" fill="#f5dfd4"/>
        <path id="Trazado_20459" data-name="Trazado 20459" d="M770.759-1950.576a1.152,1.152,0,0,1-.369-.033c-.729-.365-24.531-1.429-33.641-1.809a.113.113,0,0,1-.109-.119.114.114,0,0,1,.114-.109h.005c1.339.056,32.811,1.371,33.733,1.833.9.34,29.5-3.179,40.45-4.563a.113.113,0,0,1,.127.1.114.114,0,0,1-.1.127C807.109-1954.663,774.677-1950.576,770.759-1950.576Z" transform="translate(-731.746 1960.727)" fill="#3b3348"/>
        <path id="Trazado_20460" data-name="Trazado 20460" d="M733.883-1949.027a.114.114,0,0,1-.114-.112.114.114,0,0,1,.111-.116l35.794-.656c1.954-.14,47.994-3.444,48.448-3.444a.113.113,0,0,1,.114.114.114.114,0,0,1-.114.115c-.482,0-47.958,3.409-48.437,3.443l-35.8.657Z" transform="translate(-730.49 1959.842)" fill="#3b3348"/>
        <path id="Trazado_20461" data-name="Trazado 20461" d="M736.349-1941.949a.114.114,0,0,1-.114-.11.115.115,0,0,1,.111-.118l30.045-.91,28.678-1.366,21.861.911a.114.114,0,0,1,.109.119.111.111,0,0,1-.119.109l-21.851-.911-28.669,1.366-30.047.91Z" transform="translate(-731.569 1955.948)" fill="#3b3348"/>
        <path id="Trazado_20462" data-name="Trazado 20462" d="M736.349-1939.269a.114.114,0,0,1-.114-.112.114.114,0,0,1,.112-.116l48.709-.911h34.828a.114.114,0,0,1,.113.114.114.114,0,0,1-.113.114H785.058l-48.708.911Z" transform="translate(-731.569 1954.178)" fill="#3b3348"/>
        <path id="Trazado_20463" data-name="Trazado 20463" d="M747.466-1934.919l-10.726-1.274a.114.114,0,0,1-.1-.127.116.116,0,0,1,.127-.1l10.7,1.274,29.107-3.641c10.235.871,36.916,3.062,37.74,2.748.439-.445,6.015-2.293,6.649-2.5a.113.113,0,0,1,.143.073.114.114,0,0,1-.073.143,53.788,53.788,0,0,0-6.582,2.463c-.46.457-29.1-1.95-37.874-2.7Z" transform="translate(-731.746 1953.469)" fill="#3b3348"/>
        <path id="Trazado_20464" data-name="Trazado 20464" d="M781.694-1932.592h0l-23.9-.91a.115.115,0,0,1-.11-.119.114.114,0,0,1,.114-.109h0l23.882.91,6.812-1.816a.119.119,0,0,1,.034,0l19.12.911,16.377-.911,6.364-.909a.113.113,0,0,1,.128.1.113.113,0,0,1-.1.128l-6.373.911-16.4.912-19.113-.91-6.812,1.816A.1.1,0,0,1,781.694-1932.592Z" transform="translate(-740.95 1952.054)" fill="#3b3348"/>
        <path id="Trazado_20465" data-name="Trazado 20465" d="M795.529-1928.9c-.9,0-27.99-1.747-29.142-1.821-.281.009-29.136.911-30.038.911a.114.114,0,0,1-.114-.114.114.114,0,0,1,.114-.114c.9,0,29.751-.9,30.042-.91.293.018,28.242,1.821,29.138,1.821s18.467-3.153,18.644-3.185a.146.146,0,0,1,.035,0l6.829.911a.114.114,0,0,1,.1.128.114.114,0,0,1-.128.1l-6.81-.908C813.252-1931.916,796.433-1928.9,795.529-1928.9Z" transform="translate(-731.569 1950.637)" fill="#3b3348"/>
        <path id="Trazado_20466" data-name="Trazado 20466" d="M735.7-1925.764a.114.114,0,0,1-.114-.111.113.113,0,0,1,.112-.116l25.4-.456,29.138.456,22.754-1.366,7.732-.909a.114.114,0,0,1,.126.1.113.113,0,0,1-.1.126l-7.739.911-22.768,1.366-29.143-.455-25.4.455Z" transform="translate(-731.286 1948.867)" fill="#3b3348"/>
        <path id="Trazado_20467" data-name="Trazado 20467" d="M753.237-1922.418c-4.406,0-15.353-.628-17.949-.781a.115.115,0,0,1-.107-.12.115.115,0,0,1,.121-.107c7.6.448,19.093,1.005,19.635.7.455-.457,21.375-.48,25.563-.48h22.761l17.515-1.811a.111.111,0,0,1,.124.1.114.114,0,0,1-.1.125l-17.527,1.813H780.5c-9.9,0-24.834.115-25.424.431A6.139,6.139,0,0,1,753.237-1922.418Z" transform="translate(-731.108 1947.444)" fill="#3b3348"/>
        <path id="Trazado_20468" data-name="Trazado 20468" d="M763.9-1917.116l-14.139-1.82-14.993-1.025a.112.112,0,0,1-.106-.12.113.113,0,0,1,.113-.106h.008l15,1.024,14.119,1.821,29.107-3.187h10.938l17.3-.455h0a.114.114,0,0,1,.114.111.114.114,0,0,1-.111.117l-17.3.455H793.017Z" transform="translate(-730.879 1945.681)" fill="#3b3348"/>
        <path id="Trazado_20469" data-name="Trazado 20469" d="M770.593-1913.525h-.012l-16.844-1.821-18.205-1.365a.113.113,0,0,1-.1-.122.111.111,0,0,1,.122-.1l18.209,1.365,16.828,1.819c.7-.161,11.89-2.73,14.575-2.73h5.918l30.049.911a.113.113,0,0,1,.11.117.114.114,0,0,1-.114.11h0l-30.045-.91H785.16c-2.688,0-14.424,2.7-14.542,2.728A.1.1,0,0,1,770.593-1913.525Z" transform="translate(-731.215 1943.911)" fill="#3b3348"/>
      </g>
      <g id="Grupo_8865" data-name="Grupo 8865" transform="translate(3.87 9.788)">
        <path id="Trazado_20470" data-name="Trazado 20470" d="M734.819-1961.953l10.47-5.463,68.74-2.731,9.56,6.373Z" transform="translate(-734.819 1970.26)" fill="#fed18f"/>
        <path id="Trazado_20471" data-name="Trazado 20471" d="M770.24-1964.886l-17.316-2.277a.113.113,0,0,1-.1-.128.113.113,0,0,1,.128-.1l17.3,2.276c.352-.01,36.912-.914,38-1.137s12.979-4.055,13.1-4.094a.115.115,0,0,1,.143.074.115.115,0,0,1-.074.143c-.49.158-12.018,3.874-13.123,4.1S771.749-1964.924,770.24-1964.886Z" transform="translate(-742.696 1970.349)" fill="#e29734"/>
      </g>
      <g id="Grupo_8868" data-name="Grupo 8868" transform="translate(4.438 1.479)">
        <path id="Trazado_20472" data-name="Trazado 20472" d="M736.033-1970.1v-9.1l13.2-5.918H809.78l11.836,5.918v7.739Z" transform="translate(-735.919 1985.118)" fill="#627596"/>
        <path id="Trazado_20473" data-name="Trazado 20473" d="M819.251-1974.572H735.944a.115.115,0,0,1-.114-.114.114.114,0,0,1,.114-.114h83.307a.115.115,0,0,1,.114.114A.115.115,0,0,1,819.251-1974.572Z" transform="translate(-735.83 1980.604)" fill="#3b3348"/>
        <g id="Grupo_8866" data-name="Grupo 8866" transform="translate(3.755 7.284)">
          <path id="Trazado_20474" data-name="Trazado 20474" d="M748.374-1969.034a2.731,2.731,0,0,0-2.732-2.731,2.731,2.731,0,0,0-2.732,2.731,2.732,2.732,0,0,0,2.732,2.732A2.732,2.732,0,0,0,748.374-1969.034Z" transform="translate(-742.683 1971.993)" fill="#3b3348"/>
          <path id="Trazado_20475" data-name="Trazado 20475" d="M745.465-1966.252a2.963,2.963,0,0,1-2.959-2.959,2.963,2.963,0,0,1,2.959-2.959,2.962,2.962,0,0,1,2.959,2.959A2.962,2.962,0,0,1,745.465-1966.252Zm0-5.463a2.507,2.507,0,0,0-2.5,2.5,2.507,2.507,0,0,0,2.5,2.5,2.507,2.507,0,0,0,2.5-2.5A2.507,2.507,0,0,0,745.465-1971.715Z" transform="translate(-742.506 1972.17)" fill="#b3b3b3"/>
        </g>
        <g id="Grupo_8867" data-name="Grupo 8867" transform="translate(76.138 7.284)">
          <path id="Trazado_20476" data-name="Trazado 20476" d="M877.046-1969.034a2.731,2.731,0,0,0-2.731-2.731,2.732,2.732,0,0,0-2.732,2.731,2.732,2.732,0,0,0,2.732,2.732A2.731,2.731,0,0,0,877.046-1969.034Z" transform="translate(-871.356 1971.993)" fill="#3b3348"/>
          <path id="Trazado_20477" data-name="Trazado 20477" d="M874.138-1966.252a2.962,2.962,0,0,1-2.959-2.959,2.962,2.962,0,0,1,2.959-2.959,2.962,2.962,0,0,1,2.959,2.959A2.962,2.962,0,0,1,874.138-1966.252Zm0-5.463a2.507,2.507,0,0,0-2.5,2.5,2.507,2.507,0,0,0,2.5,2.5,2.507,2.507,0,0,0,2.5-2.5A2.507,2.507,0,0,0,874.138-1971.715Z" transform="translate(-871.179 1972.17)" fill="#b3b3b3"/>
        </g>
        <rect id="Rectángulo_1978" data-name="Rectángulo 1978" width="19.575" height="5.463" transform="translate(12.861 7.739)" fill="#fff"/>
        <path id="Trazado_20478" data-name="Trazado 20478" d="M777.217-1968.908H762.65a.114.114,0,0,1-.114-.114.114.114,0,0,1,.114-.114h14.568a.114.114,0,0,1,.114.114A.114.114,0,0,1,777.217-1968.908Z" transform="translate(-747.513 1978.126)" fill="#3b3348"/>
        <path id="Trazado_20479" data-name="Trazado 20479" d="M773.348-1965.636h-10.7a.114.114,0,0,1-.114-.114.114.114,0,0,1,.114-.114h10.7a.114.114,0,0,1,.113.114A.114.114,0,0,1,773.348-1965.636Z" transform="translate(-747.513 1976.695)" fill="#3b3348"/>
      </g>
      <g id="Grupo_8869" data-name="Grupo 8869" transform="translate(8.877)">
        <path id="Trazado_20480" data-name="Trazado 20480" d="M743.721-1983.221l5.526-2.883,36.279-1.441,5.045,3.364Z" transform="translate(-743.721 1987.659)" fill="#fed18f"/>
        <path id="Trazado_20481" data-name="Trazado 20481" d="M762.375-1984.758l-9.147-1.2a.114.114,0,0,1-.1-.128.115.115,0,0,1,.128-.1l9.13,1.2c6.72-.167,19.583-.506,20.039-.6.573-.118,6.844-2.139,6.907-2.16a.115.115,0,0,1,.144.074.116.116,0,0,1-.074.144c-.259.083-6.345,2.045-6.932,2.166S763.171-1984.777,762.375-1984.758Z" transform="translate(-747.836 1987.748)" fill="#e29734"/>
      </g>
    </g>
    <g id="Grupo_8883" data-name="Grupo 8883" transform="translate(220.896 -2063.122)">
      <path id="Trazado_20482" data-name="Trazado 20482" d="M400.212-1920.474l.422,7.061L386.12-1902.78a3.446,3.446,0,0,1-2.36.65l-57.467-5.435a2.744,2.744,0,0,1-2.486-2.732v-4.95a2.744,2.744,0,0,1,1.788-2.572l3.4-1.266Z" transform="translate(-323.781 1940.45)" fill="#603131"/>
      <path id="Trazado_20483" data-name="Trazado 20483" d="M324.444-1927.533a5.267,5.267,0,0,1,.107-5.37,2.372,2.372,0,0,1,1.7-1.156l26.2-4.009L401.7-1933.9v.965l-1.086.241.242,3.742.844-.181v1.086l-20.415,7.685a2.609,2.609,0,0,1-1.21.151l-53.8-6.089A2.387,2.387,0,0,1,324.444-1927.533Z" transform="translate(-323.761 1948.147)" fill="#d6a972"/>
      <g id="Grupo_8871" data-name="Grupo 8871" transform="translate(56.165 15.278)">
        <path id="Trazado_20484" data-name="Trazado 20484" d="M424.01-1917.49s-.3-5.432-.181-5.432,20.811-5.7,20.811-5.7l.28,3.735S424.976-1917.793,424.01-1917.49Z" transform="translate(-423.691 1928.737)" fill="#f9e1c2"/>
        <path id="Trazado_20485" data-name="Trazado 20485" d="M423.924-1917.465a.111.111,0,0,1-.065-.02.112.112,0,0,1-.049-.087c-.3-5.362-.2-5.469-.154-5.514a.123.123,0,0,1,.07-.036c.286-.053,13.728-3.75,20.8-5.7a.112.112,0,0,1,.1.016.114.114,0,0,1,.048.084l.28,3.736a.114.114,0,0,1-.076.116c-.2.071-19.957,7.1-20.914,7.4A.119.119,0,0,1,423.924-1917.465Zm-.088-5.453c-.042.444.091,3.306.194,5.185,1.937-.653,19.332-6.839,20.685-7.321l-.263-3.511C438.425-1926.9,425.079-1923.231,423.836-1922.919Zm-.047.012a.352.352,0,0,1-.046.01A.11.11,0,0,0,423.789-1922.907Z" transform="translate(-423.605 1928.825)" fill="#3b3348"/>
      </g>
      <path id="Trazado_20486" data-name="Trazado 20486" d="M421.814-1912.241a.171.171,0,0,1-.164-.125,11.377,11.377,0,0,1,0-5.771.172.172,0,0,1,.215-.111.171.171,0,0,1,.111.215,11.222,11.222,0,0,0,0,5.575.17.17,0,0,1-.118.21A.166.166,0,0,1,421.814-1912.241Z" transform="translate(-366.416 1939.48)" fill="#3b3348"/>
      <path id="Trazado_20487" data-name="Trazado 20487" d="M380.391-1924.163h-.018l-53.229-5.552a.171.171,0,0,1-.152-.187.171.171,0,0,1,.187-.152l53.229,5.552a.171.171,0,0,1,.152.188A.171.171,0,0,1,380.391-1924.163Z" transform="translate(-325.174 1944.642)" fill="#3b3348"/>
      <path id="Trazado_20488" data-name="Trazado 20488" d="M342.3-1941.8s-1.448-4.586,0-12.372l21.485-1.811,35.184,3.621v1.267h-.785l-.543,7.243,1.328,2.715h1.569v.785s-24.261,3.8-24.8,3.862S342.3-1941.8,342.3-1941.8Z" transform="translate(-331.588 1955.985)" fill="#e25f4b"/>
      <g id="Grupo_8872" data-name="Grupo 8872" transform="translate(42.824 4.775)">
        <path id="Trazado_20489" data-name="Trazado 20489" d="M401.655-1933.655s-3.138-2.9-.543-12.251l22.88-1.388s-.26,8.51,1.043,9.958Z" transform="translate(-399.975 1947.409)" fill="#f9e1c2"/>
        <path id="Trazado_20490" data-name="Trazado 20490" d="M401.57-1933.63a.112.112,0,0,1-.077-.03,5.517,5.517,0,0,1-1.278-2.674c-.424-1.74-.645-4.835.7-9.691a.113.113,0,0,1,.1-.083l22.88-1.388a.119.119,0,0,1,.086.032.113.113,0,0,1,.034.085c0,.085-.245,8.48,1.014,9.878a.114.114,0,0,1,.022.114.112.112,0,0,1-.089.074l-23.38,3.682Zm-.455-12.256c-2.35,8.545.156,11.651.5,12.021l23.134-3.642c-1.117-1.717-.982-8.691-.955-9.754Z" transform="translate(-399.889 1947.497)" fill="#3b3348"/>
      </g>
      <path id="Trazado_20491" data-name="Trazado 20491" d="M397.6-1932.892a.115.115,0,0,1-.1-.061c-2.109-3.977-.329-10.638-.311-10.7a.115.115,0,0,1,.14-.08.114.114,0,0,1,.08.14c-.018.066-1.774,6.641.292,10.538a.114.114,0,0,1-.047.154A.114.114,0,0,1,397.6-1932.892Z" transform="translate(-355.568 1950.629)" fill="#3b3348"/>
      <path id="Trazado_20492" data-name="Trazado 20492" d="M376.19-1949.052h-.011l-32.408-3.259a.114.114,0,0,1-.1-.124.114.114,0,0,1,.125-.1l32.4,3.258,23.045-1.267a.114.114,0,0,1,.12.107.113.113,0,0,1-.107.12l-23.054,1.267Z" transform="translate(-332.47 1954.477)" fill="#3b3348"/>
      <path id="Trazado_20493" data-name="Trazado 20493" d="M401.233-1943.561a.114.114,0,0,1-.114-.106.114.114,0,0,1,.106-.122l18.919-1.348a.114.114,0,0,1,.122.105.114.114,0,0,1-.106.121l-18.919,1.348Z" transform="translate(-357.603 1951.239)" fill="#3b3348"/>
      <path id="Trazado_20494" data-name="Trazado 20494" d="M417.057-1942.488a.114.114,0,0,1-.113-.106.114.114,0,0,1,.105-.122l14.243-1.026a.112.112,0,0,1,.122.105.114.114,0,0,1-.106.121l-14.243,1.026Z" transform="translate(-364.526 1950.629)" fill="#3b3348"/>
      <path id="Trazado_20495" data-name="Trazado 20495" d="M400.2-1937.831a.114.114,0,0,1-.114-.106.114.114,0,0,1,.105-.122l19.8-1.5a.114.114,0,0,1,.122.105.113.113,0,0,1-.1.122l-19.8,1.5Z" transform="translate(-357.153 1948.799)" fill="#3b3348"/>
      <path id="Trazado_20496" data-name="Trazado 20496" d="M400.015-1934.778a.113.113,0,0,1-.113-.105.114.114,0,0,1,.106-.122l12.845-.905a.113.113,0,0,1,.122.106.114.114,0,0,1-.106.121l-12.845.905Z" transform="translate(-357.07 1947.203)" fill="#3b3348"/>
      <path id="Trazado_20497" data-name="Trazado 20497" d="M400.2-1931.6a.114.114,0,0,1-.113-.1.113.113,0,0,1,.1-.126l21.068-2.471a.114.114,0,0,1,.126.1.114.114,0,0,1-.1.127l-21.068,2.47Z" transform="translate(-357.153 1946.499)" fill="#3b3348"/>
      <path id="Trazado_20498" data-name="Trazado 20498" d="M405.148-1930.233a.114.114,0,0,1-.113-.1.114.114,0,0,1,.1-.129l21.338-3.2a.114.114,0,0,1,.129.1.114.114,0,0,1-.1.13l-21.338,3.2Z" transform="translate(-359.316 1946.22)" fill="#3b3348"/>
      <g id="Grupo_8873" data-name="Grupo 8873" transform="translate(56.181 17.388)">
        <path id="Trazado_20499" data-name="Trazado 20499" d="M423.835-1919.936l17.6-4.936Z" transform="translate(-423.721 1924.986)" fill="#f9e1c2"/>
        <path id="Trazado_20500" data-name="Trazado 20500" d="M423.746-1919.911a.115.115,0,0,1-.11-.083.114.114,0,0,1,.079-.141l17.6-4.936a.114.114,0,0,1,.14.079.114.114,0,0,1-.079.141l-17.6,4.936A.094.094,0,0,1,423.746-1919.911Z" transform="translate(-423.633 1925.075)" fill="#3b3348"/>
      </g>
      <g id="Grupo_8874" data-name="Grupo 8874" transform="translate(61.169 17.035)">
        <path id="Trazado_20501" data-name="Trazado 20501" d="M448.666-1925.5l-15.964,4.638Z" transform="translate(-432.588 1925.614)" fill="#f9e1c2"/>
        <path id="Trazado_20502" data-name="Trazado 20502" d="M432.614-1920.837a.113.113,0,0,1-.109-.082.114.114,0,0,1,.078-.141l15.964-4.638a.115.115,0,0,1,.141.078.114.114,0,0,1-.078.141l-15.964,4.638A.106.106,0,0,1,432.614-1920.837Z" transform="translate(-432.5 1925.703)" fill="#3b3348"/>
      </g>
      <g id="Grupo_8875" data-name="Grupo 8875" transform="translate(56.388 19.862)">
        <path id="Trazado_20503" data-name="Trazado 20503" d="M424.2-1915.906l15.584-4.568Z" transform="translate(-424.089 1920.588)" fill="#f9e1c2"/>
        <path id="Trazado_20504" data-name="Trazado 20504" d="M424.114-1915.881a.114.114,0,0,1-.109-.082.113.113,0,0,1,.077-.141l15.584-4.568a.114.114,0,0,1,.141.078.114.114,0,0,1-.077.141l-15.584,4.567A.1.1,0,0,1,424.114-1915.881Z" transform="translate(-424.001 1920.676)" fill="#3b3348"/>
      </g>
      <g id="Grupo_8876" data-name="Grupo 8876" transform="translate(56.323 19.621)">
        <path id="Trazado_20505" data-name="Trazado 20505" d="M424.088-1915.007l17.459-5.9Z" transform="translate(-423.974 1921.017)" fill="#f9e1c2"/>
        <path id="Trazado_20506" data-name="Trazado 20506" d="M424-1914.982a.113.113,0,0,1-.107-.078.113.113,0,0,1,.071-.144l17.458-5.9a.114.114,0,0,1,.145.071.114.114,0,0,1-.071.145l-17.459,5.9A.122.122,0,0,1,424-1914.982Z" transform="translate(-423.886 1921.106)" fill="#3b3348"/>
      </g>
      <path id="Trazado_20507" data-name="Trazado 20507" d="M385.515-1909.2H385.5l-59.264-4.586a.172.172,0,0,1-.158-.184.17.17,0,0,1,.183-.157l59.265,4.587a.17.17,0,0,1,.157.183A.171.171,0,0,1,385.515-1909.2Z" transform="translate(-324.775 1937.673)" fill="#261212"/>
      <g id="Grupo_8877" data-name="Grupo 8877" transform="translate(60.093 21.28)">
        <path id="Trazado_20508" data-name="Trazado 20508" d="M431.319-1902.231a16.765,16.765,0,0,1,0-8.328,19.122,19.122,0,0,1,4.1-2.233c3.017-1.328,11.672-5.16,11.672-5.16l.3,5S432.466-1902.472,431.319-1902.231Z" transform="translate(-430.673 1918.066)" fill="#f9e1c2"/>
        <path id="Trazado_20509" data-name="Trazado 20509" d="M431.234-1902.206a.114.114,0,0,1-.109-.082,17.032,17.032,0,0,1,0-8.392.115.115,0,0,1,.037-.056,19.108,19.108,0,0,1,4.131-2.25c2.983-1.312,11.585-5.121,11.672-5.16a.111.111,0,0,1,.105.007.113.113,0,0,1,.055.09l.3,5a.116.116,0,0,1-.048.1c-.61.429-14.96,10.5-16.117,10.742A.1.1,0,0,1,431.234-1902.206Zm.1-8.376a16.76,16.76,0,0,0-.02,8.117c1.369-.557,10.86-7.113,15.878-10.636l-.285-4.77c-1.164.516-8.757,3.878-11.523,5.094A20.239,20.239,0,0,0,431.333-1910.582Z" transform="translate(-430.588 1918.155)" fill="#3b3348"/>
      </g>
      <g id="Grupo_8878" data-name="Grupo 8878" transform="translate(61.168 23.121)">
        <path id="Trazado_20510" data-name="Trazado 20510" d="M432.7-1908.464l13.458-6.216Z" transform="translate(-432.588 1914.794)" fill="#f9e1c2"/>
        <path id="Trazado_20511" data-name="Trazado 20511" d="M432.613-1908.439a.115.115,0,0,1-.1-.066.114.114,0,0,1,.056-.151l13.458-6.216a.114.114,0,0,1,.151.056.114.114,0,0,1-.056.151l-13.458,6.216A.112.112,0,0,1,432.613-1908.439Z" transform="translate(-432.499 1914.883)" fill="#3b3348"/>
      </g>
      <g id="Grupo_8879" data-name="Grupo 8879" transform="translate(60.324 24.026)">
        <path id="Trazado_20512" data-name="Trazado 20512" d="M431.112-1906.166a.113.113,0,0,1-.1-.065.114.114,0,0,1,.053-.152l14.3-6.88a.115.115,0,0,1,.152.053.114.114,0,0,1-.053.152l-14.3,6.88A.107.107,0,0,1,431.112-1906.166Z" transform="translate(-430.998 1913.274)" fill="#3b3348"/>
        <path id="Trazado_20513" data-name="Trazado 20513" d="M431.2-1906.191l14.3-6.88Z" transform="translate(-431.086 1913.185)" fill="#f9e1c2"/>
      </g>
      <g id="Grupo_8880" data-name="Grupo 8880" transform="translate(60.09 24.449)">
        <path id="Trazado_20514" data-name="Trazado 20514" d="M430.784-1903.924l15.925-8.4Z" transform="translate(-430.67 1912.434)" fill="#f9e1c2"/>
        <path id="Trazado_20515" data-name="Trazado 20515" d="M430.7-1903.9a.115.115,0,0,1-.1-.061.114.114,0,0,1,.048-.154l15.925-8.4a.115.115,0,0,1,.154.047.115.115,0,0,1-.047.154l-15.925,8.4A.11.11,0,0,1,430.7-1903.9Z" transform="translate(-430.582 1912.522)" fill="#3b3348"/>
      </g>
      <g id="Grupo_8881" data-name="Grupo 8881" transform="translate(60.444 27.225)">
        <path id="Trazado_20516" data-name="Trazado 20516" d="M431.415-1901.229l11.708-6.156Z" transform="translate(-431.301 1907.499)" fill="#f9e1c2"/>
        <path id="Trazado_20517" data-name="Trazado 20517" d="M431.326-1901.2a.113.113,0,0,1-.1-.061.113.113,0,0,1,.047-.153l11.708-6.156a.114.114,0,0,1,.154.048.114.114,0,0,1-.048.154l-11.708,6.156A.114.114,0,0,1,431.326-1901.2Z" transform="translate(-431.212 1907.587)" fill="#3b3348"/>
      </g>
      <g id="Grupo_8882" data-name="Grupo 8882" transform="translate(65.695 26.561)">
        <path id="Trazado_20518" data-name="Trazado 20518" d="M450.163-1908.565l-9.415,5.492Z" transform="translate(-440.634 1908.679)" fill="#f9e1c2"/>
        <path id="Trazado_20519" data-name="Trazado 20519" d="M440.66-1903.048a.113.113,0,0,1-.1-.056.114.114,0,0,1,.04-.156l9.415-5.492a.113.113,0,0,1,.155.041.113.113,0,0,1-.041.156l-9.414,5.492A.118.118,0,0,1,440.66-1903.048Z" transform="translate(-440.546 1908.768)" fill="#3b3348"/>
      </g>
    </g>
    <g id="Grupo_8886" data-name="Grupo 8886" transform="translate(504.161 -2114.207)">
      <path id="Trazado_20520" data-name="Trazado 20520" d="M849.043-2040.081H829.052l2.446,33.222a1.583,1.583,0,0,0,1.5,1.542h11.859a1.582,1.582,0,0,0,1.5-1.529Z" transform="translate(-828.077 2043.859)" fill="#88554b"/>
      <g id="Grupo_8884" data-name="Grupo 8884">
        <path id="Rectángulo_1979" data-name="Rectángulo 1979" d="M.307,0H21.634a.307.307,0,0,1,.307.307V2.618a.307.307,0,0,1-.307.307H.306A.306.306,0,0,1,0,2.619V.307A.307.307,0,0,1,.307,0Z" transform="translate(0 1.95)" fill="#f9e2c5"/>
        <path id="Rectángulo_1980" data-name="Rectángulo 1980" d="M.815,0H18.689A.815.815,0,0,1,19.5.815V2.925a0,0,0,0,1,0,0H0a0,0,0,0,1,0,0V.815A.815.815,0,0,1,.815,0Z" transform="translate(1.219)" fill="#f9e2c5"/>
        <path id="Trazado_20521" data-name="Trazado 20521" d="M848.9-2043.306H829.4a.114.114,0,0,1-.114-.114.114.114,0,0,1,.114-.114h19.5a.114.114,0,0,1,.114.114A.114.114,0,0,1,848.9-2043.306Z" transform="translate(-828.178 2045.37)" fill="#282233"/>
      </g>
      <g id="Grupo_8885" data-name="Grupo 8885" transform="translate(5.567 15.481)">
        <path id="Trazado_20522" data-name="Trazado 20522" d="M847.941-2013.915a5.363,5.363,0,0,0-5.363-5.363,5.364,5.364,0,0,0-5.364,5.363,5.364,5.364,0,0,0,5.364,5.364A5.363,5.363,0,0,0,847.941-2013.915Z" transform="translate(-837.214 2019.278)" fill="#fff"/>
        <path id="Trazado_20523" data-name="Trazado 20523" d="M843.526-2008.822a4.149,4.149,0,0,1-4.145-4.145,4.149,4.149,0,0,1,4.145-4.144,4.149,4.149,0,0,1,4.145,4.144A4.15,4.15,0,0,1,843.526-2008.822Zm0-7.8a3.661,3.661,0,0,0-3.657,3.656,3.661,3.661,0,0,0,3.657,3.657,3.661,3.661,0,0,0,3.656-3.657A3.661,3.661,0,0,0,843.526-2016.623Z" transform="translate(-838.162 2018.33)" fill="#282233"/>
        <rect id="Rectángulo_1981" data-name="Rectángulo 1981" width="9.264" height="2.925" transform="translate(0.732 3.901)" fill="#fff"/>
        <rect id="Rectángulo_1982" data-name="Rectángulo 1982" width="6.826" height="0.975" rx="0.273" transform="translate(1.869 4.876)" fill="#282233"/>
      </g>
    </g>
    <g id="Grupo_8887" data-name="Grupo 8887" transform="translate(228.382 -1998.934)">
      <path id="Trazado_20524" data-name="Trazado 20524" d="M375.763-1841.879l17.3,10.925,20.031,5.008s-23.217,37.784-27.314,39.6-25.038,18.665-25.038,18.665L343.9-1790.893l-6.828-3.187,25.493-22.761Z" transform="translate(-337.069 1841.879)" fill="#f2cdbd"/>
      <path id="Trazado_20525" data-name="Trazado 20525" d="M366.113-1791.932a.112.112,0,0,1-.094-.051.113.113,0,0,1,.031-.158l12.263-8.176c2.54-5.969,9.082-21.5,9.082-22.23a.114.114,0,0,1,.114-.114.114.114,0,0,1,.114.114c0,.923-8.741,21.476-9.113,22.35a.107.107,0,0,1-.042.051l-12.291,8.194A.111.111,0,0,1,366.113-1791.932Z" transform="translate(-349.725 1833.471)" fill="#3b3348"/>
      <path id="Trazado_20526" data-name="Trazado 20526" d="M390.8-1796.231a.111.111,0,0,1-.087-.041.112.112,0,0,1,.013-.16c8.181-6.923,23.747-20.2,24.1-20.9a.115.115,0,0,1,.152-.051.114.114,0,0,1,.051.152c-.461.922-23.188,20.158-24.155,20.977A.114.114,0,0,1,390.8-1796.231Z" transform="translate(-360.523 1831.169)" fill="#3b3348"/>
      <path id="Trazado_20527" data-name="Trazado 20527" d="M395.651-1761.787a.114.114,0,0,1-.1-.062.114.114,0,0,1,.049-.154l18.637-9.545,7.267-11.809a.113.113,0,0,1,.156-.038.114.114,0,0,1,.038.156l-7.284,11.836a.108.108,0,0,1-.044.042L395.7-1761.8A.116.116,0,0,1,395.651-1761.787Z" transform="translate(-362.647 1816.301)" fill="#3b3348"/>
    </g>
    <g id="Grupo_8888" data-name="Grupo 8888" transform="translate(416.024 -1978.819)">
      <path id="Trazado_20528" data-name="Trazado 20528" d="M744.708-1789.578l-3.161,20.214,3.354,20.372s-43.9-6.311-47.193-9.349-27.069-15.572-27.069-15.572l14.623-24.676.214-7.532,31.01,14.364Z" transform="translate(-670.638 1806.12)" fill="#f2cdbd"/>
      <path id="Trazado_20529" data-name="Trazado 20529" d="M731.289-1775.823a.115.115,0,0,1-.062-.018l-12.4-8.028a.114.114,0,0,1-.034-.157.113.113,0,0,1,.158-.034l12.371,8.011c6.487-.039,23.343-.2,24.009-.489a.114.114,0,0,1,.15.059.115.115,0,0,1-.059.15c-.847.366-23.182.5-24.132.507Z" transform="translate(-691.697 1796.478)" fill="#3b3348"/>
      <path id="Trazado_20530" data-name="Trazado 20530" d="M768.255-1752.022h-.007c-1.028-.057-27.706-13.281-28.841-13.844a.113.113,0,0,1-.051-.152.114.114,0,0,1,.152-.051c9.6,4.761,27.967,13.777,28.753,13.82a.115.115,0,0,1,.108.12A.114.114,0,0,1,768.255-1752.022Z" transform="translate(-700.695 1788.604)" fill="#3b3348"/>
      <path id="Trazado_20531" data-name="Trazado 20531" d="M739.383-1732.262h-.016l-13.755-1.987a.111.111,0,0,1-.056-.024l-16.183-13.337a.114.114,0,0,1-.016-.16.115.115,0,0,1,.161-.015l16.158,13.316,13.723,1.983a.113.113,0,0,1,.1.128A.114.114,0,0,1,739.383-1732.262Z" transform="translate(-687.565 1780.613)" fill="#3b3348"/>
    </g>
    <g id="Grupo_8889" data-name="Grupo 8889" transform="translate(228.319 -1855.684)">
      <path id="Trazado_20532" data-name="Trazado 20532" d="M397.46-1587.224l5.995,19.563,11.924,16.855s-42.237,13.515-46.531,12.225-31.153-2.169-31.153-2.169l2.363-28.586-3.1-6.867,34.17-.64Z" transform="translate(-336.957 1587.224)" fill="#f2cdbd"/>
      <path id="Trazado_20533" data-name="Trazado 20533" d="M381.009-1562.547h-.014l-14.662-1.8a.114.114,0,0,1-.1-.127.114.114,0,0,1,.127-.1l14.629,1.8c5.817-2.87,20.906-10.385,21.379-10.937a.115.115,0,0,1,.161-.012.113.113,0,0,1,.012.16c-.6.7-20.63,10.587-21.482,11.007A.11.11,0,0,1,381.009-1562.547Z" transform="translate(-349.764 1581.331)" fill="#3b3348"/>
      <path id="Trazado_20534" data-name="Trazado 20534" d="M410.674-1550.057c-8.282,0-17.279-.069-17.963-.075a.114.114,0,0,1-.113-.114.113.113,0,0,1,.114-.113c10.718.084,31.177.162,31.9-.141a.114.114,0,0,1,.149.061.115.115,0,0,1-.061.149C424.267-1550.107,417.73-1550.057,410.674-1550.057Z" transform="translate(-361.299 1571.162)" fill="#3b3348"/>
      <path id="Trazado_20535" data-name="Trazado 20535" d="M394.094-1515.544a.108.108,0,0,1-.026,0l-20.385-4.919a.114.114,0,0,1-.084-.137.116.116,0,0,1,.138-.084l20.354,4.911,13.209-4.217a.114.114,0,0,1,.143.074.114.114,0,0,1-.074.143l-13.239,4.226A.12.12,0,0,1,394.094-1515.544Z" transform="translate(-352.985 1558.117)" fill="#3b3348"/>
    </g>
    <path id="Trazado_20536" data-name="Trazado 20536" d="M470.951-2163.045a.228.228,0,0,1-.224-.187l-3.811-20.851-7.232,4.164a.227.227,0,0,1-.237-.005.229.229,0,0,1-.1-.213c.277-2.982,1.6-16.807,2.529-20-1.825,1.151-7.834,5.283-11.96,8.149a.227.227,0,0,1-.317-.057.227.227,0,0,1,.057-.317s3.109-2.16,6.233-4.3c6.419-4.4,6.448-4.363,6.633-4.141.043.051.122.188-.057.367-.614.665-1.917,12.376-2.625,19.908l7.13-4.105a.227.227,0,0,1,.209-.009.227.227,0,0,1,.128.165l3.87,21.169a.227.227,0,0,1-.183.264A.2.2,0,0,1,470.951-2163.045Z" transform="translate(-157.897)" fill="#282233"/>
    <path id="Trazado_20537" data-name="Trazado 20537" d="M448.166-2126.636h-6.829a.227.227,0,0,1-.221-.176l-1.77-7.519-5.7,1.315a.228.228,0,0,1-.178-.033.226.226,0,0,1-.1-.154l-1.31-8.291-5.62,3.891a.228.228,0,0,1-.316-.058.228.228,0,0,1,.057-.317l5.918-4.1a.223.223,0,0,1,.219-.022.227.227,0,0,1,.136.173l1.328,8.408,5.68-1.311a.228.228,0,0,1,.273.17l1.78,7.563h6.648a.227.227,0,0,1,.228.228A.228.228,0,0,1,448.166-2126.636Z" transform="translate(-147.63 -25.71)" fill="#282233"/>
    <path id="Trazado_20538" data-name="Trazado 20538" d="M434.813-2079.9a.229.229,0,0,1-.185-.095l-6.667-9.334-6.638,7.081a.226.226,0,0,1-.215.066.227.227,0,0,1-.167-.15l-3.525-10.576-7.934,7.934a.228.228,0,0,1-.322,0,.228.228,0,0,1,0-.322l8.194-8.194a.231.231,0,0,1,.213-.061.228.228,0,0,1,.164.15l3.521,10.563,6.567-7.005a.233.233,0,0,1,.181-.071.229.229,0,0,1,.17.095l6.829,9.56a.228.228,0,0,1-.053.318A.229.229,0,0,1,434.813-2079.9Z" transform="translate(-140.195 -46.953)" fill="#282233"/>
    <path id="Trazado_20539" data-name="Trazado 20539" d="M605.565-2134.577a.232.232,0,0,1-.072-.012.228.228,0,0,1-.144-.288l2.277-6.828a.23.23,0,0,1,.239-.154l13,1.344,2.234-10.725a.229.229,0,0,1,.269-.176.228.228,0,0,1,.177.269l-2.277,10.926a.227.227,0,0,1-.246.18L608-2141.388l-2.219,6.655A.227.227,0,0,1,605.565-2134.577Z" transform="translate(-226.047 -21.639)" fill="#282233"/>
  </g>
</svg>
