<svg xmlns="http://www.w3.org/2000/svg" width="258.43" height="258.498" viewBox="0 0 258.43 258.498">
  <g id="Grupo_8474" data-name="Grupo 8474" transform="translate(-754.067 -387.8)">
    <circle id="Elipse_778" data-name="Elipse 778" cx="129.215" cy="129.215" r="129.215" transform="translate(754.067 387.8)" fill="#58595b"/>
    <rect id="Rectángulo_1765" data-name="Rectángulo 1765" width="0.022" height="1.808" transform="translate(818.309 646.228) rotate(-89.928)" fill="#a11c27"/>
    <rect id="Rectángulo_1766" data-name="Rectángulo 1766" width="1.81" height="0.01" transform="translate(809.992 646.207)" fill="#a11c27"/>
    <path id="Trazado_19145" data-name="Trazado 19145" d="M839.647,707.641v-.023h0v.023" transform="translate(-16.433 -61.411)" fill="#a11c27"/>
    <g id="Grupo_8473" data-name="Grupo 8473" transform="translate(781.337 410.658)">
      <g id="Grupo_8462" data-name="Grupo 8462" transform="translate(115.998 21.863)">
        <path id="Trazado_19146" data-name="Trazado 19146" d="M956.557,683.99l1.524-93.8,33.845-2.611,16.234,97.077Z" transform="translate(-936.217 -470.884)" fill="#bf583a"/>
        <path id="Trazado_19147" data-name="Trazado 19147" d="M956.557,683.99l1.524-93.8,33.845-2.611,16.234,97.077Z" transform="translate(-936.217 -470.884)" fill="#d8af8f"/>
        <path id="Trazado_19148" data-name="Trazado 19148" d="M969.172,640.627c2.337-6.868,19.644-10.564,28.974-12.077l-.826-4.942L970.355,607.2s-5.262.868-12.528,2.348l-1.271,78.213,12.84.167C968.316,672.378,966.981,647.065,969.172,640.627Z" transform="translate(-936.217 -474.649)" fill="#bf583a" opacity="0.2" style="mix-blend-mode: multiply;isolation: isolate"/>
        <path id="Trazado_19149" data-name="Trazado 19149" d="M1016.636,497.154c-6.672,1.458-10.664,7.38-12.213,12.066a155.708,155.708,0,0,1-6.6,14.866.938.938,0,0,1-1.773-.3c-.478-3.906-1.314-11.051-2.007-18.664l2.246-46.41a5.426,5.426,0,1,0-10.84-.524l-1.841,38.038a3.035,3.035,0,0,1-3.106,2.888l-.059,0c-1.619-.04-2.244-1.344-2.282-2.963l-1.79-47.7a5.427,5.427,0,0,0-10.85.253l.465,49.062c.024,1.037-.075,1.908-1.106,2.023l-.293.033a2,2,0,0,1-2.212-1.693l-5.988-41.917a5.424,5.424,0,0,0-6.491-4.542,5.547,5.547,0,0,0-4.227,6.259c1.251,8.754,5.1,35.676,6.092,42.647a1.989,1.989,0,0,1-1.333,2.162l-.369.127a1.986,1.986,0,0,1-2.6-1.438l-6.733-29.94a4.75,4.75,0,0,0-5.819-3.557,4.88,4.88,0,0,0-3.4,5.833l8.423,37.454a26.486,26.486,0,0,1,.625,4.848c.6,16.425,7.943,48.408,10.08,53.458,2.238,5.288.143,20.62.007,21.593l-.553.016a3.145,3.145,0,0,0-3.049,3.239l.056,1.847,51.418-1.554-.056-1.847a3.145,3.145,0,0,0-3.238-3.049l-.28.008c-.406-1.776-5.4-23.786-4.593-27.818.727-3.635,16.233-24.408,20.406-29.949a7.376,7.376,0,0,0,1.349-3.022c1-5.091,4.16-20.626,6.962-29.125A2.094,2.094,0,0,0,1016.636,497.154Z" transform="translate(-931.383 -443.15)" fill="#57c3bc"/>
        <g id="Grupo_8460" data-name="Grupo 8460" transform="translate(5.634 24.724)">
          <path id="Trazado_19150" data-name="Trazado 19150" d="M954.274,517.055a1.971,1.971,0,0,1-.953.084A.685.685,0,0,0,954.274,517.055Z" transform="translate(-941.23 -482.065)" fill="#514db9" opacity="0.35" style="mix-blend-mode: multiply;isolation: isolate"/>
          <path id="Trazado_19151" data-name="Trazado 19151" d="M938.356,473.75c2.093,8.16,6.747,25.487,10.172,32.344l-6.461-28.733A4.743,4.743,0,0,0,938.356,473.75Z" transform="translate(-938.356 -473.75)" fill="#41948f"/>
        </g>
        <path id="Trazado_19152" data-name="Trazado 19152" d="M1033.322,509.93a2.113,2.113,0,0,0-.56.046c-6.672,1.458-10.665,7.38-12.214,12.066a124.344,124.344,0,0,1-5.135,11.85l-.052.63S1026.571,513.086,1033.322,509.93Z" transform="translate(-947.508 -455.972)" fill="#41948f"/>
        <g id="Grupo_8461" data-name="Grupo 8461" transform="translate(21.863 8.883)">
          <path id="Trazado_19153" data-name="Trazado 19153" d="M967.588,500.306c0-.023-.013-.043-.016-.066l-5.988-41.917a5.418,5.418,0,0,0-3.142-4.179C959.948,463.855,964.688,493.43,967.588,500.306Z" transform="translate(-958.442 -454.144)" fill="#41948f"/>
          <path id="Trazado_19154" data-name="Trazado 19154" d="M970.986,512.966v0a1.978,1.978,0,0,1-.55-.4C970.631,512.844,970.816,512.989,970.986,512.966Z" transform="translate(-960.745 -465.362)" fill="#514db9" opacity="0.35" style="mix-blend-mode: multiply;isolation: isolate"/>
        </g>
        <path id="Trazado_19155" data-name="Trazado 19155" d="M999.488,457.268a5.569,5.569,0,0,0-1.641,3.63l-1.841,38.038a2.924,2.924,0,0,1-.066.448C998.362,492.776,999.443,466.018,999.488,457.268Z" transform="translate(-943.779 -445.861)" fill="#41948f"/>
        <path id="Trazado_19156" data-name="Trazado 19156" d="M975.4,444.92a5.41,5.41,0,0,0-1.761,4.122l.448,47.262a9.433,9.433,0,0,0,.455,2.115C976.087,496.951,975.591,457.323,975.4,444.92Z" transform="translate(-939.496 -443.49)" fill="#41948f"/>
        <path id="Trazado_19157" data-name="Trazado 19157" d="M1001.109,607.781a3.145,3.145,0,0,0-3.238-3.049l-.279.008c-.406-1.776-5.4-23.786-4.593-27.818.727-3.635,16.233-24.408,20.406-29.949a7.376,7.376,0,0,0,1.349-3.022c.789-4,2.907-14.453,5.138-22.87-2.832,6.979-6.561,16.346-7.661,19.926-1.846,6.01-9.008,12.7-16.856,22.866-6.082,7.87-16.968,5.831-21.559,4.515a37.478,37.478,0,0,0-3.908-.927c-4.467-.777-16.414-4.2-24.712-18.912,2.5,15.44,6.587,32.378,8.093,35.937,2.238,5.288.143,20.621.007,21.592l-.554.016a3.145,3.145,0,0,0-3.049,3.239l.056,1.847,51.418-1.554Z" transform="translate(-934.035 -458.114)" fill="#41948f"/>
        <path id="Trazado_19158" data-name="Trazado 19158" d="M985.985,571.746s13.843,1.657,16.085-11.211C995.831,564.142,994.076,570.674,985.985,571.746Z" transform="translate(-941.867 -465.69)" fill="#fff" opacity="0.2"/>
        <path id="Trazado_19159" data-name="Trazado 19159" d="M986.72,570.655a3.777,3.777,0,0,0,4.825-1.637C991.459,567.51,987.366,568.544,986.72,570.655Z" transform="translate(-942.008 -467.181)" fill="#fff" opacity="0.2"/>
      </g>
      <g id="Grupo_8465" data-name="Grupo 8465" transform="translate(8.342 21.863)">
        <path id="Trazado_19160" data-name="Trazado 19160" d="M869.355,683.99l-1.524-93.8-33.845-2.611L817.753,684.66Z" transform="translate(-801.908 -470.884)" fill="#bf583a"/>
        <path id="Trazado_19161" data-name="Trazado 19161" d="M869.355,683.99l-1.524-93.8-33.845-2.611L817.753,684.66Z" transform="translate(-801.908 -470.884)" fill="#d8af8f"/>
        <path id="Trazado_19162" data-name="Trazado 19162" d="M859.119,640.627c-2.337-6.868-19.644-10.564-28.974-12.077l.827-4.942L857.936,607.2s5.262.868,12.528,2.348l1.271,78.213-12.84.167C859.975,672.378,861.31,647.065,859.119,640.627Z" transform="translate(-804.288 -474.649)" fill="#bf583a" opacity="0.2" style="mix-blend-mode: multiply;isolation: isolate"/>
        <path id="Trazado_19163" data-name="Trazado 19163" d="M800.676,497.154c6.672,1.458,10.665,7.38,12.214,12.066a155.693,155.693,0,0,0,6.6,14.866.938.938,0,0,0,1.773-.3c.479-3.906,1.315-11.051,2.007-18.664l-2.246-46.41a5.426,5.426,0,1,1,10.84-.524l1.841,38.038a3.035,3.035,0,0,0,3.106,2.888l.06,0c1.619-.04,2.244-1.344,2.281-2.963l1.79-47.7a5.427,5.427,0,0,1,10.85.253l-.465,49.062c-.024,1.037.075,1.908,1.106,2.023l.292.033a2,2,0,0,0,2.212-1.693l5.988-41.917a5.424,5.424,0,0,1,6.49-4.542,5.547,5.547,0,0,1,4.227,6.259c-1.251,8.754-5.1,35.676-6.092,42.647a1.99,1.99,0,0,0,1.333,2.162l.368.127a1.986,1.986,0,0,0,2.6-1.438l6.733-29.94a4.75,4.75,0,0,1,5.819-3.557,4.88,4.88,0,0,1,3.4,5.833l-8.423,37.454a26.469,26.469,0,0,0-.625,4.848c-.6,16.425-7.944,48.408-10.08,53.458-2.237,5.288-.142,20.62-.006,21.593l.553.016a3.145,3.145,0,0,1,3.048,3.239l-.056,1.847L818.8,594.664l.056-1.847a3.145,3.145,0,0,1,3.239-3.049l.279.008c.406-1.776,5.4-23.786,4.594-27.818-.727-3.635-16.233-24.408-20.406-29.949a7.376,7.376,0,0,1-1.349-3.022c-1-5.091-4.159-20.626-6.961-29.125A2.094,2.094,0,0,1,800.676,497.154Z" transform="translate(-798.143 -443.15)" fill="#57c3bc"/>
        <g id="Grupo_8463" data-name="Grupo 8463" transform="translate(69.109 24.724)">
          <path id="Trazado_19164" data-name="Trazado 19164" d="M883.675,517.055a1.972,1.972,0,0,0,.953.084A.685.685,0,0,1,883.675,517.055Z" transform="translate(-883.675 -482.065)" fill="#514db9" opacity="0.35" style="mix-blend-mode: multiply;isolation: isolate"/>
          <path id="Trazado_19165" data-name="Trazado 19165" d="M897.4,473.75c-2.094,8.16-6.748,25.487-10.173,32.344l6.461-28.733A4.743,4.743,0,0,1,897.4,473.75Z" transform="translate(-884.357 -473.75)" fill="#41948f"/>
        </g>
        <path id="Trazado_19166" data-name="Trazado 19166" d="M800.586,509.93a2.11,2.11,0,0,1,.559.046c6.672,1.458,10.665,7.38,12.213,12.066a124.377,124.377,0,0,0,5.136,11.85l.052.63S807.336,513.086,800.586,509.93Z" transform="translate(-798.612 -455.972)" fill="#41948f"/>
        <g id="Grupo_8464" data-name="Grupo 8464" transform="translate(55.683 8.883)">
          <path id="Trazado_19167" data-name="Trazado 19167" d="M868.413,500.306c0-.023.013-.043.016-.066l5.988-41.917a5.418,5.418,0,0,1,3.142-4.179C876.053,463.855,871.314,493.43,868.413,500.306Z" transform="translate(-867.319 -454.144)" fill="#41948f"/>
          <path id="Trazado_19168" data-name="Trazado 19168" d="M867.059,512.966v0a1.977,1.977,0,0,0,.55-.4C867.414,512.844,867.229,512.989,867.059,512.966Z" transform="translate(-867.059 -465.362)" fill="#514db9" opacity="0.35" style="mix-blend-mode: multiply;isolation: isolate"/>
        </g>
        <path id="Trazado_19169" data-name="Trazado 19169" d="M837.844,457.268a5.565,5.565,0,0,1,1.641,3.63l1.841,38.038a3.025,3.025,0,0,0,.066.448C838.97,492.776,837.888,466.018,837.844,457.268Z" transform="translate(-805.766 -445.861)" fill="#41948f"/>
        <path id="Trazado_19170" data-name="Trazado 19170" d="M862.3,444.92a5.407,5.407,0,0,1,1.761,4.122l-.448,47.262a9.435,9.435,0,0,1-.455,2.115C861.614,496.951,862.11,457.323,862.3,444.92Z" transform="translate(-810.418 -443.49)" fill="#41948f"/>
        <path id="Trazado_19171" data-name="Trazado 19171" d="M819.315,607.781a3.145,3.145,0,0,1,3.239-3.049l.279.008c.406-1.776,5.4-23.786,4.593-27.818-.727-3.635-16.233-24.408-20.406-29.949a7.376,7.376,0,0,1-1.349-3.022c-.789-4-2.907-14.453-5.138-22.87,2.832,6.979,6.562,16.346,7.661,19.926,1.845,6.01,9.008,12.7,16.857,22.866,6.082,7.87,16.968,5.831,21.559,4.515a37.479,37.479,0,0,1,3.908-.927c4.467-.777,16.414-4.2,24.712-18.912-2.5,15.44-6.587,32.378-8.093,35.937-2.237,5.288-.142,20.621-.006,21.592l.553.016a3.145,3.145,0,0,1,3.049,3.239l-.056,1.847-51.418-1.554Z" transform="translate(-798.602 -458.114)" fill="#41948f"/>
        <path id="Trazado_19172" data-name="Trazado 19172" d="M848.367,571.746s-13.843,1.657-16.085-11.211C838.521,564.142,840.276,570.674,848.367,571.746Z" transform="translate(-804.698 -465.69)" fill="#fff" opacity="0.2"/>
        <path id="Trazado_19173" data-name="Trazado 19173" d="M850.308,570.655a3.777,3.777,0,0,1-4.824-1.637C845.57,567.51,849.663,568.544,850.308,570.655Z" transform="translate(-807.233 -467.181)" fill="#fff" opacity="0.2"/>
      </g>
      <g id="Grupo_8472" data-name="Grupo 8472">
        <g id="Grupo_8470" data-name="Grupo 8470" transform="translate(0 3.211)">
          <circle id="Elipse_779" data-name="Elipse 779" cx="3.918" cy="3.918" r="3.918" transform="translate(31.865 4.157)" fill="none" stroke="#57c3bc" stroke-miterlimit="10" stroke-width="1.076"/>
          <g id="Grupo_8469" data-name="Grupo 8469">
            <circle id="Elipse_780" data-name="Elipse 780" cx="2.078" cy="2.078" r="2.078" transform="translate(132.598)" fill="none" stroke="#57c3bc" stroke-miterlimit="10" stroke-width="1.076"/>
            <path id="Trazado_19174" data-name="Trazado 19174" d="M928.725,629.528a2.078,2.078,0,1,1-2.078-2.079A2.078,2.078,0,0,1,928.725,629.528Z" transform="translate(-814.077 -459.886)" fill="none" stroke="#57c3bc" stroke-miterlimit="10" stroke-width="1.076"/>
            <path id="Trazado_19175" data-name="Trazado 19175" d="M1039.174,581.945a2.079,2.079,0,1,1-2.078-2.079A2.079,2.079,0,0,1,1039.174,581.945Z" transform="translate(-835.285 -450.749)" fill="none" stroke="#57c3bc" stroke-miterlimit="10" stroke-width="1.076"/>
            <path id="Trazado_19176" data-name="Trazado 19176" d="M791.975,619.355a2.079,2.079,0,1,1-2.079-2.078A2.079,2.079,0,0,1,791.975,619.355Z" transform="translate(-787.818 -457.933)" fill="none" stroke="#57c3bc" stroke-miterlimit="10" stroke-width="1.076"/>
            <circle id="Elipse_781" data-name="Elipse 781" cx="3.125" cy="3.125" r="3.125" transform="translate(192.831 47.993)" fill="none" stroke="#57c3bc" stroke-miterlimit="10" stroke-width="1.076"/>
            <g id="Grupo_8466" data-name="Grupo 8466" transform="translate(103.284 102.031)">
              <line id="Línea_84" data-name="Línea 84" y2="7.208" transform="translate(3.604)" fill="none" stroke="#57c3bc" stroke-miterlimit="10" stroke-width="1.076"/>
              <line id="Línea_85" data-name="Línea 85" x2="7.208" transform="translate(0 3.604)" fill="none" stroke="#57c3bc" stroke-miterlimit="10" stroke-width="1.076"/>
            </g>
            <g id="Grupo_8467" data-name="Grupo 8467" transform="translate(99.758 28.15)">
              <line id="Línea_86" data-name="Línea 86" y2="3.82" transform="translate(1.91)" fill="none" stroke="#514db9" stroke-linecap="round" stroke-miterlimit="10" stroke-width="1.076"/>
              <line id="Línea_87" data-name="Línea 87" x2="3.82" transform="translate(0 1.91)" fill="none" stroke="#57c3bc" stroke-linecap="round" stroke-miterlimit="10" stroke-width="1.076"/>
            </g>
            <g id="Grupo_8468" data-name="Grupo 8468" transform="translate(2.078 117.864)">
              <line id="Línea_88" data-name="Línea 88" y2="3.82" transform="translate(1.91)" fill="none" stroke="#57c3bc" stroke-linecap="round" stroke-miterlimit="10" stroke-width="1.076"/>
              <line id="Línea_89" data-name="Línea 89" x2="3.82" transform="translate(0 1.91)" fill="none" stroke="#514db9" stroke-linecap="round" stroke-miterlimit="10" stroke-width="1.076"/>
            </g>
          </g>
        </g>
        <g id="Grupo_8471" data-name="Grupo 8471" transform="translate(8.22)">
          <path id="Trazado_19177" data-name="Trazado 19177" d="M801.2,467.71l1.135,2.076,2.076,1.135-2.076,1.135-1.135,2.076-1.135-2.076-2.076-1.135,2.076-1.135Z" transform="translate(-797.992 -426.002)" fill="#e7a650"/>
          <path id="Trazado_19178" data-name="Trazado 19178" d="M916.858,416.091l1.135,2.076,2.076,1.135-2.076,1.135-1.135,2.076-1.135-2.076-2.076-1.135,2.076-1.135Z" transform="translate(-820.2 -416.091)" fill="#e7a650"/>
          <path id="Trazado_19179" data-name="Trazado 19179" d="M898.152,587.891l2.482,4.538,4.538,2.482-4.538,2.482-2.482,4.538-2.482-4.538-4.538-2.482,4.538-2.482Z" transform="translate(-815.876 -449.079)" fill="#e7a650"/>
          <path id="Trazado_19180" data-name="Trazado 19180" d="M1014.669,428.693l1.5,2.75,2.75,1.5-2.75,1.5-1.5,2.75-1.5-2.75-2.75-1.5,2.75-1.5Z" transform="translate(-838.781 -418.51)" fill="#e7a650"/>
        </g>
      </g>
    </g>
  </g>
</svg>
