<svg xmlns="http://www.w3.org/2000/svg" width="112.175" height="111.243" viewBox="0 0 112.175 111.243">
  <g id="lab-microscope-cell-covid19-coronavirus" transform="translate(-1292.692 -461.255)">
    <path id="Trazado_18908" data-name="Trazado 18908" d="M1436.32,556.426V515.492a23.928,23.928,0,0,0-23.906-23.906h-2.041a12.975,12.975,0,0,0-3.917-2.63l1.453-5.462a1.817,1.817,0,0,0-1.264-2.237l-.023-.006-5.333-1.435,1.434-5.333a9.661,9.661,0,0,0,1.159-.57,9.1,9.1,0,0,0,4.284-5.59,1.839,1.839,0,0,0-1.287-2.243l-17.763-4.763a1.85,1.85,0,0,0-2.262,1.306,9.137,9.137,0,0,0,.919,6.969,10.6,10.6,0,0,0,.736,1.048l-1.435,5.37-5.333-1.434a1.839,1.839,0,0,0-2.243,1.306l-9.526,35.528a1.821,1.821,0,0,0,1.277,2.236l.029.008,3.549.956-1.416,5.333a1.854,1.854,0,0,0,.166,1.4,1.909,1.909,0,0,0,1.122.846l1.784.478L1375.048,528a1.864,1.864,0,0,0,.184,1.4,1.807,1.807,0,0,0,1.121.846l7.1,1.912a2.12,2.12,0,0,0,.478.055,1.764,1.764,0,0,0,.919-.239,1.839,1.839,0,0,0,.864-1.122l1.416-5.333,1.783.478a1.376,1.376,0,0,0,.478.073,1.826,1.826,0,0,0,.919-.257,1.756,1.756,0,0,0,.846-1.1l1.434-5.333,3.549.938a1.52,1.52,0,0,0,.478.073,1.839,1.839,0,0,0,1.784-1.361l1.453-5.462a14.5,14.5,0,0,0,1.526.092,12.916,12.916,0,0,0,8.956-3.678h2.078a5.534,5.534,0,0,1,5.517,5.517v27.528l-18.389.055v-1.839a1.839,1.839,0,0,0-1.839-1.839h-33.1a1.839,1.839,0,0,0-1.839,1.839v7.356a1.839,1.839,0,0,0,1.839,1.839h33.1a1.839,1.839,0,0,0,1.839-1.839v-1.839l18.389-.055v7.411h-64.362a12.887,12.887,0,0,0-12.872,12.872v3.678a1.839,1.839,0,0,0,1.839,1.839H1440a1.839,1.839,0,0,0,1.839-1.839v-3.678A12.892,12.892,0,0,0,1436.32,556.426Zm-32.475-87.348a5.575,5.575,0,0,1-1.8,1.655,5.437,5.437,0,0,1-4.175.552l-3.549-.956a5.5,5.5,0,0,1-4.083-4.891Zm-5.112,6.032-.993,3.751-7.117-1.894,1.011-3.733a10.8,10.8,0,0,0,1.729.644l3.549.956A8.885,8.885,0,0,0,1398.733,475.11Zm-16.109,53.016-3.549-.956.956-3.549,2.85.754.7.2Zm5.462-6.16-10.647-2.85.938-3.549,10.666,2.85Zm7.245-5.682-21.332-5.7,8.57-31.979,21.313,5.719-.975,3.7a12.859,12.859,0,0,0-6.6,24.586Zm14.932-13.13a9.194,9.194,0,0,1-16.844,2.225,9.066,9.066,0,0,1-.92-6.969,9.2,9.2,0,0,1,8.882-6.822,8.768,8.768,0,0,1,2.372.313,9.172,9.172,0,0,1,4.542,2.814v.018a8.359,8.359,0,0,1,1.049,1.453,9.068,9.068,0,0,1,.919,6.969Zm-14.4,43.6h-29.422v-3.678h29.422Zm17.1-40.4a11.757,11.757,0,0,0,.846-2.243,12.652,12.652,0,0,0-.791-8.808,20.228,20.228,0,0,1,19.621,20.191v39.15a13.354,13.354,0,0,0-3.678-.533h-7.356V515.492A9.182,9.182,0,0,0,1412.966,506.353Zm25.193,62.468h-93.784v-1.839a9.2,9.2,0,0,1,9.194-9.195h75.4a9.2,9.2,0,0,1,9.194,9.195Z" transform="translate(-36.971)" fill="#023c7d"/>
    <path id="Trazado_18909" data-name="Trazado 18909" d="M1312.921,533.187a5.517,5.517,0,0,0,5.517,5.517h14.711a1.839,1.839,0,0,0,0-3.678h-14.711a1.839,1.839,0,0,1-1.839-1.839v-24a22.067,22.067,0,1,0-3.678,0Zm-16.55-45.973A18.389,18.389,0,1,1,1314.76,505.6,18.389,18.389,0,0,1,1296.371,487.214Z" transform="translate(0 -2.983)" fill="#023c7d"/>
    <path id="Trazado_18910" data-name="Trazado 18910" d="M1349.247,529.114a1.839,1.839,0,0,0-1.839-1.839v-2.1a7.2,7.2,0,0,0,1.874-.782l1.488,1.488a1.839,1.839,0,1,0,2.6,2.6l2.6-2.6a1.839,1.839,0,0,0-2.6-2.6h0l-1.488-1.49a7.2,7.2,0,0,0,.78-1.872h2.1a1.839,1.839,0,0,0,3.678,0v-3.678a1.839,1.839,0,0,0-3.678,0h-2.1a7.211,7.211,0,0,0-.782-1.874l1.488-1.49h0a1.839,1.839,0,1,0,2.6-2.6l-2.6-2.6a1.839,1.839,0,1,0-2.6,2.6h0l-1.488,1.488a7.191,7.191,0,0,0-1.874-.782v-2.1a1.839,1.839,0,1,0,0-3.678h-3.678a1.839,1.839,0,0,0,0,3.678v2.1a7.19,7.19,0,0,0-1.874.782l-1.488-1.488a1.839,1.839,0,1,0-2.6-2.6h0l-2.6,2.6a1.839,1.839,0,1,0,2.6,2.6h0l1.488,1.49a7.189,7.189,0,0,0-.78,1.872h-2.1a1.839,1.839,0,0,0-3.678,0v3.678a1.839,1.839,0,0,0,3.678,0h2.1a7.2,7.2,0,0,0,.781,1.874l-1.488,1.49h0a1.839,1.839,0,1,0-2.6,2.6l2.6,2.6a1.839,1.839,0,1,0,2.6-2.6h0l1.488-1.488a7.206,7.206,0,0,0,1.872.78v2.1a1.839,1.839,0,0,0,0,3.678h3.678A1.839,1.839,0,0,0,1349.247,529.114Zm-7.356-11.034a3.678,3.678,0,1,1,3.678,3.678A3.678,3.678,0,0,1,1341.892,518.08Z" transform="translate(-30.81 -33.85)" fill="#023c7d"/>
    <path id="Trazado_18911" data-name="Trazado 18911" d="M1586.214,620.241a5.517,5.517,0,1,1,5.517-5.517A5.517,5.517,0,0,1,1586.214,620.241Zm0-7.356a1.839,1.839,0,1,0,1.839,1.839A1.839,1.839,0,0,0,1586.214,612.886Z" transform="translate(-221.803 -113.944)" fill="#023c7d"/>
  </g>
</svg>
