<svg xmlns="http://www.w3.org/2000/svg" width="112.175" height="112.174" viewBox="0 0 112.175 112.174">
  <g id="Grupo_8419" data-name="Grupo 8419" transform="translate(-1248.729 -718.993)">
    <path id="Trazado_18995" data-name="Trazado 18995" d="M1286.336,762.812a1.658,1.658,0,0,0,1.656-1.657v-6.232a1.657,1.657,0,0,0-3.313,0v6.232A1.657,1.657,0,0,0,1286.336,762.812Z" transform="translate(-13.113 -12.502)" fill="#023c7d"/>
    <path id="Trazado_18996" data-name="Trazado 18996" d="M1305.379,831.513a1.656,1.656,0,0,0-1.61-1.247h-41.741a1.655,1.655,0,0,0-1.609,1.247,23.192,23.192,0,1,0,44.955,0ZM1282.9,857.083a19.866,19.866,0,0,1-19.543-23.5h39.087a19.869,19.869,0,0,1-19.544,23.5Z" transform="translate(-4.004 -40.589)" fill="#023c7d"/>
    <path id="Trazado_18997" data-name="Trazado 18997" d="M1359.247,822.175h-6.212v-4.024a1.657,1.657,0,0,0-1.657-1.657H1350.2V744.734h6.8a1.657,1.657,0,0,0,1.657-1.657V737.4a1.657,1.657,0,0,0-1.657-1.656h-6.8v-6.865a1.658,1.658,0,0,0-1.657-1.657h-5.679a1.658,1.658,0,0,0-1.657,1.657v6.865h-7.156v-7.78a4.487,4.487,0,0,0-.241-8.968h-19.879a4.487,4.487,0,0,0-.232,8.969v7.779h-2.607a1.657,1.657,0,0,0-1.656,1.656v5.68a1.656,1.656,0,0,0,1.656,1.657h2.607V787.5a10.176,10.176,0,0,0,20.352,0V744.734h7.156v71.761h-1.185a1.657,1.657,0,0,0-1.656,1.657v4.024h-46.058a28.858,28.858,0,0,0-.391-51.325V734.376a4.487,4.487,0,0,0-.233-8.969h-25.559a4.488,4.488,0,0,0-.24,8.969V770.85a28.858,28.858,0,0,0-.39,51.325h-15.106a1.657,1.657,0,0,0-1.657,1.656v5.68a1.657,1.657,0,0,0,1.657,1.656h108.861a1.657,1.657,0,0,0,1.657-1.656v-5.68A1.657,1.657,0,0,0,1359.247,822.175Zm-14.73-91.642h2.367v5.206h-2.367Zm-31.771-7.043a1.184,1.184,0,0,1,1.183-1.183h19.879a1.183,1.183,0,1,1,0,2.366h-19.879A1.184,1.184,0,0,1,1312.746,723.49Zm4.259,4.5h13.726v7.755h-13.722Zm-4.259,11.068h42.6v2.367h-42.6Zm17.985,8.757h-4.023a1.656,1.656,0,1,0,0,3.313h4.027V754.2h-4.027a1.657,1.657,0,0,0,0,3.313h4.027v3.076h-4.027a1.657,1.657,0,0,0,0,3.313h4.027v3.076h-4.027a1.657,1.657,0,0,0,0,3.313h4.027v3.077h-4.027a1.657,1.657,0,0,0,0,3.313h4.027V787.5a6.863,6.863,0,1,1-13.726,0V744.734h13.726Zm13.784-3.076h2.366v71.761h-2.366Zm-2.84,75.074h8.047v2.367h-8.047Zm-76.735-89.9a1.184,1.184,0,0,1,1.183-1.184h25.559a1.183,1.183,0,0,1,0,2.366h-25.559A1.183,1.183,0,0,1,1264.939,729.9Zm-11.6,66.713a25.626,25.626,0,0,1,14.891-23.22,1.658,1.658,0,0,0,.965-1.505V734.4H1288.6v3.763h-4.02a1.656,1.656,0,1,0,0,3.313h4.02v3.076h-4.02a1.657,1.657,0,0,0,0,3.313h4.02v3.076h-4.02a1.657,1.657,0,1,0,0,3.313h4.02v3.077h-4.02a1.657,1.657,0,1,0,0,3.313h4.02v3.076h-4.02a1.657,1.657,0,1,0,0,3.313h4.02v4.856a1.657,1.657,0,0,0,.966,1.505,25.559,25.559,0,1,1-36.227,23.22Zm104.251,31.239H1252.042v-2.367h105.548Z" transform="translate(0 0)" fill="#023c7d"/>
    <path id="Trazado_18998" data-name="Trazado 18998" d="M1286.959,845.722a4.5,4.5,0,1,0,4.5,4.5A4.5,4.5,0,0,0,1286.959,845.722Zm0,5.68a1.183,1.183,0,1,1,1.183-1.183A1.183,1.183,0,0,1,1286.959,851.4Z" transform="translate(-12.305 -46.227)" fill="#023c7d"/>
    <path id="Trazado_18999" data-name="Trazado 18999" d="M1311.528,836.967a4.5,4.5,0,1,0,4.5,4.5A4.5,4.5,0,0,0,1311.528,836.967Zm0,5.68a1.183,1.183,0,1,1,1.184-1.183A1.183,1.183,0,0,1,1311.528,842.647Z" transform="translate(-21.267 -43.033)" fill="#023c7d"/>
    <path id="Trazado_19000" data-name="Trazado 19000" d="M1286.934,809.754a4.5,4.5,0,1,0,4.5-4.5A4.5,4.5,0,0,0,1286.934,809.754Zm4.5-1.183a1.183,1.183,0,1,1-1.183,1.183A1.183,1.183,0,0,1,1291.43,808.571Z" transform="translate(-13.936 -31.467)" fill="#023c7d"/>
  </g>
</svg>
