<svg xmlns="http://www.w3.org/2000/svg" width="350.567" height="392.604" viewBox="0 0 350.567 392.604">
  <g id="Grupo_7895" data-name="Grupo 7895" transform="translate(-1509.134 -204.299)">
    <path id="Trazado_16993" data-name="Trazado 16993" d="M1509.134,450.158c0-97.648,78.477-176.808,175.282-176.808S1859.7,352.509,1859.7,450.158s-78.479,176.809-175.285,176.809S1509.134,547.807,1509.134,450.158Z" transform="translate(0 -30.684)" fill="#e5efff" fill-rule="evenodd"/>
    <path id="Trazado_16994" data-name="Trazado 16994" d="M1752.955,287.994a13.539,13.539,0,0,1,2.63-8.144c2.01-2.464,4.871-.069,5.64-1.873,5.887-13.8,2.576-31.377,9.863-43.429,5.034-8.328,20.231-14.009,26.162-14.009,15.7,0,45.307,27.937,43.562,57.07-.149,2.488,2.649,1.229,4.536,2.891,1.671,1.473,2.448,5.871,2.448,7.862,0,5.943-1.287,10.477-4.949,15.168-1.332,1.7-5.37,3.533-5.344,5.509.005.413-3.119,12.681-7.47,19.206-1.469,2.2-1.135,15.965,1.061,25.832,3.9,17.534-21.363,28.936-29.481,28.936-7.425,0-33.7-22.821-32.182-32.151s1.46-24.007.094-26.252a55.232,55.232,0,0,1-5.537-14.8c-.283-1.32-3.038-1.558-4.237-3.018A31.769,31.769,0,0,1,1752.955,287.994Z" transform="translate(-108.345 -7.217)" fill="#feede5" fill-rule="evenodd"/>
    <path id="Trazado_16995" data-name="Trazado 16995" d="M1707.5,708.04s3.375-1.951,6.826-3.527a13.92,13.92,0,0,1,9.756-1.2c4.125.75,8.851,1.351,12.979,2.025s8.552-.076,11.329.525,4.5.6,3.452,2.7-1.951,6.153-2.778,9.905a75.572,75.572,0,0,0-1.049,13.278c.074,2.253-.75,2.027-3.378,1.951s-8.7-.449-11.629-1.576-9-4.8-12-5.775-8.253-1.951-10.131-3.6S1707.722,709.315,1707.5,708.04Z" transform="translate(-88.145 -221.578)" fill="#feede5" fill-rule="evenodd"/>
    <path id="Trazado_16996" data-name="Trazado 16996" d="M1918.371,683.934c1.282-1.547,7.135-7.774,8.569-9.241s8.116-8.265,10.425-9.96a42.726,42.726,0,0,1,10.359-5.3c3.544-1.137,7.728-2.437,11.061-3.337s7.434-2.049,8.819-.463,1.5,3.107,4.339,2.454,4.3.221,4.455,1.806.247,2.939,1.259,4.123a3.006,3.006,0,0,1,.453,3.641,9.993,9.993,0,0,1-3.485,3.264c-1.5.95-3.375.836-3,2.459a4.421,4.421,0,0,1-1.87,4.5c-1.548,1.168-4.724,2.429-6.528,3.492s-5.153,2.35-6.25,3.487-3.711.218-5.562,0a128.881,128.881,0,0,0-13.8-.606c-3.155.207-8.46.026-11.873.131S1917.089,685.482,1918.371,683.934Z" transform="translate(-181.762 -200.205)" fill="#feede5" fill-rule="evenodd"/>
    <path id="Trazado_16997" data-name="Trazado 16997" d="M1760.594,272.244s-.774-6.535-.926-8.553-1.237-8.54-.971-12.438.022-10.553,1.97-15.4,3.131-7.865,5.723-10.7,3.468-3.756,5.369-5.85a46.941,46.941,0,0,1,9.239-7.07,74.222,74.222,0,0,1,13.625-5.124,43.451,43.451,0,0,1,10.972-.7c3.748.259,8.137,1.117,11.438,1.095s4.648.356,6.155-.657,6.635,2.79,7.49,4.89a25.158,25.158,0,0,1,1.723,6.979c.081,1.821.048,2.231,1.661,3.427s6.637,7.8,8.731,11.292a36.616,36.616,0,0,1,4.4,12.453,84.063,84.063,0,0,1,.574,12.6c-.095,2.747.375,12.617.152,14.238s-1.5-.271-2.908.181-.94-1.41-1.161-3.748a14.115,14.115,0,0,0-2.708-6.777c-1.375-1.782-3.762-3.833-5.046-6.557s-2.946-10.148-3.831-11.1a40.7,40.7,0,0,1-5.068-7.1c-1.291-2.581-2.4-7.531-4.462-7.15s-3.485,1.312-6.084.908-8.949-3.344-10.682-3.822a32.748,32.748,0,0,0-6.449-1.223c-2.4-.159-3.335-.446-5.244-.159s-11.979-.451-14.2,1.343a21.484,21.484,0,0,0-5.26,6.519,40.988,40.988,0,0,0-3.034,6.275c-1.211,2.945-2.642,5.2-2.747,8.374s-.036,7.781-.3,10.326-.261,6.374-1.422,9.083-2.094,4.687-3.112,5.659-.815.324-1.838-.531A4.31,4.31,0,0,0,1760.594,272.244Z" transform="translate(-110.878 -0.9)" fill="#fbdfba" fill-rule="evenodd"/>
    <path id="Trazado_16998" data-name="Trazado 16998" d="M1776.172,446.74s-1.187,3.376-.639,4.926a23.251,23.251,0,0,0,4.195,6.66c1.825,1.916,7.482,7.389,9.945,8.94s7.479,4.926,10.582,6.295,6.385,2.463,8.756.912,7.938-3.375,10.858-5.474,8.666-5.565,10.947-7.207,5.474-4.743,6.385-6.659-.456-4.2-.091-6.295,2.1-1.46,3.1.912,2.009,8.21,1,12.133-8.667,30.745-11.769,41.965-16.328,62.49-16.328,62.49l-29.557-49.81s-15.144-45.34-15.692-46.526.638-18.428.638-18.428,1.915-1.915,3.831-4.105A2.756,2.756,0,0,1,1776.172,446.74Z" transform="translate(-114.908 -107.52)" fill="#e5efff" fill-rule="evenodd"/>
    <path id="Trazado_16999" data-name="Trazado 16999" d="M1680.89,462.5s8.412-5.142,11.389-7.931,6.091-4.472,8.614-6.234,2.986-1.424,1.647,1.142-2.36,3.887-2.113,6.545.861,10.827,2.485,15.292,36.828,90.876,36.828,90.876,1.752,1.833,2.051-.736,10.613-47.934,10.613-47.934l8.111-29.057s2.875-6,4.406-9.708,3.9-9.069,4.665-12.709,1.595-7.536.51-9.963-2.747-4.981.446-3.577,8.557,6.9,10.026,8.813,5.557,7.217,8.111,9.069,2.49,1.341,5.557,3a116.237,116.237,0,0,0,14.854,6.728,151.533,151.533,0,0,1,16.1,6.938,34.056,34.056,0,0,1,12.652,10.636,88.97,88.97,0,0,1,7.99,14.076,121.683,121.683,0,0,1,5.434,19.132c1.272,6.625,3.905,20.637,4.5,27.262s2.036,26.241,1.953,32.778-.064,16.516-.548,23.143-.7,10.832-1.455,16.744-1.2,10.041-2.8,15.056-2.728,8.925-4.052,11.892-4.818,2.521-9.16,3.275a90.772,90.772,0,0,1-12.583,1.51c-3.525.062-8.137-64.939-8.137-64.939s-.176-1.3,2.853-2.924,5.955-1.987,8.13-3.439,4.116-2.381,4.05-4.553-1.412-2.058,1.03-3.423,4.653-1.315,5.146-3.53.933-3.1-.176-4.014a3.61,3.61,0,0,1-1.422-3.335c-.017-1.666-.762-1.923-2.115-2.2s-2.573.629-4.109.5-.456-1.719-1.975-2.9-2.813-1.892-5.963-.923-4.78,1.935-7.9,2.756-7.114,1.472-9.853,3.053a42.144,42.144,0,0,0-8.042,5.384,114.13,114.13,0,0,0-10.513,9.82,76.835,76.835,0,0,1-6.435,6.839c-1.37,1.17-73.411,2.967-73.411,2.967s-1.683-1.265-5.894-1.18a40.848,40.848,0,0,1-9.1-.843c-3.2-.506-7.831-2.105-12.545-1.851s-8.422.506-11.2,1.937-6.148,3.537-6.148,3.537l-54.626-.4s-.311-31.5,0-38.014,3.007-31.522,5.13-38.914,4.994-10.779,8.585-16.424,4.161-7.273,7.867-10.34,10.494-6.067,15.3-9.419,12.891-7.2,17.836-9.85S1680.89,462.5,1680.89,462.5Z" transform="translate(-44.211 -107.954)" fill="#fff" fill-rule="evenodd"/>
    <path id="Trazado_17000" data-name="Trazado 17000" d="M1609.125,707.737l54.931.209a13.247,13.247,0,0,0,.209,5.431c.731,3.133,1.253,6.475,2.611,8.147s3.76,2.191,6.995,3.653,9.5,4.073,12.742,5.536,6.58,2.715,9.084,2.82,6.488.778,7.522.612.971-2.749,1.042-5.64.277-8.771,1.353-12.047,1.932-6.515,2.8-8.79,1.376-3.62,3.487-3.788,13.226.232,18.5.408,10.2,1.407,16.357,1.054,18.2,1.144,23.481.266,11.52.615,15.827.088,14.335.176,19.261-.088a45.8,45.8,0,0,1,14.244,2.023c2.376.878,10.057,60.27,8.592,62.824s-2.789-.335-2.625,6.022c.057,2.131.6,11.671.6,11.671s-34.689,27.022-88.031,30.424c-56.211,3.582-99.488-25.149-99.488-25.149l.092-8.647a20.973,20.973,0,0,0-5.54-4.553c-2.832-1.372-5.611-1.251-8.68-3.085s-5.719-5.719-7.416-10.482-3.95-11.268-4.8-17.288-1.825-11.213-2.221-17.553S1609.125,707.737,1609.125,707.737Z" transform="translate(-44.432 -221.977)" fill="#fff" fill-rule="evenodd"/>
    <path id="Trazado_17001" data-name="Trazado 17001" d="M1745.773,464.214a26.012,26.012,0,0,0-2.044,5.256c-.681,2.725-2.53,6.424-2.628,10.318s0,10.123.876,14.016,3.406,9.442,4.671,12.946,4.09,9.735,4.771,12.557,2.336,9.83,2.92,12.751a67.5,67.5,0,0,1,.779,8.078l-3.99,1.071s-1.655-10.61-2.823-14.5-2.338-8.856-3.408-11.876-3.6-9.051-5.061-13.625-2.433-6.134-2.628-10.805a66.841,66.841,0,0,1,.487-13.53,27.388,27.388,0,0,1,3.406-9.441C1742.561,465.285,1745.773,464.214,1745.773,464.214Z" transform="translate(-101.298 -115.497)" fill="#aab5c3" fill-rule="evenodd"/>
    <path id="Trazado_17002" data-name="Trazado 17002" d="M1912.311,467.713s4.206,3.978,5.431,6.044,5.279,10.021,6.732,13.157,4.361,9.486,5.355,12.162.918,3.444,2.984,5.048,3.978,1.455,5.2,5.2,2.6,6.656,2.983,10.786-.152,13.694-.152,13.694l-2.831-.078s-.382-8.873-.995-12.7-.229-9.715-3.366-11.781-4.13-4.973-8.721-5.51-7.189-1.3-9.791,1.607a28.645,28.645,0,0,0-5.814,9.179c-.918,2.832-3.824,10.558-3.824,10.558l-2.6-1.531s2.217-6.425,4.054-10.174a56.667,56.667,0,0,1,5.583-8.951c1.455-1.91,4.439-4.282,6.2-4.282s5.889,1.3,5.737-.382-1.146-5.891-1.607-8.263-4.206-10.709-5.583-13.616S1912.311,467.713,1912.311,467.713Z" transform="translate(-174.976 -117.052)" fill="#aab5c3" fill-rule="evenodd"/>
    <path id="Trazado_17003" data-name="Trazado 17003" d="M1758.089,620.074c0-4.517.988-8.388,3.651-10.682.876-.753-3.392-8.175,1.03-8.925,3.159-.536,4.208,6.755,5.035,6.755,5.365,0,9.715,5.754,9.715,12.851s-4.351,12.854-9.715,12.854S1758.089,627.174,1758.089,620.074Z" transform="translate(-110.626 -176.03)" fill="#d8d6d7" fill-rule="evenodd"/>
    <path id="Trazado_17004" data-name="Trazado 17004" d="M1893.693,569.029c-5.4,13.551-13.7,41.158-14.47,52.328-.546,7.918,2.946,12.917,9.953,16.11,2.948,1.344,6.43,0,9.036,1.191,1.215.553,2.846,2.775.778,3.547-2.238.838-3.027-1.035-4.707-1.346-2.516-.465-6.264-.672-8.375-2.352-5.749-4.579-8.049-6.369-8.994-13.544-.961-7.292,2.134-18.42,4.071-25.285,2.941-10.43,5.9-21.3,9.858-31.544C1890.845,568.134,1893.81,568.732,1893.693,569.029Z" transform="translate(-163.349 -161.675)" fill="#d8d6d7" fill-rule="evenodd"/>
    <path id="Trazado_17005" data-name="Trazado 17005" d="M1965.777,584.659a11.79,11.79,0,0,0-1.745.4,262.638,262.638,0,0,1-1.349,44.426,7.421,7.421,0,0,0,1.666-.555c.033-.017.048-.071.078-.078s.117-.059.159-.078a.8.8,0,0,1,.237-.081c.154-.086.183-.159.318-.237a156.779,156.779,0,0,0,1.825-17.931c.627-16.087.686-18.754.556-25.147C1967.507,584.643,1966.648,584.543,1965.777,584.659Z" transform="translate(-201.541 -169)" fill="#d8d6d7" fill-rule="evenodd"/>
    <g id="Grupo_7822" data-name="Grupo 7822" transform="translate(1651.319 264.25)">
      <path id="Trazado_17006" data-name="Trazado 17006" d="M1805.4,386.81c-12.035,0-23.231-7.2-30.716-19.74-6.439-10.795-7.432-16.975-8.876-38.717-.16-2.406-.406-4.306-.666-6.316l-.1-.778a1.187,1.187,0,0,1,2.355-.3l.1.774c.267,2.049.517,3.984.681,6.464,1.5,22.576,2.7,27.855,8.547,37.658,7.045,11.81,17.5,18.583,28.676,18.583,11.9,0,22.154-5.728,28.881-16.128,6.277-9.707,7.817-18.969,9.08-37.379.227-3.292.524-6.137.812-8.89.285-2.718.572-5.47.806-8.745a1.188,1.188,0,0,1,2.369.169c-.236,3.3-.529,6.08-.813,8.823-.3,2.857-.582,5.556-.8,8.805-1.293,18.841-2.893,28.355-9.455,38.505C1829.094,380.7,1818.127,386.81,1805.4,386.81Z" transform="translate(-1765.03 -312.195)" fill="#667796"/>
    </g>
    <g id="Grupo_7823" data-name="Grupo 7823" transform="translate(1643.695 270.308)">
      <path id="Trazado_17007" data-name="Trazado 17007" d="M1761.9,355.422c-2.659,0-4.669-3.338-6.123-6.246-2.791-5.583-5.755-12.951-3.887-20.432.529-2.114,2.763-5.331,5.422-5.622.921-.111,2.643.1,3.857,2.531a1.187,1.187,0,1,1-2.123,1.062c-.661-1.323-1.275-1.259-1.477-1.235-1.28.141-2.986,2.282-3.375,3.839-1.681,6.727,1.1,13.578,3.707,18.8,2.146,4.293,3.426,4.934,4,4.934a1.187,1.187,0,0,1,0,2.374Z" transform="translate(-1751.308 -323.098)" fill="#667796"/>
    </g>
    <g id="Grupo_7824" data-name="Grupo 7824" transform="translate(1648.464 283.07)">
      <path id="Trazado_17008" data-name="Trazado 17008" d="M1764.979,353.711a1.188,1.188,0,0,1-1.152-.9,9.87,9.87,0,0,0-3.28-4.5,1.187,1.187,0,1,1,1.062-2.123c1.822.912,4.047,4.141,4.522,6.046a1.189,1.189,0,0,1-.865,1.44A1.223,1.223,0,0,1,1764.979,353.711Z" transform="translate(-1759.891 -346.066)" fill="#667796"/>
    </g>
    <g id="Grupo_7825" data-name="Grupo 7825" transform="translate(1729.35 271.178)">
      <path id="Trazado_17009" data-name="Trazado 17009" d="M1906.651,354.851a1.187,1.187,0,0,1-.658-2.174c6.157-4.105,9.02-13.915,8.232-21.028-.234-2.108-1.794-4.34-3.208-4.592-1.009-.177-1.782.9-2.249,1.829a1.187,1.187,0,0,1-2.123-1.062c1.579-3.159,3.678-3.3,4.789-3.1,2.777.5,4.835,3.846,5.151,6.667.855,7.711-2.1,18.485-9.275,23.265A1.188,1.188,0,0,1,1906.651,354.851Z" transform="translate(-1905.464 -324.663)" fill="#667796"/>
    </g>
    <g id="Grupo_7826" data-name="Grupo 7826" transform="translate(1729.655 281.985)">
      <path id="Trazado_17010" data-name="Trazado 17010" d="M1907.2,350.83a1.186,1.186,0,0,1-1-1.827c.248-.388.468-.778.686-1.159a8.6,8.6,0,0,1,3.057-3.562,1.186,1.186,0,1,1,1.215,2.038,6.466,6.466,0,0,0-2.206,2.693c-.239.419-.48.846-.754,1.272A1.186,1.186,0,0,1,1907.2,350.83Z" transform="translate(-1906.013 -344.114)" fill="#667796"/>
    </g>
    <g id="Grupo_7827" data-name="Grupo 7827" transform="translate(1663.216 214.729)">
      <path id="Trazado_17011" data-name="Trazado 17011" d="M1787.627,242.167a1.186,1.186,0,0,1-1.1-1.64c2.573-6.228,10.39-12.483,17.422-13.945,1.479-.307,3.03-.516,4.532-.716,3.433-.462,6.982-.937,9.838-2.63a1.187,1.187,0,0,1,1.21,2.042c-3.271,1.939-7.065,2.448-10.733,2.94-1.527.2-2.969.4-4.365.688-6.247,1.3-13.443,7.035-15.712,12.527A1.185,1.185,0,0,1,1787.627,242.167Z" transform="translate(-1786.44 -223.07)" fill="#667796"/>
    </g>
    <g id="Grupo_7828" data-name="Grupo 7828" transform="translate(1681.415 216.479)">
      <path id="Trazado_17012" data-name="Trazado 17012" d="M1831.435,236.939c-1.075,0-2.065-.05-2.923-.134-.482-.046-1.041-.128-1.644-.216-1.943-.284-4.6-.671-5.883.091a1.187,1.187,0,0,1-1.21-2.043c2-1.188,5.018-.75,7.434-.4.563.082,1.085.158,1.535.2,6.347.622,16.989-.873,20.195-7.549a1.188,1.188,0,0,1,2.142,1.027C1847.627,235.111,1837.935,236.939,1831.435,236.939Z" transform="translate(-1819.194 -226.221)" fill="#667796"/>
    </g>
    <g id="Grupo_7829" data-name="Grupo 7829" transform="translate(1651.514 236.968)">
      <path id="Trazado_17013" data-name="Trazado 17013" d="M1766.567,300.852a1.186,1.186,0,0,1-.876-1.988c4.386-4.8,4.634-11.464,4.875-17.914a66.5,66.5,0,0,1,.666-8.4,22.97,22.97,0,0,1,1.794-5.327,27.355,27.355,0,0,0,1.254-3.265,1.173,1.173,0,0,1,1.465-.817,1.185,1.185,0,0,1,.816,1.466,29.632,29.632,0,0,1-1.356,3.557,21.149,21.149,0,0,0-1.632,4.778,63.889,63.889,0,0,0-.635,8.092c-.255,6.878-.519,13.99-5.494,19.427A1.184,1.184,0,0,1,1766.567,300.852Z" transform="translate(-1765.38 -263.096)" fill="#667796"/>
    </g>
    <g id="Grupo_7830" data-name="Grupo 7830" transform="translate(1703.312 209.74)">
      <path id="Trazado_17014" data-name="Trazado 17014" d="M1861.968,235.9a16.076,16.076,0,0,1-2.355-.171,1.187,1.187,0,0,1,.352-2.348c6.4.961,14.293-2.712,15.246-9.057.336-2.261.065-6.741-1.117-8.338a1.188,1.188,0,0,1,1.91-1.412c1.8,2.436,1.9,7.781,1.553,10.1C1876.525,231.575,1868.947,235.9,1861.968,235.9Z" transform="translate(-1858.602 -214.091)" fill="#667796"/>
    </g>
    <g id="Grupo_7831" data-name="Grupo 7831" transform="translate(1714.134 233.827)">
      <path id="Trazado_17015" data-name="Trazado 17015" d="M1900.4,283.581a1.189,1.189,0,0,1-1.129-.82c-1.622-4.978-4.928-7.252-8.757-9.885a48.343,48.343,0,0,1-5.276-4.006,31.489,31.489,0,0,1-7.046-9.735,1.186,1.186,0,1,1,2.146-1.011,29.039,29.039,0,0,0,6.495,8.987,46.469,46.469,0,0,0,5.026,3.808c3.834,2.637,7.8,5.362,9.671,11.107a1.188,1.188,0,0,1-.76,1.5A1.208,1.208,0,0,1,1900.4,283.581Z" transform="translate(-1878.08 -257.442)" fill="#667796"/>
    </g>
    <g id="Grupo_7832" data-name="Grupo 7832" transform="translate(1723.211 251.527)">
      <path id="Trazado_17016" data-name="Trazado 17016" d="M1904.109,309.635a1.293,1.293,0,0,1-.179-.013,1.186,1.186,0,0,1-1-1.349c.707-4.733-1.445-7.277-3.934-10.22a21.105,21.105,0,0,1-4.525-7.2,1.188,1.188,0,1,1,2.258-.737,19.286,19.286,0,0,0,4.077,6.406c2.624,3.1,5.336,6.307,4.469,12.1A1.186,1.186,0,0,1,1904.109,309.635Z" transform="translate(-1894.416 -289.296)" fill="#667796"/>
    </g>
    <g id="Grupo_7833" data-name="Grupo 7833" transform="translate(1657.908 204.299)">
      <path id="Trazado_17017" data-name="Trazado 17017" d="M1778.178,224.458a1.186,1.186,0,0,1-1.15-.892c-.841-3.278,2.077-7.024,8.925-11.451,7.861-5.076,17.471-7.946,25.749-7.757,2.348.064,4.715.291,7,.511a71.84,71.84,0,0,0,8.248.513l.633,0c1.351.009,2.626.019,3.363-.733a1.187,1.187,0,0,1,1.692,1.665c-1.444,1.472-3.479,1.456-5.072,1.44h-.6a80.885,80.885,0,0,1-8.491-.526c-2.249-.216-4.574-.439-6.841-.5-7.654-.2-17.031,2.62-24.4,7.376-7.888,5.1-8.162,7.9-7.914,8.867a1.189,1.189,0,0,1-.856,1.445A1.161,1.161,0,0,1,1778.178,224.458Z" transform="translate(-1776.887 -204.299)" fill="#667796"/>
    </g>
    <g id="Grupo_7834" data-name="Grupo 7834" transform="translate(1646.71 223.673)">
      <path id="Trazado_17018" data-name="Trazado 17018" d="M1758.912,280.458a1.189,1.189,0,0,1-1.173-1.018c-2.489-17.469-.35-30.86,6.361-39.8a1.186,1.186,0,1,1,1.9,1.425c-6.316,8.417-8.306,21.215-5.906,38.037a1.188,1.188,0,0,1-1.008,1.343A1.16,1.16,0,0,1,1758.912,280.458Z" transform="translate(-1756.734 -239.168)" fill="#667796"/>
    </g>
    <g id="Grupo_7835" data-name="Grupo 7835" transform="translate(1721.598 219.741)">
      <path id="Trazado_17019" data-name="Trazado 17019" d="M1907.058,280.753a1.187,1.187,0,0,1-1.182-1.11c-.188-2.9-.13-5.807-.074-8.622.055-2.773.111-5.64-.07-8.453-.642-9.9-5.953-20.8-13.858-28.44a1.187,1.187,0,0,1,1.65-1.706c8.311,8.031,13.9,19.524,14.576,29.993.188,2.914.13,5.831.074,8.652-.055,2.767-.111,5.627.07,8.422a1.189,1.189,0,0,1-1.108,1.261Z" transform="translate(-1891.513 -232.091)" fill="#667796"/>
    </g>
    <g id="Grupo_7836" data-name="Grupo 7836" transform="translate(1659.78 316.593)">
      <path id="Trazado_17020" data-name="Trazado 17020" d="M1781.444,435.145a1.187,1.187,0,0,1-1.032-1.774c.631-1.277,2.04-13.853.243-25.6a1.187,1.187,0,1,1,2.346-.359c1.792,11.712.543,25.255-.526,27.137A1.183,1.183,0,0,1,1781.444,435.145Z" transform="translate(-1780.257 -406.4)" fill="#667796"/>
    </g>
    <g id="Grupo_7837" data-name="Grupo 7837" transform="translate(1719.913 319.699)">
      <path id="Trazado_17021" data-name="Trazado 17021" d="M1891.306,439.177a1.183,1.183,0,0,1-1.06-.654c-1.377-2.739-2.687-16.6-.895-25.579a1.186,1.186,0,0,1,2.327.464c-1.782,8.934-.276,22.135.686,24.049a1.186,1.186,0,0,1-1.059,1.72Z" transform="translate(-1888.48 -411.989)" fill="#667796"/>
    </g>
    <g id="Grupo_7838" data-name="Grupo 7838" transform="translate(1659.105 339.582)">
      <path id="Trazado_17022" data-name="Trazado 17022" d="M1808.818,477.219a1.182,1.182,0,0,1-.658-.2,32.9,32.9,0,0,0-4.423-2.328c-1.115-.517-2.228-1.035-3.292-1.626a59.936,59.936,0,0,1-15.6-12.59c-.48-.559-.995-1.106-1.507-1.652-2.524-2.683-5.387-5.723-3.88-10.241a1.188,1.188,0,0,1,2.254.751c-1.06,3.172.987,5.346,3.357,7.864.537.572,1.077,1.146,1.581,1.734a57.411,57.411,0,0,0,14.949,12.06c1.013.563,2.075,1.055,3.139,1.549a34.961,34.961,0,0,1,4.738,2.5,1.187,1.187,0,0,1-.658,2.174Z" transform="translate(-1779.042 -447.773)" fill="#667796"/>
    </g>
    <g id="Grupo_7839" data-name="Grupo 7839" transform="translate(1691.929 339.188)">
      <path id="Trazado_17023" data-name="Trazado 17023" d="M1839.3,476.663a1.187,1.187,0,0,1-.707-2.141,32.049,32.049,0,0,1,6.1-3.259c1.423-.635,2.768-1.233,4.01-1.944,5.564-3.183,11.384-6.752,16.263-11.272.992-.92,5.814-5.684,3.292-9.091a1.188,1.188,0,1,1,1.91-1.411c2.884,3.9.037,8.881-3.588,12.243-5.054,4.683-11.013,8.338-16.7,11.592a46.672,46.672,0,0,1-4.223,2.05,30.318,30.318,0,0,0-5.654,3A1.185,1.185,0,0,1,1839.3,476.663Z" transform="translate(-1838.116 -447.064)" fill="#667796"/>
    </g>
    <g id="Grupo_7840" data-name="Grupo 7840" transform="translate(1674.03 368.685)">
      <path id="Trazado_17024" data-name="Trazado 17024" d="M1807.091,521.484a1.206,1.206,0,0,1-.195-.015,1.188,1.188,0,0,1-.978-1.365c.858-5.234,5.89-12.549,8.728-16.045a12.684,12.684,0,0,1,5.144-3.857,1.187,1.187,0,1,1,.7,2.267,10.418,10.418,0,0,0-4,3.086c-2.506,3.088-7.452,10.182-8.231,14.935A1.186,1.186,0,0,1,1807.091,521.484Z" transform="translate(-1805.902 -500.15)" fill="#667796"/>
    </g>
    <g id="Grupo_7841" data-name="Grupo 7841" transform="translate(1692.061 368.318)">
      <path id="Trazado_17025" data-name="Trazado 17025" d="M1854.523,521.494a1.184,1.184,0,0,1-.964-.493,59.674,59.674,0,0,1-4.062-6.883c-2.7-5.074-5.248-9.868-10.468-12.372a1.186,1.186,0,1,1,1.025-2.139c5.927,2.84,8.779,8.208,11.54,13.4a57.7,57.7,0,0,0,3.894,6.61,1.186,1.186,0,0,1-.965,1.88Z" transform="translate(-1838.354 -499.49)" fill="#667796"/>
    </g>
    <g id="Grupo_7842" data-name="Grupo 7842" transform="translate(1655.992 337.923)">
      <path id="Trazado_17026" data-name="Trazado 17026" d="M1774.627,452.316a1.184,1.184,0,0,1-1.124-1.568,10.773,10.773,0,0,1,4.518-5.755,1.186,1.186,0,1,1,1.34,1.959,8.36,8.36,0,0,0-3.609,4.559A1.189,1.189,0,0,1,1774.627,452.316Z" transform="translate(-1773.44 -444.787)" fill="#667796"/>
    </g>
    <g id="Grupo_7843" data-name="Grupo 7843" transform="translate(1721.376 338.406)">
      <path id="Trazado_17027" data-name="Trazado 17027" d="M1896.452,453.513a1.184,1.184,0,0,1-.979-.516,9.162,9.162,0,0,1-1.055-2.359,7.9,7.9,0,0,0-.748-1.772,3.569,3.569,0,0,0-.874-.67,1.057,1.057,0,0,1-.151.054,1.182,1.182,0,0,1-1.467-.813,1.363,1.363,0,0,1,.714-1.667c1.277-.573,3.347,1.151,3.771,1.807a9.853,9.853,0,0,1,1.006,2.308,7.3,7.3,0,0,0,.76,1.77,1.186,1.186,0,0,1-.978,1.857Z" transform="translate(-1891.114 -445.656)" fill="#667796"/>
    </g>
    <g id="Grupo_7844" data-name="Grupo 7844" transform="translate(1689.08 370.164)">
      <path id="Trazado_17028" data-name="Trazado 17028" d="M1838.224,559.972a1.186,1.186,0,0,1-1.177-1.061l-.373-3.457c-1.134-10.422-2.3-21.2-2.427-31.679-.021-1.723.093-3.527.213-5.439.306-4.895.623-9.956-1.34-13.8a1.187,1.187,0,1,1,2.114-1.08c2.258,4.42,1.905,10.054,1.592,15.025-.116,1.866-.227,3.629-.206,5.264.123,10.365,1.286,21.084,2.413,31.45l.373,3.461a1.186,1.186,0,0,1-1.052,1.306A1.128,1.128,0,0,1,1838.224,559.972Z" transform="translate(-1832.989 -502.813)" fill="#667796"/>
    </g>
    <g id="Grupo_7845" data-name="Grupo 7845" transform="translate(1655.126 344.905)">
      <path id="Trazado_17029" data-name="Trazado 17029" d="M1813.777,571.311a1.189,1.189,0,0,1-1.126-.812c-4.036-12.106-31.292-77.324-35.717-87.655a58.814,58.814,0,0,1-4.481-18.06c-.035-.408-.123-.909-.216-1.45-.306-1.8-.656-3.846.083-5.326a1.187,1.187,0,1,1,2.124,1.06c-.392.787-.088,2.566.135,3.867.1.615.2,1.186.238,1.651a56.433,56.433,0,0,0,4.3,17.324c4.43,10.344,31.73,75.674,35.786,87.838a1.189,1.189,0,0,1-1.127,1.562Z" transform="translate(-1771.881 -457.353)" fill="#667796"/>
    </g>
    <g id="Grupo_7846" data-name="Grupo 7846" transform="translate(1695.835 346.66)">
      <path id="Trazado_17030" data-name="Trazado 17030" d="M1846.332,572.168a1.224,1.224,0,0,1-1.185-1.232c0-.384,13.864-68.917,21.067-84.762.45-.991.93-2.017,1.421-3.068,3.164-6.779,6.753-14.462,6.753-21.408a1.187,1.187,0,1,1,2.374,0c0,7.473-3.707,15.41-6.977,22.413-.487,1.043-.962,2.06-1.41,3.045-6.736,14.822-20.564,81.294-20.858,83.87A1.147,1.147,0,0,1,1846.332,572.168Z" transform="translate(-1845.147 -460.511)" fill="#667796"/>
    </g>
    <g id="Grupo_7847" data-name="Grupo 7847" transform="translate(1695.392 454.716)">
      <path id="Trazado_17031" data-name="Trazado 17031" d="M1847.162,679.223a1.186,1.186,0,0,1-1.187-1.187,100.685,100.685,0,0,0-.812-10.9,101.8,101.8,0,0,1-.813-10.967,1.187,1.187,0,1,1,2.374,0,99.2,99.2,0,0,0,.8,10.706,102.629,102.629,0,0,1,.825,11.16A1.186,1.186,0,0,1,1847.162,679.223Z" transform="translate(-1844.35 -654.983)" fill="#667796"/>
    </g>
    <g id="Grupo_7848" data-name="Grupo 7848" transform="translate(1646.199 336.863)">
      <path id="Trazado_17032" data-name="Trazado 17032" d="M1757,454.9a1.187,1.187,0,0,1-.872-1.993,41.616,41.616,0,0,1,3.468-3.364,39.379,39.379,0,0,1,4.75-3.325,36.483,36.483,0,0,0,4.375-3.05,1.187,1.187,0,1,1,1.544,1.8,38.8,38.8,0,0,1-4.655,3.257,37.469,37.469,0,0,0-4.469,3.119,38.82,38.82,0,0,0-3.269,3.173A1.186,1.186,0,0,1,1757,454.9Z" transform="translate(-1755.815 -442.88)" fill="#667796"/>
    </g>
    <g id="Grupo_7849" data-name="Grupo 7849" transform="translate(1626.77 360.04)">
      <path id="Trazado_17033" data-name="Trazado 17033" d="M1728.438,494.163a1.169,1.169,0,0,1-.39-.066c-.566-.2-1.122-.384-1.674-.551l-.524-.145c-2.276-.606-4.536-1.337-4.953-3-.4-1.606,1.676-2.246,3.509-2.812.285-.088.522-.157.64-.207a22.81,22.81,0,0,0,3.422-2.5,1.187,1.187,0,0,1,1.544,1.8,24.852,24.852,0,0,1-3.86,2.8,5.664,5.664,0,0,1-1.045.378c-.269.082-.775.239-1.231.4a17.318,17.318,0,0,0,2.587.851l.6.168c.577.175,1.166.372,1.76.58a1.186,1.186,0,0,1-.389,2.308Z" transform="translate(-1720.848 -484.592)" fill="#667796"/>
    </g>
    <g id="Grupo_7850" data-name="Grupo 7850" transform="translate(1641.634 369.602)">
      <path id="Trazado_17034" data-name="Trazado 17034" d="M1753.259,504.995a1.176,1.176,0,0,1-.61-.169,9.772,9.772,0,0,0-3.57-.632l-.368-.022a1.187,1.187,0,0,1-1.109-1.26,1.129,1.129,0,0,1,1.261-1.109l.357.022a10.922,10.922,0,0,1,4.648.965,1.187,1.187,0,0,1-.609,2.2Z" transform="translate(-1747.6 -501.8)" fill="#667796"/>
    </g>
    <g id="Grupo_7851" data-name="Grupo 7851" transform="translate(1642.794 374.616)">
      <path id="Trazado_17035" data-name="Trazado 17035" d="M1799.736,592.358a1.187,1.187,0,0,1-1.036-.606,137.09,137.09,0,0,0-11.043-15.926,156.981,156.981,0,0,1-9.991-14.089l-2.068-3.453c-2.77-4.643-5.632-9.444-8.85-13.9-1.868-2.588-3.936-5.129-5.934-7.587-2.235-2.748-4.546-5.589-6.6-8.526a11.51,11.51,0,0,0-1.785-1.721,9.637,9.637,0,0,1-2.545-2.757c-.658-1.4.538-2.435,1.182-2.993a3.877,3.877,0,0,0,.619-.61,35.6,35.6,0,0,0,2.065-4.258,37.928,37.928,0,0,1,2.2-4.53,1.187,1.187,0,1,1,2.035,1.222,35.546,35.546,0,0,0-2.058,4.249,38.3,38.3,0,0,1-2.209,4.541,5.175,5.175,0,0,1-1.1,1.181c-.139.12-.327.282-.452.412a11.778,11.778,0,0,0,1.8,1.734,12.877,12.877,0,0,1,2.191,2.168c2.012,2.868,4.3,5.676,6.5,8.391,2.019,2.484,4.107,5.052,6.015,7.7,3.278,4.543,6.168,9.389,8.963,14.077l2.061,3.442a155.642,155.642,0,0,0,9.843,13.871,138.831,138.831,0,0,1,11.233,16.209,1.187,1.187,0,0,1-.457,1.616A1.173,1.173,0,0,1,1799.736,592.358Z" transform="translate(-1749.687 -510.825)" fill="#667796"/>
    </g>
    <g id="Grupo_7852" data-name="Grupo 7852" transform="translate(1723 338.149)">
      <path id="Trazado_17036" data-name="Trazado 17036" d="M1904.582,455.09a1.182,1.182,0,0,1-.874-.383,42.665,42.665,0,0,0-9.1-7.309,1.188,1.188,0,0,1,1.224-2.035,45.155,45.155,0,0,1,9.62,7.738,1.187,1.187,0,0,1-.874,1.99Z" transform="translate(-1894.036 -445.195)" fill="#667796"/>
    </g>
    <g id="Grupo_7853" data-name="Grupo 7853" transform="translate(1747.107 362.826)">
      <path id="Trazado_17037" data-name="Trazado 17037" d="M1942.094,498.224a1.187,1.187,0,0,1-.709-2.139,7.677,7.677,0,0,0,1.428-1.3,19.441,19.441,0,0,0-1.8-1.053c-.236-.127-.428-.229-.54-.3-.836-.5-1.7-1.073-2.554-1.679a1.186,1.186,0,0,1,1.373-1.935c.8.57,1.62,1.107,2.4,1.58.088.052.243.134.436.236,1.957,1.045,2.926,1.695,3.146,2.569.273,1.117-.513,2.317-2.476,3.781A1.181,1.181,0,0,1,1942.094,498.224Zm.985-3.206h0Z" transform="translate(-1937.422 -489.606)" fill="#667796"/>
    </g>
    <g id="Grupo_7854" data-name="Grupo 7854" transform="translate(1734.113 372.045)">
      <path id="Trazado_17038" data-name="Trazado 17038" d="M1915.224,510.356a1.187,1.187,0,0,1-.287-2.339c1.743-.433,3.475-.743,5.151-1.042,1.3-.232,2.591-.461,3.869-.747a1.174,1.174,0,0,1,1.419.9,1.186,1.186,0,0,1-.9,1.416c-1.314.293-2.638.53-3.971.768-1.637.291-3.329.593-4.993,1.009A1.227,1.227,0,0,1,1915.224,510.356Z" transform="translate(-1914.037 -506.197)" fill="#667796"/>
    </g>
    <g id="Grupo_7855" data-name="Grupo 7855" transform="translate(1696.554 376.583)">
      <path id="Trazado_17039" data-name="Trazado 17039" d="M1847.627,599.306a1.166,1.166,0,0,1-.519-.121,1.185,1.185,0,0,1-.547-1.587c.686-1.406,1.586-3.15,2.529-4.972,1.658-3.209,3.373-6.528,4.3-8.726,1.449-3.458,2.838-6.9,4.219-10.325,4.312-10.69,8.385-20.788,14.006-30.866a88.821,88.821,0,0,1,9.293-12.843l1.715-2.1a16.436,16.436,0,0,1,1.808-1.7c.871-.751,2.909-2.513,2.988-3.174-.026-.932-1.15-2.282-2.142-3.473a13.54,13.54,0,0,1-2.33-3.43,1.186,1.186,0,1,1,2.211-.86,12.2,12.2,0,0,0,1.943,2.771c1.3,1.559,2.641,3.173,2.691,4.943.042,1.568-1.553,3.069-3.811,5.018a16.424,16.424,0,0,0-1.514,1.4l-1.725,2.113a87.094,87.094,0,0,0-9.057,12.494c-5.547,9.949-9.592,19.979-13.876,30.6-1.386,3.434-2.779,6.888-4.232,10.356-.96,2.285-2.7,5.647-4.377,8.9-.932,1.8-1.824,3.531-2.5,4.922A1.186,1.186,0,0,1,1847.627,599.306Z" transform="translate(-1846.44 -514.365)" fill="#667796"/>
    </g>
    <g id="Grupo_7856" data-name="Grupo 7856" transform="translate(1574.253 353.296)">
      <path id="Trazado_17040" data-name="Trazado 17040" d="M1627.519,518.818a1.186,1.186,0,0,1-1.025-1.784l1.117-1.935c2.617-4.556,5.09-8.86,8.89-12.566a48.556,48.556,0,0,1,10.243-7.121c1.546-.885,3.1-1.773,4.625-2.752A209.808,209.808,0,0,1,1670.5,482.18c5.888-2.963,11.974-6.027,17.641-9.548a1.187,1.187,0,1,1,1.251,2.017c-5.755,3.577-11.889,6.665-17.823,9.651a207.571,207.571,0,0,0-18.911,10.357c-1.56,1-3.148,1.909-4.729,2.814-3.528,2.018-6.859,3.923-9.764,6.759-3.565,3.476-5.958,7.641-8.494,12.049l-1.124,1.948A1.183,1.183,0,0,1,1627.519,518.818Z" transform="translate(-1626.332 -472.455)" fill="#667796"/>
    </g>
    <g id="Grupo_7857" data-name="Grupo 7857" transform="translate(1562.925 407.731)">
      <path id="Trazado_17041" data-name="Trazado 17041" d="M1630.863,721.832a1.181,1.181,0,0,1-.605-.166,15.011,15.011,0,0,0-3.794-1.371,13.442,13.442,0,0,1-5.772-2.594c-3.072-2.693-4.7-6.967-6.131-10.737l-.629-1.63c-5.475-13.927-6.335-30.169-7.093-44.5l-.051-.98c-1.379-25.986-1.866-56.822,4.991-88.494a1.186,1.186,0,1,1,2.318.5c-6.8,31.4-6.309,62.036-4.94,87.866l.053.98c.786,14.841,1.6,30.188,6.931,43.754l.637,1.656c1.335,3.512,2.852,7.492,5.48,9.8a11.453,11.453,0,0,0,4.815,2.085,16.958,16.958,0,0,1,4.4,1.622,1.187,1.187,0,0,1-.605,2.208Z" transform="translate(-1605.943 -570.424)" fill="#667796"/>
    </g>
    <g id="Grupo_7858" data-name="Grupo 7858" transform="translate(1598.157 547.242)">
      <path id="Trazado_17042" data-name="Trazado 17042" d="M1772.9,851.238a22.089,22.089,0,0,1-4.437-.646c-.633-.137-1.212-.263-1.682-.332-7.022-1.027-14.013-2.024-21.067-2.977-7.487-1.013-15.146-1.671-22.552-2.306-9.819-.843-19.974-1.716-29.94-3.428-1.632-.281-3.379-.528-5.185-.786-6.015-.857-12.833-1.828-18.021-4.372a1.187,1.187,0,1,1,1.047-2.13c4.847,2.379,11.468,3.321,17.307,4.152,1.829.261,3.6.514,5.255.8,9.866,1.695,19.97,2.563,29.74,3.4,7.434.638,15.12,1.3,22.668,2.319,7.058.955,14.059,1.952,21.09,2.982.515.074,1.147.209,1.841.359,1.625.351,4.075.883,5.134.416.941-.411,1.7-2.252,2.26-3.595.246-.6.477-1.144.7-1.573,3.577-6.76,3.8-12.375,3.737-20.819a1.187,1.187,0,0,1,1.177-1.195h.01a1.187,1.187,0,0,1,1.187,1.179c.053,7.286.1,14.168-4.011,21.944-.2.372-.394.853-.61,1.372-.751,1.813-1.685,4.067-3.5,4.861A5.4,5.4,0,0,1,1772.9,851.238Z" transform="translate(-1669.352 -821.506)" fill="#667796"/>
    </g>
    <g id="Grupo_7859" data-name="Grupo 7859" transform="translate(1612.346 435.255)">
      <path id="Trazado_17043" data-name="Trazado 17043" d="M1704.863,684.7a1.185,1.185,0,0,1-1.048-.629c-3.553-6.675-3.154-15.207-2.8-22.734.074-1.61.148-3.182.18-4.688a96.248,96.248,0,0,0-6.226-35.078,1.187,1.187,0,1,1,2.216-.849,98.7,98.7,0,0,1,6.384,35.98c-.032,1.525-.109,3.117-.183,4.746-.339,7.223-.721,15.409,2.526,21.509a1.186,1.186,0,0,1-1.048,1.744Z" transform="translate(-1694.889 -619.959)" fill="#667796"/>
    </g>
    <g id="Grupo_7860" data-name="Grupo 7860" transform="translate(1615.673 497.84)">
      <path id="Trazado_17044" data-name="Trazado 17044" d="M1733.915,747.49a1.2,1.2,0,0,1-.4-.069c-3.815-1.366-7.557-3.063-11.173-4.7-3.544-1.607-7.209-3.27-10.877-4.583a35.21,35.21,0,0,0-3.5-.979,21.574,21.574,0,0,1-6.535-2.37,1.187,1.187,0,0,1,1.266-2.008,19.541,19.541,0,0,0,5.832,2.071,37.5,37.5,0,0,1,3.737,1.051c3.757,1.345,7.469,3.028,11.057,4.656s7.269,3.3,10.995,4.63a1.187,1.187,0,0,1-.4,2.3Z" transform="translate(-1700.875 -732.596)" fill="#667796"/>
    </g>
    <g id="Grupo_7861" data-name="Grupo 7861" transform="translate(1743.541 357.974)">
      <path id="Trazado_17045" data-name="Trazado 17045" d="M1983.1,513.439a1.188,1.188,0,0,1-1.062-.656c-5.8-11.608-19.1-16.545-30.839-20.9-1.53-.568-3.04-1.129-4.509-1.694a65.725,65.725,0,0,1-7.014-3.364,53.817,53.817,0,0,0-7.856-3.639,1.186,1.186,0,1,1,.751-2.251,55.409,55.409,0,0,1,8.215,3.793,63.778,63.778,0,0,0,6.758,3.246c1.46.562,2.96,1.12,4.483,1.684,12.147,4.508,25.913,9.619,32.135,22.064a1.188,1.188,0,0,1-1.062,1.718Z" transform="translate(-1931.004 -480.873)" fill="#667796"/>
    </g>
    <g id="Grupo_7862" data-name="Grupo 7862" transform="translate(1799.886 398.171)">
      <path id="Trazado_17046" data-name="Trazado 17046" d="M2035,705.149a1.187,1.187,0,0,1-.658-2.174c1.5-1,2.306-3.775,2.955-6.005.213-.733.413-1.421.621-2,2.821-7.953,4.638-17.157,5.552-28.138,2.566-30.76,1.481-58.045-3.317-83.413-.262-1.382-.512-2.762-.76-4.137-1.555-8.573-3.025-16.671-6.861-24.342a1.187,1.187,0,1,1,2.123-1.061c3.987,7.975,5.556,16.62,7.072,24.98q.372,2.055.758,4.121c4.837,25.579,5.934,53.073,3.349,84.05-.929,11.187-2.789,20.585-5.679,28.735-.2.546-.38,1.188-.58,1.874-.756,2.6-1.695,5.837-3.918,7.317A1.183,1.183,0,0,1,2035,705.149Z" transform="translate(-2032.411 -553.218)" fill="#667796"/>
    </g>
    <g id="Grupo_7863" data-name="Grupo 7863" transform="translate(1658.671 483.485)">
      <path id="Trazado_17047" data-name="Trazado 17047" d="M1883.9,775.321a98.417,98.417,0,0,1-15.561-1.08c-21.9-3.5-43.438-11.447-59.759-17.974-6.25-2.5-12.948-4.51-18.86-6.284-.586-.176-1.321-.338-2.116-.515-2.543-.566-5.424-1.206-6.984-2.767-1.845-1.849-2.116-6.076-2.232-10.248-.014-.489-.026-.91-.044-1.232-.577-10.388,1.882-19.429,4.625-27.652a1.188,1.188,0,0,1,2.253.751c-2.67,8-5.063,16.78-4.509,26.768.019.34.033.783.047,1.3.062,2.185.206,7.3,1.539,8.636,1.071,1.071,3.7,1.656,5.82,2.127.858.191,1.651.368,2.284.559,5.96,1.788,12.712,3.815,19.059,6.354,16.208,6.482,37.587,14.368,59.254,17.835,9.244,1.481,18.848,1.08,28.139.691,1.3-.053,2.58-.084,3.885-.117,4.609-.111,9.372-.226,13.491-1.256a1.186,1.186,0,1,1,.575,2.3c-4.374,1.093-9.273,1.212-14.01,1.327-1.288.031-2.556.061-3.781.112C1892.684,775.138,1888.3,775.321,1883.9,775.321Z" transform="translate(-1778.261 -706.76)" fill="#667796"/>
    </g>
    <g id="Grupo_7864" data-name="Grupo 7864" transform="translate(1666.303 480.499)">
      <path id="Trazado_17048" data-name="Trazado 17048" d="M1908.16,710.606a1.2,1.2,0,0,1-.531-.126c-9.483-4.741-19.745-4.6-30.6-4.439-3.213.046-6.537.094-9.805,0-6.294-.181-12.706-.208-18.906-.235-6.808-.031-13.846-.062-20.773-.293-4.835-.161-9.733-.5-14.471-.83-6.525-.453-13.27-.922-19.894-.922a1.187,1.187,0,1,1,0-2.374c6.7,0,13.494.472,20.059.928,4.717.327,9.592.666,14.385.826,6.892.229,13.913.261,20.7.291,6.215.026,12.641.054,18.967.235,3.217.1,6.516.046,9.7,0,10.666-.153,21.692-.31,31.693,4.69a1.187,1.187,0,0,1-.531,2.249Z" transform="translate(-1791.997 -701.387)" fill="#667796"/>
    </g>
    <g id="Grupo_7865" data-name="Grupo 7865" transform="translate(1647.745 509.939)">
      <path id="Trazado_17049" data-name="Trazado 17049" d="M1769.8,757.809a44.878,44.878,0,0,1-10.276-1.094,1.187,1.187,0,1,1,.515-2.318,42.612,42.612,0,0,0,9.761,1.038,1.187,1.187,0,1,1,0,2.374Z" transform="translate(-1758.596 -754.371)" fill="#667796"/>
    </g>
    <g id="Grupo_7866" data-name="Grupo 7866" transform="translate(1620.751 480.738)">
      <path id="Trazado_17050" data-name="Trazado 17050" d="M1711.2,707.8a1.187,1.187,0,0,1-.64-2.186c8.234-5.281,16.273-3.941,24.787-2.521,2.2.367,4.481.746,6.753,1,1.073.119,2.228.132,3.449.146a19.948,19.948,0,0,1,7.168.943,1.187,1.187,0,1,1-.881,2.2,18.263,18.263,0,0,0-6.315-.774c-1.226-.014-2.494-.028-3.686-.16-2.334-.259-4.645-.646-6.88-1.018-8.041-1.342-15.647-2.612-23.116,2.178A1.175,1.175,0,0,1,1711.2,707.8Z" transform="translate(-1710.015 -701.817)" fill="#667796"/>
    </g>
    <g id="Grupo_7867" data-name="Grupo 7867" transform="translate(1774.125 472.197)">
      <path id="Trazado_17051" data-name="Trazado 17051" d="M1987.235,700.09a1.187,1.187,0,0,1-.967-1.875,8.685,8.685,0,0,1,2.822-2.305,22.873,22.873,0,0,1,3.315-1.551c.484-.19.985-.373,1.492-.559,2.348-.855,4.775-1.739,6.113-3.612.883-1.234.923-1.69.8-1.857a1.188,1.188,0,0,1,1.919-1.4c1.277,1.753-.169,3.774-.788,4.637-1.764,2.471-4.669,3.529-7.23,4.462-.49.18-.974.355-1.44.538a20.768,20.768,0,0,0-2.988,1.394,6.724,6.724,0,0,0-2.081,1.63A1.182,1.182,0,0,1,1987.235,700.09Z" transform="translate(-1986.048 -686.444)" fill="#667796"/>
    </g>
    <g id="Grupo_7868" data-name="Grupo 7868" transform="translate(1767.06 463.001)">
      <path id="Trazado_17052" data-name="Trazado 17052" d="M1974.519,689.407a1.187,1.187,0,0,1-.556-2.235c1.665-.881,3.282-1.851,4.9-2.823,2.044-1.226,4.161-2.493,6.363-3.577a34.952,34.952,0,0,1,6.544-2.2,32.026,32.026,0,0,0,6.4-2.175c1.875-.952,2.979-1.917,3.278-2.866a2.391,2.391,0,0,0-.287-1.891,1.188,1.188,0,1,1,2.1-1.111,4.712,4.712,0,0,1,.452,3.719c-.677,2.133-2.874,3.455-4.467,4.265a34.338,34.338,0,0,1-6.866,2.353,32.7,32.7,0,0,0-6.1,2.04c-2.114,1.04-4.186,2.281-6.189,3.483-1.655.992-3.31,1.983-5.01,2.884A1.19,1.19,0,0,1,1974.519,689.407Z" transform="translate(-1973.332 -669.894)" fill="#667796"/>
    </g>
    <g id="Grupo_7869" data-name="Grupo 7869" transform="translate(1757.215 462.277)">
      <path id="Trazado_17053" data-name="Trazado 17053" d="M1956.8,686.854a1.187,1.187,0,0,1-.422-2.3,23.789,23.789,0,0,0,6.187-4.068,28.823,28.823,0,0,1,6.437-4.314,115.561,115.561,0,0,1,14.356-4.8c2.946-.842,5.992-1.715,8.912-2.717a1.187,1.187,0,0,1,.77,2.246c-2.979,1.021-6.055,1.9-9.029,2.753a114.017,114.017,0,0,0-14.064,4.7,26.632,26.632,0,0,0-5.887,3.983,25.971,25.971,0,0,1-6.838,4.441A1.179,1.179,0,0,1,1956.8,686.854Z" transform="translate(-1955.613 -668.592)" fill="#667796"/>
    </g>
    <g id="Grupo_7870" data-name="Grupo 7870" transform="translate(1750.356 456.962)">
      <path id="Trazado_17054" data-name="Trazado 17054" d="M1944.457,679.52a1.187,1.187,0,0,1-.64-2.186,53.7,53.7,0,0,0,5.478-4.235,38.829,38.829,0,0,1,8.767-6.1,115.375,115.375,0,0,1,17.557-5.968l2.7-.748c3.734-1.124,7.436-1.95,9.208-.408a2.809,2.809,0,0,1,.852,2.719,1.218,1.218,0,0,1-1.356.989,1.186,1.186,0,0,1-.99-1.357c.032-.2.046-.463-.067-.562-.383-.33-1.8-.661-6.964.893l-2.768.766a113.232,113.232,0,0,0-17.2,5.84,37.141,37.141,0,0,0-8.213,5.754,56.441,56.441,0,0,1-5.726,4.417A1.171,1.171,0,0,1,1944.457,679.52Z" transform="translate(-1943.269 -659.026)" fill="#667796"/>
    </g>
    <g id="Grupo_7871" data-name="Grupo 7871" transform="translate(1736.146 453.522)">
      <path id="Trazado_17055" data-name="Trazado 17055" d="M1918.882,683.312a1.187,1.187,0,0,1-.967-1.876,30.253,30.253,0,0,1,4.036-4.3c.635-.591,1.259-1.173,1.831-1.756l1.947-2c4.087-4.22,8.315-8.583,13.347-11.969,3.7-2.489,8.619-3.957,12.956-5.252l2.144-.648c.756-.233,1.574-.535,2.427-.848,2.52-.93,5.382-1.971,7.969-1.812,3.862.256,4.625,1.793,4.585,3.037a1.145,1.145,0,0,1-1.224,1.147,1.188,1.188,0,0,1-1.15-1.224h0s-.308-.454-2.367-.591c-2.081-.148-4.7.823-6.993,1.67-.895.331-1.755.647-2.548.891l-2.165.653c-4.175,1.247-8.906,2.66-12.309,4.947-4.826,3.245-8.966,7.519-12.97,11.651l-1.956,2.014c-.6.608-1.245,1.215-1.905,1.83a28.365,28.365,0,0,0-3.723,3.939A1.186,1.186,0,0,1,1918.882,683.312Z" transform="translate(-1917.695 -652.835)" fill="#667796"/>
    </g>
    <g id="Grupo_7872" data-name="Grupo 7872" transform="translate(1592.812 562.135)">
      <path id="Trazado_17056" data-name="Trazado 17056" d="M1660.919,857.935h-.062a1.187,1.187,0,0,1-1.122-1.247c.132-2.566.2-4.918.2-7.189a1.187,1.187,0,0,1,2.374,0c0,2.313-.065,4.7-.2,7.312A1.186,1.186,0,0,1,1660.919,857.935Z" transform="translate(-1659.733 -848.31)" fill="#667796"/>
    </g>
    <g id="Grupo_7873" data-name="Grupo 7873" transform="translate(1779.883 553.236)">
      <path id="Trazado_17057" data-name="Trazado 17057" d="M1997.95,845.735a1.187,1.187,0,0,1-1.185-1.119c-.238-4.106-.354-7.748-.354-11.136a1.187,1.187,0,1,1,2.374,0c0,3.343.114,6.94.35,11a1.186,1.186,0,0,1-1.115,1.253Z" transform="translate(-1996.411 -832.294)" fill="#667796"/>
    </g>
    <g id="Grupo_7874" data-name="Grupo 7874" transform="translate(1701.953 575.078)">
      <path id="Trazado_17058" data-name="Trazado 17058" d="M1857.548,891.92h-.021a1.187,1.187,0,0,1-1.166-1.207c.035-1.9-.044-6.7-.111-10.938-.049-2.952-.093-5.652-.093-6.984a1.187,1.187,0,1,1,2.374,0c0,1.325.044,4.01.09,6.946.07,4.253.148,9.074.114,11.018A1.187,1.187,0,0,1,1857.548,891.92Z" transform="translate(-1856.157 -871.604)" fill="#667796"/>
    </g>
    <g id="Grupo_7875" data-name="Grupo 7875" transform="translate(1674.502 264.77)">
      <path id="Trazado_17059" data-name="Trazado 17059" d="M1808.888,316.375a1.071,1.071,0,1,1,1.071,1.107A1.089,1.089,0,0,1,1808.888,316.375Z" transform="translate(-1807.702 -314.081)" fill="#667796" fill-rule="evenodd"/>
      <path id="Trazado_17060" data-name="Trazado 17060" d="M1809.011,317.719a2.295,2.295,0,1,1,2.255-2.295A2.279,2.279,0,0,1,1809.011,317.719Zm0-2.374.115.079C1809.127,315.389,1809.076,315.346,1809.011,315.346Z" transform="translate(-1806.753 -313.131)" fill="#667796"/>
    </g>
    <g id="Grupo_7876" data-name="Grupo 7876" transform="translate(1710.592 265.951)">
      <path id="Trazado_17061" data-name="Trazado 17061" d="M1873.84,318.5a1.07,1.07,0,1,1,1.068,1.107A1.087,1.087,0,0,1,1873.84,318.5Z" transform="translate(-1872.654 -316.206)" fill="#667796" fill-rule="evenodd"/>
      <path id="Trazado_17062" data-name="Trazado 17062" d="M1873.958,319.845a2.295,2.295,0,1,1,2.258-2.3A2.277,2.277,0,0,1,1873.958,319.845Zm0-2.374.121.078C1874.079,317.514,1874.023,317.471,1873.958,317.471Z" transform="translate(-1871.705 -315.256)" fill="#667796"/>
    </g>
    <g id="Grupo_7877" data-name="Grupo 7877" transform="translate(1669.112 253.544)">
      <path id="Trazado_17063" data-name="Trazado 17063" d="M1798.24,297.227a1.186,1.186,0,0,1-.568-2.229,18.535,18.535,0,0,1,16.229-.388,1.187,1.187,0,0,1-1.062,2.124,16.029,16.029,0,0,0-14.031.348A1.18,1.18,0,0,1,1798.24,297.227Z" transform="translate(-1797.053 -292.927)" fill="#667796"/>
    </g>
    <g id="Grupo_7878" data-name="Grupo 7878" transform="translate(1704.686 253.057)">
      <path id="Trazado_17064" data-name="Trazado 17064" d="M1877.1,296.47a1.2,1.2,0,0,1-.531-.125c-4-2-10.139-2.856-13.646-.517a1.187,1.187,0,0,1-1.317-1.975c4.3-2.869,11.317-1.985,16.025.368a1.187,1.187,0,0,1-.531,2.249Z" transform="translate(-1861.075 -292.051)" fill="#667796"/>
    </g>
    <g id="Grupo_7879" data-name="Grupo 7879" transform="translate(1684.02 260.885)">
      <path id="Trazado_17065" data-name="Trazado 17065" d="M1827.365,333.958a1.184,1.184,0,0,1-.983-.522c-.192-.283-.4-.565-.617-.848a7.6,7.6,0,0,1-1.866-3.894c-.176-2.06,1.108-4.051,2.353-5.977a13.55,13.55,0,0,0,1.747-3.255c1.109-4.022.292-7.58-.887-11.814a1.186,1.186,0,1,1,2.285-.638c1.238,4.435,2.158,8.48.892,13.081a15.322,15.322,0,0,1-2.045,3.914c-1.027,1.591-2.088,3.236-1.982,4.487a5.71,5.71,0,0,0,1.4,2.67c.239.318.473.631.686.947a1.186,1.186,0,0,1-.983,1.851Z" transform="translate(-1823.883 -306.138)" fill="#667796"/>
    </g>
    <g id="Grupo_7880" data-name="Grupo 7880" transform="translate(1679.086 302.111)">
      <path id="Trazado_17066" data-name="Trazado 17066" d="M1830.3,386.056a40.06,40.06,0,0,1-5.995-.468c-2.768-.417-6.273-1.148-8.844-3.126a1.187,1.187,0,1,1,1.447-1.882c2.165,1.664,5.459,2.316,7.749,2.66,7.029,1.061,13.106.226,20.313-2.786a1.186,1.186,0,0,1,.913,2.19A39.348,39.348,0,0,1,1830.3,386.056Z" transform="translate(-1815.002 -380.334)" fill="#667796"/>
    </g>
    <g id="Grupo_7881" data-name="Grupo 7881" transform="translate(1656.551 267.763)">
      <path id="Trazado_17067" data-name="Trazado 17067" d="M1790.594,334.793c-8.9,0-16.148-6.769-16.148-15.089a1.187,1.187,0,0,1,2.374,0c0,7.011,6.18,12.715,13.774,12.715s13.776-5.7,13.776-12.715a1.187,1.187,0,0,1,2.374,0C1806.744,328.025,1799.5,334.793,1790.594,334.793Z" transform="translate(-1774.446 -318.517)" fill="#667796"/>
    </g>
    <g id="Grupo_7882" data-name="Grupo 7882" transform="translate(1696.378 268.247)">
      <path id="Trazado_17068" data-name="Trazado 17068" d="M1862.271,335.666c-8.9,0-16.148-6.77-16.148-15.091a1.187,1.187,0,1,1,2.374,0c0,7.012,6.18,12.717,13.774,12.717s13.774-5.7,13.774-12.717a1.187,1.187,0,1,1,2.374,0C1878.418,328.9,1871.175,335.666,1862.271,335.666Z" transform="translate(-1846.123 -319.389)" fill="#667796"/>
    </g>
    <g id="Grupo_7883" data-name="Grupo 7883" transform="translate(1685.965 264.132)">
      <path id="Trazado_17069" data-name="Trazado 17069" d="M1839.091,317.185a1.186,1.186,0,0,1-1.142-.868c-.327-1.173-2.532-2.049-4.856-1.953-1.525.062-3.155.589-3.356,1.63a1.2,1.2,0,0,1-1.391.939,1.189,1.189,0,0,1-.941-1.391c.4-2.066,2.545-3.427,5.594-3.55,2.967-.116,6.485.986,7.237,3.688a1.186,1.186,0,0,1-1.143,1.505Z" transform="translate(-1827.383 -311.983)" fill="#667796"/>
    </g>
    <g id="Grupo_7884" data-name="Grupo 7884" transform="translate(1634.564 348.092)">
      <path id="Trazado_17070" data-name="Trazado 17070" d="M1751.512,549.227a1.188,1.188,0,0,1-1.168-.986l-.362-2.122c-1.785-10.458-4.006-23.473-7.3-32.423-.6-1.635-1.254-3.3-1.915-4.994-2.538-6.482-5.16-13.185-5.779-19.976-.541-5.978.533-23.146,8.776-25.588a1.187,1.187,0,1,1,.672,2.276c-6.277,1.86-7.61,17.276-7.084,23.1.588,6.455,3.148,13,5.624,19.326.667,1.706,1.326,3.389,1.933,5.04,3.368,9.155,5.61,22.289,7.409,32.843l.364,2.12a1.189,1.189,0,0,1-.972,1.37A1.169,1.169,0,0,1,1751.512,549.227Z" transform="translate(-1734.874 -463.088)" fill="#667796"/>
    </g>
    <g id="Grupo_7885" data-name="Grupo 7885" transform="translate(1638.628 351.109)">
      <path id="Trazado_17071" data-name="Trazado 17071" d="M1759.343,549.2a1.189,1.189,0,0,1-1.15-.89c-1.029-3.991-1.72-8.095-2.388-12.062a118.626,118.626,0,0,0-2.939-14,128,128,0,0,0-4.743-12.651c-.932-2.239-1.866-4.487-2.735-6.769-2.081-5.445-6.21-19.621.39-33.622a1.187,1.187,0,0,1,2.146,1.013c-6.21,13.174-2.293,26.6-.32,31.762.865,2.261,1.789,4.486,2.712,6.7a129.657,129.657,0,0,1,4.826,12.888,120.668,120.668,0,0,1,3,14.283c.658,3.919,1.34,7.971,2.345,11.863a1.186,1.186,0,0,1-1.15,1.484Z" transform="translate(-1742.19 -468.519)" fill="#667796"/>
    </g>
    <g id="Grupo_7886" data-name="Grupo 7886" transform="translate(1646.874 435.117)">
      <path id="Trazado_17072" data-name="Trazado 17072" d="M1763.243,636.9c-3.484,0-6.214-3.775-6.214-8.593s2.73-8.6,6.214-8.6,6.218,3.775,6.218,8.6S1766.73,636.9,1763.243,636.9Zm0-14.814c-2.081,0-3.841,2.849-3.841,6.221s1.759,6.219,3.841,6.219,3.843-2.848,3.843-6.219S1765.327,622.084,1763.243,622.084Z" transform="translate(-1757.029 -619.71)" fill="#667796"/>
    </g>
    <g id="Grupo_7887" data-name="Grupo 7887" transform="translate(1645.902 429.973)">
      <path id="Trazado_17073" data-name="Trazado 17073" d="M1766.349,638.621c-6.1,0-11.068-6.319-11.068-14.085s4.965-14.084,11.068-14.084,11.071,6.318,11.071,14.084S1772.453,638.621,1766.349,638.621Zm0-25.8c-4.793,0-8.695,5.253-8.695,11.71s3.9,11.712,8.695,11.712,8.7-5.254,8.7-11.712S1771.146,612.826,1766.349,612.826Z" transform="translate(-1755.281 -610.452)" fill="#667796"/>
    </g>
    <g id="Grupo_7888" data-name="Grupo 7888" transform="translate(1648.802 423.006)">
      <path id="Trazado_17074" data-name="Trazado 17074" d="M1761.687,601.8a1.186,1.186,0,0,1-1.062-1.717c.867-1.736,4.026-2.733,5.82-1.839a1.187,1.187,0,0,1-1.057,2.126,2.9,2.9,0,0,0-2.64.775A1.188,1.188,0,0,1,1761.687,601.8Z" transform="translate(-1760.5 -597.914)" fill="#667796"/>
    </g>
    <g id="Grupo_7889" data-name="Grupo 7889" transform="translate(1734.87 348.403)">
      <path id="Trazado_17075" data-name="Trazado 17075" d="M1929.99,497.251a1.188,1.188,0,0,1-1.168-.991c-1.2-7.211-5.791-17.871-13.264-30.832a1.188,1.188,0,0,1,2.059-1.185c5.308,9.207,11.968,22.168,13.546,31.625a1.186,1.186,0,0,1-.976,1.366A1.129,1.129,0,0,1,1929.99,497.251Z" transform="translate(-1915.4 -463.648)" fill="#667796"/>
    </g>
    <g id="Grupo_7890" data-name="Grupo 7890" transform="translate(1735.263 348.207)">
      <path id="Trazado_17076" data-name="Trazado 17076" d="M1935.824,498.862a1.189,1.189,0,0,1-1.139-.852,116.768,116.768,0,0,0-5.19-12.225l-1.346-2.869c-3.821-8.167-5.107-10.918-11.7-17.6a1.186,1.186,0,1,1,1.688-1.666c6.882,6.974,8.32,10.048,12.163,18.263l1.342,2.864a115.2,115.2,0,0,1,5.32,12.565,1.186,1.186,0,0,1-.8,1.473A1.165,1.165,0,0,1,1935.824,498.862Z" transform="translate(-1916.107 -463.295)" fill="#667796"/>
    </g>
    <g id="Grupo_7891" data-name="Grupo 7891" transform="translate(1712.399 381.919)">
      <path id="Trazado_17077" data-name="Trazado 17077" d="M1897.283,623.8a4.686,4.686,0,0,1-2.661-.994,3.464,3.464,0,0,0-1.18-.6c-.5-.094-1.055-.177-1.632-.265-2.379-.358-5.336-.8-7.263-2.345-5.811-4.643-8.417-6.724-9.406-14.332-.99-7.627,2.23-18.974,4.152-25.755l.758-2.67c3.466-12.232,7.047-24.88,12.325-36.408,2.45-5.355,7.012-15.32,14.745-16.325,9.3-1.21,18.9,5.211,21.37,14.318a53.4,53.4,0,0,1,1.446,14.4c0,1.935.012,3.541.021,5,.042,6.457.062,10.014-.8,26.13-.331,6.23-.793,11.5-1.411,16.121a1.2,1.2,0,0,1-1.333,1.019,1.186,1.186,0,0,1-1.018-1.334c.6-4.491,1.069-9.852,1.394-15.933.857-16.045.834-19.576.8-25.988-.01-1.464-.021-3.073-.021-5.015a51.523,51.523,0,0,0-1.363-13.779,17.717,17.717,0,0,0-18.774-12.586c-6.428.835-10.633,10.023-12.891,14.959-5.2,11.363-8.762,23.922-12.2,36.068l-.756,2.673c-1.695,5.968-4.8,16.91-4.161,24.084a22.951,22.951,0,0,1,.03-2.815c1.055-14.9,15.281-55.365,17.852-60.986,2.962-6.466,5.728-12.5,13.9-12.781a15.42,15.42,0,0,1,12.919,6.488c6.2,8.839,5.074,47.047,3.092,65.538a1.186,1.186,0,1,1-2.359-.252c2.334-21.774,2.443-56.626-2.675-63.923a13.252,13.252,0,0,0-10.892-5.48c-6.707.231-8.95,5.125-11.79,11.324-3.041,6.645-16.7,46.47-17.675,60.239-.5,7.1,2.434,11.852,9.235,14.965a10.047,10.047,0,0,0,4.28.553,10.887,10.887,0,0,1,4.756.655,4.227,4.227,0,0,1,2.452,3.523,2.46,2.46,0,0,1-1.759,2.218A4.273,4.273,0,0,1,1897.283,623.8Zm-6.057-4.344c.315.05.63.1.936.144.609.091,1.189.179,1.715.277a5.448,5.448,0,0,1,2.052.949c.842.555,1.21.761,2.024.461a.636.636,0,0,0,.237-.127,2.349,2.349,0,0,0-1.09-1.23,9.043,9.043,0,0,0-3.743-.44C1892.677,619.5,1891.957,619.507,1891.227,619.46Zm-5.466-1.925.162.131a7.169,7.169,0,0,0,2.39,1.168c-.084-.033-.167-.069-.248-.108A25.825,25.825,0,0,1,1885.76,617.535Zm-6.929-7.269c.031.064.058.126.088.189C1878.89,610.392,1878.862,610.329,1878.831,610.265Z" transform="translate(-1874.957 -523.969)" fill="#667796"/>
    </g>
    <g id="Grupo_7892" data-name="Grupo 7892" transform="translate(1726.871 405.23)">
      <path id="Trazado_17078" data-name="Trazado 17078" d="M1903.937,568.986h-.042a3.641,3.641,0,0,1-2.569-1.064,1.187,1.187,0,1,1,1.73-1.625,1.356,1.356,0,0,0,.922.317,1.187,1.187,0,0,1-.042,2.373Z" transform="translate(-1901.004 -565.922)" fill="#667796"/>
    </g>
    <g id="Grupo_7893" data-name="Grupo 7893" transform="translate(1762.171 414.74)">
      <path id="Trazado_17079" data-name="Trazado 17079" d="M1966.884,585.7a3.646,3.646,0,0,1-1.729-.393,1.186,1.186,0,1,1,1.131-2.086,2.226,2.226,0,0,0,1.53-.075,1.187,1.187,0,1,1,.987,2.158A4.768,4.768,0,0,1,1966.884,585.7Z" transform="translate(-1964.533 -583.038)" fill="#667796"/>
    </g>
    <g id="Grupo_7894" data-name="Grupo 7894" transform="translate(1729.301 392.964)">
      <path id="Trazado_17080" data-name="Trazado 17080" d="M1938.492,567.811a1.188,1.188,0,0,1-1.159-.936c-.227-1.056-.482-2.021-.744-3.008-.213-.807-.429-1.625-.637-2.514-1.6-6.747-4.057-11.261-7.518-13.8-1.829-1.34-3.933-1.645-7.042-1.015a18.651,18.651,0,0,0-13.7,12.154,1.186,1.186,0,1,1-2.258-.73,21.089,21.089,0,0,1,15.487-13.751c2.539-.513,5.853-.817,8.918,1.428,3.933,2.885,6.689,7.847,8.421,15.168.2.868.415,1.665.624,2.45.271,1.022.536,2.022.772,3.115a1.187,1.187,0,0,1-1.164,1.437Z" transform="translate(-1905.377 -543.846)" fill="#667796"/>
    </g>
    <path id="Trazado_17081" data-name="Trazado 17081" d="M1701.354,362.009s.416-5.809,2.5-9.085a9.861,9.861,0,0,1,5.849-4.02,9.116,9.116,0,0,1-5.231-3.857c-2.087-3.2-3.119-8.926-3.119-8.926s-.506,6.1-2.523,9.364a8.226,8.226,0,0,1-5.548,3.688,8.48,8.48,0,0,1,5.749,3.632C1701.05,356.013,1701.354,362.009,1701.354,362.009Z" transform="translate(-81.829 -58.577)" fill="#fff" fill-rule="evenodd"/>
    <path id="Trazado_17082" data-name="Trazado 17082" d="M1738.094,424s.318-4.432,1.911-6.932a7.52,7.52,0,0,1,4.462-3.068,6.957,6.957,0,0,1-3.992-2.943c-1.593-2.439-2.381-6.812-2.381-6.812s-.384,4.655-1.925,7.145a6.272,6.272,0,0,1-4.232,2.814,6.473,6.473,0,0,1,4.387,2.771C1737.864,419.422,1738.094,424,1738.094,424Z" transform="translate(-99.005 -88.848)" fill="#fff" fill-rule="evenodd"/>
    <path id="Trazado_17083" data-name="Trazado 17083" d="M1953.867,324.048s.33-4.6,1.986-7.2a7.815,7.815,0,0,1,4.636-3.187,7.223,7.223,0,0,1-4.147-3.058c-1.654-2.534-2.475-7.077-2.475-7.077s-.4,4.836-2,7.423a6.518,6.518,0,0,1-4.4,2.924,6.729,6.729,0,0,1,4.557,2.879C1953.63,319.3,1953.867,324.048,1953.867,324.048Z" transform="translate(-194.781 -44.093)" fill="#fff" fill-rule="evenodd"/>
    <path id="Trazado_17084" data-name="Trazado 17084" d="M1939.017,372.831s.271-3.8,1.637-5.948a6.457,6.457,0,0,1,3.829-2.631,5.97,5.97,0,0,1-3.426-2.525,19.557,19.557,0,0,1-2.041-5.843s-.333,3.994-1.652,6.13a5.38,5.38,0,0,1-3.632,2.414,5.557,5.557,0,0,1,3.765,2.378C1938.818,368.905,1939.017,372.831,1939.017,372.831Z" transform="translate(-188.676 -67.359)" fill="#fff" fill-rule="evenodd"/>
    <path id="Trazado_17085" data-name="Trazado 17085" d="M1965.818,422.013s.375-5.236,2.258-8.188a8.88,8.88,0,0,1,5.27-3.623,8.214,8.214,0,0,1-4.714-3.477c-1.882-2.88-2.813-8.045-2.813-8.045s-.456,5.5-2.274,8.439a7.412,7.412,0,0,1-5,3.324,7.649,7.649,0,0,1,5.182,3.273C1965.545,416.608,1965.818,422.013,1965.818,422.013Z" transform="translate(-199.702 -86.376)" fill="#fff" fill-rule="evenodd"/>
  </g>
</svg>
