<svg xmlns="http://www.w3.org/2000/svg" width="107.451" height="145.051" viewBox="0 0 107.451 145.051">
  <g id="Grupo_8891" data-name="Grupo 8891" transform="translate(-1724.57 -67.526)">
    <path id="Trazado_20544" data-name="Trazado 20544" d="M1787.982,67.526c1.912.466,3.867.8,5.728,1.421a26.225,26.225,0,0,1,16.057,14.594c.43.934.571,1.938-.276,2.592a2.709,2.709,0,0,1-2.137.564,3.538,3.538,0,0,1-1.624-1.771,22.08,22.08,0,0,0-14.808-12.374,21.651,21.651,0,0,0-17.41,2.576,64.464,64.464,0,0,0-6.031,3.96,14.55,14.55,0,0,1-8.8,2.926,11.4,11.4,0,0,0-10.785,9.2,10.657,10.657,0,0,0-.234,2.53c.187,5.8.414,11.606.635,17.409a3.1,3.1,0,0,0,.1.522c1.365.234,1.9-.222,1.833-1.652a24.938,24.938,0,0,1,1.363-10.443,23.027,23.027,0,0,1,7.462-9.61c1.295-1.028,2.56-.885,3.946.368,2.242,2.026,4.489,4.048,6.682,6.124a13.108,13.108,0,0,0,9.478,3.748c4.816-.038,9.632-.02,14.448-.019a12.137,12.137,0,0,1,8.649,3.261,7.6,7.6,0,0,1,2.549,5.771c0,2.308.043,2.308,2.493,2.66.04-.556.1-1.105.115-1.655q.189-8.069.365-16.143c.036-1.639.849-2.56,2.209-2.5,1.269.059,2.054.976,2.032,2.565-.072,4.862-.19,9.724-.291,14.585-.015.709,0,1.42-.068,2.124a9.92,9.92,0,0,0,1.269,6.138c3.192,5.712-.523,12.836-7.014,13.973l-.96.167c-.176,2.4-.334,4.739-.529,7.078a7.152,7.152,0,0,1-.33,1.663,2.046,2.046,0,0,1-2.384,1.538,2.1,2.1,0,0,1-1.762-2.366c1.276-9.927.281-19.9.562-29.842.06-2.091-2.038-4.027-4.707-4.536a14.856,14.856,0,0,0-2.676-.213c-5.051-.031-10.1.015-15.155-.061a15.8,15.8,0,0,1-10.322-4.061c-2.312-2-4.535-4.111-6.863-6.232-3.62,2.96-6.064,6.653-6.175,11.239-.236,9.72-.575,19.483.079,29.164.7,10.345,6.451,17.928,16.244,21.371,8.249,2.9,15.918.5,22.377-5.376a33.156,33.156,0,0,0,3.21-3.759c.943-1.162,2.185-1.468,3.194-.722a2.069,2.069,0,0,1,.3,3.128c-1.868,2.172-3.915,4.189-5.839,6.314a3,3,0,0,0-.8,1.611c-.112,1.451-.037,2.917-.037,4.209,2.566,1.176,5.065,2.169,7.394,3.468.865.482,1.324,1.683,1.98,2.549.327.434.59,1.046,1.031,1.244,2.538,1.135,5.2,2.012,7.672,3.266,12.58,6.38,19.057,16.708,19.6,30.771.094,2.451.026,4.91.011,7.365-.01,1.642-.824,2.624-2.127,2.629s-2.064-.979-2.127-2.619c-.162-4.237.069-8.545-.627-12.7-1.493-8.91-6.44-15.657-14.161-20.354a7.224,7.224,0,0,0-.752-.393c-.074-.035-.177-.006-.422-.006,0,.471,0,.929,0,1.386,0,2.172.151,4.355-.017,6.515A22.618,22.618,0,0,0,1813.639,198a9.66,9.66,0,0,1,.961,4.214c.145,2.637.056,5.287.032,7.929-.012,1.507-.893,2.466-2.156,2.432a2.171,2.171,0,0,1-2.084-2.388c-.032-2.454.076-4.914-.041-7.363a8.018,8.018,0,0,0-.8-3.516,24.5,24.5,0,0,1-3.05-14.284c.212-3.149.014-6.325.064-9.488a1.461,1.461,0,0,0-1.09-1.68,36.509,36.509,0,0,1-3.8-1.543c-.776-.366-1.148-.161-1.582.523-2.1,3.306-4.245,6.581-6.38,9.865-1.177,1.809-1.847,2.083-3.927,1.609-.266,1.524-.448,3.066-.817,4.563a24.477,24.477,0,0,1-8.512,13.521,2.252,2.252,0,0,0-.96,2.029c.068,1.886.036,3.776.015,5.665-.017,1.545-.834,2.487-2.1,2.487s-2.116-.949-2.141-2.478c-.031-1.984.03-3.967-.035-5.948a2.132,2.132,0,0,0-.57-1.447,25.072,25.072,0,0,1-9.456-17.874,2.736,2.736,0,0,0-.167-.452c-2.318.805-3.29-.83-4.329-2.488-1.905-3.037-3.906-6.014-5.823-9.045-.427-.674-.786-.895-1.577-.532-1.624.745-3.3,1.376-5.017,2.079,0,5.133.114,10.233-.058,15.322a13.631,13.631,0,0,1-1.291,5.693,20.589,20.589,0,0,0-2.556,11.819,22.166,22.166,0,0,1-.008,3.256,2.038,2.038,0,0,1-2.052,2.083,2.069,2.069,0,0,1-2.131-1.878,5.356,5.356,0,0,1-.047-.987c-.006-1.181.078-2.368-.02-3.54a18.643,18.643,0,0,1,2.509-11.41,11.426,11.426,0,0,0,1.43-6.381c-.105-3.914-.03-7.833-.03-12.1-1.364.888-2.562,1.592-3.678,2.409a29.094,29.094,0,0,0-7.31,7.815,6.573,6.573,0,0,1-.91,1.255,1.976,1.976,0,0,1-2.6.254,1.9,1.9,0,0,1-.83-2.454,7.656,7.656,0,0,1,.746-1.359,34.119,34.119,0,0,1,15.984-13.246c1.96-.81,3.948-1.559,5.88-2.427.406-.182.644-.756.936-1.166.6-.851,1-2.048,1.821-2.505,2.373-1.328,4.911-2.36,7.549-3.584,0-1.5.048-3.247-.036-4.986a2.063,2.063,0,0,0-.746-1.235,29.818,29.818,0,0,1-10.415-19.051,34.582,34.582,0,0,1-.229-3.812c-.016-.7-.136-1.056-.968-1.209a9.751,9.751,0,0,1-5.788-16.222,2.815,2.815,0,0,0,.582-1.749c-.175-5.993-.416-11.983-.636-17.975-.355-9.736,5.974-16.757,15.677-17.307a10.136,10.136,0,0,0,5.5-1.836c5.487-3.864,11.072-7.583,18.009-8.347Zm-10.57,131.92a20.62,20.62,0,0,0,7.97-16.117c.008-.375-.517-.94-.923-1.114-2.031-.866-4.1-1.659-6.172-2.412a2.326,2.326,0,0,0-1.465-.037c-2.211.8-4.408,1.637-6.569,2.558a1.6,1.6,0,0,0-.816,1.2A20.882,20.882,0,0,0,1777.412,199.446ZM1765.907,158.5a14.944,14.944,0,0,1-.016,2.182c-.425,2.629.546,4.447,2.695,6.069,3.1,2.344,5.937,5.046,8.926,7.63,3.747-3.249,7.413-6.42,11.065-9.61a1.319,1.319,0,0,0,.486-.793c.043-1.718.022-3.438.022-5.326C1781.29,161.856,1773.683,162.326,1765.907,158.5Zm7.522,18c-3.994-3.465-7.791-6.769-11.608-10.047a1.007,1.007,0,0,0-.859-.176c-1.329.569-2.63,1.207-4.052,1.875l7.638,11.767Zm24.654-8.359c-1.331-.626-2.447-1.239-3.631-1.66a1.866,1.866,0,0,0-1.552.244c-2.89,2.417-5.72,4.905-8.565,7.376-.876.761-1.743,1.534-2.742,2.414l8.865,3.391Zm-47.966-52.068c-2.718-.069-4.993,2.5-4.91,5.452.079,2.814,2.436,5.257,4.91,5.075Zm54.775-.028v10.624a5.272,5.272,0,0,0,4.9-5.553A5.16,5.16,0,0,0,1804.893,116.041Z" transform="translate(0.954)" fill="#023c7d"/>
    <path id="Trazado_20545" data-name="Trazado 20545" d="M1770.046,137.417c-2.454,0-4.91.032-7.363-.009-2.374-.041-3.636-1.427-3.547-3.791A11.007,11.007,0,0,1,1781,131.988a10.7,10.7,0,0,1,.136,1.972,3.128,3.128,0,0,1-3.3,3.436c-2.594.063-5.191.015-7.788.015Zm6.693-4.331a6.54,6.54,0,0,0-7.1-6c-3.233.176-6.15,3.066-5.982,6Z" transform="translate(8.259 13.213)" fill="#023c7d"/>
    <path id="Trazado_20546" data-name="Trazado 20546" d="M1724.57,181.266c.457-3.591.851-7.191,1.4-10.767.247-1.609,1.417-2.38,2.642-2.057,1.277.338,1.841,1.435,1.437,3.045-1.079,4.318-.865,8.715-.876,13.1,0,.567.021,1.135-.01,1.7a2.115,2.115,0,1,1-4.228-.02c-.05-1.65-.011-3.3-.011-4.957Z" transform="translate(0 24.1)" fill="#023c7d"/>
    <path id="Trazado_20547" data-name="Trazado 20547" d="M1775.111,115.763c-.017,3.27-1.965,5.733-4.873,6.168a5.65,5.65,0,0,1-6.491-3.964,7.869,7.869,0,0,1-.172-3.613,2.825,2.825,0,0,1,1.813-1.595,1.726,1.726,0,0,1,2.121,1.406,9.558,9.558,0,0,1,.182,1.956c.053,1.012.567,1.616,1.581,1.607a1.514,1.514,0,0,0,1.579-1.632c.023-.377,0-.755.014-1.131a2.126,2.126,0,1,1,4.243-.051C1775.124,115.2,1775.11,115.48,1775.111,115.763Z" transform="translate(9.289 10.791)" fill="#023c7d"/>
    <path id="Trazado_20548" data-name="Trazado 20548" d="M1764.15,102.834a2.09,2.09,0,0,1,1.064,2.83,2.068,2.068,0,0,1-3,.9,12.12,12.12,0,0,0-7.5-1.318,2.11,2.11,0,1,1-.49-4.182A17.232,17.232,0,0,1,1764.15,102.834Z" transform="translate(6.606 7.985)" fill="#023c7d"/>
    <path id="Trazado_20549" data-name="Trazado 20549" d="M1760.188,109.7c0,1.756-.757,2.731-2.106,2.732s-2.12-.992-2.13-2.733a5.953,5.953,0,0,1,.041-1.263,2.109,2.109,0,0,1,4.188.14A8.494,8.494,0,0,1,1760.188,109.7Z" transform="translate(7.496 9.347)" fill="#023c7d"/>
    <path id="Trazado_20550" data-name="Trazado 20550" d="M1781.033,109.7c0,1.756-.756,2.731-2.106,2.732s-2.12-.992-2.13-2.733a5.954,5.954,0,0,1,.041-1.263,2.109,2.109,0,0,1,4.188.14A8.494,8.494,0,0,1,1781.033,109.7Z" transform="translate(12.478 9.347)" fill="#023c7d"/>
    <path id="Trazado_20551" data-name="Trazado 20551" d="M1784.591,101.083a2.09,2.09,0,0,1,1.969,2.3,2.068,2.068,0,0,1-2.515,1.873,12.134,12.134,0,0,0-7.5,1.328,2.11,2.11,0,1,1-1.891-3.762A17.232,17.232,0,0,1,1784.591,101.083Z" transform="translate(11.656 7.98)" fill="#023c7d"/>
  </g>
</svg>
