<svg xmlns="http://www.w3.org/2000/svg" width="107.708" height="109.534" viewBox="0 0 107.708 109.534">
  <g id="Out_line" data-name="Out line" transform="translate(-1528.341 -259.141)">
    <circle id="Elipse_803" data-name="Elipse 803" cx="1.826" cy="1.826" r="1.826" transform="translate(1555.724 332.164)" fill="#023c7d"/>
    <path id="Trazado_20540" data-name="Trazado 20540" d="M1635.464,259.627a1.827,1.827,0,0,0-1.864-.376,98.81,98.81,0,0,0-35.858,22.837l-32.355,32.355-34.372,34.372a9.068,9.068,0,0,0-2.674,6.455v4.278a9.128,9.128,0,1,0,18.255,0,6.945,6.945,0,0,1,2.047-4.942l19.326-19.325,5.554-5.554a7.1,7.1,0,0,1,10.042,0h0l2.816,2.815a1.826,1.826,0,0,0,2.582,0l13.309-13.309a131.726,131.726,0,0,0,33.711-57.778A1.825,1.825,0,0,0,1635.464,259.627Zm-70.611,73.607-18.79,18.79a10.57,10.57,0,0,0-3.117,7.524,5.477,5.477,0,0,1-10.953,0V355.27a5.443,5.443,0,0,1,1.6-3.873l31.256-31.256Zm11.084-8.917a10.749,10.749,0,0,0-5,2.828l-2.437,2.438V316.49l31.821-31.821a95.149,95.149,0,0,1,24.3-17.56,122.937,122.937,0,0,1-28.81,45.67l-12.4,12.4A10.8,10.8,0,0,0,1575.936,324.317Zm23.754-7.665-12.018,12.018-1.291-1.29,12.018-12.018a126.577,126.577,0,0,0,30.816-50.418q1.1-.484,2.215-.94A128.086,128.086,0,0,1,1599.69,316.652Z" fill="#023c7d"/>
    <path id="Trazado_20541" data-name="Trazado 20541" d="M1586.878,334.752h3.651v5.477h-3.651Z" transform="translate(-14.723 -19.018)" fill="#023c7d"/>
    <path id="Trazado_20542" data-name="Trazado 20542" d="M1597.333,323.87l5.476-5.475,2.581,2.582-5.476,5.476Z" transform="translate(-17.353 -14.904)" fill="#023c7d"/>
    <path id="Trazado_20543" data-name="Trazado 20543" d="M1609.528,311.678,1615,306.2l2.581,2.581-5.476,5.476Z" transform="translate(-20.42 -11.837)" fill="#023c7d"/>
    <circle id="Elipse_804" data-name="Elipse 804" cx="1.826" cy="1.826" r="1.826" transform="translate(1535.643 357.722)" fill="#023c7d"/>
  </g>
</svg>
