<svg xmlns="http://www.w3.org/2000/svg" width="107.708" height="105.913" viewBox="0 0 107.708 105.913">
  <g id="Out_line" data-name="Out line" transform="translate(-1827.677 -65.927)">
    <path id="Trazado_20552" data-name="Trazado 20552" d="M1866.885,91.178h1.8a1.8,1.8,0,0,0,0-3.591h-1.8a1.8,1.8,0,0,0,0,3.591Z" transform="translate(-3.306 -1.914)" fill="#023c7d"/>
    <path id="Trazado_20553" data-name="Trazado 20553" d="M1942.993,166.045l-3.546.56.806,5.105h-10.181V175.3h10.748l.022.14v5.245h3.591V175.3a1.819,1.819,0,0,0-.022-.281Z" transform="translate(-9.047 -8.846)" fill="#023c7d"/>
    <path id="Trazado_20554" data-name="Trazado 20554" d="M1852.808,162.864h44.879v-3.59h-44.879v-5.385h35.9V150.3h-37.7a1.8,1.8,0,0,0-1.8,1.8v1.8h-15.945l1.417-8.976h52.226v-3.59h-51.659l.851-5.385h33.971a25.805,25.805,0,0,0,11.492,2.7,25.509,25.509,0,0,0,3.82-.287l-.539-3.549a21.984,21.984,0,0,1-18.894-6.2l-.532-.532,4.78-.955a16.879,16.879,0,0,0,11.279,4.324,17.246,17.246,0,0,0,4.059-.487l-.843-3.49a13.349,13.349,0,0,1-12.144-3.059v-8.206a1.8,1.8,0,0,0-1.8-1.8h-9.369l-3.25-13a1.8,1.8,0,0,0-.472-.834L1853.2,96.09l1.9-3.8,3.624,3.624a1.8,1.8,0,0,0,1.27.526h8.975l1.27,1.27,5.693-5.694a3.264,3.264,0,0,1,2.257-.961,3.365,3.365,0,0,1,3.346,3.382v1.145a12.862,12.862,0,0,1-2.167,7.156,1.987,1.987,0,0,1-1.652.882h-.468a2.86,2.86,0,0,1-1.279-.3l-2.607-1.3-1.605,3.212,2.607,1.3a6.452,6.452,0,0,0,2.884.681h.468a5.543,5.543,0,0,0,4.6-2.431,16.6,16.6,0,0,0,1.192-2.088,50.909,50.909,0,0,0,7,5.5v2.613h3.59v-2.873a20.036,20.036,0,0,0,5.385-13.719V67.722a1.8,1.8,0,0,0-1.795-1.8h-46.674a1.8,1.8,0,0,0-1.8,1.8v5.386a7.181,7.181,0,0,0,7.181,7.18h.686l-7.677,15.353a1.8,1.8,0,0,0,.336,2.073l5.034,5.033,3.47,13.879a1.792,1.792,0,0,0,1.741,1.359h8.975v5.71l-34.459,6.891a1.8,1.8,0,0,0-1.421,1.481l-5.385,34.107a1.82,1.82,0,0,0-.022.281v5.385h3.59V166.6l.022-.14h17.929v3.59a1.8,1.8,0,0,0,1.8,1.8h62.83v-3.59h-61.035Zm39.2-57.978a47.44,47.44,0,0,1-7.227-5.957,16.489,16.489,0,0,0,.337-3.034l10.777-4.041v2.359A16.469,16.469,0,0,1,1892.005,104.886Zm-39.2-31.778V69.517h43.083v12.1l-21.138-4.878a1.816,1.816,0,0,0-.4-.046H1856.4A3.6,3.6,0,0,1,1852.808,73.108Zm8.29,7.18h13.047l21.746,5.019V88.02l-11.118,4.169a6.872,6.872,0,0,0-11.385-2.708l-3.372,3.373h-9.284l-3.945-3.945Zm2.32,50.847q.63.63,1.3,1.212h-20.71l17.184-3.436Zm-31.563,31.729.851-5.385h16.512v5.385Z" fill="#023c7d"/>
    <path id="Trazado_20555" data-name="Trazado 20555" d="M1940.267,119.263a1.8,1.8,0,0,0-1.911.247,15.027,15.027,0,0,1-19.243,0,1.794,1.794,0,0,0-2.3,0,15.028,15.028,0,0,1-19.244,0,1.794,1.794,0,0,0-2.944,1.378v19.261a28.725,28.725,0,0,0,15.876,25.69l6.657,3.328a1.8,1.8,0,0,0,1.606,0l6.657-3.328a28.727,28.727,0,0,0,15.877-25.69V120.888A1.8,1.8,0,0,0,1940.267,119.263Zm-22.3,3.89a18.593,18.593,0,0,0,12.566,3.342v13.655a17.853,17.853,0,0,1-9.923,16.056l-2.643,1.322-2.643-1.322a17.854,17.854,0,0,1-9.923-16.056V126.495A18.6,18.6,0,0,0,1917.963,123.153Zm19.746,17a25.131,25.131,0,0,1-13.893,22.478l-5.854,2.927-5.854-2.927a25.131,25.131,0,0,1-13.893-22.478v-15.87a18.52,18.52,0,0,0,3.59,1.51v14.36a21.425,21.425,0,0,0,11.908,19.268l3.445,1.722a1.792,1.792,0,0,0,1.606,0l3.445-1.722a21.424,21.424,0,0,0,11.908-19.268v-14.36a18.518,18.518,0,0,0,3.59-1.51Z" transform="translate(-5.915 -4.697)" fill="#023c7d"/>
  </g>
</svg>
