<svg xmlns="http://www.w3.org/2000/svg" width="258.344" height="258.344" viewBox="0 0 258.344 258.344">
  <g id="Grupo_8517" data-name="Grupo 8517" transform="translate(-1127.756 -387.8)">
    <circle id="Elipse_782" data-name="Elipse 782" cx="129.172" cy="129.172" r="129.172" transform="translate(1127.756 387.8)" fill="#58595b"/>
    <g id="woman" transform="translate(1172.367 403.83)">
      <g id="hair" transform="translate(15.033 0.721)">
        <path id="Trazado_19181" data-name="Trazado 19181" d="M1211.331,457.238c-3.282,13.167.325,24.669-1.258,35.09q-.567,3.728-1,7.28c-1,8.238-7.464,15.827-7.475,23.1-.021,15.131,9.555,29.847,23.086,33.069,12.324,2.935,28.624,4.424,45.616,5.515,16.907,1.086,32.842-1.916,44.848-5.334,13.331-3.8,22.378-17.228,21.868-32.271-.24-7.059-3.6-16.065-3.81-26.109-.053-2.491-.234-5.045-.357-7.65-.544-11.545,1.781-24.071-1.635-36.368,0,0-15.362-45.02-63.881-45.02C1222.027,408.539,1211.331,457.238,1211.331,457.238Z" transform="translate(-1201.599 -408.539)" fill="#524842"/>
        <path id="Trazado_19182" data-name="Trazado 19182" d="M1220.79,485.777c-2.817,24.029-2.094,39.433,1.065,53.68,2.546,11.483,7.428,23.2,17.947,25.707,9.58,2.281,22.251,3.438,35.46,4.287a104.831,104.831,0,0,0,34.863-4.146c10.364-2.951,16.745-13.393,16.349-25.088-.438-12.879,1.81-34.1-3.859-54.514,0,0-11.942-35-49.66-35C1237.735,450.7,1220.79,485.777,1220.79,485.777Z" transform="translate(-1204.951 -416.647)" fill="#39322f"/>
      </g>
      <g id="body" transform="translate(0 104.115)">
        <g id="body-2" data-name="body" transform="translate(4.686)">
          <path id="Trazado_19183" data-name="Trazado 19183" d="M1265.022,604.6l32.238-.812,7.075,4.156L1308.2,622l-56.089-.956,3.9-10.3Z" transform="translate(-1200.964 -549.476)" fill="#dadee2"/>
          <g id="shoulders" transform="translate(0 47.732)">
            <path id="shoulders-2" data-name="shoulders" d="M1348.3,646.1c-1.194-5.725-3.135-11.263-6.384-15.755-4-5.532-12.392-9-18.132-10.331a.091.091,0,0,1-.04-.01c-8.465-2.64-27.206-3.427-34.873-10.911a14.769,14.769,0,0,1-1.912-2.318,25.961,25.961,0,0,1-3.711-11.13c-13.5,3.879-27.75.67-27.75.67a25.334,25.334,0,0,1-4,10.787,13.973,13.973,0,0,1-1.531,1.991c-6.513,6.354-21.555,7.989-31.252,9.975a.021.021,0,0,1-.02.01c-.52.1-1.025.213-1.51.322-4.488.024-15.9,3.308-21.064,10.441a49.131,49.131,0,0,0-7.137,15.884c-.065.242-.129.485-.194.733l18.267,0,16.557.01,42.219,17.685,47.368-17.64,20.876.01h14.309C1348.36,646.38,1348.331,646.236,1348.3,646.1Z" transform="translate(-1188.789 -595.641)" fill="#f3d6af"/>
            <path id="Trazado_19184" data-name="Trazado 19184" d="M1265.231,661.708l-2.495-1.045c-.872-3.09-1.784-6.387-2.716-9.968-2.491-9.55-4.114-25.293-.5-35.613a18.286,18.286,0,0,0,3.054-2.122c-4.7,10.165-3.022,27.5-.355,37.735C1263.257,654.685,1264.263,658.32,1265.231,661.708Z" transform="translate(-1201.984 -598.971)" fill="#f3d6af"/>
            <g id="clavicles" transform="translate(49.473 24.24)">
              <path id="Trazado_19185" data-name="Trazado 19185" d="M1251.637,625.988a63.229,63.229,0,0,0,7.083.694c2.19.246,5.765.321,7.92.7a9.783,9.783,0,0,1,4.51,1.772c1.926,1.1,3.789,2.643,5.72,3.906-2.174-.58-4.306-1.353-6.822-1.9-2.241-.593-3.951-.895-6.031-1.573s-4.419-1.253-6.725-1.875c-2.086-.614-5.261-1.034-7.251-2.069Z" transform="translate(-1250.04 -625.652)" fill="#ecbe90"/>
              <path id="Trazado_19186" data-name="Trazado 19186" d="M1321.626,625.988a63.251,63.251,0,0,1-7.083.694c-2.19.246-5.766.321-7.92.7a9.78,9.78,0,0,0-4.51,1.772c-1.926,1.1-3.79,2.643-5.72,3.906,2.173-.58,4.306-1.353,6.822-1.9,2.241-.593,3.951-.895,6.03-1.573s4.419-1.253,6.726-1.875c2.085-.614,5.261-1.034,7.251-2.069Z" transform="translate(-1258.953 -625.652)" fill="#ecbe90"/>
            </g>
          </g>
          <path id="neck" d="M1292.144,590.784a34.775,34.775,0,0,1-1.648-8.294c27.948-12.386,35.363-44.773,35.582-45.944a60.986,60.986,0,0,1-35.4,34.524,46.344,46.344,0,0,1-14.084,3.1,37.867,37.867,0,0,1-13.487-2.279c-11.47-4.034-25.15-14.062-35.661-35.32,2.173,13.075,10.7,34.034,35.6,46.023l-.114,2.351c-.689,4.779-3.3,10.5-6.569,13.693C1266.176,599.665,1286.826,596.213,1292.144,590.784Z" transform="translate(-1196.223 -536.546)" fill="#ecbe90"/>
        </g>
        <g id="clothes" transform="translate(0 54.31)">
          <g id="shirt" transform="translate(51.303 17.471)">
            <path id="Trazado_19187" data-name="Trazado 19187" d="M1315.618,691.834H1246.5l2.354-66.419s1.784,3,4.469,7.332v0l.309.493c.971,1.569,2.055,3.293,3.206,5.106l.1.165c7.471,11.753,17.787,26.947,20.314,25.5,4.071-2.329,33.589-38.1,33.589-38.1Z" transform="translate(-1246.504 -625.415)" fill="#5db2ab"/>
            <path id="Trazado_19188" data-name="Trazado 19188" d="M1272.2,693.581H1266.6l-11.928-57.119.222-1.964.309.493,3.206,5.106.1.165.493.788s2.646,14.332,4.958,22.58c.887,3.146,4.293,14.634,6.492,21.778A59.9,59.9,0,0,1,1272.2,693.581Z" transform="translate(-1248.075 -627.162)" fill="#478680"/>
          </g>
          <g id="gown">
            <g id="Grupo_8476" data-name="Grupo 8476" transform="translate(24.259 0.817)">
              <path id="Trazado_19189" data-name="Trazado 19189" d="M1251.382,650.877a95.713,95.713,0,0,1-3.684-37.3c-2.843,1.32-5.689,2.488-8.458,3.515a136.828,136.828,0,0,1-26.13,6.855c-.018,0-.035,0-.052.006l-.015,0,1.5,60.856.12,4.744h43.487Z" transform="translate(-1213.025 -606.485)" fill="#f6fbff"/>
              <g id="Grupo_8475" data-name="Grupo 8475" transform="translate(9.933)">
                <path id="Trazado_19190" data-name="Trazado 19190" d="M1259.211,692.707h-11.306c-10.187-21.207-20.507-39.533-20.507-39.533l3.72-2.879,10.616-8.216c-.506-.007-1.161-.057-1.918-.133-4.377-.448-12.146-1.9-14.061-2.259-.282-.053-.436-.085-.436-.085q.184-.047.422-.127c1.193-.38,3.291-1.277,5.7-2.371,6.337-2.882,14.849-7.15,14.849-7.15Z" transform="translate(-1225.319 -609.634)" fill="#d5e6ef"/>
                <path id="Trazado_19191" data-name="Trazado 19191" d="M1259.544,636.9l-.5-.784-.1-.165c-.493-.778-.975-1.538-1.439-2.273-.309-6.58.166-13.3,2.016-18.6a18.281,18.281,0,0,0,3.054-2.122C1258.214,620.147,1259.687,637.128,1259.544,636.9Z" transform="translate(-1231.49 -606.366)" fill="#ecbe90"/>
                <path id="Trazado_19192" data-name="Trazado 19192" d="M1264.965,687.869h-12.129a15.269,15.269,0,0,0-1.351-1.914c-5.046-5.971-14.222-27.428-18.149-36.9-.651-1.566-1.154-2.8-1.474-3.593-.246-.62-.384-.96-.384-.96,1.362-1.323,5.581-4.666,9.082-7.389,1.918-1.5,3.617-2.8,4.511-3.488.387-.3.623-.475.665-.51a12.736,12.736,0,0,1-3.142.531,36.339,36.339,0,0,1-10.405-1.376c-1.812-.475-3-.89-3-.89.872-.345,6.291-4.638,11.6-13.308q.692-1.129,1.38-2.361c.056-.1.115-.2.176-.3,4.1-6.741,17.825-10.492,18.258-10.608a11.149,11.149,0,0,0-1.865,1.323,17.073,17.073,0,0,0-4.648,7.393c-3.61,10.32-1.988,26.063.5,35.613.932,3.581,1.844,6.878,2.716,9.968C1260.416,670.061,1263.1,678.443,1264.965,687.869Z" transform="translate(-1226.063 -604.796)" fill="#f6fbff"/>
              </g>
              <path id="Trazado_19193" data-name="Trazado 19193" d="M1220.516,695.969c.359,1,.82,3.578,1.625,6.872h-9.12l1.52-4.744,4.95-15.44a36.922,36.922,0,0,0,.057,9.315A20.674,20.674,0,0,0,1220.516,695.969Z" transform="translate(-1213.021 -619.768)" fill="#d5e6ef"/>
            </g>
            <g id="Grupo_8478" data-name="Grupo 8478" transform="translate(92.296)">
              <path id="Trazado_19194" data-name="Trazado 19194" d="M1351.639,624.631a.319.319,0,0,0-.06-.01.975.975,0,0,0-.106-.018.014.014,0,0,0-.01,0,140.642,140.642,0,0,1-21.517-6.013c-1.056-.384-2.136-.788-3.231-1.218q-1.6-.623-3.24-1.308c-1.826-.764-3.687-1.59-5.567-2.481-2.079,7.611-1.97,14.329-3.515,24.983v.006c-.612,4.23-1.488,9.079-2.864,14.853-2.442,6.844-6.118,22.41-9.159,36.137h48l.06-3.019,1.235-61.9A.051.051,0,0,0,1351.639,624.631Z" transform="translate(-1298.239 -605.668)" fill="#f6fbff"/>
              <g id="Grupo_8477" data-name="Grupo 8477">
                <path id="Trazado_19195" data-name="Trazado 19195" d="M1335.331,645.666l1.932,1.819S1319.891,668,1307.9,689.678h-8.212c.257-2.422.492-4.455.686-5.828,1.738-12.339,7.92-30.486,13.5-45.163v-.006c3.9-10.243,7.495-18.794,9.082-22.5.545-1.274.855-1.978.855-1.978s.943,1.334,2.385,3.287c3.016,4.093,8.213,10.887,11.471,13.769a5.909,5.909,0,0,0,1.989,1.316,107.137,107.137,0,0,1-12.164,3.315h0a14.7,14.7,0,0,1-2.283.239Z" transform="translate(-1297.723 -605.788)" fill="#d5e6ef"/>
                <path id="Trazado_19196" data-name="Trazado 19196" d="M1322.389,630.172c.123.1,2.143,1.7,4.634,3.712h0c3.532,2.85,8.015,6.523,9.412,7.931,0,0-.581.682-1.577,1.847-4.623,5.416-18.174,21.278-23.667,27.545-2.73,3.117-5.622,9.5-8.146,16.468h-5.8c.261-2.573.581-5.2.968-7.8,2.435-16.316,7.08-27.3,12.678-47.277,3.663-13.072.9-25.4-4.961-28.811,0,0,14.779,3.255,19.223,8.413,1.347,1.563,2.614,3.073,3.8,4.5,5.56,6.724,9.229,11.714,10.007,12.037,0,0-.669.218-1.767.514C1333.934,630.133,1326.88,631.692,1322.389,630.172Z" transform="translate(-1297.255 -603.785)" fill="#f6fbff"/>
              </g>
              <path id="Trazado_19197" data-name="Trazado 19197" d="M1359.941,700.087l-5.144-16.049c.014.124.148,1.136.221,2.643a29.261,29.261,0,0,1-1.249,10.658c-.289.8-.859,2.938-1.911,5.768h9.05Z" transform="translate(-1307.754 -619.217)" fill="#d5e6ef"/>
            </g>
            <g id="arms" transform="translate(0 18.218)">
              <path id="Trazado_19198" data-name="Trazado 19198" d="M1215.268,667.311c-.232,3.089-.859,7.586-1.5,13.832-.021.236-.046.475-.07.717a69.237,69.237,0,0,0-.233,10.152h-30.4c-.51-18.34,1.5-25.9,2.783-37.13,1.474-12.889,10.063-27.273,21.411-28.474h.015c.018,0,.035,0,.052-.006,7.154-.718,9.718,4.891,10.271,12.378.007.071.011.141.015.212C1218.27,648.5,1215.75,660.938,1215.268,667.311Z" transform="translate(-1182.987 -626.34)" fill="#f6fbff"/>
              <path id="Trazado_19199" data-name="Trazado 19199" d="M1380.384,651.475c-2.85-11.914-6.787-21.362-19.789-24.223h0a.051.051,0,0,0-.021,0,.319.319,0,0,0-.06-.01.975.975,0,0,0-.106-.018.014.014,0,0,0-.01,0c-7.182-.968-16.2,30.352-8.825,40.222,1.287,1.724,2.249,5.341,2.864,8.311.524,2.547.8,4.62.8,4.62s-.594,5.2-1.443,11.806H1383.8C1384.522,672.76,1383.238,663.407,1380.384,651.475Z" transform="translate(-1214.875 -626.505)" fill="#f6fbff"/>
            </g>
          </g>
        </g>
      </g>
      <g id="head" transform="translate(23.355)">
        <g id="face" transform="translate(10.536 26.027)">
          <path id="face-2" data-name="face" d="M1275.356,439.877c46.419.631,52.523,31.046,52.523,63.684,0,18.345-11.806,38.66-25.351,49.5-4.539,3.634-13.954,9.567-20.4,11.174a22.7,22.7,0,0,1-6.127.885,24.215,24.215,0,0,1-6.975-1.044c-6.29-1.69-15.1-7.553-19.525-10.989-13.9-10.79-24.555-31.17-24.555-49.529C1224.949,470.923,1231.33,439.279,1275.356,439.877Z" transform="translate(-1224.947 -439.869)" fill="#f3d6af"/>
          <path id="Trazado_19200" data-name="Trazado 19200" d="M1293.93,495.342l-15.208,20.489-15.067,19.824-21.584-.957,23.406-39.357Z" transform="translate(-1228.24 -450.535)" fill="#f7e5cd"/>
          <path id="Trazado_19201" data-name="Trazado 19201" d="M1333.865,495.7l-24.7,38.927-11.182-10.563,19.173-28.727Z" transform="translate(-1238.991 -450.535)" fill="#f7e5cd"/>
          <g id="shadow" transform="translate(0 40.077)">
            <path id="shadow-2" data-name="shadow" d="M1326.7,492.682a3.43,3.43,0,0,0-2.329-.9s-37.08-2.284-49.451-2.295c-11.834-.01-47.3,2.295-47.3,2.295a3.388,3.388,0,0,0-1.411.3,151.907,151.907,0,0,0-1.256,21.018,57.067,57.067,0,0,0,2.713,16.858,17.277,17.277,0,0,0,14.448,7.172H1257.5c5.58,0,9.015-5.156,12.045-9.7,1.995-3,4.476-6.724,6.379-6.724h.141c2.09,0,5.183,3.856,7.671,6.956,3.733,4.656,7.6,9.473,12.995,9.473h13.146a17.457,17.457,0,0,0,15.591-8.882,51.99,51.99,0,0,0,2.414-15.148A150.631,150.631,0,0,0,1326.7,492.682Zm-16.823,37.981h-13.146c-2.09,0-5.183-3.857-7.668-6.957-3.737-4.659-7.6-9.476-13-9.476h-.141c-5.584,0-9.019,5.159-12.048,9.709-2,2.994-4.476,6.724-6.376,6.724h-15.391c-12.224,0-12.579-15.025-12.579-16.739a142.876,142.876,0,0,1,1.077-15.774s33.224-2.305,44.311-2.295c11.625.01,46.464,2.295,46.464,2.295a143.091,143.091,0,0,1,1.073,15.774C1322.453,515.638,1322.1,530.663,1309.874,530.663Z" transform="translate(-1224.947 -489.487)" fill="#ecbe90"/>
            <g id="Grupo_8479" data-name="Grupo 8479" transform="translate(35.986 4.729)">
              <path id="Trazado_19202" data-name="Trazado 19202" d="M1321.287,495.342l-1.815,2.724c6.59.366,12.7.742,16.407.975L1338,495.7Z" transform="translate(-1279.109 -495.342)" fill="#f3d5b8"/>
              <path id="Trazado_19203" data-name="Trazado 19203" d="M1270.753,495.342l-1.253,2.108c5.63-.278,10.749-.472,13.983-.468,3.3,0,8.462.191,14.17.454l1.552-2.094Z" transform="translate(-1269.5 -495.342)" fill="#f3d5b8"/>
            </g>
          </g>
        </g>
        <g id="ears" transform="translate(1.362 87.258)">
          <g id="ear">
            <ellipse id="Elipse_783" data-name="Elipse 783" cx="6.933" cy="8.05" rx="6.933" ry="8.05" transform="translate(0 3.581) rotate(-14.967)" fill="#f3d6af"/>
            <path id="Trazado_19204" data-name="Trazado 19204" d="M1223,522.521l1.012,6.631s-3.24,1.106-3.837-2.808S1223,522.521,1223,522.521Z" transform="translate(-1214.843 -516.993)" fill="#ecbe90"/>
            <g id="earring" transform="translate(5.507 13.336)">
              <path id="Trazado_19205" data-name="Trazado 19205" d="M1220.407,534.876a2.6,2.6,0,1,0,2.613-2.689A2.652,2.652,0,0,0,1220.407,534.876Z" transform="translate(-1220.407 -532.187)" fill="#fff"/>
              <path id="Trazado_19206" data-name="Trazado 19206" d="M1222.38,536.324a2.128,2.128,0,0,0,.64-4.137h0a2.7,2.7,0,1,1-2.613,2.689c0-.066.019-.128.021-.191A2.043,2.043,0,0,0,1222.38,536.324Z" transform="translate(-1220.407 -532.187)" fill="#ebebeb"/>
            </g>
          </g>
          <g id="ear-2" data-name="ear" transform="translate(105.489 1.585)">
            <path id="Trazado_19207" data-name="Trazado 19207" d="M1357.9,527.411c1.149-4.295-.919-8.578-4.618-9.567s-7.628,1.691-8.777,5.986.92,8.579,4.618,9.567S1356.756,531.706,1357.9,527.411Z" transform="translate(-1344.192 -517.639)" fill="#f3d6af"/>
            <path id="Trazado_19208" data-name="Trazado 19208" d="M1353.4,522.521l-1.011,6.631s3.239,1.106,3.837-2.808S1353.4,522.521,1353.4,522.521Z" transform="translate(-1345.767 -518.578)" fill="#ecbe90"/>
            <g id="earring-2" data-name="earring" transform="translate(5.081 11.751)">
              <path id="Trazado_19209" data-name="Trazado 19209" d="M1355.685,534.876a2.6,2.6,0,1,1-2.612-2.689A2.652,2.652,0,0,1,1355.685,534.876Z" transform="translate(-1350.482 -532.187)" fill="#fff"/>
              <path id="Trazado_19210" data-name="Trazado 19210" d="M1353.712,536.324a2.128,2.128,0,0,1-.639-4.137h0a2.7,2.7,0,1,0,2.612,2.689c0-.066-.019-.128-.021-.191A2.042,2.042,0,0,1,1353.712,536.324Z" transform="translate(-1350.482 -532.187)" fill="#ebebeb"/>
            </g>
          </g>
        </g>
        <g id="eyes" transform="translate(22.923 82.786)">
          <g id="Grupo_8488" data-name="Grupo 8488" transform="translate(52.896)">
            <g id="Grupo_8480" data-name="Grupo 8480" transform="translate(0.975 1.264)">
              <path id="Trazado_19211" data-name="Trazado 19211" d="M1307,518.836c.429,3.092,6.084,5.632,10.2,5.061s8.779-3.884,8.35-6.976-5.72-5.709-9.84-5.138S1306.575,515.745,1307,518.836Z" transform="translate(-1306.978 -511.704)" fill="#fff" fill-rule="evenodd"/>
              <path id="Trazado_19212" data-name="Trazado 19212" d="M1307.833,520.233a30.735,30.735,0,0,1,8.8-3.15c4.119-.571,8.88,1.478,8.88,1.478s-2.735-7.492-9.626-6.77C1309.062,512.505,1307.833,520.233,1307.833,520.233Z" transform="translate(-1307.143 -511.712)" fill="#bebdbd" fill-rule="evenodd"/>
            </g>
            <g id="Grupo_8481" data-name="Grupo 8481" transform="translate(4.692 2.175)">
              <path id="Trazado_19213" data-name="Trazado 19213" d="M1322.408,516.316a5.626,5.626,0,1,0-3.057,7.345A5.627,5.627,0,0,0,1322.408,516.316Z" transform="translate(-1311.58 -512.833)" fill="#524842"/>
              <path id="Trazado_19214" data-name="Trazado 19214" d="M1320.806,517.761a3.292,3.292,0,1,0-1.788,4.3A3.292,3.292,0,0,0,1320.806,517.761Z" transform="translate(-1312.135 -513.389)" fill="#222"/>
              <path id="Trazado_19215" data-name="Trazado 19215" d="M1321.953,518.342a1.042,1.042,0,1,1,.276-1.448A1.045,1.045,0,0,1,1321.953,518.342Z" transform="translate(-1313.261 -513.526)" fill="#fff" fill-rule="evenodd"/>
            </g>
            <g id="Grupo_8487" data-name="Grupo 8487">
              <g id="Grupo_8484" data-name="Grupo 8484" transform="translate(0.977 1.263)">
                <g id="Grupo_8482" data-name="Grupo 8482">
                  <path id="Trazado_19216" data-name="Trazado 19216" d="M1325.022,515.515l-.676,1.066-.471.742-.366.577-3.252,5.12a11.982,11.982,0,0,1-3.051.876c-3.462.478-8.015-1.242-9.627-3.639a3.359,3.359,0,0,1-.574-1.422c-.348-2.516,2.907-5.228,6.352-6.46a11.9,11.9,0,0,1,2.361-.594C1319.2,511.3,1323.5,513.087,1325.022,515.515Z" transform="translate(-1306.98 -511.703)" fill="#fff" fill-rule="evenodd"/>
                  <path id="Trazado_19217" data-name="Trazado 19217" d="M1324.51,516.589l-.471.742-.366.577c-.475-.148-1.021-.3-1.615-.436a20.21,20.21,0,0,0-2.185-.387l-.321-.032a12.45,12.45,0,0,0-1.544-.067,10.427,10.427,0,0,0-1.38.1,19.765,19.765,0,0,0-3.413.834c-.831.275-1.623.577-2.329.872-1.2.5-2.157.979-2.664,1.239-.218.112-.355.187-.384.2l-.007,0s.936-5.873,5.69-7.85a8.223,8.223,0,0,1,2.361-.594C1320.435,511.31,1323.176,514.425,1324.51,516.589Z" transform="translate(-1307.144 -511.71)" fill="#cbcaca" fill-rule="evenodd"/>
                </g>
                <g id="Grupo_8483" data-name="Grupo 8483" transform="translate(3.715 0.913)">
                  <path id="Trazado_19218" data-name="Trazado 19218" d="M1322.408,516.316a5.626,5.626,0,1,0-3.057,7.345A5.627,5.627,0,0,0,1322.408,516.316Z" transform="translate(-1311.58 -512.833)" fill="#736b66"/>
                  <path id="Trazado_19219" data-name="Trazado 19219" d="M1320.806,517.761a3.292,3.292,0,1,0-1.788,4.3A3.292,3.292,0,0,0,1320.806,517.761Z" transform="translate(-1312.135 -513.389)" fill="#5b5b5b"/>
                  <path id="Trazado_19220" data-name="Trazado 19220" d="M1321.953,518.342a1.042,1.042,0,1,1,.276-1.448A1.045,1.045,0,0,1,1321.953,518.342Z" transform="translate(-1313.261 -513.526)" fill="#fff" fill-rule="evenodd"/>
                </g>
              </g>
              <g id="Grupo_8486" data-name="Grupo 8486">
                <g id="Grupo_8485" data-name="Grupo 8485" transform="translate(0.001)">
                  <path id="Trazado_19221" data-name="Trazado 19221" d="M1305.772,518.748a1.263,1.263,0,1,0,2.526-.027c-.022-2.283,1.641-4.029,3.87-5.044a11.592,11.592,0,0,1,3.719-.968,10.458,10.458,0,0,1,3.725.3,5.162,5.162,0,0,1,4.06,4.186,1.264,1.264,0,0,0,2.5-.383,7.564,7.564,0,0,0-5.885-6.235,13,13,0,0,0-4.628-.378,14.148,14.148,0,0,0-4.533,1.183C1308.04,512.787,1305.74,515.32,1305.772,518.748Z" transform="translate(-1305.772 -510.14)" fill="#222"/>
                  <path id="tab" d="M1310.383,512.191a11.037,11.037,0,0,1,2.954-1.394,9.844,9.844,0,0,1,1.2-.246,17.391,17.391,0,0,1,5.105-.077c2.4.3,4.647,1.762,6.963,2.539,3.141,1.052,4.471.682,4.471.682-.745,1.726-2.673,2.213-4.654,1.913-1.784-.271-3.159-1.9-4.791-2.693a11.493,11.493,0,0,0-8.421-.721,13.748,13.748,0,0,0-7.209,5.556A10.513,10.513,0,0,1,1310.383,512.191Z" transform="translate(-1305.817 -510.175)" fill="#222"/>
                </g>
                <path id="Trazado_19222" data-name="Trazado 19222" d="M1319.958,510.492a13.168,13.168,0,0,0-4.3-.292,14.029,14.029,0,0,0-4.532,1.182,11.437,11.437,0,0,0-2.1,1.232l-3.11,4.661a7.169,7.169,0,0,0-.142,1.472,1.264,1.264,0,0,0,1.277,1.249,1.178,1.178,0,0,0,.3-.039.66.66,0,0,0,.088-.031l.007,0a1.2,1.2,0,0,0,.384-.2,1.263,1.263,0,0,0,.472-1c-.021-2.283,1.643-4.032,3.87-5.046.172-.078.348-.155.527-.221h0a11.608,11.608,0,0,1,3.188-.746,11.468,11.468,0,0,1,2.326.024,9.079,9.079,0,0,1,1.4.275,5.182,5.182,0,0,1,4.028,4.014l2.632-4.148C1324.177,512.126,1322.122,510.866,1319.958,510.492Z" transform="translate(-1305.771 -510.14)" fill="#5b5b5b"/>
                <path id="Trazado_19223" data-name="Trazado 19223" d="M1305.947,517.865l3.11-4.661A7.719,7.719,0,0,0,1305.947,517.865Z" transform="translate(-1305.805 -510.729)" fill="#222"/>
              </g>
            </g>
          </g>
          <g id="Grupo_8495" data-name="Grupo 8495">
            <g id="Grupo_8489" data-name="Grupo 8489" transform="translate(5.682 1.264)">
              <path id="Trazado_19224" data-name="Trazado 19224" d="M1265.9,518.836c-.429,3.092-6.084,5.632-10.2,5.061s-8.778-3.884-8.35-6.976,5.721-5.709,9.84-5.138S1266.326,515.745,1265.9,518.836Z" transform="translate(-1247.316 -511.704)" fill="#fff" fill-rule="evenodd"/>
              <path id="Trazado_19225" data-name="Trazado 19225" d="M1265.29,520.233a30.738,30.738,0,0,0-8.794-3.15c-4.119-.571-8.881,1.478-8.881,1.478s2.736-7.492,9.626-6.77C1264.062,512.505,1265.29,520.233,1265.29,520.233Z" transform="translate(-1247.374 -511.712)" fill="#bebdbd" fill-rule="evenodd"/>
            </g>
            <g id="Grupo_8490" data-name="Grupo 8490" transform="translate(9.582 2.175)">
              <path id="Trazado_19226" data-name="Trazado 19226" d="M1252.571,516.316a5.626,5.626,0,1,1,3.057,7.345A5.627,5.627,0,0,1,1252.571,516.316Z" transform="translate(-1252.145 -512.833)" fill="#524842"/>
              <path id="Trazado_19227" data-name="Trazado 19227" d="M1255.285,517.761a3.292,3.292,0,1,1,1.789,4.3A3.292,3.292,0,0,1,1255.285,517.761Z" transform="translate(-1252.701 -513.389)" fill="#222"/>
              <path id="Trazado_19228" data-name="Trazado 19228" d="M1261.432,518.342a1.042,1.042,0,1,0-.276-1.448A1.044,1.044,0,0,0,1261.432,518.342Z" transform="translate(-1253.843 -513.526)" fill="#fff" fill-rule="evenodd"/>
            </g>
            <g id="Grupo_8491" data-name="Grupo 8491">
              <path id="Trazado_19229" data-name="Trazado 19229" d="M1266.7,518.748a1.263,1.263,0,1,1-2.527-.027c.021-2.283-1.642-4.029-3.87-5.044a11.6,11.6,0,0,0-3.719-.968,10.46,10.46,0,0,0-3.725.3,5.161,5.161,0,0,0-4.059,4.186,1.265,1.265,0,0,1-2.5-.383,7.565,7.565,0,0,1,5.885-6.235,13,13,0,0,1,4.628-.378,14.148,14.148,0,0,1,4.533,1.183C1264.431,512.787,1266.732,515.32,1266.7,518.748Z" transform="translate(-1241.436 -510.14)" fill="#222"/>
              <path id="tab-2" data-name="tab" d="M1260.98,512.191a11.055,11.055,0,0,0-2.955-1.394,9.842,9.842,0,0,0-1.2-.246,17.393,17.393,0,0,0-5.106-.077c-2.4.3-4.647,1.762-6.964,2.539-3.14,1.052-4.471.682-4.471.682.746,1.726,2.673,2.213,4.655,1.913,1.784-.271,3.159-1.9,4.79-2.693a11.5,11.5,0,0,1,8.422-.721,13.753,13.753,0,0,1,7.209,5.556A10.522,10.522,0,0,0,1260.98,512.191Z" transform="translate(-1240.282 -510.175)" fill="#222"/>
            </g>
            <g id="Grupo_8494" data-name="Grupo 8494" transform="translate(10.422 0.416)">
              <g id="Grupo_8492" data-name="Grupo 8492" transform="translate(0 1.154)">
                <path id="Trazado_19230" data-name="Trazado 19230" d="M1267.028,518.916a3.358,3.358,0,0,1-.573,1.422c-1.615,2.4-6.169,4.117-9.631,3.639a12.286,12.286,0,0,1-3.638-1.144l.51-.855,1.316-2.22,1.6-2.688,1.211-2.034,1.077-1.816.239-.4.418-.708a11.508,11.508,0,0,1,1.115.342C1264.117,513.691,1267.373,516.4,1267.028,518.916Z" transform="translate(-1253.185 -512.09)" fill="#fff" fill-rule="evenodd"/>
                <path id="Trazado_19231" data-name="Trazado 19231" d="M1260.373,512.108l-.418.708-.239.4-1.077,1.816-1.211,2.034a9.407,9.407,0,0,1,.954.085,20.529,20.529,0,0,1,3.687.925c.83.282,1.615.591,2.308.89,1.08.461,1.943.887,2.41,1.13l.366.193a.024.024,0,0,0,.015.007l.01.007v0c-.028-.17-1.006-5.9-5.69-7.847a7,7,0,0,0-1.1-.366Z" transform="translate(-1254.001 -512.084)" fill="#cbcaca" fill-rule="evenodd"/>
              </g>
              <g id="Grupo_8493" data-name="Grupo 8493" transform="translate(0.51 1.886)">
                <path id="Trazado_19232" data-name="Trazado 19232" d="M1263.683,519.137a5.627,5.627,0,0,1-9.866,3.009l1.316-2.22,1.6-2.688,1.211-2.034,1.077-1.816.239-.4a5.262,5.262,0,0,1,.978.3,5.622,5.622,0,0,1,3.445,5.848Z" transform="translate(-1253.817 -512.99)" fill="#736b66"/>
                <path id="Trazado_19233" data-name="Trazado 19233" d="M1261.449,520.272a3.29,3.29,0,0,1-6,.179l1.6-2.688,1.211-2.034a3.227,3.227,0,0,1,1.4.243,3.315,3.315,0,0,1,.788.46,3.277,3.277,0,0,1,1.136,1.738,3.161,3.161,0,0,1,.1.6A3.279,3.279,0,0,1,1261.449,520.272Z" transform="translate(-1254.13 -513.516)" fill="#5b5b5b"/>
                <path id="Trazado_19234" data-name="Trazado 19234" d="M1261.432,518.342a1.042,1.042,0,1,0-.276-1.448A1.044,1.044,0,0,0,1261.432,518.342Z" transform="translate(-1255.194 -513.653)" fill="#fff" fill-rule="evenodd"/>
              </g>
              <path id="Trazado_19235" data-name="Trazado 19235" d="M1269.387,518.847a1.265,1.265,0,0,1-1.277,1.249,1.156,1.156,0,0,1-.3-.039c-.032-.007-.06-.024-.091-.035v0l-.01-.007a.023.023,0,0,1-.015-.007,1.041,1.041,0,0,1-.366-.193,1.263,1.263,0,0,1-.472-1c.021-2.277-1.629-4.018-3.846-5.035l-.025-.01a11.4,11.4,0,0,0-2.73-.838l.239-.4.418-.708.018-.024.687-1.154a13.226,13.226,0,0,1,2.413.827C1267.118,512.886,1269.419,515.419,1269.387,518.847Z" transform="translate(-1254.546 -510.655)" fill="#5b5b5b"/>
            </g>
          </g>
        </g>
        <g id="eyebrows" transform="translate(23.209 73.543)">
          <path id="eyebrow" d="M1264.472,502.858a.66.66,0,0,0,.658-.191c.09-.157.465-2.672-.141-3.193a48.166,48.166,0,0,0-12.515-.618c-3.441.305-12.814,3.237-11.755,4.46,2.5.12,8.24-2.236,12.634-2.236C1256.716,501.03,1260.642,502.125,1264.472,502.858Z" transform="translate(-1240.636 -498.696)" fill="#423936"/>
          <path id="eyebrow-2" data-name="eyebrow" d="M1306.93,502.858a.66.66,0,0,1-.658-.191c-.09-.157-.465-2.672.141-3.193a48.166,48.166,0,0,1,12.515-.618c3.44.305,12.9,3.306,11.839,4.529-2.5.12-8.324-2.3-12.718-2.3C1314.685,501.03,1310.76,502.125,1306.93,502.858Z" transform="translate(-1253.219 -498.696)" fill="#423936"/>
          <g id="eyebrows-2" data-name="eyebrows" transform="translate(20.847 0.032)">
            <path id="Trazado_19236" data-name="Trazado 19236" d="M1270.091,502.784a.661.661,0,0,1-.658.193c-.992-.19-2-.4-2.987-.619l1.812-3.048c.578.081,1.144.176,1.693.281C1270.559,500.113,1270.182,502.629,1270.091,502.784Z" transform="translate(-1266.446 -498.847)" fill="#665f5c"/>
            <path id="Trazado_19237" data-name="Trazado 19237" d="M1332.937,503.395c-2.5.12-8.325-2.305-12.717-2.305a20.742,20.742,0,0,0-2.857.179l1.689-2.533c.7.028,1.387.07,2.044.127C1324.538,499.169,1334,502.17,1332.937,503.395Z" transform="translate(-1276.237 -498.736)" fill="#665f5c"/>
          </g>
        </g>
        <g id="hair-2" data-name="hair">
          <path id="hair-3" data-name="hair" d="M1323.857,503.1a24.611,24.611,0,0,1,6.416-5.648s2.476-9.063,2.551-27.037c.136-32.676-29.087-45.385-29.174-45.4-.473-.086-2.178-2.493-2.567-2.854a32.922,32.922,0,0,0-8.466-5.48c-23.391-10.711-56.809.894-69.556,21.215-2.88,4.589-6.382,9.365-7.891,14.281-1.916,6.227-1.632,12.887-.872,19.481,1.009,8.757,1.622,14.744,2.85,23.512.027.187,4.229,4.5,6.9,7.545.67-5.409.354-17,.354-17,45.188-3.182,71.631-37.779,71.631-37.779s8.1,23.1,25.291,31.956C1321.636,496.029,1323.857,503.1,1323.857,503.1Z" transform="translate(-1212.251 -408.6)" fill="#ecbe90"/>
          <path id="hair-4" data-name="hair" d="M1323.712,502.24a20.718,20.718,0,0,1,6.118-5.31,125.706,125.706,0,0,0,4.2-31.859c.136-32.675-30.625-44.507-30.711-44.524-.473-.087-2.178-2.493-2.567-2.854a32.918,32.918,0,0,0-8.466-5.48c-15.185-6.954-34.6-4.5-49.834,3.634-8.235,4.4-15.25,10.453-19.721,17.581-2.88,4.589-6.382,9.365-7.891,14.282a69.2,69.2,0,0,0-2.922,19.284c-.14,8.814,3.653,20.149,4.881,28.916.027.188,5.039,2.438,6.9,5.944-.425-3.691-1.885-20.43-1.885-20.43,22.227-.657,40.859-10.766,54-20.8a168.909,168.909,0,0,0,21.093-18.762s9.893,25.273,25.01,35.669c1.145.787.96,6.061,1.395,12.221C1323.8,496.622,1323.712,502.24,1323.712,502.24Z" transform="translate(-1211.905 -407.742)" fill="#423936"/>
          <path id="hair-5" data-name="hair" d="M1323.71,502.144a20.718,20.718,0,0,1,6.118-5.31,125.706,125.706,0,0,0,4.2-31.859c.136-32.675-30.625-44.507-30.711-44.524-.473-.087-2.178-2.493-2.567-2.854a32.919,32.919,0,0,0-8.466-5.48c-15.185-6.954-35.074-5.739-49.834,3.235-21.593,13.127-26.1,27.345-27.613,32.262a69.2,69.2,0,0,0-2.922,19.284c-.14,8.814.761,20.9,5.108,29.8a15.835,15.835,0,0,1,6.672,5.064c.313.12-2.472-7.63-3.258-13.576-.729-5.514-1.019-10.685-1.019-10.685,22.227-.657,43.251-9.758,56.4-19.793a136.353,136.353,0,0,0,21.549-20.368s11.05,27.08,26.168,37.477c1.145.787.875,7.277,1.394,13.43A48.463,48.463,0,0,1,1323.71,502.144Z" transform="translate(-1211.902 -407.646)" fill="#524842"/>
          <g id="Grupo_8496" data-name="Grupo 8496" transform="translate(9.344 17.438)">
            <path id="Trazado_19238" data-name="Trazado 19238" d="M1321.88,440.433s7.84,4.091,15.712,15.5a75.387,75.387,0,0,1,10.57,23.019L1335.631,458.3Z" transform="translate(-1242.394 -431.388)" fill="#423936"/>
            <path id="Trazado_19239" data-name="Trazado 19239" d="M1323.957,433.325s5.291,2.56,14.146,13.224,14.506,25.63,14.506,25.63-4.82-18.712-11.421-26.436C1334.911,438.4,1323.957,433.325,1323.957,433.325Z" transform="translate(-1242.793 -430.021)" fill="#423936"/>
            <path id="Trazado_19240" data-name="Trazado 19240" d="M1296.522,439.761s-12.608,14.9-29.9,25.046c-24.854,14.575-43.15,15.689-43.15,15.689s24.742-9.769,41.188-19.459C1279.488,452.3,1296.522,439.761,1296.522,439.761Z" transform="translate(-1223.471 -431.259)" fill="#423936"/>
            <path id="Trazado_19241" data-name="Trazado 19241" d="M1297.7,429.235s-16.043,14.888-33.338,25.029c-24.854,14.576-40.852,17.312-40.852,17.312s22.445-11.392,38.89-21.081C1277.231,441.756,1297.7,429.235,1297.7,429.235Z" transform="translate(-1223.479 -429.235)" fill="#423936"/>
          </g>
        </g>
      </g>
      <path id="kerchief" d="M1218.2,499.915c-16.1-47.331,22.179-77.253,55.74-77.239,34.64.015,68.479,35.486,55.652,77.217,4.906-30.4-22.092-61.2-55.6-61.363C1239.35,438.358,1215.121,459.367,1218.2,499.915Z" transform="translate(-1189.029 -410.536)" fill="#becbd4" fill-rule="evenodd"/>
      <g id="mask" transform="translate(29.794 88.865)">
        <g id="Grupo_8497" data-name="Grupo 8497">
          <path id="Trazado_19242" data-name="Trazado 19242" d="M1239.826,536.583l-19.952-18.136,1.737-.781s19.476,17.714,19.484,17.549S1239.826,536.583,1239.826,536.583Z" transform="translate(-1219.874 -517.666)" fill="#dadee2"/>
          <path id="Trazado_19243" data-name="Trazado 19243" d="M1240.475,562.085s-5.334-8.143-6.9-10.98c-2.028-3.666-6.062-14.1-6.062-14.1l.744,4.471a96.821,96.821,0,0,0,3.6,10.743c1.564,3.228,6.765,12.656,6.765,12.656Z" transform="translate(-1221.342 -521.384)" fill="#dadee2"/>
        </g>
        <g id="Grupo_8498" data-name="Grupo 8498" transform="translate(89.794)">
          <path id="Trazado_19244" data-name="Trazado 19244" d="M1332.315,536.583l19.952-18.136-1.737-.781s-19.476,17.714-19.484,17.549S1332.315,536.583,1332.315,536.583Z" transform="translate(-1331.045 -517.666)" fill="#f6fbff"/>
          <path id="Trazado_19245" data-name="Trazado 19245" d="M1333.506,562.085s5.334-8.143,6.9-10.98c2.028-3.666,6.062-14.1,6.062-14.1l-.744,4.471a96.84,96.84,0,0,1-3.6,10.743c-1.565,3.228-7.042,12.541-7.042,12.541Z" transform="translate(-1331.518 -521.384)" fill="#f6fbff"/>
        </g>
        <g id="Grupo_8503" data-name="Grupo 8503" transform="translate(17.306 4.96)">
          <g id="Grupo_8499" data-name="Grupo 8499">
            <path id="Trazado_19246" data-name="Trazado 19246" d="M1243.434,535.372a.985.985,0,0,0-.49,1.178c.821,2.611,3.217,11.127,1.723,17.38-1.462,6.118-2.19,5.956-3.3,8.118-.209.41.095.742.373,1.1,13.367,17.308,27.243,20.279,39.62,20.462,12.243.181,33.564-14.061,36.543-22.454.2-.556.6-1.014.385-1.569-.871-2.253-3.009-6.082-3.009-10.1s2.137-11.877,3.009-14.914a1.422,1.422,0,0,0-.833-1.72c-4.928-1.942-24.041-9.1-37.681-9.047C1266.838,523.859,1247.462,533.33,1243.434,535.372Z" transform="translate(-1241.3 -523.807)" fill="#f6fbff"/>
            <path id="Trazado_19247" data-name="Trazado 19247" d="M1243.434,535.372a.985.985,0,0,0-.49,1.178c.821,2.611,3.217,11.127,1.723,17.38-1.462,6.118-2.19,5.956-3.3,8.118-.209.409.095.742.373,1.1,13.367,17.308,27.243,20.279,39.62,20.462-3.717-20.651-5.661-37.345-1.586-59.8C1266.838,523.859,1247.462,533.33,1243.434,535.372Z" transform="translate(-1241.3 -523.807)" fill="#dadee2"/>
          </g>
          <g id="Grupo_8500" data-name="Grupo 8500" transform="translate(23.698 38.644)">
            <path id="Trazado_19248" data-name="Trazado 19248" d="M1270.64,574.538s15.968,2.4,27.373-2.888C1298.013,571.65,1283.831,578.979,1270.64,574.538Z" transform="translate(-1270.64 -571.65)" fill="#d5e6ef"/>
            <path id="Trazado_19249" data-name="Trazado 19249" d="M1284.333,576.365a30.949,30.949,0,0,1-13.678-1.136,67.8,67.8,0,0,0,13.583.355Z" transform="translate(-1270.643 -572.338)" fill="#bdcbd4"/>
          </g>
          <g id="Grupo_8501" data-name="Grupo 8501" transform="translate(6.726 36.156)">
            <path id="Trazado_19250" data-name="Trazado 19250" d="M1313.51,569.907s-15.373,17.769-37.984,14.841-27.606-8.235-25.437-7.673,17.9,7.269,25.834,5.7,18.348-.427,27.571-8.063S1314.2,567.988,1313.51,569.907Z" transform="translate(-1249.627 -568.57)" fill="#d5e6ef"/>
            <path id="Trazado_19251" data-name="Trazado 19251" d="M1281.732,587.072a39,39,0,0,1-6.207-.309c-22.611-2.927-27.6-8.234-25.436-7.674s17.9,7.269,25.834,5.7c1.678-.33,3.466-.538,5.331-.735Q1281.481,585.555,1281.732,587.072Z" transform="translate(-1249.627 -570.585)" fill="#bdcbd4"/>
          </g>
          <g id="Grupo_8502" data-name="Grupo 8502" transform="translate(8.771 28.019)">
            <path id="Trazado_19252" data-name="Trazado 19252" d="M1255.917,563.5a12.067,12.067,0,0,0-2.084.637c-.674.285-2.781,1.489-.928,1.615,2.976.2,22.414-6.312,32.331-4.822s24.1,2.11,25.488,1.043c.347-.267-1.94-.536-2.1-.55-2.178-.191-4.367-.261-6.55-.38-3.211-.174-6.412-.493-9.6-.905-2.881-.372-5.71-1.12-8.535-1.524-4.785-.686-9.3,1.921-13.876,2.8-3.484.668-7.176.953-10.734,1.517C1258.24,563.1,1257.056,563.245,1255.917,563.5Z" transform="translate(-1252.159 -558.495)" fill="#d5e6ef"/>
            <path id="Trazado_19253" data-name="Trazado 19253" d="M1279.721,560.838c-10.321.609-24.325,5.141-26.816,4.972-1.855-.127.253-1.33.929-1.615a12.272,12.272,0,0,1,2.083-.636c1.14-.25,2.322-.4,3.412-.573,3.558-.563,7.249-.848,10.732-1.517,3.192-.612,6.348-2.062,9.589-2.649C1279.667,559.494,1279.692,560.166,1279.721,560.838Z" transform="translate(-1252.159 -558.558)" fill="#bdcbd4"/>
          </g>
        </g>
        <g id="Grupo_8504" data-name="Grupo 8504" transform="translate(19.119 1.983)">
          <path id="Trazado_19254" data-name="Trazado 19254" d="M1313.45,536.554H1300.3c-2.09,0-5.183-3.857-7.668-6.957a52.8,52.8,0,0,0-5.316-5.992c-2.255-2.055-4.743-3.484-7.681-3.484h-.141c-3.224,0-5.728,1.717-7.85,4.047a46.638,46.638,0,0,0-4.2,5.662c-2,2.994-4.476,6.724-6.376,6.724h-15.391a13.3,13.3,0,0,1-2.14-.166,53.546,53.546,0,0,1,1.535,6.626c.2,0,.4.007.6.007h15.391c5.58,0,9.015-5.156,12.045-9.7,1.995-3,4.476-6.724,6.379-6.724h.141c2.09,0,5.183,3.856,7.671,6.956,3.733,4.656,7.6,9.473,12.995,9.473h13.146a20.13,20.13,0,0,0,3.044-.225c.52-2.568,1.2-5.229,1.738-7.182A11.7,11.7,0,0,1,1313.45,536.554Z" transform="translate(-1243.544 -520.121)" fill="#d5e6ef"/>
          <path id="Trazado_19255" data-name="Trazado 19255" d="M1271.648,524.876a46.638,46.638,0,0,0-4.2,5.662c-2,2.994-4.476,6.724-6.376,6.724h-15.391a13.3,13.3,0,0,1-2.14-.166c.158.531.352,1.207.552,1.988.036.13.067.264.1.4.07.271.137.556.2.848.036.148.07.3.1.447s.07.306.1.461c.057.257.112.52.166.792.018.088.035.179.053.271.06.3.116.594.166.9.031.173.06.345.088.518.2,0,.4.007.6.007h15.391c5.58,0,9.015-5.156,12.045-9.7,1.995-3,4.476-6.724,6.379-6.724h.116c.179-1.151.376-2.312.59-3.494A41.7,41.7,0,0,0,1271.648,524.876Z" transform="translate(-1243.544 -520.83)" fill="#bdcbd4"/>
        </g>
        <g id="Grupo_8505" data-name="Grupo 8505" transform="translate(19.965 17.695)">
          <path id="Trazado_19256" data-name="Trazado 19256" d="M1245.632,564.25c-1.4,2.724-.981.4-.981.4s2.382-8.076,2.977-11.809a19.835,19.835,0,0,0-.393-6.08,55.379,55.379,0,0,0-1.6-6.366c-.01-.039-.021-.074-.031-.109-.225-.848.422-1.052.82.007a.168.168,0,0,1,.018.042c.246.686,1.031,3.631,1.594,6.425a31.877,31.877,0,0,1,.588,3.856C1248.816,553.647,1247.032,561.523,1245.632,564.25Z" transform="translate(-1244.592 -539.573)" fill="#bdcbd4"/>
          <path id="Trazado_19257" data-name="Trazado 19257" d="M1246.677,540.506a.163.163,0,0,0-.018-.042h-.535c-.1,0-.19,0-.285-.007.011.035.021.07.032.109a55.379,55.379,0,0,1,1.6,6.366h.8C1247.708,544.138,1246.924,541.192,1246.677,540.506Z" transform="translate(-1244.832 -539.743)" fill="#a8b4bb"/>
        </g>
        <g id="Grupo_8506" data-name="Grupo 8506" transform="translate(23.533 7.015)">
          <path id="Trazado_19258" data-name="Trazado 19258" d="M1249.508,535.944s19.254-9.591,30.659-9.591,37.012,7.471,37,9.086-2.588,10.8-1.993,14.538,2.976,11.812,2.976,11.812.416,2.322-.982-.4-3.183-10.6-2.985-13.63,2.579-10.046,2.182-11.079-18.877-9.613-36.283-9.01S1245.878,539.87,1249.508,535.944Z" transform="translate(-1249.009 -526.351)" fill="#d5e6ef"/>
          <path id="Trazado_19259" data-name="Trazado 19259" d="M1332.03,540.291c-.208,1.46-.975,4.169-1.541,6.59.242,0,.482-.01.717-.021.391-2.4.943-4.891,1.3-6.643C1332.347,540.245,1332.192,540.273,1332.03,540.291Z" transform="translate(-1264.677 -529.017)" fill="#bdcbd4"/>
          <path id="Trazado_19260" data-name="Trazado 19260" d="M1280.9,526.362c-.073.429-.144.859-.211,1.284-.2,0-.4.01-.6.018-17.4.6-34.206,12.206-30.574,8.279,0,0,19.254-9.592,30.658-9.592C1280.406,526.351,1280.649,526.354,1280.9,526.362Z" transform="translate(-1249.009 -526.351)" fill="#bdcbd4"/>
        </g>
        <g id="Grupo_8509" data-name="Grupo 8509" transform="translate(33.466 17.339)">
          <g id="Grupo_8507" data-name="Grupo 8507">
            <path id="Trazado_19261" data-name="Trazado 19261" d="M1263.787,545.556a4.885,4.885,0,0,0-2.48,1.816,4.129,4.129,0,0,0,1.787-.555c4.378-1.9,15.8-5.713,20.125-5.151s17.859,2.287,19.744,1.985-2.638-.644-11.749-2.019-8.44-3.331-10.169-2.12c-2.163,1.514-5.348,2.131-7.807,2.946-2.1.7-4.347,1.433-6.5,2.155C1265.87,544.9,1264.787,545.16,1263.787,545.556Z" transform="translate(-1261.307 -539.132)" fill="#d5e6ef"/>
            <path id="Trazado_19262" data-name="Trazado 19262" d="M1303.018,542.909c.344.355.7.7,1.055,1.021a47.606,47.606,0,0,0,6.911.447C1312.585,544.12,1309.556,543.835,1303.018,542.909Z" transform="translate(-1269.327 -539.859)" fill="#bdcbd4"/>
          </g>
          <g id="Grupo_8508" data-name="Grupo 8508" transform="translate(0 0.004)">
            <path id="Trazado_19263" data-name="Trazado 19263" d="M1281.909,539.137c-.078.838-.148,1.664-.2,2.488-5.046.229-14.673,3.487-18.61,5.194a4.14,4.14,0,0,1-1.787.556,4.887,4.887,0,0,1,2.48-1.819c1-.394,2.083-.651,2.952-.943,2.15-.721,4.4-1.456,6.5-2.153,2.456-.816,5.644-1.432,7.8-2.945A1.65,1.65,0,0,1,1281.909,539.137Z" transform="translate(-1261.307 -539.137)" fill="#bdcbd4"/>
            <path id="Trazado_19264" data-name="Trazado 19264" d="M1266.876,545.486c-.869.292-1.953.549-2.952.943a5.984,5.984,0,0,0-1.9,1.123h1.541c1.805-.76,4.592-1.781,7.568-2.71h0q.612-.544,1.182-1.157C1270.532,544.272,1268.667,544.884,1266.876,545.486Z" transform="translate(-1261.444 -540.012)" fill="#a8b4bb"/>
          </g>
        </g>
        <g id="Grupo_8510" data-name="Grupo 8510" transform="translate(63.089 5.988)">
          <path id="Trazado_19265" data-name="Trazado 19265" d="M1316.423,528.911l-1.214,1.91-.457.725-5.588,8.8-11.182-10.562,1.238-1.859.478-.714,1.426-2.136A127.718,127.718,0,0,1,1316.423,528.911Z" transform="translate(-1297.982 -525.079)" fill="#fff"/>
          <path id="Trazado_19266" data-name="Trazado 19266" d="M1315.5,531.329l-.457.725a86.02,86.02,0,0,0-15.531-3.618l.478-.714C1305.127,528.631,1310.743,529.982,1315.5,531.329Z" transform="translate(-1298.277 -525.587)" fill="#e1eef4"/>
        </g>
        <g id="Grupo_8511" data-name="Grupo 8511" transform="translate(19.33 5.147)">
          <path id="Trazado_19267" data-name="Trazado 19267" d="M1277.012,524.038l-1.64,2.16h0l-1.1,1.45h0v0l-10.278,13.522-19.55-.866c-.218-.932-.44-1.762-.633-2.445l2.016-3.392C1251.631,531.648,1265.847,525.22,1277.012,524.038Z" transform="translate(-1243.806 -524.038)" fill="#f6fbff"/>
          <path id="Trazado_19268" data-name="Trazado 19268" d="M1276.368,526.712l-1.1,1.45h0a.136.136,0,0,1-.039.007c-.2.028-.4.06-.609.091-.1.015-.208.031-.313.049-.148.021-.3.046-.451.074-.225.039-.451.078-.679.12s-.45.081-.675.127-.448.088-.669.133c-.172.036-.345.07-.514.109-1.386.3-2.745.645-4.06,1.017l-.524.148c-1.418.415-2.787.859-4.1,1.32l-.451.158c-2.8,1-5.3,2.044-7.347,2.942-.141.063-.278.123-.415.182-.067.032-.137.06-.2.092-.2.088-.394.175-.584.26-2.03.9-3.49,1.583-4.18,1.774-.031.01-.064.017-.091.024a1.314,1.314,0,0,1-.131.025c-.032,0-.06.007-.084.007-.267,0-.169-.242.355-.809,0,0,.073-.039.218-.109.036-.014.07-.031.112-.052.422-.2,1.235-.594,2.347-1.108.106-.046.215-.1.324-.145.968-.439,2.132-.957,3.445-1.517.246-.1.5-.208.753-.317a.128.128,0,0,1,.039-.014c.151-.067.306-.13.464-.194,1.09-.454,2.266-.925,3.49-1.393.345-.133.694-.263,1.045-.4,1-.373,2.031-.742,3.079-1.1l.63-.212c.817-.274,1.643-.538,2.473-.788.191-.06.384-.116.574-.173.077-.024.151-.045.229-.067.4-.115.8-.229,1.2-.338,1.506-.415,3-.771,4.462-1.048.193-.039.387-.074.577-.106.113-.021.225-.042.338-.06.176-.028.352-.06.528-.084S1276.189,526.737,1276.368,526.712Z" transform="translate(-1244.806 -524.552)" fill="#d5e6ef"/>
        </g>
      </g>
      <g id="goggles" transform="translate(22.548 64.508)">
        <path id="Trazado_19269" data-name="Trazado 19269" d="M1221.036,498.727l-.933,15.38-7.918,1.384a1.093,1.093,0,0,1-1.272-1.219l.847-6.454a1.1,1.1,0,0,1,.334-.653Z" transform="translate(-1210.903 -489.668)" fill="#2b6b65"/>
        <path id="Trazado_19270" data-name="Trazado 19270" d="M1352.876,498.727l.933,15.38,7.918,1.384a1.093,1.093,0,0,0,1.272-1.219l-.848-6.454a1.09,1.09,0,0,0-.333-.653Z" transform="translate(-1238.203 -489.668)" fill="#2b6b65"/>
        <g id="Grupo_8516" data-name="Grupo 8516" transform="translate(9.2)">
          <path id="Trazado_19271" data-name="Trazado 19271" d="M1309.365,535.156H1296.22c-5.4,0-9.261-4.817-13-9.475-2.485-3.1-5.58-6.956-7.671-6.956h-.141c-1.9,0-4.383,3.728-6.378,6.725-3.03,4.549-6.464,9.706-12.047,9.706H1241.6c-13.263,0-19.3-12.032-19.3-23.206a153.576,153.576,0,0,1,1.477-19.338,3.324,3.324,0,0,1,3.335-2.807s35.467-2.3,47.3-2.294c12.371.01,49.452,2.294,49.452,2.294a3.32,3.32,0,0,1,3.333,2.807,153.043,153.043,0,0,1,1.48,19.338C1328.672,523.125,1322.63,535.156,1309.365,535.156Zm-33.954-22.9h.141c5.4,0,9.26,4.816,13,9.475,2.487,3.1,5.579,6.956,7.67,6.956h13.146c12.226,0,12.577-15.027,12.577-16.737a143.506,143.506,0,0,0-1.071-15.776s-34.84-2.283-46.464-2.294c-11.087-.01-44.313,2.294-44.313,2.294a143.212,143.212,0,0,0-1.074,15.776c0,1.711.354,16.737,12.577,16.737h15.39c1.9,0,4.383-3.729,6.378-6.724C1266.394,517.412,1269.827,512.256,1275.411,512.256Z" transform="translate(-1222.293 -487.511)" fill="#478680"/>
          <g id="Grupo_8513" data-name="Grupo 8513" transform="translate(1.376 9.403)">
            <g id="Grupo_8512" data-name="Grupo 8512">
              <path id="Trazado_19272" data-name="Trazado 19272" d="M1224.388,513.562h0a.417.417,0,0,1-.39-.443l.857-13.576a.418.418,0,0,1,.443-.39h0a.417.417,0,0,1,.39.443l-.858,13.576A.417.417,0,0,1,1224.388,513.562Z" transform="translate(-1223.997 -499.152)" fill="#2b6b65"/>
            </g>
          </g>
          <g id="Grupo_8515" data-name="Grupo 8515" transform="translate(103.386 9.403)">
            <g id="Grupo_8514" data-name="Grupo 8514">
              <path id="Trazado_19273" data-name="Trazado 19273" d="M1351.593,513.562h0a.417.417,0,0,0,.39-.443l-.858-13.576a.418.418,0,0,0-.443-.39h0a.418.418,0,0,0-.39.443l.858,13.576A.418.418,0,0,0,1351.593,513.562Z" transform="translate(-1350.291 -499.152)" fill="#2b6b65"/>
            </g>
          </g>
        </g>
      </g>
    </g>
  </g>
</svg>
