<svg xmlns="http://www.w3.org/2000/svg" width="358.625" height="402.778" viewBox="0 0 358.625 402.778">
  <g id="Grupo_9138" data-name="Grupo 9138" transform="translate(-59 -498)">
    <g id="Grupo_9137" data-name="Grupo 9137" transform="translate(28.028 485.532)">
      <g id="Grupo_9037" data-name="Grupo 9037">
        <path id="Trazado_20780" data-name="Trazado 20780" d="M145.879,152.783a43.914,43.914,0,1,1-43.914-43.914A43.915,43.915,0,0,1,145.879,152.783Z" fill="#294f6b"/>
        <path id="Trazado_20781" data-name="Trazado 20781" d="M277.3,73.455a29.58,29.58,0,1,1-29.58-29.582A29.58,29.58,0,0,1,277.3,73.455Z" fill="#294f6b"/>
        <path id="Trazado_20782" data-name="Trazado 20782" d="M105.32,291.342a29.58,29.58,0,1,1-29.58-29.58A29.581,29.581,0,0,1,105.32,291.342Z" fill="#294f6b"/>
        <path id="Trazado_20783" data-name="Trazado 20783" d="M287.721,382.314a25.669,25.669,0,1,1-25.668-25.668A25.668,25.668,0,0,1,287.721,382.314Z" fill="#294f6b"/>
        <path id="Trazado_20784" data-name="Trazado 20784" d="M389.6,105.832a12.471,12.471,0,1,1-12.471-12.471A12.47,12.47,0,0,1,389.6,105.832Z" fill="#294f6b"/>
        <path id="Trazado_20785" data-name="Trazado 20785" d="M219.14,273.6a12.471,12.471,0,1,1-12.471-12.471A12.471,12.471,0,0,1,219.14,273.6Z" fill="#294f6b"/>
        <path id="Trazado_20786" data-name="Trazado 20786" d="M352.976,356.644a12.471,12.471,0,1,1-12.471-12.47A12.471,12.471,0,0,1,352.976,356.644Z" fill="#294f6b"/>
        <path id="Trazado_20787" data-name="Trazado 20787" d="M305.811,47.019A12.471,12.471,0,1,1,293.34,34.547,12.472,12.472,0,0,1,305.811,47.019Z" fill="#294f6b"/>
      </g>
      <g id="Grupo_9069" data-name="Grupo 9069">
        <path id="Trazado_20788" data-name="Trazado 20788" d="M172.834,50.488a38.018,38.018,0,1,1-38.02-38.02A38.019,38.019,0,0,1,172.834,50.488Z" fill="#e54938"/>
        <path id="Trazado_20789" data-name="Trazado 20789" d="M155.488,43.608h-5.165l1.9-4.8a8.975,8.975,0,1,0-16.684-6.621l-4.533,11.422H118.72a8.975,8.975,0,1,0,0,17.951h5.166l-1.907,4.8a8.976,8.976,0,1,0,16.685,6.622L143.2,61.559h12.291a8.975,8.975,0,1,0,0-17.951Z" fill="#d2d1d1"/>
        <g id="Grupo_9068" data-name="Grupo 9068">
          <g id="Grupo_9052" data-name="Grupo 9052">
            <path id="Trazado_20790" data-name="Trazado 20790" d="M153.2,41.513H116.432a8.974,8.974,0,1,0,0,17.948H153.2a8.974,8.974,0,1,0,0-17.948Z" fill="#fff"/>
            <g id="Grupo_9044" data-name="Grupo 9044">
              <g id="Grupo_9038" data-name="Grupo 9038">
                <path id="Trazado_20791" data-name="Trazado 20791" d="M151.688,43.5a.658.658,0,1,1-.657-.659A.657.657,0,0,1,151.688,43.5Z" fill="#e54938"/>
                <path id="Trazado_20792" data-name="Trazado 20792" d="M151.688,46.993a.658.658,0,1,1-.657-.657A.657.657,0,0,1,151.688,46.993Z" fill="#e54938"/>
                <path id="Trazado_20793" data-name="Trazado 20793" d="M151.688,50.488a.658.658,0,1,1-.657-.66A.657.657,0,0,1,151.688,50.488Z" fill="#e54938"/>
                <path id="Trazado_20794" data-name="Trazado 20794" d="M151.688,53.981a.658.658,0,1,1-.657-.66A.657.657,0,0,1,151.688,53.981Z" fill="#e54938"/>
                <path id="Trazado_20795" data-name="Trazado 20795" d="M151.688,57.475a.658.658,0,1,1-.657-.657A.658.658,0,0,1,151.688,57.475Z" fill="#e54938"/>
              </g>
              <g id="Grupo_9041" data-name="Grupo 9041">
                <g id="Grupo_9039" data-name="Grupo 9039">
                  <path id="Trazado_20796" data-name="Trazado 20796" d="M155.511,43.5a.657.657,0,1,1-.657-.659A.657.657,0,0,1,155.511,43.5Z" fill="#e54938"/>
                  <path id="Trazado_20797" data-name="Trazado 20797" d="M155.511,46.993a.657.657,0,1,1-.657-.657A.657.657,0,0,1,155.511,46.993Z" fill="#e54938"/>
                  <path id="Trazado_20798" data-name="Trazado 20798" d="M155.511,50.488a.657.657,0,1,1-.657-.66A.657.657,0,0,1,155.511,50.488Z" fill="#e54938"/>
                  <path id="Trazado_20799" data-name="Trazado 20799" d="M155.511,53.981a.657.657,0,1,1-.657-.66A.657.657,0,0,1,155.511,53.981Z" fill="#e54938"/>
                  <path id="Trazado_20800" data-name="Trazado 20800" d="M155.511,57.475a.657.657,0,1,1-.657-.657A.658.658,0,0,1,155.511,57.475Z" fill="#e54938"/>
                </g>
                <g id="Grupo_9040" data-name="Grupo 9040">
                  <path id="Trazado_20801" data-name="Trazado 20801" d="M159.336,46.993a.658.658,0,1,1-.657-.657A.657.657,0,0,1,159.336,46.993Z" fill="#e54938"/>
                  <path id="Trazado_20802" data-name="Trazado 20802" d="M159.336,50.488a.658.658,0,1,1-.657-.66A.657.657,0,0,1,159.336,50.488Z" fill="#e54938"/>
                  <path id="Trazado_20803" data-name="Trazado 20803" d="M159.336,53.981a.658.658,0,1,1-.657-.66A.657.657,0,0,1,159.336,53.981Z" fill="#e54938"/>
                </g>
              </g>
              <g id="Grupo_9042" data-name="Grupo 9042">
                <path id="Trazado_20804" data-name="Trazado 20804" d="M153.6,45.246a.657.657,0,1,1-.657-.656A.659.659,0,0,1,153.6,45.246Z" fill="#e54938"/>
                <path id="Trazado_20805" data-name="Trazado 20805" d="M153.6,48.74a.657.657,0,1,1-.657-.658A.654.654,0,0,1,153.6,48.74Z" fill="#e54938"/>
                <path id="Trazado_20806" data-name="Trazado 20806" d="M153.6,52.232a.657.657,0,1,1-.657-.656A.657.657,0,0,1,153.6,52.232Z" fill="#e54938"/>
                <path id="Trazado_20807" data-name="Trazado 20807" d="M153.6,55.727a.657.657,0,1,1-.657-.659A.656.656,0,0,1,153.6,55.727Z" fill="#e54938"/>
              </g>
              <g id="Grupo_9043" data-name="Grupo 9043">
                <path id="Trazado_20808" data-name="Trazado 20808" d="M157.423,45.246a.657.657,0,1,1-.656-.656A.66.66,0,0,1,157.423,45.246Z" fill="#e54938"/>
                <path id="Trazado_20809" data-name="Trazado 20809" d="M157.423,48.74a.657.657,0,1,1-.656-.658A.655.655,0,0,1,157.423,48.74Z" fill="#e54938"/>
                <path id="Trazado_20810" data-name="Trazado 20810" d="M157.423,52.232a.657.657,0,1,1-.656-.656A.659.659,0,0,1,157.423,52.232Z" fill="#e54938"/>
                <path id="Trazado_20811" data-name="Trazado 20811" d="M157.423,55.727a.657.657,0,1,1-.656-.659A.658.658,0,0,1,157.423,55.727Z" fill="#e54938"/>
              </g>
            </g>
            <g id="Grupo_9051" data-name="Grupo 9051">
              <g id="Grupo_9045" data-name="Grupo 9045">
                <path id="Trazado_20812" data-name="Trazado 20812" d="M119.028,43.5a.657.657,0,1,0,.657-.659A.656.656,0,0,0,119.028,43.5Z" fill="#e54938"/>
                <path id="Trazado_20813" data-name="Trazado 20813" d="M119.028,46.993a.657.657,0,1,0,.657-.657A.656.656,0,0,0,119.028,46.993Z" fill="#e54938"/>
                <path id="Trazado_20814" data-name="Trazado 20814" d="M119.028,50.488a.657.657,0,1,0,.657-.66A.656.656,0,0,0,119.028,50.488Z" fill="#e54938"/>
                <path id="Trazado_20815" data-name="Trazado 20815" d="M119.028,53.981a.657.657,0,1,0,.657-.66A.655.655,0,0,0,119.028,53.981Z" fill="#e54938"/>
                <path id="Trazado_20816" data-name="Trazado 20816" d="M119.028,57.475a.657.657,0,1,0,.657-.657A.657.657,0,0,0,119.028,57.475Z" fill="#e54938"/>
              </g>
              <g id="Grupo_9048" data-name="Grupo 9048">
                <g id="Grupo_9046" data-name="Grupo 9046">
                  <path id="Trazado_20817" data-name="Trazado 20817" d="M115.205,43.5a.656.656,0,1,0,.657-.659A.656.656,0,0,0,115.205,43.5Z" fill="#e54938"/>
                  <path id="Trazado_20818" data-name="Trazado 20818" d="M115.205,46.993a.656.656,0,1,0,.657-.657A.656.656,0,0,0,115.205,46.993Z" fill="#e54938"/>
                  <path id="Trazado_20819" data-name="Trazado 20819" d="M115.205,50.488a.656.656,0,1,0,.657-.66A.656.656,0,0,0,115.205,50.488Z" fill="#e54938"/>
                  <path id="Trazado_20820" data-name="Trazado 20820" d="M115.205,53.981a.656.656,0,1,0,.657-.66A.655.655,0,0,0,115.205,53.981Z" fill="#e54938"/>
                  <path id="Trazado_20821" data-name="Trazado 20821" d="M115.205,57.475a.656.656,0,1,0,.657-.657A.657.657,0,0,0,115.205,57.475Z" fill="#e54938"/>
                </g>
                <g id="Grupo_9047" data-name="Grupo 9047">
                  <path id="Trazado_20822" data-name="Trazado 20822" d="M111.38,46.993a.658.658,0,1,0,.657-.657A.655.655,0,0,0,111.38,46.993Z" fill="#e54938"/>
                  <path id="Trazado_20823" data-name="Trazado 20823" d="M111.38,50.488a.658.658,0,1,0,.657-.66A.655.655,0,0,0,111.38,50.488Z" fill="#e54938"/>
                  <path id="Trazado_20824" data-name="Trazado 20824" d="M111.38,53.981a.658.658,0,0,0,1.316,0,.658.658,0,1,0-1.316,0Z" fill="#e54938"/>
                </g>
              </g>
              <g id="Grupo_9049" data-name="Grupo 9049">
                <path id="Trazado_20825" data-name="Trazado 20825" d="M117.118,45.246a.657.657,0,1,0,.656-.656A.658.658,0,0,0,117.118,45.246Z" fill="#e54938"/>
                <path id="Trazado_20826" data-name="Trazado 20826" d="M117.118,48.74a.657.657,0,1,0,.656-.658A.653.653,0,0,0,117.118,48.74Z" fill="#e54938"/>
                <path id="Trazado_20827" data-name="Trazado 20827" d="M117.118,52.232a.657.657,0,1,0,.656-.656A.657.657,0,0,0,117.118,52.232Z" fill="#e54938"/>
                <path id="Trazado_20828" data-name="Trazado 20828" d="M117.118,55.727a.657.657,0,1,0,.656-.659A.656.656,0,0,0,117.118,55.727Z" fill="#e54938"/>
              </g>
              <g id="Grupo_9050" data-name="Grupo 9050">
                <path id="Trazado_20829" data-name="Trazado 20829" d="M113.292,45.246a.657.657,0,1,0,.657-.656A.659.659,0,0,0,113.292,45.246Z" fill="#e54938"/>
                <path id="Trazado_20830" data-name="Trazado 20830" d="M113.292,48.74a.657.657,0,1,0,.657-.658A.654.654,0,0,0,113.292,48.74Z" fill="#e54938"/>
                <path id="Trazado_20831" data-name="Trazado 20831" d="M113.292,52.232a.657.657,0,1,0,.657-.656A.658.658,0,0,0,113.292,52.232Z" fill="#e54938"/>
                <path id="Trazado_20832" data-name="Trazado 20832" d="M113.292,55.727a.657.657,0,1,0,.657-.659A.657.657,0,0,0,113.292,55.727Z" fill="#e54938"/>
              </g>
            </g>
            <rect id="Rectángulo_2026" data-name="Rectángulo 2026" width="25.422" height="11.896" transform="translate(122.105 44.54)" fill="#e54938"/>
          </g>
          <g id="Grupo_9067" data-name="Grupo 9067">
            <path id="Trazado_20833" data-name="Trazado 20833" d="M133.256,30.088,119.691,64.266a8.975,8.975,0,1,0,16.684,6.62L149.94,36.709a8.975,8.975,0,1,0-16.684-6.621Z" fill="#fff"/>
            <g id="Grupo_9059" data-name="Grupo 9059">
              <g id="Grupo_9053" data-name="Grupo 9053">
                <path id="Trazado_20834" data-name="Trazado 20834" d="M134.546,32.229a.657.657,0,1,1-.854.369A.657.657,0,0,1,134.546,32.229Z" fill="#e54938"/>
                <path id="Trazado_20835" data-name="Trazado 20835" d="M137.792,33.518a.657.657,0,1,1-.851.369A.657.657,0,0,1,137.792,33.518Z" fill="#e54938"/>
                <path id="Trazado_20836" data-name="Trazado 20836" d="M141.041,34.805a.664.664,0,0,1,.369.855.658.658,0,1,1-.369-.855Z" fill="#e54938"/>
                <path id="Trazado_20837" data-name="Trazado 20837" d="M144.288,36.094a.658.658,0,1,1-.854.369A.659.659,0,0,1,144.288,36.094Z" fill="#e54938"/>
                <path id="Trazado_20838" data-name="Trazado 20838" d="M147.534,37.383a.658.658,0,1,1-.853.369A.657.657,0,0,1,147.534,37.383Z" fill="#e54938"/>
              </g>
              <g id="Grupo_9056" data-name="Grupo 9056">
                <g id="Grupo_9054" data-name="Grupo 9054">
                  <path id="Trazado_20839" data-name="Trazado 20839" d="M135.958,28.674a.658.658,0,1,1-.854.369A.654.654,0,0,1,135.958,28.674Z" fill="#e54938"/>
                  <path id="Trazado_20840" data-name="Trazado 20840" d="M139.205,29.963a.658.658,0,1,1-.854.369A.657.657,0,0,1,139.205,29.963Z" fill="#e54938"/>
                  <path id="Trazado_20841" data-name="Trazado 20841" d="M142.451,31.252a.657.657,0,1,1-.853.369A.659.659,0,0,1,142.451,31.252Z" fill="#e54938"/>
                  <path id="Trazado_20842" data-name="Trazado 20842" d="M145.7,32.541a.658.658,0,1,1-.853.369A.656.656,0,0,1,145.7,32.541Z" fill="#e54938"/>
                  <path id="Trazado_20843" data-name="Trazado 20843" d="M148.946,33.83a.658.658,0,1,1-.856.369A.656.656,0,0,1,148.946,33.83Z" fill="#e54938"/>
                </g>
                <g id="Grupo_9055" data-name="Grupo 9055">
                  <path id="Trazado_20844" data-name="Trazado 20844" d="M140.614,26.408a.657.657,0,1,1-.853.369A.657.657,0,0,1,140.614,26.408Z" fill="#e54938"/>
                  <path id="Trazado_20845" data-name="Trazado 20845" d="M143.863,27.7a.658.658,0,1,1-.853.369A.655.655,0,0,1,143.863,27.7Z" fill="#e54938"/>
                  <path id="Trazado_20846" data-name="Trazado 20846" d="M147.109,28.986a.658.658,0,1,1-.853.37A.662.662,0,0,1,147.109,28.986Z" fill="#e54938"/>
                </g>
              </g>
              <g id="Grupo_9057" data-name="Grupo 9057">
                <path id="Trazado_20847" data-name="Trazado 20847" d="M136.876,31.1a.658.658,0,1,1-.856.369A.657.657,0,0,1,136.876,31.1Z" fill="#e54938"/>
                <path id="Trazado_20848" data-name="Trazado 20848" d="M140.121,32.385a.657.657,0,1,1-.852.369A.656.656,0,0,1,140.121,32.385Z" fill="#e54938"/>
                <path id="Trazado_20849" data-name="Trazado 20849" d="M143.369,33.674a.657.657,0,1,1-.853.369A.657.657,0,0,1,143.369,33.674Z" fill="#e54938"/>
                <path id="Trazado_20850" data-name="Trazado 20850" d="M146.616,34.961a.659.659,0,1,1-.854.369A.659.659,0,0,1,146.616,34.961Z" fill="#e54938"/>
              </g>
              <g id="Grupo_9058" data-name="Grupo 9058">
                <path id="Trazado_20851" data-name="Trazado 20851" d="M138.286,27.541a.658.658,0,1,1-.853.369A.658.658,0,0,1,138.286,27.541Z" fill="#e54938"/>
                <path id="Trazado_20852" data-name="Trazado 20852" d="M141.533,28.83a.658.658,0,1,1-.854.369A.659.659,0,0,1,141.533,28.83Z" fill="#e54938"/>
                <path id="Trazado_20853" data-name="Trazado 20853" d="M144.779,30.119a.658.658,0,1,1-.853.369A.658.658,0,0,1,144.779,30.119Z" fill="#e54938"/>
                <path id="Trazado_20854" data-name="Trazado 20854" d="M148.026,31.408a.658.658,0,1,1-.854.369A.659.659,0,0,1,148.026,31.408Z" fill="#e54938"/>
              </g>
            </g>
            <g id="Grupo_9066" data-name="Grupo 9066">
              <g id="Grupo_9060" data-name="Grupo 9060">
                <path id="Trazado_20855" data-name="Trazado 20855" d="M122.5,62.582a.656.656,0,1,0-.371-.853A.654.654,0,0,0,122.5,62.582Z" fill="#e54938"/>
                <path id="Trazado_20856" data-name="Trazado 20856" d="M125.742,63.871a.656.656,0,1,0-.366-.853A.655.655,0,0,0,125.742,63.871Z" fill="#e54938"/>
                <path id="Trazado_20857" data-name="Trazado 20857" d="M128.991,65.161a.656.656,0,1,0-.368-.853A.658.658,0,0,0,128.991,65.161Z" fill="#e54938"/>
                <path id="Trazado_20858" data-name="Trazado 20858" d="M132.238,66.453a.658.658,0,1,0-.369-.853A.658.658,0,0,0,132.238,66.453Z" fill="#e54938"/>
                <path id="Trazado_20859" data-name="Trazado 20859" d="M135.484,67.74a.657.657,0,1,0-.368-.853A.659.659,0,0,0,135.484,67.74Z" fill="#e54938"/>
              </g>
              <g id="Grupo_9063" data-name="Grupo 9063">
                <g id="Grupo_9061" data-name="Grupo 9061">
                  <path id="Trazado_20860" data-name="Trazado 20860" d="M121.086,66.138a.658.658,0,1,0-.367-.854A.657.657,0,0,0,121.086,66.138Z" fill="#e54938"/>
                  <path id="Trazado_20861" data-name="Trazado 20861" d="M124.334,67.427a.657.657,0,1,0-.37-.854A.659.659,0,0,0,124.334,67.427Z" fill="#e54938"/>
                  <path id="Trazado_20862" data-name="Trazado 20862" d="M127.579,68.714a.657.657,0,1,0-.369-.852A.659.659,0,0,0,127.579,68.714Z" fill="#e54938"/>
                  <path id="Trazado_20863" data-name="Trazado 20863" d="M130.828,70.006a.658.658,0,1,0-.369-.854A.658.658,0,0,0,130.828,70.006Z" fill="#e54938"/>
                  <path id="Trazado_20864" data-name="Trazado 20864" d="M134.074,71.292a.656.656,0,1,0-.368-.851A.657.657,0,0,0,134.074,71.292Z" fill="#e54938"/>
                </g>
                <g id="Grupo_9062" data-name="Grupo 9062">
                  <path id="Trazado_20865" data-name="Trazado 20865" d="M122.922,70.981a.657.657,0,1,0-.368-.853A.658.658,0,0,0,122.922,70.981Z" fill="#e54938"/>
                  <path id="Trazado_20866" data-name="Trazado 20866" d="M126.169,72.271a.658.658,0,1,0-.369-.853A.657.657,0,0,0,126.169,72.271Z" fill="#e54938"/>
                  <path id="Trazado_20867" data-name="Trazado 20867" d="M129.415,73.558a.656.656,0,1,0-.368-.854A.66.66,0,0,0,129.415,73.558Z" fill="#e54938"/>
                </g>
              </g>
              <g id="Grupo_9064" data-name="Grupo 9064">
                <path id="Trazado_20868" data-name="Trazado 20868" d="M123.414,65a.658.658,0,1,0-.369-.855A.66.66,0,0,0,123.414,65Z" fill="#e54938"/>
                <path id="Trazado_20869" data-name="Trazado 20869" d="M126.661,66.294a.657.657,0,1,0-.369-.854A.657.657,0,0,0,126.661,66.294Z" fill="#e54938"/>
                <path id="Trazado_20870" data-name="Trazado 20870" d="M129.909,67.583a.657.657,0,1,0-.37-.853A.659.659,0,0,0,129.909,67.583Z" fill="#e54938"/>
                <path id="Trazado_20871" data-name="Trazado 20871" d="M133.156,68.873a.658.658,0,1,0-.369-.854A.66.66,0,0,0,133.156,68.873Z" fill="#e54938"/>
              </g>
              <g id="Grupo_9065" data-name="Grupo 9065">
                <path id="Trazado_20872" data-name="Trazado 20872" d="M122,68.56a.657.657,0,1,0-.368-.854A.657.657,0,0,0,122,68.56Z" fill="#e54938"/>
                <path id="Trazado_20873" data-name="Trazado 20873" d="M125.251,69.849a.657.657,0,1,0-.369-.854A.659.659,0,0,0,125.251,69.849Z" fill="#e54938"/>
                <path id="Trazado_20874" data-name="Trazado 20874" d="M128.5,71.139a.658.658,0,1,0-.369-.857A.659.659,0,0,0,128.5,71.139Z" fill="#e54938"/>
                <path id="Trazado_20875" data-name="Trazado 20875" d="M131.744,72.425a.657.657,0,1,0-.367-.854A.66.66,0,0,0,131.744,72.425Z" fill="#e54938"/>
              </g>
            </g>
            <rect id="Rectángulo_2027" data-name="Rectángulo 2027" width="25.423" height="11.896" transform="translate(124.599 60.109) rotate(-68.355)" fill="#e54938"/>
          </g>
        </g>
      </g>
      <g id="Grupo_9106" data-name="Grupo 9106">
        <g id="Grupo_9070" data-name="Grupo 9070">
          <path id="Trazado_20876" data-name="Trazado 20876" d="M235.947,44.64c-4.315-8.414-26.933-8.986-46.193-3.462C181.7,43.487,155.17,56.655,156.9,90.506s20.719,62.739,9.5,75.537h92.432c-11.224-12.8,7.774-41.689,9.5-75.537S235.947,44.64,235.947,44.64Z" fill="#2d130d"/>
        </g>
        <g id="Grupo_9071" data-name="Grupo 9071">
          <path id="Trazado_20877" data-name="Trazado 20877" d="M275.275,201.332c-6.878-18.572-16.726-29.719-31.737-29.719H181.662c-15,0-24.857,11.147-31.735,29.719a415.43,415.43,0,0,0-12.144,40.557H287.417A415.124,415.124,0,0,0,275.275,201.332Z" fill="#fff"/>
        </g>
        <g id="Grupo_9074" data-name="Grupo 9074">
          <g id="Grupo_9072" data-name="Grupo 9072">
            <path id="Trazado_20878" data-name="Trazado 20878" d="M212.6,189.414c-12.472-6.781-25.75-15.166-25.814-17.108h.006c.024,0,.119-.044.3-.08,6.44-1.226,8.087-3.078,9.349-6.768.932-2.729-.628-7.147-1.419-9.1h35.15c-.794,1.951-2.349,6.369-1.419,9.1,1.288,3.765,2.873,5.538,9.346,6.768a.726.726,0,0,1,.341.119C238.483,174.168,225.132,182.6,212.6,189.414Z" fill="#f9ab7a"/>
          </g>
          <g id="Grupo_9073" data-name="Grupo 9073">
            <path id="Trazado_20879" data-name="Trazado 20879" d="M229.175,157.042c-.852,2.294-1.938,6.065-1.064,8.637,1.313,3.824,2.989,5.8,9.239,7.094-2.353,2.768-14.01,10.007-24.75,15.864-10.735-5.854-22.4-13.1-24.75-15.864,6.252-1.292,7.931-3.27,9.238-7.094.877-2.572-.212-6.343-1.063-8.637h33.15m2.036-1.361H193.989s2.93,6.272,1.809,9.555-2.351,5.089-8.829,6.323,25.631,18.63,25.631,18.63,32.112-17.4,25.631-18.63-7.707-3.042-8.829-6.323,1.809-9.555,1.809-9.555Z" fill="#d8966c"/>
          </g>
        </g>
        <g id="Grupo_9075" data-name="Grupo 9075">
          <path id="Trazado_20880" data-name="Trazado 20880" d="M245.565,137.563c3.667-5.419,11.474-22.479,11.474-36.532,0-30.1-19.9-54.487-44.439-54.487s-44.433,24.392-44.433,54.487c0,14.053,7.413,29.95,11.468,36.532s15.8,26,32.965,26S241.9,142.981,245.565,137.563Z" fill="#f9ab7a"/>
          <path id="Trazado_20881" data-name="Trazado 20881" d="M212.6,164.246c-17.332,0-29-18.946-33.391-26.078l-.154-.25c-4-6.495-11.57-22.563-11.57-36.887,0-30.421,20.24-55.168,45.115-55.168s45.119,24.747,45.119,55.168c0,13.987-7.55,30.941-11.59,36.91-.269.4-.583.877-.942,1.424C240.725,146.17,228.87,164.246,212.6,164.246Zm0-117.02c-24.124,0-43.752,24.135-43.752,53.8,0,14.018,7.433,29.79,11.366,36.171l.154.25c4.283,6.956,15.66,25.433,32.232,25.433,15.538,0,27.1-17.631,31.447-24.268.363-.553.681-1.037.955-1.438,3.834-5.665,11.355-22.625,11.355-36.148C256.357,71.361,236.727,47.226,212.6,47.226Z" fill="#d8966c"/>
        </g>
        <g id="Grupo_9076" data-name="Grupo 9076">
          <path id="Trazado_20882" data-name="Trazado 20882" d="M227.05,66.07s-14.864,28.483-30.136,33.848S169.824,110.081,167.685,118,148.63,44.815,212.6,47.082c52.424,1.857,47.84,54.95,47,60.368C259.6,107.45,240.256,101.157,227.05,66.07Z" fill="#2d130d"/>
        </g>
        <g id="Grupo_9078" data-name="Grupo 9078">
          <g id="Grupo_9077" data-name="Grupo 9077">
            <rect id="Rectángulo_2028" data-name="Rectángulo 2028" width="23.036" height="6.19" transform="translate(239.097 210.932)" fill="#2caebf"/>
          </g>
        </g>
        <g id="Grupo_9089" data-name="Grupo 9089">
          <g id="Grupo_9082" data-name="Grupo 9082">
            <g id="Grupo_9080" data-name="Grupo 9080">
              <g id="Grupo_9079" data-name="Grupo 9079">
                <path id="Trazado_20883" data-name="Trazado 20883" d="M168.469,223.834a1.178,1.178,0,0,1-.735-.254c-1.553-1.224-1.7-7-1.553-11.629a1.121,1.121,0,0,1,1.169-1.1,1.142,1.142,0,0,1,1.1,1.174c-.134,4.1.13,9.031.741,9.817a1.105,1.105,0,0,1,.161,1.573A1.119,1.119,0,0,1,168.469,223.834Z" fill="#d2d1d1"/>
              </g>
            </g>
            <g id="Grupo_9081" data-name="Grupo 9081">
              <path id="Trazado_20884" data-name="Trazado 20884" d="M172.125,222.027c.128,1.8-.6,3.319-1.629,3.392s-1.963-1.328-2.087-3.127.6-3.32,1.629-3.392S172,220.226,172.125,222.027Z" fill="#161615"/>
            </g>
          </g>
          <g id="Grupo_9086" data-name="Grupo 9086">
            <g id="Grupo_9084" data-name="Grupo 9084">
              <g id="Grupo_9083" data-name="Grupo 9083">
                <path id="Trazado_20885" data-name="Trazado 20885" d="M194.352,220.3a1.1,1.1,0,0,1-.669-.22,1.138,1.138,0,0,1-.25-1.592c.335-.859-.72-5.674-1.945-9.6a1.138,1.138,0,1,1,2.173-.678c1.381,4.421,2.778,10.024,1.608,11.619A1.131,1.131,0,0,1,194.352,220.3Z" fill="#d2d1d1"/>
              </g>
            </g>
            <g id="Grupo_9085" data-name="Grupo 9085">
              <path id="Trazado_20886" data-name="Trazado 20886" d="M190.623,219.514c.354,1.77,1.467,3.037,2.475,2.835s1.533-1.807,1.175-3.578-1.467-3.034-2.475-2.83S190.265,217.745,190.623,219.514Z" fill="#161615"/>
            </g>
          </g>
          <g id="Grupo_9087" data-name="Grupo 9087">
            <path id="Trazado_20887" data-name="Trazado 20887" d="M169.044,212.574c3.323-13.1,15.3-14.728,22-2.993l3.715-.5c-8.409-18.467-26.259-16.04-29.425,4Z" fill="#161615"/>
          </g>
          <g id="Grupo_9088" data-name="Grupo 9088">
            <rect id="Rectángulo_2029" data-name="Rectángulo 2029" width="4.592" height="11.268" transform="translate(174.687 188.698) rotate(-7.727)" fill="#161615"/>
          </g>
        </g>
        <g id="Grupo_9091" data-name="Grupo 9091">
          <g id="Grupo_9090" data-name="Grupo 9090">
            <path id="Trazado_20888" data-name="Trazado 20888" d="M176.129,189.766c-.126-.44-2.978-10.847,1.492-16.915a11.175,11.175,0,0,1,.915-1.072c1.769-.267,8.085-.166,8.085-.166-3.08.086-5.27.982-6.7,2.92-3.652,4.947-1.081,14.373-1.055,14.465Z" fill="#2e2e2d"/>
          </g>
        </g>
        <g id="Grupo_9100" data-name="Grupo 9100">
          <g id="Grupo_9092" data-name="Grupo 9092">
            <path id="Trazado_20889" data-name="Trazado 20889" d="M238.885,55.689a146.387,146.387,0,0,0-52.568,0c1.8-11.933-8.061-16.33-9.575-24.89,17.612-22.592,54.106-22.592,71.716,0C246.946,39.359,237.079,43.756,238.885,55.689Z" fill="#fff"/>
            <path id="Trazado_20890" data-name="Trazado 20890" d="M239.7,56.532l-.938-.174a146.369,146.369,0,0,0-52.326,0l-.938.174.143-.943c1.045-6.9-1.99-11.218-4.925-15.394-1.975-2.808-4.016-5.713-4.649-9.28l-.051-.3.187-.24c8.522-10.933,21.791-17.2,36.4-17.2h0c14.6,0,27.873,6.269,36.395,17.2l.186.24-.05.3c-.633,3.567-2.674,6.474-4.65,9.284-2.932,4.172-5.966,8.49-4.921,15.39ZM177.467,30.975c.637,3.134,2.45,5.713,4.366,8.439,2.956,4.206,6.011,8.551,5.278,15.441a147.612,147.612,0,0,1,50.983,0c-.738-6.89,2.319-11.235,5.275-15.441,1.913-2.726,3.727-5.305,4.363-8.439-8.272-10.453-21.055-16.44-35.132-16.44S185.74,20.522,177.467,30.975Z" fill="#e8e8e8"/>
          </g>
          <g id="Grupo_9097" data-name="Grupo 9097">
            <g id="Grupo_9094" data-name="Grupo 9094">
              <g id="Grupo_9093" data-name="Grupo 9093">
                <path id="Trazado_20891" data-name="Trazado 20891" d="M222.614,35.973A10.013,10.013,0,1,1,212.6,25.963,10.014,10.014,0,0,1,222.614,35.973Z" fill="#2caebf"/>
              </g>
            </g>
            <g id="Grupo_9095" data-name="Grupo 9095">
              <rect id="Rectángulo_2030" data-name="Rectángulo 2030" width="2.838" height="11.119" transform="translate(211.184 30.48)" fill="#fff"/>
            </g>
            <g id="Grupo_9096" data-name="Grupo 9096">
              <rect id="Rectángulo_2031" data-name="Rectángulo 2031" width="11.12" height="2.838" transform="translate(207.041 34.619)" fill="#fff"/>
            </g>
          </g>
          <g id="Grupo_9099" data-name="Grupo 9099">
            <g id="Grupo_9098" data-name="Grupo 9098">
              <path id="Trazado_20892" data-name="Trazado 20892" d="M178.135,34.811c.066.132.121.273.192.4,17.592-20.051,50.956-20.051,68.548,0,.071-.13.131-.271.192-.4C229.467,14.463,195.735,14.463,178.135,34.811Z" fill="#2caebf"/>
            </g>
          </g>
        </g>
        <g id="Grupo_9101" data-name="Grupo 9101">
          <path id="Trazado_20893" data-name="Trazado 20893" d="M236.4,220.784a6.278,6.278,0,1,1-6.281-6.278A6.282,6.282,0,0,1,236.4,220.784Z" fill="#8c8b8b"/>
        </g>
        <g id="Grupo_9102" data-name="Grupo 9102">
          <path id="Trazado_20894" data-name="Trazado 20894" d="M234,220.784a3.884,3.884,0,1,1-3.889-3.881A3.888,3.888,0,0,1,234,220.784Z" fill="#161615"/>
        </g>
        <g id="Grupo_9103" data-name="Grupo 9103">
          <path id="Trazado_20895" data-name="Trazado 20895" d="M232.857,220.784a2.741,2.741,0,1,1-2.742-2.739A2.739,2.739,0,0,1,232.857,220.784Z" fill="#bababa"/>
        </g>
        <g id="Grupo_9105" data-name="Grupo 9105">
          <g id="Grupo_9104" data-name="Grupo 9104">
            <path id="Trazado_20896" data-name="Trazado 20896" d="M228.678,219.186c-.3-9.811,6.024-17.668,6.293-18l.114-.125c14.052-13.522,5.149-28.777,4.745-29.447h3.131c2.288,5.176,6.725,19.276-5.835,31.43-.559.716-5.858,7.748-5.6,16.057Z" fill="#2e2e2d"/>
          </g>
        </g>
      </g>
      <g id="Grupo_9111" data-name="Grupo 9111">
        <g id="Grupo_9107" data-name="Grupo 9107">
          <path id="Trazado_20897" data-name="Trazado 20897" d="M322.345,305.5A109.745,109.745,0,1,1,212.6,195.758,109.742,109.742,0,0,1,322.345,305.5Z" fill="#1ea2a4"/>
        </g>
        <g id="Grupo_9110" data-name="Grupo 9110">
          <path id="Trazado_20898" data-name="Trazado 20898" d="M266.55,264.848H239.664v-10.48c0-5.294-3.384-9.59-7.567-9.59H193.1c-4.183,0-7.566,4.3-7.566,9.59v10.48H158.649c-5.615,0-10.169,5.768-10.169,12.887v75.6c0,7.121,4.554,12.891,10.169,12.891h107.9c5.616,0,10.168-5.77,10.168-12.891v-75.6C276.718,270.616,272.166,264.848,266.55,264.848ZM193.858,257.3c0-3.266,2.346-5.91,5.238-5.91H226.1c2.892,0,5.24,2.644,5.24,5.91v7.547H193.858Z" fill="#fff"/>
          <g id="Grupo_9109" data-name="Grupo 9109">
            <g id="Grupo_9108" data-name="Grupo 9108">
              <rect id="Rectángulo_2032" data-name="Rectángulo 2032" width="44.714" height="16.295" rx="4.694" transform="translate(225.096 289.969)" fill="#1ea2a4"/>
              <path id="Rectángulo_2033" data-name="Rectángulo 2033" d="M4.693,0H11.6A4.692,4.692,0,0,1,16.3,4.692v35.33A4.693,4.693,0,0,1,11.6,44.716H4.693A4.693,4.693,0,0,1,0,40.022V4.693A4.693,4.693,0,0,1,4.693,0Z" transform="translate(239.304 275.758)" fill="#1ea2a4"/>
            </g>
          </g>
        </g>
      </g>
      <g id="Grupo_9114" data-name="Grupo 9114">
        <path id="Trazado_20899" data-name="Trazado 20899" d="M147.246,210.932a45.281,45.281,0,1,1-45.28-45.283A45.282,45.282,0,0,1,147.246,210.932Z" fill="#e23637"/>
        <rect id="Rectángulo_2034" data-name="Rectángulo 2034" width="6.602" height="1.589" transform="translate(96.999 195.849) rotate(-40.93)" fill="#d2d1d1"/>
        <rect id="Rectángulo_2035" data-name="Rectángulo 2035" width="6.6" height="1.587" transform="translate(100.288 199.688) rotate(-40.929)" fill="#d2d1d1"/>
        <rect id="Rectángulo_2036" data-name="Rectángulo 2036" width="6.601" height="1.589" transform="translate(103.73 203.618) rotate(-40.927)" fill="#d2d1d1"/>
        <rect id="Rectángulo_2037" data-name="Rectángulo 2037" width="6.6" height="1.589" transform="translate(107.021 207.456) rotate(-40.943)" fill="#d2d1d1"/>
        <rect id="Rectángulo_2038" data-name="Rectángulo 2038" width="6.601" height="1.589" transform="translate(110.463 211.386) rotate(-40.93)" fill="#d2d1d1"/>
        <path id="Trazado_20900" data-name="Trazado 20900" d="M114.487,216.075c-1.557.367-3.116.705-4.684.993a58.845,58.845,0,0,1-9.46,1.073l10.911,12.582,13.157-11.411-4.12-4.75q-2.4.684-4.825,1.279l4.314-3.741-1.04-1.2-4.988,4.325Z" fill="#d2d1d1"/>
        <path id="Trazado_20901" data-name="Trazado 20901" d="M90.558,195.9l-7.217,6.26,27.367,31.553,3-2.6,2.214,2.555,7.63-1.653,8.954,10.325,0-.785-8.569-9.881,2.717-7.316L124.44,221.8l3-2.6-27.364-31.556L92.86,193.9l-5.581-6.431,5.842-5.071-2-2.3L77.138,192.23l2,2.3,5.844-5.066Zm35.455,23.2-15.2,13.185L84.773,202.257l15.2-13.184Z" fill="#d2d1d1"/>
        <g id="Grupo_9113" data-name="Grupo 9113">
          <g id="Grupo_9112" data-name="Grupo 9112">
            <path id="Trazado_20902" data-name="Trazado 20902" d="M124.716,216.7,107.983,231.21,80.616,199.656l16.736-14.514Zm-16.632,13.082,15.2-13.186L97.251,186.573l-15.2,13.184Z" fill="#fff"/>
          </g>
          <path id="Trazado_20903" data-name="Trazado 20903" d="M107.078,214.571a59.416,59.416,0,0,1-9.46,1.073l10.911,12.582,13.156-11.411-4.119-4.752C114.109,213.052,110.6,213.92,107.078,214.571Z" fill="#fff"/>
          <rect id="Rectángulo_2039" data-name="Rectángulo 2039" width="14.205" height="3.89" transform="translate(110.651 228.222) rotate(-40.921)" fill="#fff"/>
          <path id="Trazado_20904" data-name="Trazado 20904" d="M100.3,190.227l-4.987,4.324-1.043-1.2,4.987-4.325Z" fill="#fff"/>
          <rect id="Rectángulo_2040" data-name="Rectángulo 2040" width="6.6" height="1.588" transform="matrix(0.756, -0.655, 0.655, 0.756, 97.563, 197.189)" fill="#fff"/>
          <rect id="Rectángulo_2041" data-name="Rectángulo 2041" width="6.601" height="1.588" transform="matrix(0.756, -0.655, 0.655, 0.756, 101.006, 201.12)" fill="#fff"/>
          <rect id="Rectángulo_2042" data-name="Rectángulo 2042" width="6.6" height="1.589" transform="translate(104.296 204.957) rotate(-40.943)" fill="#fff"/>
          <rect id="Rectángulo_2043" data-name="Rectángulo 2043" width="6.601" height="1.588" transform="translate(107.738 208.888) rotate(-40.93)" fill="#fff"/>
          <rect id="Rectángulo_2044" data-name="Rectángulo 2044" width="6.602" height="1.588" transform="matrix(0.755, -0.655, 0.655, 0.755, 111.028, 212.729)" fill="#fff"/>
          <path id="Trazado_20905" data-name="Trazado 20905" d="M121.116,229.448l-7.917,1.713,10.735-9.306Z" fill="#fff"/>
          <path id="Trazado_20906" data-name="Trazado 20906" d="M129.786,239.05l0,.785-9.1-10.49.391-.338Z" fill="#fff"/>
          <rect id="Rectángulo_2045" data-name="Rectángulo 2045" width="3.047" height="10.547" transform="translate(81.255 185.813) rotate(-40.932)" fill="#fff"/>
          <rect id="Rectángulo_2046" data-name="Rectángulo 2046" width="18.516" height="3.047" transform="translate(74.411 189.728) rotate(-40.924)" fill="#fff"/>
        </g>
      </g>
      <g id="Grupo_9128" data-name="Grupo 9128">
        <path id="Trazado_20907" data-name="Trazado 20907" d="M360.132,208.182a49.542,49.542,0,1,1-49.543-49.542A49.542,49.542,0,0,1,360.132,208.182Z" fill="#6874b5"/>
        <path id="Trazado_20908" data-name="Trazado 20908" d="M328,187.7H326.94v-2.341h-3.346v-2.9h-2.215v-5.524h-.833v5.524h-2.218v2.9h-9.25V187.7h-9.937v16.744h-3.657v40.445h36.172V204.446H328Z" fill="#d2d1d1"/>
        <g id="Grupo_9127" data-name="Grupo 9127">
          <g id="Grupo_9125" data-name="Grupo 9125">
            <rect id="Rectángulo_2047" data-name="Rectángulo 2047" width="0.832" height="7.373" transform="translate(317.565 174.208)" fill="#fff"/>
            <rect id="Rectángulo_2048" data-name="Rectángulo 2048" width="5.267" height="5.237" transform="translate(315.347 179.731)" fill="#fff"/>
            <g id="Grupo_9123" data-name="Grupo 9123">
              <rect id="Rectángulo_2049" data-name="Rectángulo 2049" width="28.862" height="16.744" transform="translate(296.16 184.969)" fill="#fff"/>
              <g id="Grupo_9115" data-name="Grupo 9115">
                <rect id="Rectángulo_2050" data-name="Rectángulo 2050" width="4.723" height="4.722" transform="translate(298.474 186.975)" fill="#6874b5"/>
              </g>
              <g id="Grupo_9116" data-name="Grupo 9116">
                <rect id="Rectángulo_2051" data-name="Rectángulo 2051" width="4.726" height="4.722" transform="translate(304.976 186.975)" fill="#6874b5"/>
              </g>
              <g id="Grupo_9117" data-name="Grupo 9117">
                <rect id="Rectángulo_2052" data-name="Rectángulo 2052" width="4.723" height="4.722" transform="translate(311.48 186.975)" fill="#6874b5"/>
              </g>
              <g id="Grupo_9118" data-name="Grupo 9118">
                <rect id="Rectángulo_2053" data-name="Rectángulo 2053" width="4.729" height="4.722" transform="translate(317.981 186.975)" fill="#6874b5"/>
              </g>
              <g id="Grupo_9119" data-name="Grupo 9119">
                <rect id="Rectángulo_2054" data-name="Rectángulo 2054" width="4.723" height="4.727" transform="translate(298.474 194.976)" fill="#6874b5"/>
              </g>
              <g id="Grupo_9120" data-name="Grupo 9120">
                <rect id="Rectángulo_2055" data-name="Rectángulo 2055" width="4.726" height="4.727" transform="translate(304.976 194.976)" fill="#6874b5"/>
              </g>
              <g id="Grupo_9121" data-name="Grupo 9121">
                <rect id="Rectángulo_2056" data-name="Rectángulo 2056" width="4.723" height="4.727" transform="translate(311.48 194.976)" fill="#6874b5"/>
              </g>
              <g id="Grupo_9122" data-name="Grupo 9122">
                <rect id="Rectángulo_2057" data-name="Rectángulo 2057" width="4.729" height="4.727" transform="translate(317.981 194.976)" fill="#6874b5"/>
              </g>
            </g>
            <g id="Grupo_9124" data-name="Grupo 9124">
              <rect id="Rectángulo_2058" data-name="Rectángulo 2058" width="36.173" height="40.448" transform="translate(292.503 201.713)" fill="#fff"/>
              <rect id="Rectángulo_2059" data-name="Rectángulo 2059" width="6.257" height="6.255" transform="translate(295.734 205.154)" fill="#6874b5"/>
              <rect id="Rectángulo_2060" data-name="Rectángulo 2060" width="6.254" height="6.255" transform="translate(303.66 205.154)" fill="#6874b5"/>
              <rect id="Rectángulo_2061" data-name="Rectángulo 2061" width="6.254" height="6.255" transform="translate(311.582 205.154)" fill="#6874b5"/>
              <rect id="Rectángulo_2062" data-name="Rectángulo 2062" width="6.257" height="6.255" transform="translate(319.501 205.154)" fill="#6874b5"/>
              <rect id="Rectángulo_2063" data-name="Rectángulo 2063" width="6.257" height="6.254" transform="translate(295.734 214.431)" fill="#6874b5"/>
              <rect id="Rectángulo_2064" data-name="Rectángulo 2064" width="6.254" height="6.254" transform="translate(303.66 214.431)" fill="#6874b5"/>
              <rect id="Rectángulo_2065" data-name="Rectángulo 2065" width="6.254" height="6.254" transform="translate(311.582 214.431)" fill="#6874b5"/>
              <rect id="Rectángulo_2066" data-name="Rectángulo 2066" width="6.257" height="6.254" transform="translate(319.501 214.431)" fill="#6874b5"/>
              <rect id="Rectángulo_2067" data-name="Rectángulo 2067" width="6.257" height="6.258" transform="translate(295.734 223.706)" fill="#6874b5"/>
              <rect id="Rectángulo_2068" data-name="Rectángulo 2068" width="6.254" height="6.258" transform="translate(303.66 223.706)" fill="#6874b5"/>
              <rect id="Rectángulo_2069" data-name="Rectángulo 2069" width="8.236" height="9.28" transform="translate(306.473 232.881)" fill="#6874b5"/>
              <rect id="Rectángulo_2070" data-name="Rectángulo 2070" width="6.254" height="6.258" transform="translate(311.582 223.706)" fill="#6874b5"/>
              <rect id="Rectángulo_2071" data-name="Rectángulo 2071" width="6.257" height="6.258" transform="translate(319.501 223.706)" fill="#6874b5"/>
            </g>
            <rect id="Rectángulo_2072" data-name="Rectángulo 2072" width="17.862" height="2.34" transform="translate(306.097 182.629)" fill="#fff"/>
            <path id="Trazado_20909" data-name="Trazado 20909" d="M321.435,207.183a10.846,10.846,0,1,1-10.846-10.847A10.846,10.846,0,0,1,321.435,207.183Z" fill="#6874b5"/>
            <path id="Trazado_20910" data-name="Trazado 20910" d="M320.751,207.183a10.16,10.16,0,1,1-10.162-10.16A10.161,10.161,0,0,1,320.751,207.183Z" fill="#fff"/>
          </g>
          <g id="Grupo_9126" data-name="Grupo 9126">
            <rect id="Rectángulo_2073" data-name="Rectángulo 2073" width="4.07" height="12.613" transform="translate(308.554 200.878)" fill="#6874b5"/>
            <rect id="Rectángulo_2074" data-name="Rectángulo 2074" width="12.609" height="4.066" transform="translate(304.286 205.149)" fill="#6874b5"/>
          </g>
        </g>
      </g>
      <g id="Grupo_9129" data-name="Grupo 9129">
        <path id="Trazado_20911" data-name="Trazado 20911" d="M30.972,127.871A45.081,45.081,0,1,0,76.052,82.79,45.079,45.079,0,0,0,30.972,127.871Z" fill="#b5c52f"/>
        <path id="Trazado_20912" data-name="Trazado 20912" d="M103.924,134.244v-.8H83.465l-1.187,5.807a.785.785,0,0,1-.7.626.415.415,0,0,1-.071.007.787.787,0,0,1-.732-.5L74.49,123.756l-3.612,9.185a.777.777,0,0,1-.731.5H53.608v.8a5.279,5.279,0,0,0,5.279,5.281H69.6v10.708a5.282,5.282,0,0,0,5.281,5.28h7.775a5.278,5.278,0,0,0,5.281-5.28V139.525H98.644A5.28,5.28,0,0,0,103.924,134.244Z" fill="#d2d1d1"/>
        <path id="Trazado_20913" data-name="Trazado 20913" d="M73.745,121.334a.794.794,0,0,1,.732-.5h0a.792.792,0,0,1,.733.494l6.046,15.037.79-3.867a.79.79,0,0,1,.774-.632h21.1v-5.4a5.28,5.28,0,0,0-5.28-5.281H87.933V110.48a5.281,5.281,0,0,0-5.281-5.283H74.877A5.284,5.284,0,0,0,69.6,110.48v10.709H58.887a5.279,5.279,0,0,0-5.279,5.281v5.4h16Z" fill="#d2d1d1"/>
        <path id="Trazado_20914" data-name="Trazado 20914" d="M79.566,136.763a.791.791,0,0,1-.7.626c-.024,0-.048,0-.072,0a.782.782,0,0,1-.73-.493l-6.288-15.629-3.61,9.187a.785.785,0,0,1-.731.5H50.9v.8a5.279,5.279,0,0,0,5.28,5.281H66.883v10.709a5.279,5.279,0,0,0,5.28,5.279H79.94a5.275,5.275,0,0,0,5.279-5.279V137.037H95.931a5.278,5.278,0,0,0,5.279-5.281v-.8H80.753Z" fill="#fff"/>
        <path id="Trazado_20915" data-name="Trazado 20915" d="M71.032,118.849a.785.785,0,0,1,.732-.5h0a.787.787,0,0,1,.732.494l6.046,15.035.79-3.866a.787.787,0,0,1,.773-.63h21.1v-5.4a5.279,5.279,0,0,0-5.279-5.281H85.219V107.992a5.275,5.275,0,0,0-5.279-5.279H72.163a5.279,5.279,0,0,0-5.28,5.279V118.7H56.175a5.28,5.28,0,0,0-5.28,5.281v5.4h16Z" fill="#fff"/>
      </g>
      <g id="Grupo_9130" data-name="Grupo 9130">
        <path id="Trazado_20916" data-name="Trazado 20916" d="M298.841,119.949A45.119,45.119,0,1,0,343.96,74.83,45.116,45.116,0,0,0,298.841,119.949Z" fill="#00a2d1"/>
        <path id="Trazado_20917" data-name="Trazado 20917" d="M353.108,99.9a11.656,11.656,0,0,0-14.51-7.821l-1.861.557a11.655,11.655,0,0,0-7.822,14.506l11.33,37.837a11.656,11.656,0,0,0,14.506,7.824l1.865-.559a11.657,11.657,0,0,0,7.819-14.508Zm1.591,11.3c.267.888.021,1.749-.552,1.919s-1.249-.41-1.514-1.3-.021-1.749.552-1.92S354.434,110.306,354.7,111.194ZM341.356,94.4s7.671-3.586,11.463,9.081c0,0,2.221,5.1-.355,4.776s-.684-6.814-4.5-10.372c-1.968-1.838-2.66-2.58-6.088-1.754a1.015,1.015,0,0,1-1.6-.713C340.065,94.716,341.356,94.4,341.356,94.4Zm14.5,55.72-1.637.491c-5.425,1.624-11.21-1.7-12.923-7.425l-5.269-17.59,21.273-6.369,5.269,17.591C364.284,142.537,361.277,148.493,355.858,150.116Z" fill="#d2d1d1"/>
        <path id="Trazado_20918" data-name="Trazado 20918" d="M335.883,89.586l-1.862.557a11.656,11.656,0,0,0-7.821,14.509l11.33,37.835a11.653,11.653,0,0,0,14.506,7.822l1.864-.557a11.657,11.657,0,0,0,7.82-14.51L350.393,97.408A11.656,11.656,0,0,0,335.883,89.586Zm23.973,44.736c1.713,5.726-1.295,11.683-6.714,13.306l-1.636.488a10.541,10.541,0,0,1-12.923-7.421L333.314,123.1l21.273-6.37Zm-9.938-25c-.265-.89-.022-1.75.551-1.92s1.249.411,1.514,1.3.022,1.75-.551,1.919S350.183,110.213,349.918,109.324Zm-.17-3.558c-2.58-.321-.684-6.815-4.5-10.376-1.967-1.835-2.659-2.579-6.087-1.753a1.014,1.014,0,0,1-1.6-.712c-.21-.7,1.081-1.019,1.081-1.019s7.671-3.589,11.462,9.085C350.1,100.991,352.326,106.086,349.748,105.766Z" fill="#fff"/>
      </g>
      <g id="Grupo_9133" data-name="Grupo 9133">
        <circle id="Elipse_806" data-name="Elipse 806" cx="36.526" cy="36.526" r="36.526" transform="translate(288.593 332.794)" fill="#60babf"/>
        <path id="Trazado_20919" data-name="Trazado 20919" d="M333.268,349.123h-3.8a2.265,2.265,0,0,0-4.306,0h-3.8v1.041H310.392v44.947h33.853V350.164H333.268Z" fill="#d2d1d1"/>
        <g id="Grupo_9132" data-name="Grupo 9132">
          <rect id="Rectángulo_2075" data-name="Rectángulo 2075" width="33.854" height="44.947" transform="translate(308.193 348.148)" fill="#fff"/>
          <path id="Trazado_20920" data-name="Trazado 20920" d="M340.152,390.58H310.086V350.664h22.638l7.427,7.428Z" fill="#60babf"/>
          <path id="Trazado_20921" data-name="Trazado 20921" d="M327.272,347.107a2.265,2.265,0,0,0-4.306,0h-3.8v5.274h11.9v-5.274Z" fill="#fff"/>
          <path id="Trazado_20922" data-name="Trazado 20922" d="M326.132,347.824a1.013,1.013,0,1,1-1.013-1.013A1.013,1.013,0,0,1,326.132,347.824Z" fill="#60babf"/>
          <rect id="Rectángulo_2076" data-name="Rectángulo 2076" width="24.634" height="0.644" transform="translate(312.802 356.849)" fill="#fff"/>
          <rect id="Rectángulo_2077" data-name="Rectángulo 2077" width="24.634" height="0.646" transform="translate(312.802 357.77)" fill="#fff"/>
          <rect id="Rectángulo_2078" data-name="Rectángulo 2078" width="24.634" height="0.646" transform="translate(312.802 358.69)" fill="#fff"/>
          <rect id="Rectángulo_2079" data-name="Rectángulo 2079" width="24.634" height="0.646" transform="translate(312.802 376.44)" fill="#fff"/>
          <rect id="Rectángulo_2080" data-name="Rectángulo 2080" width="24.634" height="0.646" transform="translate(312.802 377.361)" fill="#fff"/>
          <rect id="Rectángulo_2081" data-name="Rectángulo 2081" width="24.634" height="0.646" transform="translate(312.802 378.282)" fill="#fff"/>
          <rect id="Rectángulo_2082" data-name="Rectángulo 2082" width="24.634" height="0.646" transform="translate(312.802 379.355)" fill="#fff"/>
          <rect id="Rectángulo_2083" data-name="Rectángulo 2083" width="24.634" height="0.646" transform="translate(312.802 380.276)" fill="#fff"/>
          <rect id="Rectángulo_2084" data-name="Rectángulo 2084" width="24.634" height="0.646" transform="translate(312.802 381.197)" fill="#fff"/>
          <rect id="Rectángulo_2085" data-name="Rectángulo 2085" width="24.634" height="0.646" transform="translate(312.802 382.271)" fill="#fff"/>
          <rect id="Rectángulo_2086" data-name="Rectángulo 2086" width="24.634" height="0.646" transform="translate(312.802 383.191)" fill="#fff"/>
          <rect id="Rectángulo_2087" data-name="Rectángulo 2087" width="24.634" height="0.646" transform="translate(312.802 384.112)" fill="#fff"/>
          <rect id="Rectángulo_2088" data-name="Rectángulo 2088" width="24.634" height="0.645" transform="translate(312.802 385.185)" fill="#fff"/>
          <rect id="Rectángulo_2089" data-name="Rectángulo 2089" width="24.634" height="0.644" transform="translate(312.802 386.106)" fill="#fff"/>
          <rect id="Rectángulo_2090" data-name="Rectángulo 2090" width="24.634" height="0.646" transform="translate(312.802 387.027)" fill="#fff"/>
          <rect id="Rectángulo_2091" data-name="Rectángulo 2091" width="24.634" height="0.646" transform="translate(312.802 365.918)" fill="#fff"/>
          <rect id="Rectángulo_2092" data-name="Rectángulo 2092" width="24.634" height="0.646" transform="translate(312.802 366.839)" fill="#fff"/>
          <rect id="Rectángulo_2093" data-name="Rectángulo 2093" width="10.467" height="0.649" transform="translate(312.802 367.76)" fill="#fff"/>
          <path id="Trazado_20923" data-name="Trazado 20923" d="M340.152,358.092h-7.427v-7.428Z" fill="#60babf" stroke="#fff" stroke-miterlimit="10" stroke-width="0.824"/>
          <rect id="Rectángulo_2094" data-name="Rectángulo 2094" width="2.267" height="2.752" transform="translate(314.199 360.67)" fill="#60babf" stroke="#fff" stroke-miterlimit="10" stroke-width="0.55"/>
          <rect id="Rectángulo_2095" data-name="Rectángulo 2095" width="2.267" height="2.752" transform="translate(318.988 360.67)" fill="#60babf" stroke="#fff" stroke-miterlimit="10" stroke-width="0.55"/>
          <rect id="Rectángulo_2096" data-name="Rectángulo 2096" width="2.269" height="2.752" transform="translate(323.777 360.67)" fill="#60babf" stroke="#fff" stroke-miterlimit="10" stroke-width="0.55"/>
          <rect id="Rectángulo_2097" data-name="Rectángulo 2097" width="2.267" height="2.752" transform="translate(328.569 360.67)" fill="#fff"/>
          <g id="Grupo_9131" data-name="Grupo 9131">
            <rect id="Rectángulo_2098" data-name="Rectángulo 2098" width="2.265" height="2.754" transform="translate(321.592 371.598)" fill="#60babf" stroke="#fff" stroke-miterlimit="10" stroke-width="0.55"/>
            <rect id="Rectángulo_2099" data-name="Rectángulo 2099" width="2.267" height="2.754" transform="translate(326.379 371.598)" fill="#fff"/>
          </g>
          <rect id="Rectángulo_2100" data-name="Rectángulo 2100" width="2.267" height="2.752" transform="translate(333.358 360.67)" fill="#60babf" stroke="#fff" stroke-miterlimit="10" stroke-width="0.55"/>
        </g>
      </g>
      <g id="Grupo_9136" data-name="Grupo 9136">
        <path id="Trazado_20924" data-name="Trazado 20924" d="M136.419,373.8A41.15,41.15,0,1,1,95.27,332.646,41.148,41.148,0,0,1,136.419,373.8Z" fill="#2ea691"/>
        <path id="Trazado_20925" data-name="Trazado 20925" d="M99.5,378.1l-1.009-8.87c3.132.006,6.08-.99,10.194-2.656a3.163,3.163,0,0,0,1.855-3.875,2.66,2.66,0,0,0-3.556-1.127c-4.028,1.476-6.541,2.262-9.412,1.921a5.721,5.721,0,0,0-10.952,2.89l1.729,15.2a5.738,5.738,0,0,0,6.348,5.053,5.654,5.654,0,0,0,2.367-.843c7.514,1.764,10.494,4.835,16.5,12.075,1.439,1.858,3.715,2.673,5.261,1.579s1.649-3.987.021-6.22C112.227,384.761,108.245,380.613,99.5,378.1Z" fill="#d2d1d1"/>
        <path id="Trazado_20926" data-name="Trazado 20926" d="M85.313,352.908a6.342,6.342,0,1,0,6.341-6.341A6.343,6.343,0,0,0,85.313,352.908Z" fill="#d2d1d1"/>
        <path id="Trazado_20927" data-name="Trazado 20927" d="M93.18,401.542a13.681,13.681,0,0,1-7.591-25.066,37.535,37.535,0,0,0-.839-4.194,17.708,17.708,0,1,0,23.78,24.392,10.048,10.048,0,0,0-2.6-3.887A13.7,13.7,0,0,1,93.18,401.542Z" fill="#d2d1d1"/>
        <g id="Grupo_9135" data-name="Grupo 9135">
          <path id="Trazado_20928" data-name="Trazado 20928" d="M97.267,378.017a5.734,5.734,0,0,1-5.052,6.347h0a5.736,5.736,0,0,1-6.348-5.052l-1.729-15.2a5.737,5.737,0,0,1,5.052-6.347h0a5.738,5.738,0,0,1,6.349,5.052Z" fill="#fff"/>
          <path id="Trazado_20929" data-name="Trazado 20929" d="M116.368,390.957c1.628,2.232,1.521,5.134-.022,6.222h0c-1.545,1.091-3.821.276-5.26-1.579-6.57-7.92-9.5-10.859-18.726-12.541a4.2,4.2,0,0,1-3.129-4.8h0a3.974,3.974,0,0,1,5.127-3.12C105.042,377.576,109.113,381.673,116.368,390.957Z" fill="#fff"/>
          <path id="Trazado_20930" data-name="Trazado 20930" d="M106.2,364.3a3.159,3.159,0,0,0,1.855-3.871h0a2.658,2.658,0,0,0-3.556-1.13c-6.227,2.282-8.827,2.93-14.737.277a2.447,2.447,0,0,0-3.275,1.722h0a3.306,3.306,0,0,0,2.07,3.994C95.553,368.066,99.166,367.157,106.2,364.3Z" fill="#fff"/>
          <path id="Trazado_20931" data-name="Trazado 20931" d="M95.521,350.638a6.342,6.342,0,1,1-6.343-6.341A6.345,6.345,0,0,1,95.521,350.638Z" fill="#fff"/>
          <g id="Grupo_9134" data-name="Grupo 9134">
            <path id="Trazado_20932" data-name="Trazado 20932" d="M103.456,390.517A13.679,13.679,0,1,1,83.113,374.2a37.825,37.825,0,0,0-.84-4.192A17.708,17.708,0,1,0,106.054,394.4,10.065,10.065,0,0,0,103.456,390.517Z" fill="#fff"/>
          </g>
        </g>
      </g>
    </g>
  </g>
</svg>
