<svg xmlns="http://www.w3.org/2000/svg" width="355.621" height="412.948" viewBox="0 0 355.621 412.948">
  <g id="Grupo_8901" data-name="Grupo 8901" transform="translate(-1117.43 -1535.647)">
    <circle id="Elipse_805" data-name="Elipse 805" cx="177.81" cy="177.81" r="177.81" transform="translate(1117.43 1535.647)" fill="#58595b"/>
    <g id="Grupo_8892" data-name="Grupo 8892" transform="translate(1168.997 1713.458)">
      <path id="Trazado_20556" data-name="Trazado 20556" d="M1175.494,1657.044s11.331-11,15.719-18.31,0-17.112,0-17.112l-27.894,26.354Z" transform="translate(-1109.395 -1601.795)" fill="#ff8b52"/>
      <path id="Trazado_20557" data-name="Trazado 20557" d="M1221.469,1721.021c-2.589,4.6-9.407,14.878-9.407,14.878l-10.7-21.823-.922-50.723s25-21.719,28.735-32.456-2.349-17.9-2.349-17.9-32.56,33.064-57.391,51.466c-4.216,3.126-5.149,10.344-8.287,19.287-4.811,2.156-11.556,6.2-11.556,15.806-7.816,6.727-6.273,14.4-5.9,28.055.26,9.549.814,46.026.386,59.971-.446,14.508-3.14,33.836-4.218,60.235l48.509.318c-1.446-20.878,1.481-51.461,1.68-54.049.414-5.3,18.627-13.151,25.722-26.142s31.654-61.718,36.443-65.55c-1.9-4.062-6.763-9.315-16.758-2.31C1230.781,1703.36,1225.71,1713.493,1221.469,1721.021Z" transform="translate(-1139.862 -1612.997)" fill="#ffb67e"/>
      <path id="Trazado_20558" data-name="Trazado 20558" d="M1182.81,1658.178l-24.209-5.127a21.657,21.657,0,0,0-1.961,22.535c1.508,3.227,12.117,26.142,12.88,34.167.913,9.579-7.014,20.392-7.014,20.392s12.524-10.239,11.949-20.583-8.105-38.544-8.105-38.544l18.314-4.568Z" transform="translate(-1121.01 -1560.973)" fill="#ff8b52"/>
      <path id="Trazado_20559" data-name="Trazado 20559" d="M1176.553,1655.919l-17.879-6.041,17.62-8.129Z" transform="translate(-1115.429 -1575.653)" fill="#ff8b52"/>
      <path id="Trazado_20560" data-name="Trazado 20560" d="M1183.757,1636.361a32.162,32.162,0,0,0-11.593-1.644c-5.7.455-15.655,7.211-15.655,7.211s4.545-8.214,11.3-9.685A18.871,18.871,0,0,1,1183.757,1636.361Z" transform="translate(-1118.24 -1588.537)" fill="#ff8b52"/>
      <path id="Trazado_20561" data-name="Trazado 20561" d="M1146.246,1691.321s11.862.488,15.183-.179a10.716,10.716,0,0,1,6.23.777,21.12,21.12,0,0,1-6.828,2.129C1151.611,1695.105,1146.246,1691.321,1146.246,1691.321Z" transform="translate(-1131.57 -1511.73)" fill="#ff8b52"/>
      <path id="Trazado_20562" data-name="Trazado 20562" d="M1184.528,1613c2.6,2.89,2.641,5.517-.055,9.182a73.624,73.624,0,0,1-7.165,7.876,17.527,17.527,0,0,1-4.883-5.147A115.1,115.1,0,0,1,1184.528,1613Z" transform="translate(-1097.569 -1612.997)" fill="#ffd6ba"/>
    </g>
    <g id="Grupo_8899" data-name="Grupo 8899" transform="translate(1217.86 1668.239)">
      <g id="Grupo_8895" data-name="Grupo 8895" transform="translate(0 140.182)">
        <g id="Grupo_8894" data-name="Grupo 8894" transform="translate(7.701)">
          <rect id="Rectángulo_1983" data-name="Rectángulo 1983" width="1.399" height="23.004" transform="translate(37.645 8.252) rotate(101.383)" fill="#231f20"/>
          <rect id="Rectángulo_1984" data-name="Rectángulo 1984" width="1.399" height="23.004" transform="translate(36.718 12.857) rotate(101.383)" fill="#231f20"/>
          <g id="Grupo_8893" data-name="Grupo 8893">
            <path id="Trazado_20563" data-name="Trazado 20563" d="M1172.872,1658.927c.294-1.457,5.5-3.607,8.54-4.62l3.375.681c2.519,2.455,6.565,5.936,6.271,7.395l-1.412,6.956-18.135-3.653Z" transform="translate(-1155.32 -1654.307)" fill="#231f20"/>
            <path id="Trazado_20564" data-name="Trazado 20564" d="M1164.468,1760.892l3.77-18.729-1.175-.237c-.917-.184-1.421-1.515-1.126-2.975l16.02-79.582,15.54,3.129-16.137,79.558c-.294,1.458-1.276,2.492-2.191,2.308l-1.248-.253-3.772,18.728Z" transform="translate(-1164.468 -1647.73)" fill="#fff"/>
          </g>
        </g>
        <rect id="Rectángulo_1985" data-name="Rectángulo 1985" width="83.585" height="1.967" transform="translate(33.83 13.381) rotate(101.383)" fill="#e6e7e8"/>
        <rect id="Rectángulo_1986" data-name="Rectángulo 1986" width="2.65" height="25.052" rx="0.448" transform="translate(25.082 115.311) rotate(101.383)" fill="#fff"/>
      </g>
      <g id="Grupo_8898" data-name="Grupo 8898" transform="translate(9.449)">
        <path id="Trazado_20565" data-name="Trazado 20565" d="M1169.506,1665.89l-1-1.207c7.05-.118,24.756,4.761,24.756,4.761l-.239,1.179Z" transform="translate(-1160.972 -1500.651)" fill="#fff"/>
        <g id="Grupo_8896" data-name="Grupo 8896" transform="translate(12.506 74.241)">
          <path id="Trazado_20566" data-name="Trazado 20566" d="M1183.91,1629.707c.294-1.458,7.17-3.272,11.2-4.085l4.6.929c3.574,2.669,9.282,6.483,8.988,7.943l-13.432,65.936-24.607-4.953Z" transform="translate(-1170.669 -1625.622)" fill="#00aeef" opacity="0.46"/>
        </g>
        <path id="Trazado_20567" data-name="Trazado 20567" d="M1168.319,1716.332c.391.018.8.046,1.216.076a2.788,2.788,0,0,1,.044-.361l17.383-86.34c.294-1.458,7.17-3.272,11.2-4.085l4.6.929c3.575,2.669,9.282,6.483,8.988,7.943l-17.62,86.5a2.95,2.95,0,0,1-.1.352c.4.133.782.264,1.149.4Z" transform="translate(-1161.215 -1551.381)" fill="#fff" opacity="0.46"/>
        <path id="Trazado_20568" data-name="Trazado 20568" d="M1195.545,1721.853l.094-.276a1.676,1.676,0,0,0,.067-.232l17.606-86.425c-.308-1.018-4.432-4.021-6.662-5.641-.621-.453-1.225-.892-1.784-1.305l-4.211-.849c-5.542,1.131-9.749,2.639-10.3,3.375l-17.37,86.275a1.487,1.487,0,0,0-.028.237l-.018.29-6.54-1.315a27.781,27.781,0,0,1,4.834-.032l17.292-85.89c.159-.789.853-1.7,4.83-2.993a67.312,67.312,0,0,1,7.11-1.827l.186-.039,5,1.007.17.126c.6.446,1.255.924,1.933,1.418,5.409,3.936,7.745,5.829,7.413,7.467l-17.531,86.048a27.711,27.711,0,0,1,4.446,1.9Z" transform="translate(-1163.703 -1551.922)" fill="#fff"/>
        <path id="Trazado_20569" data-name="Trazado 20569" d="M1186.814,1629.448Z" transform="translate(-1137.194 -1546.411)" fill="#fff"/>
        <path id="Trazado_20570" data-name="Trazado 20570" d="M1176.816,1627.519" transform="translate(-1150.179 -1548.917)" fill="#fff"/>
        <rect id="Rectángulo_1987" data-name="Rectángulo 1987" width="21.049" height="5.902" transform="translate(46.17 55.303) rotate(101.383)" fill="#fff"/>
        <path id="Trazado_20571" data-name="Trazado 20571" d="M1184.562,1649.365l11.283-56.039-1.23,2.041-10.84,53.84Z" transform="translate(-1141.141 -1593.326)" fill="#e6e6e6"/>
        <path id="Trazado_20572" data-name="Trazado 20572" d="M1180.462,1636.458l2.214.446,3.209-15.94,1.151.232,1.438-7.143.915.184.416-2.066,3.011.606-.416,2.067.915.184-1.438,7.143,1.151.232-3.209,15.94,2.214.446-.273,1.358-11.571-2.33Z" transform="translate(-1145.798 -1568.852)" fill="#00aeef" opacity="0.75"/>
        <g id="Grupo_8897" data-name="Grupo 8897" transform="translate(14.067 78.226)">
          <rect id="Rectángulo_1988" data-name="Rectángulo 1988" width="0.47" height="6.782" transform="translate(12.836 0.461) rotate(-78.617)" fill="#231f20"/>
          <rect id="Rectángulo_1989" data-name="Rectángulo 1989" width="0.47" height="6.782" transform="translate(12.836 0.461) rotate(-78.617)" fill="#231f20"/>
          <rect id="Rectángulo_1990" data-name="Rectángulo 1990" width="0.47" height="2.637" transform="translate(12.314 3.058) rotate(-78.617)" fill="#231f20"/>
          <rect id="Rectángulo_1991" data-name="Rectángulo 1991" width="0.47" height="2.637" transform="translate(11.802 5.596) rotate(-78.617)" fill="#231f20"/>
          <rect id="Rectángulo_1992" data-name="Rectángulo 1992" width="0.47" height="2.637" transform="translate(11.291 8.135) rotate(-78.617)" fill="#231f20"/>
          <rect id="Rectángulo_1993" data-name="Rectángulo 1993" width="0.47" height="2.637" transform="translate(10.78 10.674) rotate(-78.617)" fill="#231f20"/>
          <rect id="Rectángulo_1994" data-name="Rectángulo 1994" width="0.47" height="6.782" transform="translate(10.269 13.212) rotate(-78.617)" fill="#231f20"/>
          <rect id="Rectángulo_1995" data-name="Rectángulo 1995" width="0.47" height="6.782" transform="translate(10.269 13.212) rotate(-78.617)" fill="#231f20"/>
          <rect id="Rectángulo_1996" data-name="Rectángulo 1996" width="0.47" height="2.637" transform="translate(9.746 15.81) rotate(-78.617)" fill="#231f20"/>
          <rect id="Rectángulo_1997" data-name="Rectángulo 1997" width="0.47" height="2.637" transform="translate(9.235 18.348) rotate(-78.617)" fill="#231f20"/>
          <rect id="Rectángulo_1998" data-name="Rectángulo 1998" width="0.47" height="2.637" transform="translate(8.724 20.887) rotate(-78.617)" fill="#231f20"/>
          <rect id="Rectángulo_1999" data-name="Rectángulo 1999" width="0.47" height="2.637" transform="translate(8.213 23.425) rotate(-78.617)" fill="#231f20"/>
          <rect id="Rectángulo_2000" data-name="Rectángulo 2000" width="0.47" height="6.782" transform="translate(7.702 25.964) rotate(-78.617)" fill="#231f20"/>
          <rect id="Rectángulo_2001" data-name="Rectángulo 2001" width="0.47" height="6.782" transform="translate(7.702 25.964) rotate(-78.617)" fill="#231f20"/>
          <rect id="Rectángulo_2002" data-name="Rectángulo 2002" width="0.47" height="2.637" transform="translate(7.179 28.561) rotate(-78.617)" fill="#231f20"/>
          <rect id="Rectángulo_2003" data-name="Rectángulo 2003" width="0.47" height="2.637" transform="translate(6.668 31.1) rotate(-78.617)" fill="#231f20"/>
          <rect id="Rectángulo_2004" data-name="Rectángulo 2004" width="0.47" height="2.637" transform="translate(6.157 33.639) rotate(-78.617)" fill="#231f20"/>
          <rect id="Rectángulo_2005" data-name="Rectángulo 2005" width="0.47" height="2.637" transform="translate(5.645 36.177) rotate(-78.617)" fill="#231f20"/>
          <rect id="Rectángulo_2006" data-name="Rectángulo 2006" width="0.47" height="6.782" transform="translate(5.135 38.715) rotate(-78.617)" fill="#231f20"/>
          <rect id="Rectángulo_2007" data-name="Rectángulo 2007" width="0.47" height="6.782" transform="translate(5.135 38.715) rotate(-78.617)" fill="#231f20"/>
          <rect id="Rectángulo_2008" data-name="Rectángulo 2008" width="0.47" height="2.637" transform="translate(4.611 41.313) rotate(-78.617)" fill="#231f20"/>
          <rect id="Rectángulo_2009" data-name="Rectángulo 2009" width="0.47" height="2.637" transform="translate(4.101 43.852) rotate(-78.617)" fill="#231f20"/>
          <rect id="Rectángulo_2010" data-name="Rectángulo 2010" width="0.47" height="2.637" transform="translate(3.589 46.39) rotate(-78.617)" fill="#231f20"/>
          <rect id="Rectángulo_2011" data-name="Rectángulo 2011" width="0.47" height="2.637" transform="translate(3.078 48.929) rotate(-78.617)" fill="#231f20"/>
          <rect id="Rectángulo_2012" data-name="Rectángulo 2012" width="0.47" height="6.782" transform="translate(2.567 51.467) rotate(-78.617)" fill="#231f20"/>
          <rect id="Rectángulo_2013" data-name="Rectángulo 2013" width="0.47" height="6.782" transform="translate(2.567 51.467) rotate(-78.617)" fill="#231f20"/>
          <rect id="Rectángulo_2014" data-name="Rectángulo 2014" width="0.47" height="2.637" transform="translate(2.044 54.065) rotate(-78.617)" fill="#231f20"/>
          <rect id="Rectángulo_2015" data-name="Rectángulo 2015" width="0.47" height="2.637" transform="translate(1.533 56.603) rotate(-78.617)" fill="#231f20"/>
          <rect id="Rectángulo_2016" data-name="Rectángulo 2016" width="0.47" height="2.637" transform="translate(1.022 59.142) rotate(-78.617)" fill="#231f20"/>
          <rect id="Rectángulo_2017" data-name="Rectángulo 2017" width="0.47" height="2.637" transform="translate(0.511 61.68) rotate(-78.617)" fill="#231f20"/>
          <rect id="Rectángulo_2018" data-name="Rectángulo 2018" width="0.47" height="6.782" transform="translate(0 64.219) rotate(-78.617)" fill="#231f20"/>
        </g>
        <path id="Trazado_20573" data-name="Trazado 20573" d="M1205.823,1673.746h0a1.326,1.326,0,0,0-1.036-1.561l-37.974-7.646a1.328,1.328,0,0,0-1.559,1.037h0a1.328,1.328,0,0,0,1.037,1.561l37.974,7.646A1.329,1.329,0,0,0,1205.823,1673.746Z" transform="translate(-1165.228 -1500.868)" fill="#fff"/>
      </g>
    </g>
    <path id="Trazado_20574" data-name="Trazado 20574" d="M1168.807,1645.324c-5.391.858-10.763,1.724-16.08,2.862l8.018,14.9s23.825,5.163,33.045,6.517c11.735,1.72,16.379-9.161,16.379-9.161s-16.507-6.36-19.827-7.2C1188.326,1652.73,1175.174,1647.848,1168.807,1645.324Z" transform="translate(45.844 142.447)" fill="#ffb67e"/>
    <path id="Trazado_20575" data-name="Trazado 20575" d="M1202.025,1641.034c-8-4.032-23.388-11.556-30-6.926-3.016,2.112-14.979,19.07-19.8,26,7.793-1.609,15.691-2.7,23.6-4.05l4.683-4.131s16.475,6.3,29.445,8.333c14.321,2.244,17.623-8.68,17.623-8.68S1210.02,1645.068,1202.025,1641.034Z" transform="translate(45.193 125.986)" fill="#ffb67e"/>
    <path id="Trazado_20576" data-name="Trazado 20576" d="M1187.482,1655.06c-1.289,3.662-3.577,4.963-8.083,4.354a52.272,52.272,0,0,1-9.2-2.319,22.082,22.082,0,0,1,2.366-7.673C1177.324,1651.493,1185.873,1654.286,1187.482,1655.06Z" transform="translate(68.531 147.77)" fill="#ffd6ba"/>
    <path id="Trazado_20577" data-name="Trazado 20577" d="M1194.773,1644.019c-1.292,3.664-3.579,4.963-8.085,4.354a52.219,52.219,0,0,1-9.2-2.319,22.068,22.068,0,0,1,2.363-7.673C1184.612,1640.451,1193.161,1643.244,1194.773,1644.019Z" transform="translate(78.001 133.428)" fill="#ffd6ba"/>
    <g id="Grupo_8900" data-name="Grupo 8900" transform="translate(1273.364 1570.732)">
      <path id="Trazado_20578" data-name="Trazado 20578" d="M1205.637,1601.791s6.225,20.912,8.085,28.965S1217,1640.4,1217,1640.4a13.471,13.471,0,0,0,6.186-14.381c-1.924-9.947-3.4-27.47-3.4-27.47l13.533-23.682S1205.637,1586.086,1205.637,1601.791Z" transform="translate(-1158.801 -1519.792)" fill="#f77833"/>
      <path id="Trazado_20579" data-name="Trazado 20579" d="M1211.018,1600.053s8.979,19.889,11.906,27.617,4.547,9.115,4.547,9.115a13.467,13.467,0,0,0,4.2-15.08c-3.244-9.6-7.06-26.765-7.06-26.765l10.225-25.284S1208.907,1584.492,1211.018,1600.053Z" transform="translate(-1151.971 -1526.561)" fill="#f77833"/>
      <path id="Trazado_20580" data-name="Trazado 20580" d="M1207.46,1580.914s-6.837,18.945-6.5,27.471,3.218,33.627,3.218,33.627,5.172,2.841,8.013-7.577,3.788-35.6,3.788-35.6l15.961-21.7Z" transform="translate(-1164.886 -1516.839)" fill="#ff8b52"/>
      <path id="Trazado_20581" data-name="Trazado 20581" d="M1379.867,1553.409c-14.7-1.765-26.2-3.915-36.468-1.241-15.485,4.035-41.587,12.361-62.044,18.769a81.635,81.635,0,0,0-23.038,12.225c-10.912,8.416-21.877,15.236-40.583,29.648-15.425,11.882-32.47,34.7-32.47,34.7s9.281,6.9,19.526-2.936c10.1-9.7,53.785-36.217,70.079-38.425,2.706-.368,10.91,4.777,10.91,4.777s-10.025,23.979-14,33.68c-8.241,20.11-.092,24.524,2.947,26.268,7.124,4.092,9.091-12.363,12.922-18.781,6.041-10.131,15.11-20.666,43.536-33.167,10.244-4.506,22.163-21.937,32.107-25.726,2.271-.864,11.689-1.232,16.577-1.368Z" transform="translate(-1185.263 -1550.909)" fill="#ffb67e"/>
      <path id="Trazado_20582" data-name="Trazado 20582" d="M1185.263,1598.934s3.616.772,7.5-3.483l3.885-4.255-2.97-2.834s-2.745,3.152-4.561,5.315C1188.068,1594.925,1185.263,1598.934,1185.263,1598.934Z" transform="translate(-1185.263 -1502.266)" fill="#ffd6ba"/>
      <path id="Trazado_20583" data-name="Trazado 20583" d="M1203.135,1612.791s3.133-2.085,2.811-7.839-.54-5.3-.54-5.3l-3.648.535s.365,3.963.657,7.041C1202.569,1608.848,1203.135,1612.791,1203.135,1612.791Z" transform="translate(-1163.839 -1487.618)" fill="#ffb67e"/>
      <path id="Trazado_20584" data-name="Trazado 20584" d="M1212.6,1610.1s2.2-2.253.745-7.395c-.873-3.081-1.354-4.5-1.354-4.5l-2.975.894s.851,3.536,1.632,6.294A18.435,18.435,0,0,0,1212.6,1610.1Z" transform="translate(-1154.417 -1489.487)" fill="#ff8b52"/>
      <path id="Trazado_20585" data-name="Trazado 20585" d="M1220.926,1605.348s1.832-2.561-.391-7.421c-1.333-2.913-1.936-4.067-1.936-4.067l-2.657,1.276s1.145,3.25,2.338,5.86A18.37,18.37,0,0,0,1220.926,1605.348Z" transform="translate(-1145.416 -1495.124)" fill="#ff8b52"/>
      <path id="Trazado_20586" data-name="Trazado 20586" d="M1228.026,1612.262c-3.864-.232-5.646-6.232-4.064-10.694a48.716,48.716,0,0,1,2.591-6.3s5.446,2.212,8.05,4.66C1233.373,1603.9,1230.578,1612.416,1228.026,1612.262Z" transform="translate(-1135.748 -1493.3)" fill="#ffd6ba"/>
      <path id="Trazado_20587" data-name="Trazado 20587" d="M1207.046,1577.982s1.1,3.283,1.487,4.124a28.548,28.548,0,0,0,3.034,3.956,5.59,5.59,0,0,0-.359-4.416C1209.377,1578.147,1207.046,1577.982,1207.046,1577.982Z" transform="translate(-1156.971 -1515.747)" fill="#ff8b52"/>
      <path id="Trazado_20588" data-name="Trazado 20588" d="M1197.045,1585.478a15.468,15.468,0,0,0,.917,2.618,22.734,22.734,0,0,0,2.936,2.823s-.352-1.246-1.234-3.5A3.279,3.279,0,0,0,1197.045,1585.478Z" transform="translate(-1169.96 -1506.012)" fill="#ff8b52"/>
    </g>
    <path id="Trazado_20589" data-name="Trazado 20589" d="M1193.13,1603.946a27.49,27.49,0,0,1-2.694-7.135,27.494,27.494,0,0,1-2.694,7.135c-1.526,2.331-.722,5.871,2.694,5.871S1194.657,1606.277,1193.13,1603.946Z" transform="translate(90.36 79.439)" fill="#ff0038"/>
    <path id="Trazado_20590" data-name="Trazado 20590" d="M1193.831,1593.938c0,.818-1.527,2.386-3.409,2.386s-3.409-1.568-3.409-2.386,1.526-.58,3.409-.58S1193.831,1593.119,1193.831,1593.938Z" transform="translate(90.374 74.913)" fill="#ff0038"/>
  </g>
</svg>
