<svg xmlns="http://www.w3.org/2000/svg" width="340.561" height="12.612" viewBox="0 0 340.561 12.612">
  <g id="Grupo_9036" data-name="Grupo 9036" transform="translate(1381.129 -975.954)">
    <g id="Grupo_9035" data-name="Grupo 9035" transform="translate(-108 -44)">
      <path id="Trazado_20754" data-name="Trazado 20754" d="M5874.484,3578.074l-5.959,12.612h15.188l5.959-12.612Z" transform="translate(-7061.802 -2558.12)" fill="#272425"/>
      <path id="Trazado_20755" data-name="Trazado 20755" d="M6555.525,3578.074l-5.96,12.612h15.189l5.959-12.612Z" transform="translate(-7636.371 -2558.12)" fill="#272425"/>
      <path id="Trazado_20756" data-name="Trazado 20756" d="M6725.785,3578.074l-5.959,12.612h15.188l5.959-12.612Z" transform="translate(-7780.014 -2558.12)" fill="#272425"/>
      <path id="Trazado_20757" data-name="Trazado 20757" d="M7066.306,3578.074l-5.959,12.612h15.188l5.959-12.612Z" transform="translate(-8067.299 -2558.12)" fill="#272425"/>
      <path id="Trazado_20758" data-name="Trazado 20758" d="M6896.045,3578.074l-5.959,12.612h15.188l5.959-12.612Z" transform="translate(-7923.656 -2558.12)" fill="#272425"/>
      <path id="Trazado_20759" data-name="Trazado 20759" d="M7236.565,3578.074l-5.959,12.612h15.188l5.959-12.612Z" transform="translate(-8210.941 -2558.12)" fill="#272425"/>
      <path id="Trazado_20760" data-name="Trazado 20760" d="M7406.826,3578.074l-5.96,12.612h15.188l5.96-12.612Z" transform="translate(-8354.583 -2558.12)" fill="#272425"/>
      <path id="Trazado_20761" data-name="Trazado 20761" d="M5533.965,3578.074l-5.959,12.612h15.188l5.959-12.612Z" transform="translate(-6774.518 -2558.12)" fill="#272425"/>
      <path id="Trazado_20762" data-name="Trazado 20762" d="M6385.266,3578.074l-5.959,12.612h15.188l5.959-12.612Z" transform="translate(-7492.729 -2558.12)" fill="#272425"/>
      <path id="Trazado_20763" data-name="Trazado 20763" d="M5704.225,3578.074l-5.959,12.612h15.188l5.959-12.612Z" transform="translate(-6918.16 -2558.12)" fill="#272425"/>
      <path id="Trazado_20764" data-name="Trazado 20764" d="M5363.7,3578.074l-5.959,12.612h15.188l5.959-12.612Z" transform="translate(-6630.875 -2558.12)" fill="#272425"/>
      <path id="Trazado_20765" data-name="Trazado 20765" d="M6044.744,3578.074l-5.959,12.612h15.189l5.958-12.612Z" transform="translate(-7205.444 -2558.12)" fill="#272425"/>
      <path id="Trazado_20766" data-name="Trazado 20766" d="M6215,3578.074l-5.959,12.612h15.188l5.959-12.612Z" transform="translate(-7349.086 -2558.12)" fill="#272425"/>
    </g>
  </g>
</svg>
