<svg xmlns="http://www.w3.org/2000/svg" width="544" height="316.065" viewBox="0 0 544 316.065">
  <g id="Grupo_7819" data-name="Grupo 7819" transform="translate(-3511.898 -2667.254)">
    <g id="Grupo_7798" data-name="Grupo 7798" transform="translate(3529.537 2667.254)">
      <path id="Trazado_16914" data-name="Trazado 16914" d="M3605.412,3012.981s-39.782-74.623,6.658-100.758,174.77-10.233,167.653-97.428,137.62-150.671,202.649-40.855c48.428,81.78,46.942,137.22,96.508,138.284s24.413,100.46-18.494,101.427S3605.412,3012.981,3605.412,3012.981Z" transform="translate(-3579.796 -2698.553)" fill="#e9e6f1"/>
      <path id="Trazado_16915" data-name="Trazado 16915" d="M3678.366,3330.725s-31.271-37.565,14.7-60.585,105.027,26.9,152.806-28.267,88.71-37.56,109.673-5.425,44.442,11.184,89.06,3.569,100.643,83.311,43.645,90.708Z" transform="translate(-3630.557 -3016.117)" fill="#d8d5e3"/>
      <g id="Grupo_7792" data-name="Grupo 7792" transform="translate(100.76 74.11)">
        <g id="Grupo_7789" data-name="Grupo 7789" transform="translate(1.276 1.277)">
          <path id="Trazado_16916" data-name="Trazado 16916" d="M3894.457,2902.609a21.657,21.657,0,1,1-21.656-21.656A21.656,21.656,0,0,1,3894.457,2902.609Z" transform="translate(-3851.143 -2880.953)" fill="#e8e7f3"/>
        </g>
        <g id="Grupo_7791" data-name="Grupo 7791">
          <g id="Grupo_7790" data-name="Grupo 7790">
            <path id="Trazado_16917" data-name="Trazado 16917" d="M3870.458,2923.2a22.933,22.933,0,1,1,22.933-22.933A22.959,22.959,0,0,1,3870.458,2923.2Zm0-43.313a20.38,20.38,0,1,0,20.38,20.38A20.4,20.4,0,0,0,3870.458,2879.887Z" transform="translate(-3847.525 -2877.334)" fill="#d5d2e3"/>
          </g>
        </g>
        <rect id="Rectángulo_1561" data-name="Rectángulo 1561" width="3.783" height="2.032" transform="translate(3.674 21.695)" fill="#9d93c4"/>
        <rect id="Rectángulo_1562" data-name="Rectángulo 1562" width="3.783" height="2.033" transform="translate(38.725 21.917)" fill="#9d93c4"/>
        <rect id="Rectángulo_1563" data-name="Rectángulo 1563" width="2.033" height="3.783" transform="translate(21.917 38.35)" fill="#9d93c4"/>
        <rect id="Rectángulo_1564" data-name="Rectángulo 1564" width="2.033" height="3.782" transform="translate(21.917 3.45)" fill="#9d93c4"/>
        <path id="Trazado_16918" data-name="Trazado 16918" d="M3910.854,2940.9a2.012,2.012,0,1,1-2.011-2.012A2.011,2.011,0,0,1,3910.854,2940.9Z" transform="translate(-3885.909 -2917.175)" fill="#9d93c4"/>
        <rect id="Rectángulo_1565" data-name="Rectángulo 1565" width="2.033" height="15.033" transform="translate(21.917 7.9)" fill="#9d93c4"/>
        <rect id="Rectángulo_1566" data-name="Rectángulo 1566" width="12.746" height="1.021" transform="translate(22.934 23.728)" fill="#9d93c4"/>
      </g>
      <g id="Grupo_7796" data-name="Grupo 7796" transform="translate(180.824)">
        <g id="Grupo_7793" data-name="Grupo 7793" transform="translate(0 85.491)">
          <path id="Trazado_16919" data-name="Trazado 16919" d="M4076.258,2912.262l-1.776-.515c.009-.031.229-.788.7-2.153l1.747.6C4076.476,2911.514,4076.26,2912.255,4076.258,2912.262Z" transform="translate(-4074.482 -2909.594)" fill="#9b93c4"/>
        </g>
        <g id="Grupo_7794" data-name="Grupo 7794" transform="translate(1.989)">
          <path id="Trazado_16920" data-name="Trazado 16920" d="M4332.219,2776.556c-.1-1.422-.232-2.892-.4-4.368l1.838-.205c.168,1.5.3,3,.4,4.446Zm-.863-8c-.208-1.432-.445-2.889-.708-4.33l1.82-.333c.267,1.463.509,2.943.72,4.4Zm-1.42-7.915c-.3-1.419-.64-2.855-1-4.27l1.792-.454c.363,1.436.7,2.9,1.013,4.336Zm-1.946-7.8c-.4-1.4-.831-2.813-1.281-4.192l1.759-.573c.456,1.4.894,2.833,1.3,4.258Zm-246.148-2.913-1.723-.672c.525-1.344,1.1-2.73,1.7-4.121l1.7.736C4082.921,2747.248,4082.358,2748.614,4081.842,2749.935Zm243.683-4.733c-.5-1.375-1.022-2.752-1.564-4.093l1.715-.692c.551,1.362,1.085,2.761,1.589,4.157Zm-240.506-2.66-1.676-.783c.621-1.329,1.277-2.675,1.95-4l1.65.837C4086.279,2739.9,4085.632,2741.232,4085.019,2742.543Zm237.52-4.794c-.591-1.338-1.213-2.673-1.848-3.969l1.661-.813c.646,1.318,1.277,2.675,1.878,4.034Zm-233.9-2.393-1.627-.88c.7-1.3,1.435-2.6,2.176-3.878l1.6.93C4090.058,2732.786,4089.335,2734.074,4088.641,2735.356Zm230.392-4.826c-.684-1.285-1.4-2.571-2.131-3.822l1.6-.933c.744,1.272,1.474,2.58,2.168,3.887Zm-226.364-2.139-1.574-.971c.774-1.255,1.58-2.515,2.393-3.746l1.543,1.019C4094.228,2725.909,4093.433,2727.153,4092.669,2728.391Zm222.339-4.8c-.776-1.229-1.587-2.457-2.411-3.649l1.521-1.051c.839,1.213,1.664,2.462,2.454,3.713Zm-217.92-1.922-1.516-1.06c.849-1.212,1.725-2.424,2.607-3.6l1.48,1.109C4098.79,2719.281,4097.924,2720.476,4097.087,2721.671Zm213.386-4.689c-.871-1.17-1.773-2.332-2.683-3.453l1.436-1.165c.926,1.141,1.845,2.323,2.731,3.514Zm-208.584-1.759-1.449-1.148c.918-1.16,1.867-2.317,2.817-3.438l1.411,1.2C4103.73,2712.939,4102.8,2714.079,4101.889,2715.224Zm203.556-4.483c-.954-1.094-1.943-2.183-2.941-3.234l1.342-1.273c1.015,1.07,2.022,2.178,2.994,3.292Zm-198.376-1.662-1.377-1.235c.986-1.1,2-2.2,3.025-3.258l1.333,1.281C4109.043,2706.916,4108.04,2708,4107.068,2709.08Zm192.882-4.171c-1.035-1.017-2.105-2.025-3.182-3l1.24-1.373c1.1.989,2.185,2.016,3.239,3.05Zm-187.332-1.635-1.3-1.32c1.054-1.034,2.14-2.063,3.228-3.058l1.248,1.365C4114.726,2701.241,4113.656,2702.255,4112.618,2703.274Zm181.4-3.756c-1.106-.931-2.251-1.855-3.4-2.747l1.132-1.462c1.171.907,2.335,1.847,3.46,2.794Zm-175.494-1.678-1.207-1.4c1.118-.961,2.27-1.916,3.423-2.837l1.154,1.445C4120.763,2695.953,4119.629,2696.893,4118.529,2697.84Zm169.174-3.251c-1.169-.844-2.378-1.681-3.595-2.488l1.022-1.542c1.236.821,2.467,1.672,3.656,2.531Zm-162.918-1.775-1.108-1.48c1.183-.886,2.4-1.76,3.608-2.6l1.053,1.521C4127.145,2691.081,4125.95,2691.942,4124.785,2692.814Zm156.253-2.679c-1.23-.76-2.5-1.51-3.763-2.228l.911-1.609c1.288.73,2.575,1.491,3.824,2.264Zm-149.67-1.907-1-1.553c1.24-.8,2.512-1.589,3.779-2.342l.944,1.59C4133.84,2686.665,4132.588,2687.44,4131.369,2688.229Zm142.708-2.071c-1.275-.672-2.59-1.335-3.907-1.971l.8-1.666c1.337.645,2.671,1.318,3.966,2Zm-135.824-2.047-.894-1.619c1.292-.713,2.616-1.409,3.934-2.073l.831,1.653C4140.826,2682.725,4139.524,2683.411,4138.252,2684.112Zm128.608-1.461c-1.316-.589-2.67-1.168-4.025-1.72l.7-1.713c1.375.561,2.748,1.148,4.083,1.745Zm-121.455-2.164-.778-1.678c1.337-.62,2.706-1.223,4.067-1.793l.714,1.706C4148.069,2679.282,4146.723,2679.875,4145.406,2680.486Zm114.031-.889c-1.348-.509-2.734-1.007-4.122-1.481l.6-1.75c1.406.481,2.81.985,4.176,1.5Zm-106.643-2.23-.66-1.728c1.374-.525,2.78-1.032,4.18-1.508l.6,1.75C4155.532,2676.35,4154.147,2676.85,4152.794,2677.367Zm99.051-.389c-1.375-.432-2.788-.854-4.2-1.254l.5-1.78c1.428.4,2.858.832,4.25,1.269Zm-7.726-2.207c-1.4-.361-2.833-.711-4.26-1.039l.415-1.8c1.443.332,2.892.686,4.307,1.051Zm-83.739-.011-.542-1.768c1.407-.431,2.844-.843,4.271-1.224l.478,1.786C4163.181,2673.929,4161.766,2674.335,4160.38,2674.76Zm75.908-1.809c-1.414-.294-2.862-.576-4.306-.84l.332-1.819c1.458.266,2.922.551,4.351.848Zm-68.164-.286-.425-1.8c1.429-.337,2.89-.655,4.34-.945l.362,1.814C4170.972,2672.019,4169.533,2672.332,4168.125,2672.664Zm60.254-1.174c-1.422-.23-2.883-.451-4.34-.654l.255-1.832c1.471.2,2.945.426,4.382.659Zm-52.389-.421-.311-1.823c1.444-.246,2.92-.472,4.389-.673l.25,1.832C4178.87,2670.6,4177.414,2670.826,4175.99,2671.069Zm44.42-.7c-1.456-.175-2.924-.334-4.365-.472l.177-1.841c1.455.14,2.939.3,4.408.477Zm-36.469-.407-.2-1.838c1.458-.16,2.944-.3,4.418-.415l.145,1.844C4186.846,2669.663,4185.378,2669.8,4183.94,2669.959Zm28.461-.377c-1.462-.111-2.936-.2-4.38-.275l.092-1.847c1.46.073,2.95.166,4.427.277Zm-20.455-.27-.1-1.847c1.46-.077,2.953-.134,4.435-.168l.043,1.849C4194.862,2669.18,4193.389,2669.236,4191.946,2669.312Zm12.421-.147c-1.462-.04-2.937-.061-4.385-.061v-1.85c1.464,0,2.958.021,4.437.062Z" transform="translate(-4080.119 -2667.254)" fill="#9b93c4"/>
        </g>
        <g id="Grupo_7795" data-name="Grupo 7795" transform="translate(254.265 112.913)">
          <path id="Trazado_16921" data-name="Trazado 16921" d="M4797.107,2989.6l-1.849-.059c0-.008.023-.779-.011-2.165l1.849-.047C4797.132,2988.772,4797.107,2989.564,4797.107,2989.6Z" transform="translate(-4795.247 -2987.327)" fill="#9b93c4"/>
        </g>
      </g>
      <g id="Grupo_7797" data-name="Grupo 7797" transform="translate(0 136.185)">
        <path id="Trazado_16922" data-name="Trazado 16922" d="M3566.668,3202.323c-.023-.065-.561-1.624-1.279-4.331l1.788-.474c.7,2.633,1.233,4.183,1.239,4.2Zm-2.17-7.959c-.327-1.445-.63-2.921-.9-4.387l1.819-.334c.264,1.442.562,2.893.883,4.313Zm-1.511-8.07c-.22-1.483-.411-2.977-.565-4.444l1.839-.194c.152,1.44.339,2.91.555,4.366Zm-.889-8.165c-.1-1.5-.169-3.01-.2-4.479l1.849-.037c.029,1.44.094,2.917.194,4.391Zm1.655-8.177-1.849-.042c.034-1.512.111-3.021.226-4.485l1.844.145C3563.861,3167,3563.787,3168.474,3563.754,3169.952Zm.6-8.017-1.834-.238c.2-1.506.44-3,.726-4.442l1.814.36C3564.781,3159.018,3564.543,3160.471,3564.352,3161.935Zm1.521-7.871-1.789-.468c.385-1.47.825-2.922,1.31-4.316l1.747.607C3566.672,3151.237,3566.246,3152.642,3565.873,3154.064Zm2.578-7.564-1.7-.728c.6-1.395,1.257-2.764,1.963-4.071l1.628.878C3569.663,3143.838,3569.027,3145.156,3568.451,3146.5Zm3.734-7.039-1.554-1c.818-1.265,1.7-2.5,2.636-3.676l1.449,1.149C3573.822,3137.057,3572.971,3138.245,3572.185,3139.461Zm4.894-6.272-1.35-1.264c1.021-1.09,2.113-2.149,3.246-3.147l1.223,1.388C3579.109,3131.124,3578.06,3132.142,3577.079,3133.189Zm5.929-5.308-1.11-1.48c1.186-.89,2.44-1.747,3.728-2.545l.975,1.571C3585.36,3126.2,3584.152,3127.023,3583.008,3127.881Zm6.742-4.258-.865-1.635c1.3-.689,2.668-1.345,4.059-1.951l.738,1.7C3592.333,3122.32,3591.011,3122.956,3589.75,3123.623Zm7.313-3.243-.639-1.736c1.376-.506,2.81-.982,4.263-1.414l.527,1.773C3599.8,3119.423,3598.4,3119.887,3597.063,3120.38Zm7.676-2.334-.442-1.8c1.218-.3,2.481-.581,3.753-.834l.083-.013c.2-.021.4-.046.6-.073l.251,1.832q-.306.042-.615.076C3607.139,3117.484,3605.917,3117.756,3604.739,3118.046Zm8-1.741-.569-1.76a21.486,21.486,0,0,0,3.886-1.708l.905,1.613A23.328,23.328,0,0,1,3612.741,3116.305Zm7.413-3.96-1.122-1.471a32.078,32.078,0,0,0,3.233-2.849l1.31,1.305A33.888,33.888,0,0,1,3620.154,3112.345Zm5.963-5.815-1.421-1.184c.88-1.057,1.771-2.225,2.646-3.471l1.513,1.063C3627.952,3104.226,3627.031,3105.434,3626.117,3106.53Zm4.81-6.716-1.566-.983c.728-1.159,1.464-2.4,2.252-3.782l1.608.915C3632.42,3097.373,3631.669,3098.633,3630.927,3099.814Zm4.1-7.1-1.625-.885.9-1.655a12.619,12.619,0,0,0,.9-2.2l1.763.557a14.316,14.316,0,0,1-1.041,2.522Zm2.822-7.9-1.82-.325c.218-1.22.417-2.641.608-4.343l1.838.207C3638.276,3082.095,3638.071,3083.554,3637.846,3084.814Zm1-8.165-1.842-.172.113-1.208c.1-1.073.2-2.153.306-3.225l1.841.185c-.107,1.068-.206,2.142-.305,3.21Zm.831-8.074-1.834-.24c.221-1.693.461-3.151.736-4.455l1.81.381C3640.123,3065.518,3639.89,3066.929,3639.676,3068.575Zm1.647-7.77-1.746-.611a13.527,13.527,0,0,1,2.215-4.183l1.429,1.173A11.914,11.914,0,0,0,3641.323,3060.8Zm4.427-5.4-.561-1.763a7.505,7.505,0,0,1,2.246-.34l.008,1.849A5.683,5.683,0,0,0,3645.75,3055.4Z" transform="translate(-3561.9 -3053.298)" fill="#9b93c4"/>
      </g>
    </g>
    <g id="Grupo_7799" data-name="Grupo 7799" transform="translate(3640.274 2775.417)">
      <path id="Trazado_16923" data-name="Trazado 16923" d="M4005.919,3493.32s2.562-2.081,1.985,3.5c.2,2.173-.741,9.862,4.243,14.7,6.033,4.217-5.375,3.464-8.166-1.872a58.4,58.4,0,0,1-3.715-8.238l-2.869,4.539-2.365-1.089,2.17-10.33S3997.9,3487.189,4005.919,3493.32Z" transform="translate(-3952.973 -3308.489)" fill="#2f2a61"/>
      <path id="Trazado_16924" data-name="Trazado 16924" d="M4157.932,3491.508s.908-3.175,3.63,1.727c1.412,1.664,5.042,8.507,11.9,9.617,7.361,0-2.42,5.918-7.765,3.145a58.352,58.352,0,0,1-7.765-4.625l.249,5.364-2.563.463-4.139-9.71S4147.847,3491.076,4157.932,3491.508Z" transform="translate(-4053.817 -3308.243)" fill="#2f2a61"/>
      <path id="Trazado_16925" data-name="Trazado 16925" d="M4068.4,3002.851a7.676,7.676,0,0,0,2.408,6.174c-.095.111-.188.225-.277.345l-5.152,6.93c-1.578,2.123-1.564,4.806.032,5.992s4.168.426,5.747-1.7l5.151-6.931a6.3,6.3,0,0,0,.547-.881,8.914,8.914,0,0,1,1.325,1.072c4.554,2.91,14.884-6.831,14.884-6.831C4090.787,2982.865,4067.006,2997.917,4068.4,3002.851Z" transform="translate(-3997.742 -2986.689)" fill="#e5ab97"/>
      <path id="Trazado_16926" data-name="Trazado 16926" d="M4041.25,3254.313s15.372,8.193,15.373,15.036-40.073,69.553-44.388,72.691-4.439-2.577-4.439-2.577,13.871-38.672,23.056-54.884C4005.884,3259.61,4041.25,3254.313,4041.25,3254.313Z" transform="translate(-3961.234 -3155.378)" fill="#de917c"/>
      <path id="Trazado_16927" data-name="Trazado 16927" d="M4071.053,3256.747l22.5,83.471s-3.945,7.644-7.151,0-25.527-41.181-27.19-53.758h-8.074S4061.135,3257.116,4071.053,3256.747Z" transform="translate(-3989.284 -3156.954)" fill="#e5ab97"/>
      <path id="Trazado_16928" data-name="Trazado 16928" d="M3884.31,3145.946s-24.41,39.61,9.484,56.132c20.159,7.028,44.3,12.669,44.3,12.669l19.234-29.777s-23.124-11.837-38.842-18.31C3906.278,3157.228,3884.31,3145.946,3884.31,3145.946Z" transform="translate(-3875.806 -3085.24)" fill="#2f2a61"/>
      <path id="Trazado_16929" data-name="Trazado 16929" d="M3979.634,3045.99l-19.644-2.245c-2.029-24.564-22.524-17.606-22.524-17.606-32.551,11.1-37.483,32.058-45.374,44.733-3.206,9.765,33.4,25.506,36.209,23.616s16.131-17.426,28.752-32.221h22.581Z" transform="translate(-3886.218 -3007.109)" fill="#fff"/>
      <path id="Trazado_16930" data-name="Trazado 16930" d="M4077.584,2979.652c-4.174-5.312-22.39-14.926-43.641,15.053-8.475,13.155-.759,26.058,9.487,28.082s19.544-6.008,10.879-15.685c-4.856-6.2-4.61-14.247.138-18.38a2.588,2.588,0,1,1,4.45-2.285,14.16,14.16,0,0,1,3.534-.433c7.59,0,4.232,13.467,12.819,9.531C4080.495,2990.289,4081.758,2984.965,4077.584,2979.652Z" transform="translate(-3975.811 -2973.863)" fill="#2f2a61"/>
      <path id="Trazado_16931" data-name="Trazado 16931" d="M4017.928,3122.992l15.664.576s-5.083,75.7-7.959,82.055c-2.034,5.185-3.292,12.425-10.266,7.361-2.5-4.439,5.8-.754.347-6.025-.74-2.589,10.168-2.4,7.023-14.981s-7.023-25.625-.37-41.613A204.026,204.026,0,0,0,4017.928,3122.992Z" transform="translate(-3965.822 -3070.384)" fill="#e5ab97"/>
      <path id="Trazado_16932" data-name="Trazado 16932" d="M4140.611,3014.555s8.77,1.106,11.1.38c-.437-6.2-1.643-24.386-1.643-24.386s-7.157-5.691-4.943-6.251,1.883-4.652-.979-6,8.2-3.421,9.374,1.288a46.657,46.657,0,0,1,.986,10.687s8.173,30.056,8.421,35.677-22.316,4.65-22.316,4.65Z" transform="translate(-4047.195 -2975.673)" fill="#e5ab97"/>
    </g>
    <g id="Grupo_7804" data-name="Grupo 7804" transform="translate(3787.722 2723.021)">
      <g id="Grupo_7801" data-name="Grupo 7801" transform="translate(19.706 0.34)">
        <g id="Grupo_7800" data-name="Grupo 7800">
          <path id="Trazado_16933" data-name="Trazado 16933" d="M4440.562,2915.512l-89.455-81.3a4.781,4.781,0,0,1-.539-6.294,3.825,3.825,0,0,1,5.735-.593l89.454,81.3a4.59,4.59,0,0,1,1.458,3.026,4.743,4.743,0,0,1-.917,3.27,3.922,3.922,0,0,1-3.218,1.619A3.881,3.881,0,0,1,4440.562,2915.512Zm-88.787-86.495a2.942,2.942,0,0,0,.332,3.873l89.455,81.3a2.352,2.352,0,0,0,1.548.632,2.413,2.413,0,0,0,1.981-1,2.917,2.917,0,0,0,.565-2.012,2.823,2.823,0,0,0-.9-1.861l-89.455-81.3a2.352,2.352,0,0,0-1.548-.631A2.411,2.411,0,0,0,4351.775,2829.017Z" transform="translate(-4349.634 -2826.301)" fill="#403577"/>
        </g>
      </g>
      <path id="Trazado_16934" data-name="Trazado 16934" d="M4330.419,2905.149c.994,3.837,4.634,6.062,8.129,4.971s5.523-5.087,4.529-8.923-4.634-6.062-8.129-4.97S4329.425,2901.313,4330.419,2905.149Z" transform="translate(-4317.329 -2871.04)" fill="#eec162"/>
      <path id="Trazado_16935" data-name="Trazado 16935" d="M4307.732,2835.779a18.446,18.446,0,0,1,4.168-.791,6.343,6.343,0,0,1,.165-1.168l1.143-4.711c.63-2.6,2.768-4.237,4.775-3.651l3.13.914c2.007.586,3.122,3.17,2.491,5.773l-1.142,4.712c-.042.173-.092.342-.147.507a21.523,21.523,0,0,1,10.106,13.511,23.887,23.887,0,0,1,.222,11.059l-38.869-10.2C4295.415,2844.3,4300.55,2838.021,4307.732,2835.779Z" transform="translate(-4293.775 -2825.338)" fill="#2f2a61"/>
      <g id="Grupo_7803" data-name="Grupo 7803" transform="translate(108.348 81.977)">
        <g id="Grupo_7802" data-name="Grupo 7802">
          <path id="Trazado_16936" data-name="Trazado 16936" d="M4600.908,3229.018v-166.58a4.321,4.321,0,1,1,8.605,0v166.58a4.321,4.321,0,1,1-8.605,0Zm1.567-166.58v166.58a2.747,2.747,0,1,0,5.471,0v-166.58a2.747,2.747,0,1,0-5.471,0Z" transform="translate(-4600.908 -3057.717)" fill="#403577"/>
        </g>
      </g>
      <path id="Trazado_16937" data-name="Trazado 16937" d="M4574.666,3491.82c11.571,0,20.951,10.3,20.951,23h-41.9C4553.715,3502.117,4563.095,3491.82,4574.666,3491.82Z" transform="translate(-4462.016 -3256.704)" fill="#2f2a61"/>
      <path id="Trazado_16938" data-name="Trazado 16938" d="M4590.638,3055.951c-.946,4.731,1.781,9.408,6.091,10.447s8.571-1.955,9.517-6.686-1.78-9.407-6.09-10.446S4591.584,3051.22,4590.638,3055.951Z" transform="translate(-4485.792 -2970.137)" fill="#2f2a61"/>
    </g>
    <g id="Grupo_7806" data-name="Grupo 7806" transform="translate(3708.938 2834.601)">
      <g id="Grupo_7805" data-name="Grupo 7805" transform="translate(9.305)">
        <path id="Trazado_16939" data-name="Trazado 16939" d="M4703.083,3285.819a2.756,2.756,0,0,0,2.589,2.9h0a2.755,2.755,0,0,0,2.589-2.9v-141.29a2.755,2.755,0,0,0-2.589-2.9h0a2.756,2.756,0,0,0-2.589,2.9Z" transform="translate(-4489.211 -3141.633)" fill="#bbb4d7"/>
        <path id="Trazado_16940" data-name="Trazado 16940" d="M4096.822,3285.819a2.755,2.755,0,0,0,2.589,2.9h0a2.756,2.756,0,0,0,2.59-2.9v-141.29a2.756,2.756,0,0,0-2.59-2.9h0a2.755,2.755,0,0,0-2.589,2.9Z" transform="translate(-4096.822 -3141.633)" fill="#bbb4d7"/>
      </g>
      <path id="Trazado_16941" data-name="Trazado 16941" d="M4308.105,3143.253a1.643,1.643,0,0,1-1.665,1.62h-234.33a1.643,1.643,0,0,1-1.665-1.62h0a1.643,1.643,0,0,1,1.665-1.62h234.33a1.643,1.643,0,0,1,1.665,1.62Z" transform="translate(-4070.446 -3141.633)" fill="#9b93c4"/>
    </g>
    <g id="Grupo_7807" data-name="Grupo 7807" transform="translate(3602.749 2815.429)">
      <path id="Trazado_16942" data-name="Trazado 16942" d="M3808.024,3208.71a39.621,39.621,0,0,1-27.557-15.045c-12.2-15.926-8.8-38,7.386-50.084l-2.16-2.819c-17.843,13.2-21.624,37.448-8.231,54.927a43.4,43.4,0,0,0,30.562,16.5Z" transform="translate(-3769.434 -3121.897)" fill="#bbb4d7"/>
      <path id="Trazado_16943" data-name="Trazado 16943" d="M3812.146,3128.07a3.948,3.948,0,0,1-3.884,4.009h0a3.948,3.948,0,0,1-3.884-4.009v-36.777a3.948,3.948,0,0,1,3.884-4.009h0a3.948,3.948,0,0,1,3.884,4.009Z" transform="translate(-3792.051 -3087.285)" fill="#9b93c4"/>
      <path id="Trazado_16944" data-name="Trazado 16944" d="M3919.458,3410.891l-17.63-25.436V3335.7a1.665,1.665,0,1,0-3.329,0v50.028l-17.442,25.165c-.328.473.012,1.3.76,1.856s1.62.616,1.948.144l14.734-21.258v19.278a1.665,1.665,0,1,0,3.329,0v-19.549l14.923,21.529c.328.473,1.2.409,1.947-.144S3919.785,3411.364,3919.458,3410.891Z" transform="translate(-3841.598 -3246.953)" fill="#bbb4d7"/>
      <path id="Trazado_16945" data-name="Trazado 16945" d="M3912.29,3327.038a4.511,4.511,0,0,1-4.438,4.581h-46.607a4.512,4.512,0,0,1-4.439-4.581v-.382a4.512,4.512,0,0,1,4.439-4.581h46.607a4.512,4.512,0,0,1,4.438,4.581Z" transform="translate(-3825.983 -3239.248)" fill="#9b93c4"/>
    </g>
    <g id="Grupo_7810" data-name="Grupo 7810" transform="translate(3939.512 2863.823)">
      <g id="Grupo_7808" data-name="Grupo 7808" transform="translate(0 0)">
        <path id="Trazado_16946" data-name="Trazado 16946" d="M4894.441,3300.051a32.277,32.277,0,0,0-.659-7.083c-7.021-.2-12.323-.9-12.316-1.688.006-.756,4.92-1.349,11.543-1.467q-.127-.439-.267-.885a38.7,38.7,0,0,0-2.513-6.218c-5.573-.287-9.5-.9-9.5-1.577,0-.6,3.132-1.1,7.756-1.339-8.17-11.83-20.3-6.179-22.014.881-1.632-1.329-10.531-8.174-17.169-5.114-4.617,2.129-6.957,8.531-6.957,19.028v47.226h1.166v-47.226c0-10,2.112-16.046,6.277-17.967,5.7-2.63,13.755,3.238,15.728,4.787-3.631.443-17.555,3.083-7.7,16.932,3.355-4.968,6.149-8.306,6.75-7.931.639.4-1.4,4.857-4.729,10.527,1.025,1.218,2.216,2.512,3.59,3.885q.639.789,1.275,1.517c3.905-6.009,7.355-10.287,8.031-9.865.7.439-1.837,5.8-5.772,12.274a32.976,32.976,0,0,0,5.485,4.449c3.46-5.159,6.369-8.662,6.984-8.278s-1.219,4.459-4.281,9.758c9.747,4.49,17.6-1.18,19.058-11.653-5.42-.292-9.214-.9-9.209-1.561S4888.905,3300.245,4894.441,3300.051Z" transform="translate(-4800.618 -3255.846)" fill="#5b9ebc"/>
        <path id="Trazado_16947" data-name="Trazado 16947" d="M4724.062,3251.569a32.159,32.159,0,0,1,.659-7.083c7.021-.2,12.322-.9,12.316-1.689-.007-.755-4.92-1.349-11.543-1.466q.127-.439.266-.885a38.785,38.785,0,0,1,2.514-6.218c5.573-.287,9.5-.9,9.5-1.577,0-.6-3.132-1.1-7.756-1.339,8.17-11.83,20.3-6.179,22.014.881,1.632-1.329,10.531-8.175,17.169-5.114,4.616,2.129,6.957,8.531,6.957,19.028v47.225h-1.166v-47.225c0-10-2.112-16.046-6.277-17.968-5.7-2.629-13.756,3.238-15.728,4.787,3.631.443,17.554,3.083,7.7,16.932-3.355-4.967-6.149-8.306-6.75-7.931-.639.4,1.4,4.857,4.729,10.528-1.024,1.218-2.215,2.512-3.589,3.885q-.639.789-1.276,1.517c-3.905-6.01-7.354-10.287-8.031-9.865-.7.439,1.837,5.8,5.773,12.274a32.9,32.9,0,0,1-5.486,4.449c-3.459-5.159-6.369-8.661-6.983-8.278s1.219,4.458,4.281,9.758c-9.748,4.49-17.6-1.18-19.057-11.653,5.419-.292,9.213-.9,9.207-1.562S4729.6,3251.764,4724.062,3251.569Z" transform="translate(-4724.054 -3224.467)" fill="#82c5dd"/>
      </g>
      <g id="Grupo_7809" data-name="Grupo 7809" transform="translate(17.478 61.484)">
        <path id="Trazado_16948" data-name="Trazado 16948" d="M4773.6,3398.756v6.982h5.692l7.839,49.091H4821.6l6.786-49.091h5.692v-6.982Z" transform="translate(-4773.597 -3398.756)" fill="#eec164"/>
        <path id="Trazado_16949" data-name="Trazado 16949" d="M4789.733,3418.548l7.838,49.091h34.467l.35-2.528C4824.206,3455.073,4789.733,3418.548,4789.733,3418.548Z" transform="translate(-4784.041 -3411.566)" fill="#e19a53"/>
      </g>
    </g>
    <g id="Grupo_7811" data-name="Grupo 7811" transform="translate(3759.537 2909.424)">
      <path id="Trazado_16950" data-name="Trazado 16950" d="M4253.3,3360.627a13.608,13.608,0,0,0-1.636.1c-2.264-4.118-7.372-6.993-13.315-6.993-6.284,0-11.638,3.212-13.679,7.711-.292-.021-.586-.034-.884-.034-5.469,0-9.9,3.577-9.9,7.99s4.434,7.99,9.9,7.99c2.55,0,11.635-.156,14.563-.156,2.667,0,25.825,2.194,25.825-7.833C4264.172,3364.555,4259.3,3360.627,4253.3,3360.627Z" transform="translate(-4213.881 -3353.734)" fill="#e8e7f3"/>
      <path id="Trazado_16951" data-name="Trazado 16951" d="M4257.965,3458.768h-39.121l-4.964-53.8h49.35Z" transform="translate(-4213.88 -3386.892)" fill="#bcb5d7"/>
      <path id="Trazado_16952" data-name="Trazado 16952" d="M4220.047,3471.79h41.822l2.422-24.747h-46.527Z" transform="translate(-4216.393 -3414.126)" fill="#9d93c4"/>
    </g>
    <g id="Grupo_7814" data-name="Grupo 7814" transform="translate(3854.522 2773.969)">
      <g id="Grupo_7812" data-name="Grupo 7812" transform="translate(0 0)">
        <rect id="Rectángulo_1567" data-name="Rectángulo 1567" width="16.607" height="60.789" fill="#eec162"/>
        <rect id="Rectángulo_1568" data-name="Rectángulo 1568" width="11.28" height="47.941" transform="translate(2.664 2.82)" fill="#fff"/>
        <path id="Trazado_16953" data-name="Trazado 16953" d="M4504.616,3126a2.463,2.463,0,1,1-2.463-2.463A2.463,2.463,0,0,1,4504.616,3126Z" transform="translate(-4493.849 -3069.291)" fill="#3f3577"/>
      </g>
      <g id="Grupo_7813" data-name="Grupo 7813" transform="translate(16.607 0)">
        <rect id="Rectángulo_1569" data-name="Rectángulo 1569" width="16.607" height="60.789" fill="#d87f9b"/>
        <rect id="Rectángulo_1570" data-name="Rectángulo 1570" width="11.28" height="47.941" transform="translate(2.664 2.82)" fill="#fff"/>
        <path id="Trazado_16954" data-name="Trazado 16954" d="M4551.692,3126a2.463,2.463,0,1,1-2.463-2.463A2.464,2.464,0,0,1,4551.692,3126Z" transform="translate(-4540.925 -3069.291)" fill="#3f3577"/>
      </g>
    </g>
    <g id="Grupo_7817" data-name="Grupo 7817" transform="translate(3565.305 2932.419)">
      <g id="Grupo_7816" data-name="Grupo 7816" transform="translate(23.344 0)">
        <g id="Grupo_7815" data-name="Grupo 7815">
          <path id="Trazado_16955" data-name="Trazado 16955" d="M3744.66,3438.659h-10.654a4.549,4.549,0,0,1-4.544-4.544v-10.654a4.549,4.549,0,0,1,4.544-4.544h10.654a4.549,4.549,0,0,1,4.543,4.544v10.654A4.549,4.549,0,0,1,3744.66,3438.659Zm-10.654-18.174a2.98,2.98,0,0,0-2.977,2.977v10.654a2.98,2.98,0,0,0,2.977,2.977h10.654a2.979,2.979,0,0,0,2.976-2.977v-10.654a2.979,2.979,0,0,0-2.976-2.977Z" transform="translate(-3729.463 -3418.918)" fill="#3f3577"/>
        </g>
      </g>
      <rect id="Rectángulo_1571" data-name="Rectángulo 1571" width="66.429" height="42.286" transform="translate(0 6.543)" fill="#d87f9a"/>
      <rect id="Rectángulo_1572" data-name="Rectángulo 1572" width="8.46" height="42.286" transform="translate(66.429 6.543)" fill="#3f3577"/>
      <rect id="Rectángulo_1573" data-name="Rectángulo 1573" width="66.429" height="1.298" transform="translate(0 27.687)" fill="#fff"/>
      <rect id="Rectángulo_1574" data-name="Rectángulo 1574" width="12.951" height="5.849" transform="translate(26.738 25.411)" fill="#fff"/>
    </g>
    <g id="Grupo_7818" data-name="Grupo 7818" transform="translate(3717.271 2752.844)">
      <path id="Trazado_16956" data-name="Trazado 16956" d="M4141.1,3129.87a2.744,2.744,0,0,1-2.744,2.744h-41.546a2.744,2.744,0,0,1-2.744-2.744h0a2.743,2.743,0,0,1,2.744-2.743h41.546a2.744,2.744,0,0,1,2.744,2.743Z" transform="translate(-4094.068 -3050.487)" fill="#bbb4d7"/>
      <path id="Trazado_16957" data-name="Trazado 16957" d="M4236.662,2964.454a1.779,1.779,0,0,1-1.858,1.687h0a1.779,1.779,0,0,1-1.858-1.687v-52.891a1.779,1.779,0,0,1,1.858-1.687h0a1.779,1.779,0,0,1,1.858,1.687Z" transform="translate(-4183.954 -2909.875)" fill="#9b93c4"/>
      <path id="Trazado_16958" data-name="Trazado 16958" d="M4258.684,2991.862h-8.434a25.326,25.326,0,0,0-7.563-45.421q.057-1.584.058-3.224c0-11.357-2.128-21.012-5.1-24.553v49.106c2.436-2.907,4.306-9.937,4.9-18.646a22.712,22.712,0,0,1,2.237,42.737h-9.092a2.743,2.743,0,1,0,0,5.487h22.993a2.743,2.743,0,1,0,0-5.487Z" transform="translate(-4183.954 -2915.564)" fill="#bbb4d7"/>
    </g>
    <path id="Trazado_16959" data-name="Trazado 16959" d="M4357.879,3100.137h-11.836l-4.809-22.714h21.454Z" transform="translate(-536.77 -265.473)" fill="#82c5dd"/>
    <path id="Trazado_16960" data-name="Trazado 16960" d="M4071.842,3558.689c0,.534-1.52.967-3.394.967h-457.8c-1.875,0-3.394-.433-3.394-.967h0c0-.534,1.52-.967,3.394-.967h457.8c1.875,0,3.394.433,3.394.967Z" transform="translate(-61.715 -576.337)" fill="#9b93c4"/>
    <path id="Trazado_16961" data-name="Trazado 16961" d="M4882.284,3144.722v4.986s9.617,28.61,30.332,29.47S4888.754,3114.9,4882.284,3144.722Z" transform="translate(-886.953 -303.969)" fill="#e9e6f1"/>
    <path id="Trazado_16962" data-name="Trazado 16962" d="M4973.557,3558.675a.97.97,0,0,1-.97.97h-28.324a.97.97,0,0,1-.97-.97h0a.97.97,0,0,1,.97-.969h28.324a.97.97,0,0,1,.97.969Z" transform="translate(-926.441 -576.326)" fill="#9b93c4"/>
    <path id="Trazado_16963" data-name="Trazado 16963" d="M3542.161,3558.273a.969.969,0,0,1-.97.969h-28.323a.97.97,0,0,1-.97-.969h0a.97.97,0,0,1,.97-.97h28.323a.97.97,0,0,1,.97.97Z" transform="translate(0 -576.065)" fill="#9b93c4"/>
    <path id="Trazado_16964" data-name="Trazado 16964" d="M3880.177,3154.613s-23.412,38.152,17.34,57.461c0,0,20.024,12.488,21.811,22.044l6.46-29.084s-18.2-17.682-9.4-26.806l-1.624-23.615Z" transform="translate(-234.029 -315.433)" fill="#fff"/>
  </g>
</svg>
